<?xml version="1.0" encoding="UTF-8" standalone="no"?>
<svg width="285px" height="285px" viewBox="0 0 285 285" version="1.1" xmlns="http://www.w3.org/2000/svg" xmlns:xlink="http://www.w3.org/1999/xlink">
    <!-- Generator: Sketch 40.3 (33839) - http://www.bohemiancoding.com/sketch -->
    <title>Artboard</title>
    <desc>Created with Sketch.</desc>
    <defs></defs>
    <g id="Page-1" stroke="none" stroke-width="1" fill="none" fill-rule="evenodd">
        <g id="Artboard" fill="#FFFFFF">
            <g id="Logo-Only-Dark-Indigo">
                <path d="M133.13,285 C131.442241,285.000402 129.761558,284.781913 128.13,284.35 L38.67,260.35 C31.9564243,258.541383 26.7137395,253.294888 24.91,246.58 L0.91,157.14 C-0.887562948,150.433174 1.01683915,143.276431 5.91,138.35 L71.39,72.87 C76.315375,67.9749996 83.4731762,66.0703159 90.18,67.87 L97.18,69.76 C98.7555413,70.1815733 99.9864948,71.4116645 100.409172,72.98691 C100.83185,74.5621554 100.382036,76.243238 99.2291722,77.3969101 C98.0763082,78.5505821 96.3955413,79.0015735 94.82,78.58 L87.82,76.69 C84.2490368,75.7382072 80.4412678,76.7548815 77.82,79.36 L12.34,144.84 C9.72751397,147.457028 8.7097069,151.26904 9.67,154.84 L33.67,244.29 C34.6276055,247.850916 37.409084,250.632394 40.97,251.59 L130.43,275.59 C134.000948,276.558878 137.817262,275.539922 140.43,272.92 L212,201.3 C213.152182,200.147818 214.831523,199.69784 216.405432,200.119568 C217.979341,200.541296 219.208704,201.770659 219.630432,203.344568 C220.05216,204.918477 219.602182,206.597818 218.45,207.75 L146.89,279.32 C143.230618,282.951982 138.285804,284.993155 133.13,285 L133.13,285 Z" id="Shape"></path>
                <path d="M137.65,77.53 C136.781121,76.6998586 136.282176,75.5554514 136.265252,74.3538697 C136.248329,73.152288 136.714846,71.9942827 137.56,71.14 L137.56,71.14 C139.328651,69.3352944 142.22191,69.2951102 144.04,71.05 L144.04,71.05 C145.819556,72.84347 145.819556,75.73653 144.04,77.53 L144.04,77.53 C143.214853,78.4183422 142.052337,78.9160444 140.84,78.9 L140.84,78.9 C139.63088,78.9144645 138.472061,78.4167902 137.65,77.53 L137.65,77.53 Z M163.12,51.53 C161.387925,49.7172319 161.387925,46.8627681 163.12,45.05 L163.12,45.05 C164.888651,43.2452944 167.78191,43.2051102 169.6,44.96 L169.6,44.96 C171.379556,46.75347 171.379556,49.64653 169.6,51.44 L169.6,51.44 C168.730057,52.317349 167.545533,52.8106003 166.31,52.81 L166.31,52.81 C165.125872,52.778871 163.992915,52.320716 163.12,51.52 L163.12,51.53 Z" id="Shape"></path>
                <path d="M51.2,170.31 C49.3598402,170.314594 47.6972534,169.2127 46.9845328,167.516163 C46.2718123,165.819626 46.64865,163.860963 47.94,162.55 L79.94,129.95 C81.0814635,128.785314 82.7575719,128.318063 84.3369513,128.724257 C85.9163307,129.13045 87.1590358,130.348378 87.5969515,131.919257 C88.0348672,133.490136 87.6014637,135.175314 86.46,136.34 L54.46,168.94 C53.6038073,169.819455 52.4273928,170.313838 51.2,170.31 L51.2,170.31 Z M102.32,118.15 C100.47984,118.154594 98.8172534,117.0527 98.1045328,115.356163 C97.3918123,113.659626 97.76865,111.700963 99.06,110.39 L117.82,91.25 C118.961464,90.0853142 120.637572,89.6180637 122.216951,90.0242572 C123.79633,90.4304507 125.039035,91.6483778 125.476951,93.2192572 C125.914867,94.7901365 125.481464,96.4753142 124.34,97.64 L105.58,116.78 C104.724272,117.654095 103.553237,118.147731 102.33,118.15 L102.32,118.15 Z" id="Shape"></path>
                <path d="M208.41,81.19 C207.217361,81.1962563 206.069321,80.7370404 205.21,79.91 C204.335167,79.0590264 203.841634,77.8904462 203.841634,76.67 C203.841634,75.4495538 204.335167,74.2809736 205.21,73.43 L237.44,41.11 C239.252768,39.3779251 242.107232,39.3779251 243.92,41.11 C244.775945,41.9941817 245.265417,43.1696282 245.29,44.4 C245.263824,45.6035864 244.772869,46.7503414 243.92,47.6 L211.6,79.91 C210.743166,80.7346258 209.599184,81.1936528 208.41,81.19 L208.41,81.19 Z" id="Shape"></path>
                <path d="M257.71,27.69 C256.835036,26.8575519 256.339749,25.7026971 256.339749,24.495 C256.339749,23.2873029 256.835036,22.1324481 257.71,21.3 L257.71,21.3 C258.542448,20.4250358 259.697303,19.9297492 260.905,19.9297492 C262.112697,19.9297492 263.267552,20.4250358 264.1,21.3 L264.1,21.3 C264.974964,22.1324481 265.470251,23.2873029 265.470251,24.495 C265.470251,25.7026971 264.974964,26.8575519 264.1,27.69 L264.1,27.69 C263.274853,28.5783422 262.112337,29.0760444 260.9,29.06 L260.9,29.06 C259.69113,29.0732113 258.532798,28.5757458 257.71,27.69 L257.71,27.69 Z M277.07,8.34 C276.192029,7.48868282 275.696486,6.31793679 275.696486,5.095 C275.696486,3.87206321 276.192029,2.70131718 277.07,1.85 L277.07,1.85 C278.882768,0.117925095 281.737232,0.117925095 283.55,1.85 L283.55,1.85 C285.288454,3.66407797 285.288454,6.52592203 283.55,8.34 L283.55,8.34 C282.678797,9.21547446 281.49509,9.70838578 280.26,9.71 L280.26,9.71 C279.046379,9.72221626 277.884113,9.2209891 277.06,8.33 L277.07,8.34 Z" id="Shape"></path>
                <path d="M65.57,224 C63.7221726,224.004542 62.0542741,222.893483 61.3465263,221.186562 C60.6387785,219.479641 61.0311127,217.514339 62.34,216.21 L75.25,203.3 C77.0311183,201.518882 79.9188817,201.518882 81.7,203.3 C83.4811183,205.081118 83.4811183,207.968882 81.7,209.75 L68.8,222.7 C67.9382737,223.544436 66.7764409,224.012047 65.57,224 L65.57,224 Z M97.85,191.73 C96.0021726,191.734542 94.3342741,190.623483 93.6265263,188.916562 C92.9187785,187.209641 93.3111127,185.244339 94.62,183.94 L126.9,151.66 C128.681118,149.878882 131.568882,149.878882 133.35,151.66 C135.131118,153.441118 135.131118,156.328882 133.35,158.11 L101.07,190.39 C100.223872,191.261329 99.0644989,191.758203 97.85,191.77 L97.85,191.73 Z M155.95,133.63 C154.102173,133.634542 152.434274,132.523483 151.726526,130.816562 C151.018778,129.109641 151.411113,127.144339 152.72,125.84 L185,93.59 C186.781118,91.8088817 189.668882,91.8088817 191.45,93.59 C193.231118,95.3711183 193.231118,98.2588817 191.45,100.04 L159.17,132.32 C158.329532,133.16448 157.191354,133.645602 156,133.66 L155.95,133.63 Z" id="Shape"></path>
                <path d="M198.18,155.77 C196.447925,153.957232 196.447925,151.102768 198.18,149.29 L198.18,149.29 C199.994806,147.563015 202.845194,147.563015 204.66,149.29 L204.66,149.29 C206.392075,151.102768 206.392075,153.957232 204.66,155.77 L204.66,155.77 C203.818903,156.62942 202.672379,157.121814 201.47,157.14 L201.47,157.14 C200.234244,157.141716 199.049308,156.648293 198.18,155.77 L198.18,155.77 Z" id="Shape"></path>
                <path d="M119.41,239.14 C117.562173,239.144542 115.894274,238.033483 115.186526,236.326562 C114.478778,234.619641 114.871113,232.654339 116.18,231.35 L129.09,218.44 C130.871118,216.658882 133.758882,216.658882 135.54,218.44 C137.321118,220.221118 137.321118,223.108882 135.54,224.89 L122.63,237.8 C121.77726,238.656634 120.618713,239.138763 119.41,239.14 L119.41,239.14 Z M151.69,206.87 C149.842173,206.874542 148.174274,205.763483 147.466526,204.056562 C146.758778,202.349641 147.151113,200.384339 148.46,199.08 L180.74,166.8 C182.521118,165.018882 185.408882,165.018882 187.19,166.8 C188.971118,168.581118 188.971118,171.468882 187.19,173.25 L154.91,205.53 C154.05726,206.386634 152.898713,206.868763 151.69,206.87 L151.69,206.87 Z" id="Shape"></path>
            </g>
        </g>
    </g>
</svg>