<?xml version="1.0" encoding="UTF-8" standalone="no"?>
<svg
  width="512px"
  height="440px"
  class="logo">
  <g style="fill:none;fill-rule:evenodd;stroke:#000000;stroke-width:13.36052513;stroke-linecap:round;stroke-linejoin:miter;stroke-miterlimit:4;stroke-dasharray:none;stroke-opacity:1">
    <path d="M 158.2472,92.608638 134.55341,86.113771 7.4704171,213.00195 55.08484,386.59069 226.85486,432.5458 352.95097,305.45103" />
    <path d="M 63.623199,229.8314 84.445784,208.75979" />
    <path d="M 115.96097,176.87145 167.736,124.61391" />
    <path d="m 195.59319,97.923253 1.40695,-1.685744" />
    <path d="m 79.943589,288.97234 51.775031,-52.5385" />
    <path d="m 163.23381,204.12405 30.95245,-32.30976" />
    <path d="m 221.76206,143.99979 39.39409,-39.05268" />
    <path d="m 279.86833,85.420745 1.40698,-1.685731" />
    <path d="m 322.63896,43.277563 1.40697,-1.685732" />
    <path d="m 472.89912,39.344232 1.40696,-1.685743" />
    <path d="m 503.85154,8.4392199 1.40698,-1.6857441" />
    <path d="m 296.75143,139.92594 1.40696,-1.68574" />
    <path d="m 343.46154,242.75531 1.40696,-1.68573" />
    <path d="m 93.450066,345.72513 52.337794,-52.5385" />
    <path d="m 180.11695,258.62926 27.57586,-30.06219" />
    <path d="m 231.32923,205.24788 20.8226,-21.0716" />
    <path d="m 155.91774,356.96336 20.8226,-21.07161" />
    <path d="m 209.38114,375.5063 20.82258,-21.07159" />
    <path d="m 206.56725,306.39152 54.02611,-54.2242" />
    <path d="m 303.92682,208.0574 51.21227,-50.29087" />
    <path d="M 387.21707,126.0187 441.24322,72.918263" />
    <path d="m 262.84447,323.24878 52.33778,-54.22425" />
  </g>
</svg>
