<?xml version="1.0" encoding="UTF-8" standalone="no"?>
<svg
   xmlns:dc="http://purl.org/dc/elements/1.1/"
   xmlns:cc="http://creativecommons.org/ns#"
   xmlns:rdf="http://www.w3.org/1999/02/22-rdf-syntax-ns#"
   xmlns:svg="http://www.w3.org/2000/svg"
   xmlns="http://www.w3.org/2000/svg"
   xmlns:sodipodi="http://sodipodi.sourceforge.net/DTD/sodipodi-0.dtd"
   xmlns:inkscape="http://www.inkscape.org/namespaces/inkscape"
   inkscape:version="1.0 (4035a4fb49, 2020-05-01)"
   height="147.78"
   width="112.62"
   sodipodi:docname="anchor.svg"
   id="svg186"
   xml:space="preserve"
   viewBox="0 0 112.62 147.78"
   y="0px"
   x="0px"
   version="1.1"><metadata
   id="metadata192"><rdf:RDF><cc:Work
       rdf:about=""><dc:format>image/svg+xml</dc:format><dc:type
         rdf:resource="http://purl.org/dc/dcmitype/StillImage" /><dc:title></dc:title></cc:Work></rdf:RDF></metadata><defs
   id="defs190" /><sodipodi:namedview
   inkscape:current-layer="g179"
   inkscape:window-maximized="1"
   inkscape:window-y="-9"
   inkscape:window-x="-9"
   inkscape:cy="137.35"
   inkscape:cx="77.03"
   inkscape:zoom="1.4821429"
   fit-margin-bottom="0"
   fit-margin-right="0"
   fit-margin-left="0"
   fit-margin-top="0"
   showgrid="false"
   id="namedview188"
   inkscape:window-height="1001"
   inkscape:window-width="1920"
   inkscape:pageshadow="2"
   inkscape:pageopacity="0"
   guidetolerance="10"
   gridtolerance="10"
   objecttolerance="10"
   borderopacity="1"
   bordercolor="#666666"
   pagecolor="#ffffff" />
<style
   id="style2"
   type="text/css">
	.st0{fill:none;}
	.st1{fill:#A90000;}
	.st2{fill:#CC0000;}
	.st3{fill:#B10000;}
	.st4{fill:#A40000;}
	.st5{fill:#D80000;}
	.st6{fill:#840000;}
	.st7{fill:#B30000;}
	.st8{fill:#900000;}
	.st9{fill:#990000;}
	.st10{fill:#D50000;}
	.st11{fill:#C50000;}
	.st12{fill:#AA0000;}
	.st13{fill:#BA0000;}
	.st14{fill:#8D0000;}
	.st15{fill:#AF0000;}
	.st16{fill:#9B0000;}
	.st17{fill:#A30000;}
	.st18{fill:#B80000;}
	.st19{fill:#DA0000;}
	.st20{fill:#760000;}
	.st21{fill:#AB0000;}
	.st22{fill:#890000;}
	.st23{fill:#970000;}
	.st24{fill:#A00000;}
	.st25{fill:#D20000;}
	.st26{fill:#AE0000;}
	.st27{fill:#D10000;}
	.st28{fill:#DE0000;}
	.st29{fill:#C70000;}
</style>
<g
   transform="translate(-66.97,-142.65)"
   id="Layer_1">
	<path
   id="path4"
   d="M 229.99,98.44 H 58.01 c -6.6,0 -12,-5.4 -12,-12 V 56.07 c 0,-6.6 5.4,-12 12,-12 h 171.97 c 6.6,0 12,5.4 12,12 v 30.36 c 0.01,6.61 -5.39,12.01 -11.99,12.01 z"
   class="st0" />
</g>
<g
   transform="translate(-66.97,-142.65)"
   id="low_poly">
	<g
   id="g179">
		<polygon
   id="polygon7"
   points="154.88,153.64 142.75,166.92 150.07,169.03 "
   class="st1" />
		<polygon
   id="polygon9"
   points="146.9,179.18 143.57,189.83 136.4,187.76 "
   class="st2" />
		<polygon
   id="polygon11"
   points="108.02,263.83 114.19,260.63 108.62,278.91 "
   class="st3" />
		<g
   id="g91">
			<polygon
   id="polygon13"
   points="98.23,268.9 91.2,263.05 96.28,248.95 "
   class="st4" />
			<polygon
   id="polygon15"
   points="90.79,243.98 86.26,231.84 86.33,258.6 "
   class="st2" />
			<g
   id="g89">
				<polygon
   id="polygon17"
   points="158.22,142.95 150.15,142.65 154.88,153.64 "
   class="st5" />
				<polygon
   id="polygon19"
   points="142.53,145.87 150.15,142.65 154.88,153.64 "
   class="st6" />
				<polygon
   id="polygon21"
   points="154.88,153.64 138.55,152.5 142.53,145.87 "
   class="st7" />
				<polygon
   id="polygon23"
   points="138.55,152.5 138.53,160.28 154.88,153.64 "
   class="st7" />
				<polygon
   id="polygon25"
   points="138.53,160.28 142.75,166.92 154.88,153.64 "
   class="st8" />
				<polygon
   id="polygon27"
   points="150.07,169.03 142.75,166.92 146.9,179.18 "
   class="st9" />
				<polygon
   id="polygon29"
   points="142.75,166.92 139.62,177.18 146.9,179.18 "
   class="st10" />
				<polygon
   id="polygon31"
   points="126.7,173.45 108.76,168.27 112.71,180.92 "
   class="st11" />
				<polygon
   id="polygon33"
   points="112.71,180.92 126.7,173.45 123.48,184.03 "
   class="st10" />
				<polygon
   id="polygon35"
   points="123.48,184.03 133.17,186.83 126.7,173.45 "
   class="st12" />
				<polygon
   id="polygon37"
   points="139.62,177.18 146.9,179.18 136.4,187.76 "
   class="st13" />
				<polygon
   id="polygon39"
   points="126.7,173.45 133.17,186.83 139.62,177.18 "
   class="st14" />
				<polygon
   id="polygon41"
   points="139.62,177.18 133.17,186.83 136.4,187.76 "
   class="st15" />
				<polygon
   id="polygon43"
   points="143.57,189.83 138.87,204.9 136.4,187.76 "
   class="st13" />
				<polygon
   id="polygon45"
   points="136.4,187.76 128.09,211.98 138.87,204.9 "
   class="st10" />
				<polygon
   id="polygon47"
   points="138.87,204.9 132.35,225.74 128.09,211.98 "
   class="st16" />
				<polygon
   id="polygon49"
   points="128.09,211.98 124.19,223.38 132.35,225.74 "
   class="st17" />
				<polygon
   id="polygon51"
   points="132.35,225.74 127.64,240.84 124.19,223.38 "
   class="st18" />
				<polygon
   id="polygon53"
   points="127.64,240.84 114.44,245.73 122.28,231.06 "
   class="st13" />
				<polygon
   id="polygon55"
   points="127.64,240.84 124.19,223.38 122.28,231.06 "
   class="st19" />
				<polygon
   id="polygon57"
   points="127.64,240.84 122.85,256.15 114.44,245.73 "
   class="st15" />
				<polygon
   id="polygon59"
   points="122.85,256.15 109.69,249.78 114.44,245.73 "
   class="st16" />
				<polygon
   id="polygon61"
   points="109.69,249.78 98.23,268.9 122.85,256.15 "
   class="st12" />
				<polygon
   id="polygon63"
   points="112.14,290.42 108.62,278.91 117.4,274.44 "
   class="st20" />
				<polygon
   id="polygon65"
   points="122.85,256.15 114.19,260.63 117.4,274.44 "
   class="st21" />
				<polygon
   id="polygon67"
   points="98.23,268.9 108.02,263.83 108.62,278.91 "
   class="st22" />
				<polygon
   id="polygon69"
   points="114.19,260.63 117.4,274.44 108.62,278.91 "
   class="st23" />
				<polygon
   id="polygon71"
   points="109.69,249.78 103.46,251.02 98.23,268.9 "
   class="st24" />
				<polygon
   id="polygon73"
   points="103.46,251.02 96.28,248.95 98.23,268.9 "
   class="st1" />
				<polygon
   id="polygon75"
   points="90.79,243.98 86.33,258.6 96.28,248.95 "
   class="st25" />
				<polygon
   id="polygon77"
   points="86.33,258.6 91.2,263.05 96.28,248.95 "
   class="st26" />
				<polygon
   id="polygon79"
   points="86.33,258.6 79.27,247.09 86.26,231.84 "
   class="st21" />
				<polygon
   id="polygon81"
   points="79.27,247.09 86.26,231.84 74.82,229.56 "
   class="st27" />
				<polygon
   id="polygon83"
   points="86.26,231.84 87.53,204.62 74.82,229.56 "
   class="st15" />
				<polygon
   id="polygon85"
   points="87.53,204.62 86.39,229.17 94.3,232.47 "
   class="st28" />
				<polygon
   id="polygon87"
   points="88.1,204.28 77.06,225.76 66.97,225.17 "
   class="st29" />
			</g>
		</g>
		<g
   id="g177">
			<polygon
   id="polygon93"
   points="154.65,153.6 156.19,170.91 149.86,168.99 "
   class="st1" />
			<polygon
   id="polygon95"
   points="146.7,179.15 143.39,189.8 149.58,191.68 "
   class="st2" />
			<polygon
   id="polygon97"
   points="129.17,270.1 126.5,264.29 120.7,282.51 "
   class="st3" />
			<polygon
   id="polygon99"
   points="133.42,279.32 141.53,277.94 145.44,263.49 "
   class="st4" />
			<polygon
   id="polygon101"
   points="151.99,262.07 161.67,254.13 147.35,276.64 "
   class="st2" />
			<g
   id="g175">
				<polygon
   id="polygon103"
   points="157.98,142.9 163.87,146.73 154.65,153.6 "
   class="st5" />
				<polygon
   id="polygon105"
   points="167.57,153.28 163.87,146.73 154.65,153.6 "
   class="st6" />
				<polygon
   id="polygon107"
   points="154.65,153.6 166.85,160.88 167.57,153.28 "
   class="st7" />
				<polygon
   id="polygon109"
   points="166.85,160.88 162.72,167.45 154.65,153.6 "
   class="st7" />
				<polygon
   id="polygon111"
   points="162.72,167.45 156.19,170.91 154.65,153.6 "
   class="st8" />
				<polygon
   id="polygon113"
   points="149.86,168.99 156.19,170.91 146.7,179.15 "
   class="st9" />
				<polygon
   id="polygon115"
   points="156.19,170.91 152.93,181.14 146.7,179.15 "
   class="st10" />
				<polygon
   id="polygon117"
   points="164.09,184.51 179.59,189.21 170.04,197.87 "
   class="st11" />
				<polygon
   id="polygon119"
   points="170.04,197.87 164.09,184.51 160.74,195.05 "
   class="st10" />
				<polygon
   id="polygon121"
   points="160.74,195.05 152.37,192.52 164.09,184.51 "
   class="st12" />
				<polygon
   id="polygon123"
   points="152.93,181.14 146.7,179.15 149.58,191.68 "
   class="st13" />
				<polygon
   id="polygon125"
   points="164.09,184.51 152.37,192.52 152.93,181.14 "
   class="st14" />
				<polygon
   id="polygon127"
   points="152.93,181.14 152.37,192.52 149.58,191.68 "
   class="st15" />
				<polygon
   id="polygon129"
   points="143.39,189.8 138.7,204.87 149.58,191.68 "
   class="st13" />
				<polygon
   id="polygon131"
   points="149.58,191.68 142.57,216.28 138.7,204.87 "
   class="st10" />
				<polygon
   id="polygon133"
   points="138.7,204.87 132.21,225.72 142.57,216.28 "
   class="st16" />
				<polygon
   id="polygon135"
   points="142.57,216.28 139.26,227.85 132.21,225.72 "
   class="st17" />
				<polygon
   id="polygon137"
   points="132.21,225.72 127.51,240.82 139.26,227.85 "
   class="st18" />
				<polygon
   id="polygon139"
   points="127.51,240.82 134.27,251.61 136.52,235.29 "
   class="st13" />
				<polygon
   id="polygon141"
   points="127.51,240.82 139.26,227.85 136.52,235.29 "
   class="st19" />
				<polygon
   id="polygon143"
   points="127.51,240.82 122.74,256.14 134.27,251.61 "
   class="st15" />
				<polygon
   id="polygon145"
   points="122.74,256.14 135.48,257.41 134.27,251.61 "
   class="st16" />
				<polygon
   id="polygon147"
   points="135.48,257.41 133.42,279.32 122.74,256.14 "
   class="st12" />
				<polygon
   id="polygon149"
   points="112.07,290.43 120.7,282.51 116.86,274.3 "
   class="st20" />
				<polygon
   id="polygon151"
   points="122.74,256.14 126.5,264.29 116.86,274.3 "
   class="st21" />
				<polygon
   id="polygon153"
   points="133.42,279.32 129.17,270.1 120.7,282.51 "
   class="st22" />
				<polygon
   id="polygon155"
   points="126.5,264.29 116.86,274.3 120.7,282.51 "
   class="st23" />
				<polygon
   id="polygon157"
   points="135.48,257.41 139.24,261.61 133.42,279.32 "
   class="st24" />
				<polygon
   id="polygon159"
   points="139.24,261.61 145.44,263.49 133.42,279.32 "
   class="st1" />
				<polygon
   id="polygon161"
   points="151.99,262.07 147.35,276.64 145.44,263.49 "
   class="st25" />
				<polygon
   id="polygon163"
   points="147.35,276.64 141.53,277.94 145.44,263.49 "
   class="st26" />
				<polygon
   id="polygon165"
   points="147.35,276.64 158.5,270.5 161.67,254.13 "
   class="st21" />
				<polygon
   id="polygon167"
   points="158.5,270.5 161.67,254.13 171.01,257.98 "
   class="st27" />
				<polygon
   id="polygon169"
   points="161.67,254.13 175.28,230.55 171.01,257.98 "
   class="st15" />
				<polygon
   id="polygon171"
   points="175.28,230.55 163.01,251.81 155.63,250.6 "
   class="st28" />
				<polygon
   id="polygon173"
   points="175.06,229.97 171.45,253.64 178.92,258.24 "
   class="st29" />
			</g>
		</g>
	</g>
	<path
   id="path181"
   d="M 108,243" />
	<path
   id="path183"
   d="M -43.63,129.83"
   class="st13" />
</g>
</svg>
