<svg xmlns="http://www.w3.org/2000/svg" viewBox="0 0 898.69 271.35"><defs><style>.cls-1{fill:#f7c45b;}.cls-1,.cls-2,.cls-3,.cls-5{stroke:#000;}.cls-1,.cls-2,.cls-5{stroke-miterlimit:10;stroke-width:3px;}.cls-2{fill:#e05263;}.cls-3,.cls-4{fill:#fff;}.cls-5{fill:none;}</style></defs><g id="Layer_2" data-name="Layer 2"><g id="Posts"><path class="cls-1" d="M109.7,118.28H87.31V6.41H109.7V51.19h44.7V6.41h22.38V118.28H154.4V73.58H109.7Zm165.3,0h-5.15l-8.27-11.47A70.08,70.08,0,0,1,255.1,112a49.89,49.89,0,0,1-7.09,4.13,44.38,44.38,0,0,1-7.73,2.73,31.29,31.29,0,0,1-7.95,1,46.31,46.31,0,0,1-16.62-3,40,40,0,0,1-13.57-8.58A41.06,41.06,0,0,1,193,94.41a48.8,48.8,0,0,1-3.35-18.65A46.23,46.23,0,0,1,193,57.9a42.89,42.89,0,0,1,9.13-14,41.35,41.35,0,0,1,13.57-9,42.55,42.55,0,0,1,16.62-3.28,32.2,32.2,0,0,1,8,1,40.8,40.8,0,0,1,7.72,2.81,45.61,45.61,0,0,1,7.1,4.21,57.28,57.28,0,0,1,6.4,5.22l8.27-9.9H275ZM253.54,75.76a21.45,21.45,0,0,0-1.71-8.42,23,23,0,0,0-4.53-7.26A21.69,21.69,0,0,0,240.52,55a17.78,17.78,0,0,0-8.19-1.95,23,23,0,0,0-8.27,1.49,19.08,19.08,0,0,0-6.71,4.36,20.82,20.82,0,0,0-4.45,7.18,26.59,26.59,0,0,0-1.64,9.67,27.32,27.32,0,0,0,1.64,9.76,20.89,20.89,0,0,0,4.45,7.09A19.1,19.1,0,0,0,224.06,97a23,23,0,0,0,8.27,1.48,18.36,18.36,0,0,0,8.19-1.87,23.35,23.35,0,0,0,6.78-5.07,24.2,24.2,0,0,0,4.53-7.25A22.07,22.07,0,0,0,253.54,75.76ZM364.32,51.35,348.71,67a20.4,20.4,0,0,0-3.19-5.85,20.85,20.85,0,0,0-4.61-4.45A18.89,18.89,0,0,0,335.45,54a20.16,20.16,0,0,0-6.08-.94,19.51,19.51,0,0,0-8.27,1.8,20.34,20.34,0,0,0-6.71,5.07,24.24,24.24,0,0,0-4.45,7.64,28.32,28.32,0,0,0-1.63,9.83,20.61,20.61,0,0,0,1.63,8.19,22,22,0,0,0,4.45,6.71,20.83,20.83,0,0,0,15,6.16,21,21,0,0,0,6-.85,22.21,22.21,0,0,0,5.39-2.42,20.39,20.39,0,0,0,4.52-3.9,20.65,20.65,0,0,0,3.28-5.15l15.6,15.68a41.47,41.47,0,0,1-6.86,7.57,42,42,0,0,1-8.35,5.69,39.63,39.63,0,0,1-9.44,3.51,41.18,41.18,0,0,1-10.14,1.25,42.38,42.38,0,0,1-16.62-3.28,44.2,44.2,0,0,1-13.57-9.12,43.32,43.32,0,0,1-9.13-13.5A41.16,41.16,0,0,1,286.7,77.4a47.78,47.78,0,0,1,3.35-17.94A46.28,46.28,0,0,1,299.18,45a43.6,43.6,0,0,1,13.57-9.83,39.33,39.33,0,0,1,16.62-3.59,39.86,39.86,0,0,1,10.22,1.33,42.58,42.58,0,0,1,18,10.06A38.2,38.2,0,0,1,364.32,51.35Zm31.9,66.93H374.77V1.5h21.45V75.14L428,34.89h24.5l-27.7,34.79,27.7,48.6H428L411,87.93l-14.82,19.66Zm155.16-44.7a43.87,43.87,0,0,1-3.51,17.47A44.47,44.47,0,0,1,524,114.77a43.35,43.35,0,0,1-17.4,3.51,43.87,43.87,0,0,1-17.47-3.51,44.16,44.16,0,0,1-23.72-23.72,43.87,43.87,0,0,1-3.51-17.47V6.41h22.32V73.58a22.08,22.08,0,0,0,1.71,8.66,23.35,23.35,0,0,0,4.84,7.1,23,23,0,0,0,7.1,4.83,22.43,22.43,0,0,0,8.73,1.72,21.88,21.88,0,0,0,8.66-1.72,22.8,22.8,0,0,0,7.18-4.83,22.27,22.27,0,0,0,4.76-7.1A21.28,21.28,0,0,0,529,73.58V6.41h22.39Zm66.39,44.7H595.45V28.8H561.83V6.41h89.48V28.8H617.77Zm135-55.93a56.2,56.2,0,0,1-7.65,28.24,59.52,59.52,0,0,1-8.73,11.31,55.75,55.75,0,0,1-11.32,8.73,56.63,56.63,0,0,1-13.41,5.7,55.8,55.8,0,0,1-14.83,2H663.17V6.41h33.69a53.86,53.86,0,0,1,14.83,2,54.76,54.76,0,0,1,24.73,14.43,56,56,0,0,1,8.73,11.32,52.94,52.94,0,0,1,5.62,13.33A53.86,53.86,0,0,1,752.8,62.35Zm-22.39,0a33.32,33.32,0,0,0-9.83-23.64,33.11,33.11,0,0,0-10.69-7.25,32.2,32.2,0,0,0-13-2.66H685.71V95.89h11.15a33.18,33.18,0,0,0,13-2.57,33.9,33.9,0,0,0,10.69-7.18,33.36,33.36,0,0,0,7.18-10.69A32.77,32.77,0,0,0,730.41,62.35Zm62.41,3.19a13.78,13.78,0,0,1-3.9,9.52A14.19,14.19,0,0,1,784.7,78a13.28,13.28,0,0,1-5.15,1,13.45,13.45,0,0,1-5.22-1A15.2,15.2,0,0,1,770,75.06a12.8,12.8,0,0,1-3.9-9.52,13.14,13.14,0,0,1,1-5.07A14.14,14.14,0,0,1,770,56.26a13.17,13.17,0,0,1,4.29-2.88,12.49,12.49,0,0,1,5.22-1.1,13.44,13.44,0,0,1,9.37,4,13,13,0,0,1,2.8,4.21A12.21,12.21,0,0,1,792.82,65.54Zm0,44.78a13.78,13.78,0,0,1-3.9,9.52,13.27,13.27,0,0,1-4.22,2.81,12.33,12.33,0,0,1-5.15,1.09,12.49,12.49,0,0,1-5.22-1.09,12.94,12.94,0,0,1-8.19-12.33,13.32,13.32,0,0,1,1-5.15A14.14,14.14,0,0,1,770,101a14,14,0,0,1,4.29-2.81,12.49,12.49,0,0,1,5.22-1.09,12.33,12.33,0,0,1,5.15,1.09,12.86,12.86,0,0,1,7,7A12.37,12.37,0,0,1,792.82,110.32Z"/><path class="cls-2" d="M274.27,117.65H269.2l-8.15-11.3a66.34,66.34,0,0,1-6.38,5.07,49.49,49.49,0,0,1-7,4.08,45.88,45.88,0,0,1-7.61,2.69,31.33,31.33,0,0,1-7.84,1,45.83,45.83,0,0,1-16.37-2.92,39.61,39.61,0,0,1-13.37-8.46,40.63,40.63,0,0,1-9-13.68,48.18,48.18,0,0,1-3.3-18.37,45.71,45.71,0,0,1,3.3-17.6,42.32,42.32,0,0,1,9-13.83,40.82,40.82,0,0,1,13.37-8.92,41.86,41.86,0,0,1,16.37-3.22,31.84,31.84,0,0,1,7.92,1A40.55,40.55,0,0,1,247.76,36a46,46,0,0,1,7,4.15,57.63,57.63,0,0,1,6.3,5.15l8.15-9.76h5.07Z"/><path class="cls-3" d="M218.19,67.06a4.85,4.85,0,1,1-4.85-4.92A4.88,4.88,0,0,1,218.19,67.06Z"/><ellipse cx="211.48" cy="67.48" rx="2.87" ry="3.44" transform="matrix(1, -0.04, 0.04, 1, -2.77, 9.38)"/><path class="cls-4" d="M196.28,97.63c5.35,1.19,12.41,1.72,18.62-1.84,4-2.28,6.16-5.4,7-4.84,1.06.75-1.26,7.36-6,11.94a22.84,22.84,0,0,1-11.09,5.83"/><path d="M196.28,97.63A41.19,41.19,0,0,0,203,98a24.39,24.39,0,0,0,6.6-.66,19.34,19.34,0,0,0,6-2.62,26.78,26.78,0,0,0,2.66-2l1.28-1.11a8.35,8.35,0,0,1,1.47-1.08l.28-.11a1.7,1.7,0,0,1,.4,0,.93.93,0,0,1,.71.52,2.25,2.25,0,0,1,.16,1.09,8.8,8.8,0,0,1-.38,1.77,19.72,19.72,0,0,1-1.36,3.2,25.31,25.31,0,0,1-4,5.63,21.82,21.82,0,0,1-5.49,4.21,23,23,0,0,1-6.59,1.91,25.27,25.27,0,0,0,6.11-2.79,21.1,21.1,0,0,0,5.24-4A24.77,24.77,0,0,0,220,96.51a17.55,17.55,0,0,0,1.29-3,6.67,6.67,0,0,0,.34-1.54,1.43,1.43,0,0,0-.05-.57s0,0,.07,0h0l-.11,0a8.5,8.5,0,0,0-1.25.94L219,93.49a28.06,28.06,0,0,1-2.76,2.08,20.61,20.61,0,0,1-6.35,2.75A25.27,25.27,0,0,1,203,99,32.81,32.81,0,0,1,196.28,97.63Z"/><path class="cls-5" d="M274.27,117.65H269.2l-8.15-11.3a66.34,66.34,0,0,1-6.38,5.07,49.49,49.49,0,0,1-7,4.08,45.88,45.88,0,0,1-7.61,2.69,31.33,31.33,0,0,1-7.84,1,45.83,45.83,0,0,1-16.37-2.92,39.61,39.61,0,0,1-13.37-8.46,40.63,40.63,0,0,1-9-13.68,48.18,48.18,0,0,1-3.3-18.37,45.71,45.71,0,0,1,3.3-17.6,42.32,42.32,0,0,1,9-13.83,40.82,40.82,0,0,1,13.37-8.92,41.86,41.86,0,0,1,16.37-3.22,31.84,31.84,0,0,1,7.92,1A40.55,40.55,0,0,1,247.76,36a46,46,0,0,1,7,4.15,57.63,57.63,0,0,1,6.3,5.15l8.15-9.76h5.07Z"/><path class="cls-1" d="M57.43,268.29H35.12V178.81H1.5V156.43H91v22.38H57.43Zm64.44,0h-21.3V151.51h21.3v36.9a24.28,24.28,0,0,1,7.88-4.06,28,28,0,0,1,8.26-1.24,36.84,36.84,0,0,1,26.29,11,36.85,36.85,0,0,1,8,11.94,35.77,35.77,0,0,1,3,14.51v47.74H153.77V220.55h.16a15.35,15.35,0,0,0-1.25-6.16,15.91,15.91,0,0,0-3.43-5.15,16.17,16.17,0,0,0-5.07-3.43,15.26,15.26,0,0,0-6.17-1.25,15.93,15.93,0,0,0-6.31,1.25,15.74,15.74,0,0,0-8.58,8.58,15.18,15.18,0,0,0-1.25,6.16Zm101.8-20.44a14.82,14.82,0,0,0,2.49.55c.84,0,1.67.08,2.5.08a21.09,21.09,0,0,0,6-.86,21.94,21.94,0,0,0,5.38-2.42,20.17,20.17,0,0,0,4.52-3.9,20.37,20.37,0,0,0,3.28-5.15l15.6,15.68a41.11,41.11,0,0,1-6.86,7.57,41.74,41.74,0,0,1-8.35,5.69,39.47,39.47,0,0,1-9.44,3.51,41.18,41.18,0,0,1-10.14,1.25,42.22,42.22,0,0,1-30.19-12.4,43.28,43.28,0,0,1-9.13-13.89A46.22,46.22,0,0,1,186,225.78a47.43,47.43,0,0,1,3.35-18.1A40.68,40.68,0,0,1,212,184.74a43.46,43.46,0,0,1,16.62-3.2,42.12,42.12,0,0,1,10.22,1.25,42.88,42.88,0,0,1,17.86,9.36,41.52,41.52,0,0,1,6.87,7.57Zm10.92-43.92a12.34,12.34,0,0,0-3-.7,28.1,28.1,0,0,0-3-.15,21.18,21.18,0,0,0-8.27,1.63,19.61,19.61,0,0,0-6.71,4.53,21.74,21.74,0,0,0-4.44,7.17,25.12,25.12,0,0,0-1.64,9.37c0,.78,0,1.66.08,2.65s.23,2,.39,3,.44,1.95.7,2.89a11.26,11.26,0,0,0,1,2.49Zm172.32-47.5L370.17,268.29H347.78L311.19,156.43h25.43l22.31,74.65,22.39-74.65Zm33.15,111.86H417.67V156.43h22.39Zm43.22,0H460.89V156.43h22.39ZM542.33,190a32.4,32.4,0,0,1,2.65-13,34.06,34.06,0,0,1,17.87-17.86,32.2,32.2,0,0,1,13-2.65H627.2v22.38H575.88a11.1,11.1,0,0,0-4.37.86,11.26,11.26,0,0,0-3.59,2.42,10.9,10.9,0,0,0-2.34,3.51,11.13,11.13,0,0,0-.86,4.37,10.76,10.76,0,0,0,6.79,10.37,10.92,10.92,0,0,0,4.37.86h22.38a33.49,33.49,0,0,1,30.89,46.57A33.17,33.17,0,0,1,622,258.46a33.9,33.9,0,0,1-10.69,7.18,32.23,32.23,0,0,1-13,2.65H548.57V245.9h49.69a11.09,11.09,0,0,0,7.88-3.2,11.36,11.36,0,0,0,2.42-12.32,11.79,11.79,0,0,0-5.93-5.93,11.13,11.13,0,0,0-4.37-.86H575.88a32.2,32.2,0,0,1-13-2.65A33.43,33.43,0,0,1,545,203.08,33,33,0,0,1,542.33,190Zm135.19,57.88a14.72,14.72,0,0,0,2.5.55c.83,0,1.66.08,2.49.08a21.09,21.09,0,0,0,6-.86,21.77,21.77,0,0,0,5.38-2.42,20.22,20.22,0,0,0,4.53-3.9,20.61,20.61,0,0,0,3.27-5.15l15.6,15.68a41.11,41.11,0,0,1-6.86,7.57,41.74,41.74,0,0,1-8.35,5.69,39.47,39.47,0,0,1-9.44,3.51,41.06,41.06,0,0,1-10.14,1.25,42.26,42.26,0,0,1-30.19-12.4,43.09,43.09,0,0,1-9.12-13.89,46,46,0,0,1-3.36-17.78,47.24,47.24,0,0,1,3.36-18.1,40.6,40.6,0,0,1,22.7-22.94,43.41,43.41,0,0,1,16.61-3.2,42.75,42.75,0,0,1,28.09,10.61,41.47,41.47,0,0,1,6.86,7.57Zm10.92-43.92a12.34,12.34,0,0,0-3-.7,28.1,28.1,0,0,0-3-.15,21.18,21.18,0,0,0-8.27,1.63,19.58,19.58,0,0,0-6.7,4.53,21.6,21.6,0,0,0-4.45,7.17,25.33,25.33,0,0,0-1.64,9.37c0,.78,0,1.66.08,2.65s.23,2,.39,3,.44,1.95.7,2.89a11.26,11.26,0,0,0,1,2.49ZM808.5,268.29h-5.15l-8.27-11.47A70.08,70.08,0,0,1,788.6,262a50.46,50.46,0,0,1-7.1,4.14,46,46,0,0,1-7.72,2.73,31.74,31.74,0,0,1-7.95,1,46.52,46.52,0,0,1-16.62-3,40.13,40.13,0,0,1-13.57-8.59,41.06,41.06,0,0,1-9.13-13.88,48.78,48.78,0,0,1-3.35-18.64,46.25,46.25,0,0,1,3.35-17.87,42.89,42.89,0,0,1,9.13-14,41.35,41.35,0,0,1,13.57-9.05,42.55,42.55,0,0,1,16.62-3.28,32.2,32.2,0,0,1,8,1,41.51,41.51,0,0,1,7.72,2.81,45.61,45.61,0,0,1,7.1,4.21,56.27,56.27,0,0,1,6.4,5.23l8.27-9.91h5.15ZM787,225.78a21.46,21.46,0,0,0-1.71-8.43,22.91,22.91,0,0,0-4.53-7.25A21.39,21.39,0,0,0,774,205a17.78,17.78,0,0,0-8.19-1.95,23,23,0,0,0-8.27,1.48,19,19,0,0,0-6.71,4.37,20.68,20.68,0,0,0-4.45,7.17,26.61,26.61,0,0,0-1.64,9.68,27.23,27.23,0,0,0,1.64,9.75,21,21,0,0,0,4.45,7.1,19.08,19.08,0,0,0,6.71,4.36,23,23,0,0,0,8.27,1.49A18.36,18.36,0,0,0,774,246.6a23.35,23.35,0,0,0,6.78-5.07,24.2,24.2,0,0,0,4.53-7.25A22.06,22.06,0,0,0,787,225.78Zm83.63,42.51H822V247.07h48.68a5.33,5.33,0,0,0,5.3-5.3,2.91,2.91,0,0,0-1.56-3,9,9,0,0,0-3.74-.7H848.51A25.57,25.57,0,0,1,838.14,236a27.07,27.07,0,0,1-8.43-5.69,28,28,0,0,1-5.69-8.5,27.53,27.53,0,0,1,0-20.75,27,27,0,0,1,5.69-8.43,26.22,26.22,0,0,1,8.43-5.62,25.73,25.73,0,0,1,10.37-2.1h43.14v21.22H848.51a5.33,5.33,0,0,0-5.3,5.3,5.45,5.45,0,0,0,1.56,3.9,5.11,5.11,0,0,0,3.74,1.56h22.16a28.28,28.28,0,0,1,10.3,1.88,25.3,25.3,0,0,1,8.42,5.07,24.1,24.1,0,0,1,5.69,7.87,23.84,23.84,0,0,1,2.11,10.07,25.57,25.57,0,0,1-2.11,10.37,28.41,28.41,0,0,1-5.69,8.43,27,27,0,0,1-8.42,5.69A26.43,26.43,0,0,1,870.67,268.29Z"/><path class="cls-2" d="M807.87,267.74h-5.08l-8.14-11.3a67.59,67.59,0,0,1-6.38,5.07,50.16,50.16,0,0,1-7,4.08,45.56,45.56,0,0,1-7.61,2.69,31.27,31.27,0,0,1-7.84,1,45.81,45.81,0,0,1-16.36-2.92,39.55,39.55,0,0,1-13.38-8.46,40.46,40.46,0,0,1-9-13.68,48.18,48.18,0,0,1-3.3-18.37,45.71,45.71,0,0,1,3.3-17.6,42.14,42.14,0,0,1,9-13.83,40.76,40.76,0,0,1,13.38-8.92,41.84,41.84,0,0,1,16.36-3.22,31.72,31.72,0,0,1,7.92,1,40.55,40.55,0,0,1,7.61,2.76,45.48,45.48,0,0,1,7,4.15,56.81,56.81,0,0,1,6.31,5.15l8.14-9.76h5.08Z"/><path class="cls-3" d="M751.79,217.15a4.86,4.86,0,1,1-4.86-4.92A4.88,4.88,0,0,1,751.79,217.15Z"/><ellipse cx="745.08" cy="217.57" rx="2.87" ry="3.44" transform="translate(-8.86 33.02) rotate(-2.52)"/><path class="cls-4" d="M729.87,247.72c5.35,1.19,12.42,1.72,18.62-1.84,4-2.28,6.16-5.4,7-4.84,1.06.75-1.27,7.36-6,11.94a22.92,22.92,0,0,1-11.09,5.83"/><path d="M729.87,247.72a41.38,41.38,0,0,0,6.74.38,24.28,24.28,0,0,0,6.59-.66,19.4,19.4,0,0,0,6-2.62,28,28,0,0,0,2.66-2l1.28-1.11a8.35,8.35,0,0,1,1.47-1.08l.28-.11a1.61,1.61,0,0,1,.39,0,.94.94,0,0,1,.72.52,2.12,2.12,0,0,1,.15,1.09,7.62,7.62,0,0,1-.38,1.77,19.68,19.68,0,0,1-1.35,3.2,25.35,25.35,0,0,1-4,5.63A21.82,21.82,0,0,1,745,256.9a23.06,23.06,0,0,1-6.58,1.91,25.45,25.45,0,0,0,6.11-2.79,20.87,20.87,0,0,0,5.23-4,24.48,24.48,0,0,0,3.84-5.41,19.26,19.26,0,0,0,1.29-3,7.19,7.19,0,0,0,.33-1.54,1.48,1.48,0,0,0,0-.57s0,.05.07,0h0l-.11,0a8,8,0,0,0-1.25.94l-1.29,1.11a26.92,26.92,0,0,1-2.76,2.08,20.41,20.41,0,0,1-6.35,2.75,25.16,25.16,0,0,1-6.86.69A32.9,32.9,0,0,1,729.87,247.72Z"/><path class="cls-5" d="M807.87,267.74h-5.08l-8.14-11.3a67.59,67.59,0,0,1-6.38,5.07,50.16,50.16,0,0,1-7,4.08,45.56,45.56,0,0,1-7.61,2.69,31.27,31.27,0,0,1-7.84,1,45.81,45.81,0,0,1-16.36-2.92,39.55,39.55,0,0,1-13.38-8.46,40.46,40.46,0,0,1-9-13.68,48.18,48.18,0,0,1-3.3-18.37,45.71,45.71,0,0,1,3.3-17.6,42.14,42.14,0,0,1,9-13.83,40.76,40.76,0,0,1,13.38-8.92,41.84,41.84,0,0,1,16.36-3.22,31.72,31.72,0,0,1,7.92,1,40.55,40.55,0,0,1,7.61,2.76,45.48,45.48,0,0,1,7,4.15,56.81,56.81,0,0,1,6.31,5.15l8.14-9.76h5.08Z"/></g></g></svg>