<?xml version="1.0" encoding="UTF-8" standalone="no"?>
<svg
   xmlns:dc="http://purl.org/dc/elements/1.1/"
   xmlns:cc="http://creativecommons.org/ns#"
   xmlns:rdf="http://www.w3.org/1999/02/22-rdf-syntax-ns#"
   xmlns:svg="http://www.w3.org/2000/svg"
   xmlns="http://www.w3.org/2000/svg"
   xmlns:sodipodi="http://sodipodi.sourceforge.net/DTD/sodipodi-0.dtd"
   xmlns:inkscape="http://www.inkscape.org/namespaces/inkscape"
   sodipodi:docname="registrationdatespaths.svg"
   inkscape:version="1.0 (4035a4fb49, 2020-05-01)"
   id="svg8"
   version="1.1"
   viewBox="0 0 696.87811 67.230249"
   height="67.230247mm"
   width="696.87811mm">
  <defs
     id="defs2" />
  <sodipodi:namedview
     inkscape:document-rotation="0"
     fit-margin-bottom="0"
     fit-margin-right="0"
     fit-margin-left="0"
     fit-margin-top="0"
     inkscape:lockguides="false"
     inkscape:window-maximized="1"
     inkscape:window-y="-9"
     inkscape:window-x="-9"
     inkscape:window-height="1001"
     inkscape:window-width="1920"
     showgrid="false"
     inkscape:current-layer="layer2"
     inkscape:document-units="mm"
     inkscape:cy="543.26091"
     inkscape:cx="1651.4347"
     inkscape:zoom="0.35000001"
     inkscape:pageshadow="2"
     inkscape:pageopacity="0.0"
     borderopacity="1.0"
     bordercolor="#666666"
     pagecolor="#ffffff"
     id="base" />
  <metadata
     id="metadata5">
    <rdf:RDF>
      <cc:Work
         rdf:about="">
        <dc:format>image/svg+xml</dc:format>
        <dc:type
           rdf:resource="http://purl.org/dc/dcmitype/StillImage" />
        <dc:title></dc:title>
      </cc:Work>
    </rdf:RDF>
  </metadata>
  <g
     transform="translate(227.44878,-344.41405)"
     style="display:inline"
     inkscape:label="backblack"
     id="layer2"
     inkscape:groupmode="layer">
    <path
       id="text855-8-4"
       transform="matrix(0.26458333,0,0,0.26458333,-227.44865,344.41417)"
       d="M 271.33984,1.4609375 V 126.85156 c 0,10.88819 1.88637,20.89727 5.66211,30.0293 3.77575,9.04422 8.91432,16.85971 15.41211,23.44531 6.5856,6.5856 14.22498,11.72222 22.91797,15.41016 8.7808,3.68793 18.13043,5.53125 28.05274,5.53125 10.0101,0 19.36169,-1.79831 28.05468,-5.39844 8.7808,-3.60013 16.42018,-8.65065 22.91797,-15.14844 6.49779,-6.5856 11.63442,-14.44414 15.41016,-23.57617 3.77574,-9.13203 5.66406,-19.22916 5.66406,-30.29297 0,-10.80038 -1.88832,-20.72335 -5.66406,-29.767576 -3.77574,-9.132029 -8.91237,-17.033625 -15.41016,-23.707031 -6.49779,-6.673406 -14.13717,-11.855034 -22.91797,-15.542969 -8.69299,-3.775743 -18.04458,-5.664062 -28.05468,-5.664062 -3.2489,0 -6.58526,0.352224 -10.00977,1.054687 -3.42451,0.614656 -6.76087,1.536314 -10.00977,2.765625 -3.16108,1.229312 -6.14717,2.810412 -8.95703,4.742188 -2.72204,1.931775 -5.04869,4.127314 -6.98047,6.585937 V 1.4609375 Z M 1854.3848,3.8320312 c -8.6052,0 -16.726,1.4049886 -24.3653,4.2148438 -7.6393,2.809855 -14.3139,6.672597 -20.0215,11.589844 -5.7075,4.829438 -10.2297,10.494397 -13.5664,16.992187 -3.2489,6.409983 -4.873,13.301865 -4.873,20.677735 0,3.600127 0.3953,7.245658 1.1855,10.933593 0.7903,3.600127 1.9311,7.110646 3.4239,10.535157 1.5805,3.424511 3.4258,6.674767 5.5332,9.748047 2.1952,3.073278 4.6529,5.7952 7.375,8.166015 -4.3904,2.458623 -8.3412,5.444717 -11.8535,8.957027 -3.5124,3.42452 -6.5415,7.1992 -9.0879,11.32618 -2.4587,4.12697 -4.347,8.5611 -5.6641,13.30273 -1.3171,4.65382 -1.9766,9.44018 -1.9766,14.35742 0,8.51738 1.9334,16.37592 5.7969,23.57617 3.8636,7.20026 9.1313,13.43465 15.8047,18.70313 6.7612,5.18067 14.6198,9.21952 23.5762,12.11719 8.9564,2.98547 18.5271,4.47851 28.7129,4.47851 10.1857,0 19.7564,-1.49304 28.7129,-4.47851 8.9564,-2.89767 16.7719,-6.93652 23.4453,-12.11719 6.7612,-5.26848 12.0739,-11.50287 15.9375,-18.70313 3.8635,-7.20025 5.7949,-15.05879 5.7949,-23.57617 0,-4.91724 -0.6575,-9.7036 -1.9746,-14.35742 -1.3171,-4.65382 -3.2055,-9.04295 -5.6641,-13.16992 -2.4586,-4.12698 -5.4447,-7.90362 -8.957,-11.32813 -3.5123,-3.42451 -7.4201,-6.365592 -11.7227,-8.824215 2.7221,-2.458623 5.1368,-5.225549 7.2442,-8.298828 2.1952,-3.073279 4.0404,-6.321583 5.5332,-9.746094 1.4927,-3.512319 2.6335,-7.067842 3.4238,-10.667969 0.8781,-3.687935 1.3164,-7.333466 1.3164,-10.933593 0,-7.37587 -1.6672,-14.267752 -5.0039,-20.677735 -3.2489,-6.49779 -7.7711,-12.162749 -13.5664,-16.992187 -5.7075,-4.917247 -12.3802,-8.779989 -20.0195,-11.589844 -7.6393,-2.8098552 -15.807,-4.2148438 -24.5,-4.2148438 z M 2324.8613,7.125 c -10.4491,0 -20.284,1.7122075 -29.5039,5.136719 -9.132,3.424511 -17.1236,8.956409 -23.9726,16.595703 -6.7612,7.639294 -12.117,17.650325 -16.0684,30.03125 -3.9514,12.293117 -5.9277,27.395762 -5.9277,45.308598 0,17.73721 1.9763,32.79485 5.9277,45.17578 3.9514,12.29311 9.3072,22.30414 16.0684,30.03125 6.849,7.63929 14.8406,13.21424 23.9726,16.72656 9.2199,3.42451 19.0548,5.13672 29.5039,5.13672 10.4492,0 20.2391,-1.66721 29.3711,-5.00391 9.2199,-3.42451 17.2545,-8.95641 24.1035,-16.5957 6.8491,-7.6393 12.2499,-17.65033 16.2012,-30.03125 3.9514,-12.38093 5.9258,-27.52663 5.9258,-45.43945 0,-17.73722 -1.9744,-32.753764 -5.9258,-45.046879 -3.9513,-12.293117 -9.3521,-22.302195 -16.2012,-30.029297 -6.849,-7.727102 -14.8836,-13.304005 -24.1035,-16.728516 C 2345.1004,8.8802593 2335.3105,7.125 2324.8613,7.125 Z M 1.4609375,9.7597656 V 198.63477 H 39.263672 V 123.16406 H 95.898438 V 85.361328 H 39.263672 V 47.560547 H 133.70117 V 9.7597656 Z m 1203.9804625,0 V 47.560547 h 67.4356 c 2.6342,0 5.0919,0.483331 7.375,1.449219 2.283,0.965887 4.2593,2.325871 5.9277,4.082031 1.7561,1.668351 3.1181,3.644727 4.084,5.927734 0.9659,2.283008 1.4472,4.740761 1.4472,7.375 0,2.63424 -0.4813,5.136997 -1.4472,7.507813 -0.9659,2.283007 -2.3279,4.302434 -4.084,6.058594 -1.6684,1.66835 -3.6447,2.987238 -5.9277,3.953124 -2.2831,0.965888 -4.7408,1.447266 -7.375,1.447266 h -18.9668 c -7.815,0 -15.1471,1.493045 -21.9961,4.478516 -6.8491,2.897663 -12.8643,6.936518 -18.045,12.117186 -5.0928,5.09286 -9.1317,11.10809 -12.1171,18.04492 -2.9855,6.84903 -4.4786,14.18119 -4.4786,21.9961 v 56.63672 h 127.1036 v -37.80274 h -89.3008 v -18.83398 c 0,-2.63424 0.4833,-5.092 1.4492,-7.375 0.9659,-2.28301 2.2828,-4.25939 3.9512,-5.92774 1.7561,-1.75616 3.7755,-3.11809 6.0586,-4.08398 2.283,-0.96589 4.7407,-1.44727 7.375,-1.44727 h 18.9668 c 7.8149,0 15.147,-1.49304 21.996,-4.47851 6.8491,-2.98547 12.8193,-7.02433 17.9122,-12.11719 5.1806,-5.18067 9.2645,-11.195901 12.25,-18.044922 2.9854,-6.936831 4.4785,-14.313997 4.4785,-22.128907 0,-7.81491 -1.4931,-15.145118 -4.4785,-21.99414 -2.9855,-6.849023 -7.0694,-12.8212 -12.25,-17.914063 -5.0929,-5.18067 -11.0631,-9.262576 -17.9122,-12.248047 -6.849,-2.985471 -14.1811,-4.4785154 -21.996,-4.4785154 z m 140.5352,0 V 47.560547 h 80.3457 l -53.0801,151.074223 h 40.4355 L 1478.2168,9.7597656 Z m 290.9531,0 V 47.560547 h 67.4355 c 2.6343,0 5.094,0.483331 7.377,1.449219 2.283,0.965887 4.2574,2.325871 5.9258,4.082031 1.7561,1.668351 3.1181,3.644727 4.084,5.927734 0.9658,2.283008 1.4492,4.740761 1.4492,7.375 0,2.63424 -0.4834,5.136997 -1.4492,7.507813 -0.9659,2.283007 -2.3279,4.302434 -4.084,6.058594 -1.6684,1.66835 -3.6428,2.987238 -5.9258,3.953124 -2.283,0.965888 -4.7427,1.447266 -7.377,1.447266 h -18.9668 c -7.8149,0 -15.147,1.493045 -21.9961,4.478516 -6.849,2.897663 -12.8623,6.936518 -18.0429,12.117186 -5.0929,5.09286 -9.1337,11.10809 -12.1192,18.04492 -2.9854,6.84903 -4.4765,14.18119 -4.4765,21.9961 v 56.63672 h 127.1015 v -37.80274 h -89.3007 v -18.83398 c 0,-2.63424 0.4833,-5.092 1.4492,-7.375 0.9659,-2.28301 2.2828,-4.25939 3.9511,-5.92774 1.7562,-1.75616 3.7756,-3.11809 6.0586,-4.08398 2.283,-0.96589 4.7408,-1.44727 7.375,-1.44727 h 18.9668 c 7.8149,0 15.1471,-1.49304 21.9961,-4.47851 6.8491,-2.98547 12.8193,-7.02433 17.9121,-12.11719 5.1807,-5.18067 9.2646,-11.195901 12.25,-18.044922 2.9855,-6.936831 4.4786,-14.313997 4.4786,-22.128907 0,-7.81491 -1.4931,-15.145118 -4.4786,-21.99414 -2.9854,-6.849023 -7.0693,-12.8212 -12.25,-17.914063 -5.0928,-5.18067 -11.063,-9.262576 -17.9121,-12.248047 -6.849,-2.985471 -14.1812,-4.4785154 -21.9961,-4.4785154 z m 467.3125,0 V 47.560547 h 67.4375 c 2.6342,0 5.092,0.483331 7.375,1.449219 2.283,0.965887 4.2594,2.325871 5.9277,4.082031 1.7562,1.668351 3.1162,3.644727 4.0821,5.927734 0.9658,2.283008 1.4492,4.740761 1.4492,7.375 0,2.63424 -0.4834,5.136997 -1.4492,7.507813 -0.9659,2.283007 -2.3259,4.302434 -4.0821,6.058594 -1.6683,1.66835 -3.6447,2.987238 -5.9277,3.953124 -2.283,0.965888 -4.7408,1.447266 -7.375,1.447266 h -18.9668 c -7.8149,0 -15.1471,1.493045 -21.9961,4.478516 -6.849,2.897663 -12.8643,6.936518 -18.0449,12.117186 -5.0929,5.09286 -9.1317,11.10809 -12.1172,18.04492 -2.9855,6.84903 -4.4785,14.18119 -4.4785,21.9961 v 56.63672 h 127.1035 v -37.80274 h -89.3008 v -18.83398 c 0,-2.63424 0.4814,-5.092 1.4473,-7.375 0.9659,-2.28301 2.2828,-4.25939 3.9511,-5.92774 1.7562,-1.75616 3.7776,-3.11809 6.0606,-4.08398 2.283,-0.96589 4.7408,-1.44727 7.375,-1.44727 h 18.9668 c 7.8149,0 15.1471,-1.49304 21.9961,-4.47851 6.849,-2.98547 12.8192,-7.02433 17.9121,-12.11719 5.1807,-5.18067 9.2645,-11.195901 12.25,-18.044922 2.9855,-6.936831 4.4785,-14.313997 4.4785,-22.128907 0,-7.81491 -1.493,-15.145118 -4.4785,-21.99414 -2.9855,-6.849023 -7.0693,-12.8212 -12.25,-17.914063 -5.0929,-5.18067 -11.0631,-9.262576 -17.9121,-12.248047 -6.849,-2.985471 -14.1812,-4.4785154 -21.9961,-4.4785154 z m 327.1738,0 V 47.560547 h 67.4356 c 2.6342,0 5.0939,0.483331 7.3769,1.449219 2.283,0.965887 4.2574,2.325871 5.9258,4.082031 1.7562,1.668351 3.1181,3.644727 4.084,5.927734 0.9659,2.283008 1.4492,4.740761 1.4492,7.375 0,2.63424 -0.4833,5.136997 -1.4492,7.507813 -0.9659,2.283007 -2.3278,4.302434 -4.084,6.058594 -1.6684,1.66835 -3.6428,2.987238 -5.9258,3.953124 -2.283,0.965888 -4.7427,1.447266 -7.3769,1.447266 h -18.9668 c -7.8149,0 -15.1471,1.493045 -21.9961,4.478516 -6.8491,2.897663 -12.8623,6.936518 -18.043,12.117186 -5.0929,5.09286 -9.1337,11.10809 -12.1191,18.04492 -2.9855,6.84903 -4.4766,14.18119 -4.4766,21.9961 v 56.63672 h 127.1016 v -37.80274 h -89.3008 v -18.83398 c 0,-2.63424 0.4833,-5.092 1.4492,-7.375 0.9659,-2.28301 2.2828,-4.25939 3.9512,-5.92774 1.7561,-1.75616 3.7756,-3.11809 6.0586,-4.08398 2.283,-0.96589 4.7407,-1.44727 7.375,-1.44727 h 18.9668 c 7.8149,0 15.147,-1.49304 21.9961,-4.47851 6.849,-2.98547 12.8192,-7.02433 17.9121,-12.11719 5.1806,-5.18067 9.2645,-11.195901 12.25,-18.044922 2.9854,-6.936831 4.4785,-14.313997 4.4785,-22.128907 0,-7.81491 -1.4931,-15.145118 -4.4785,-21.99414 -2.9855,-6.849023 -7.0694,-12.8212 -12.25,-17.914063 -5.0929,-5.18067 -11.0631,-9.262576 -17.9121,-12.248047 -6.8491,-2.985471 -14.1812,-4.4785154 -21.9961,-4.4785154 z m 144.3555,0 V 47.560547 h 18.8359 V 198.63477 h 37.8008 V 9.7597656 Z M 1854.6484,39.263672 c 3.5124,0 6.8487,0.569434 10.0098,1.710937 3.1611,1.141504 5.883,2.722604 8.166,4.742188 2.3708,2.019583 4.2161,4.391234 5.5332,7.113281 1.4049,2.634239 2.1074,5.487268 2.1074,8.560547 0,3.073279 -0.7025,5.926308 -2.1074,8.560547 -1.3171,2.634239 -3.1624,4.917834 -5.5332,6.849609 -2.283,1.931776 -5.0049,3.467872 -8.166,4.609375 -3.1611,1.141504 -6.4974,1.712891 -10.0098,1.712891 -3.6001,0 -6.9795,-0.571387 -10.1406,-1.712891 -3.1611,-1.141503 -5.928,-2.677599 -8.2988,-4.609375 -2.283,-1.931775 -4.1263,-4.21537 -5.5313,-6.849609 -1.3171,-2.634239 -1.9765,-5.487268 -1.9765,-8.560547 0,-3.073279 0.6594,-5.926308 1.9765,-8.560547 1.405,-2.722047 3.2483,-5.093698 5.5313,-7.113281 2.3708,-2.019584 5.1377,-3.600684 8.2988,-4.742188 3.1611,-1.141503 6.5405,-1.710937 10.1406,-1.710937 z m 470.2129,2.896484 c 12.4688,0 22.1706,5.093572 29.1075,15.279297 7.0245,10.185725 10.5371,25.771702 10.5371,46.757817 0,10.62476 -0.9217,19.84329 -2.7657,27.6582 -1.7561,7.7271 -4.347,14.1376 -7.7714,19.23047 -3.3368,5.09286 -7.4637,8.91255 -12.3809,11.45898 -4.9173,2.45863 -10.4922,3.6875 -16.7266,3.6875 -12.3809,0 -21.9967,-5.09162 -28.8457,-15.27734 -6.849,-10.18573 -10.2734,-25.77171 -10.2734,-46.75781 0,-21.161731 3.4244,-36.792713 10.2734,-46.890629 6.849,-10.097918 16.4648,-15.146485 28.8457,-15.146485 z M 197.25195,52.169922 c -9.9223,0 -19.27389,1.800264 -28.05468,5.40039 -8.69299,3.600128 -16.33237,8.648695 -22.91797,15.146485 -6.49779,6.49779 -11.63442,14.358287 -15.41016,23.578125 -3.77574,9.219838 -5.66406,19.405028 -5.66406,30.556638 0,10.88819 1.88832,20.89727 5.66406,30.0293 3.77574,9.04422 8.91237,16.85971 15.41016,23.44531 6.5856,6.5856 14.22498,11.72222 22.91797,15.41016 8.78079,3.68793 18.13238,5.53125 28.05468,5.53125 5.88314,0 11.58919,-0.7025 17.1211,-2.10742 5.61971,-1.31712 10.93244,-3.29156 15.9375,-5.92578 5.09286,-2.63424 9.79116,-5.8395 14.09375,-9.61524 4.3904,-3.77574 8.25314,-8.03376 11.58984,-12.77539 l -26.3418,-26.47461 c -1.40492,3.16109 -3.24824,6.05912 -5.53125,8.69336 -2.1952,2.54643 -4.74296,4.74197 -7.64062,6.58594 -2.80986,1.75616 -5.839,3.11614 -9.08789,4.08203 -3.2489,0.96589 -6.62831,1.44922 -10.14063,1.44922 -1.40492,0 -2.80991,-0.045 -4.21484,-0.13281 -1.40493,-0.17562 -2.80992,-0.48284 -4.21484,-0.92188 l 67.43554,-81.265625 c -3.3367,-4.741631 -7.19944,-8.999648 -11.58984,-12.775391 -4.3904,-3.863551 -9.13175,-7.113808 -14.22461,-9.748046 -5.00506,-2.63424 -10.31779,-4.653667 -15.9375,-6.058594 -5.61971,-1.404928 -11.37077,-2.107422 -17.25391,-2.107422 z m 565.10938,0 c -9.9223,0 -19.27389,1.845268 -28.05469,5.533203 -8.69299,3.600127 -16.33237,8.691746 -22.91797,15.277344 -6.49779,6.585598 -11.63441,14.489147 -15.41015,23.708984 -3.77575,9.132027 -5.66407,19.186117 -5.66407,30.162107 0,11.76627 1.88832,22.25868 5.66407,31.47852 3.77574,9.21984 8.91236,17.03533 15.41015,23.44531 6.5856,6.32217 14.22498,11.15158 22.91797,14.48828 8.7808,3.3367 18.13239,5.00391 28.05469,5.00391 4.56601,0 9.04515,-0.56944 13.43555,-1.71094 4.47819,-1.1415 8.82427,-2.6776 13.03906,-4.60937 4.21478,-2.01959 8.21058,-4.34819 11.98633,-6.98243 3.86355,-2.72204 7.50713,-5.61812 10.93164,-8.6914 l 13.96093,19.36133 h 8.69336 V 57.833984 h -8.69336 L 811.75391,74.5625 c -3.33671,-3.161087 -6.93723,-6.104125 -10.80079,-8.826172 -3.77573,-2.722047 -7.77154,-5.091745 -11.98632,-7.111328 -4.21479,-2.019583 -8.56086,-3.600684 -13.03907,-4.742188 -4.4782,-1.141502 -9.00039,-1.71289 -13.5664,-1.71289 z m -326.90821,5.40039 V 198.63477 h 35.95704 v -77.71094 c 0,-3.77574 0.70249,-7.33127 2.10742,-10.66797 1.40493,-3.3367 3.3363,-6.23474 5.79492,-8.69336 2.45862,-2.458623 5.35666,-4.389994 8.69336,-5.794922 3.3367,-1.404927 6.89223,-2.107422 10.66797,-2.107422 h 31.74219 V 57.833984 h -31.74219 c -7.90272,0 -15.5421,1.44804 -22.91797,4.345704 C 468.37999,64.989542 461.79533,69.03035 456,74.298828 L 444.14453,57.570312 Z m 108.79297,0 v 77.974608 c 0,10.09792 1.62416,19.22839 4.87305,27.39453 3.3367,8.07834 7.85889,14.97217 13.56641,20.67969 5.79532,5.61971 12.51305,9.96578 20.15234,13.03906 7.63929,3.07328 15.80506,4.60938 24.49805,4.60938 3.95136,0 7.81605,-0.52638 11.59179,-1.58008 3.86356,-0.96589 7.59519,-2.28282 11.19532,-3.95117 3.60012,-1.75616 7.02454,-3.77559 10.27343,-6.0586 3.33671,-2.37081 6.4539,-4.87357 9.35157,-7.50781 l 11.85351,16.46485 h 8.69336 V 57.570312 h -35.95703 v 77.974608 c 0,3.77574 -0.70249,7.46237 -2.10742,11.0625 -1.40493,3.51232 -3.3363,6.67452 -5.79492,9.48438 -2.45863,2.80985 -5.35666,5.09149 -8.69336,6.84765 -3.2489,1.66835 -6.71832,2.50391 -10.40625,2.50391 -3.77575,0 -7.33127,-0.65944 -10.66797,-1.97656 -3.2489,-1.31712 -6.10192,-3.2485 -8.56055,-5.79492 -2.45862,-2.54644 -4.435,-5.66363 -5.92773,-9.35157 -1.40493,-3.77574 -2.10742,-8.03376 -2.10742,-12.77539 V 57.570312 Z m 317.42579,0 V 198.63477 h 35.95703 v -77.71094 c 0,-3.77574 0.70249,-7.33127 2.10742,-10.66797 1.40493,-3.3367 3.33825,-6.23474 5.79687,-8.69336 2.45863,-2.458623 5.35471,-4.389994 8.69141,-5.794922 3.3367,-1.404927 6.89418,-2.107422 10.66992,-2.107422 h 31.74219 V 57.833984 h -31.74219 c -7.90272,0 -15.5421,1.44804 -22.91797,4.345704 -7.37587,2.809854 -13.96248,6.850662 -19.75781,12.11914 L 870.36523,57.570312 Z m 108.79492,0 v 77.974608 c 0,10.09792 1.62415,19.22839 4.87304,27.39453 3.33671,8.07834 7.85889,14.97217 13.56641,20.67969 5.79533,5.61971 12.51305,9.96578 20.15235,13.03906 7.6393,3.07328 15.8051,4.60938 24.498,4.60938 4.127,0 8.2089,-0.8336 12.2481,-2.50196 4.127,-1.66834 8.1678,-3.33555 12.1191,-5.0039 -1.3171,3.24889 -3.0293,6.23303 -5.1367,8.95508 -2.1074,2.80985 -4.5671,5.22455 -7.3769,7.24414 -2.7221,2.01958 -5.7082,3.60069 -8.9571,4.74218 -3.2489,1.14151 -6.6283,1.7129 -10.1406,1.7129 l -20.0215,-0.26368 v 36.22071 l 18.4414,0.26367 c 9.9223,0 19.2289,-1.88832 27.9219,-5.66406 8.693,-3.77575 16.2893,-8.91237 22.7871,-15.41016 6.5856,-6.49779 11.7653,-14.09412 15.541,-22.78711 3.7758,-8.69299 5.7071,-17.99957 5.7949,-27.92187 V 57.570312 h -36.2207 v 77.974608 c 0,3.77574 -0.7025,7.46237 -2.1074,11.0625 -1.4049,3.51232 -3.3363,6.67452 -5.7949,9.48438 -2.4586,2.80985 -5.3567,5.09149 -8.6934,6.84765 -3.2489,1.66835 -6.7163,2.50391 -10.4043,2.50391 -3.7757,0 -7.3332,-0.61444 -10.6699,-1.84375 -3.2489,-1.22931 -6.1019,-3.07458 -8.5605,-5.5332 -2.4587,-2.54644 -4.435,-5.66363 -5.9278,-9.35157 -1.4049,-3.77574 -2.1074,-8.16486 -2.1074,-13.16992 V 57.570312 Z m 519.9316,27.791016 V 121.1875 h 110.6387 V 85.361328 Z m -1293.14645,3.16211 c 1.75616,0 3.42337,0.08805 5.00391,0.263671 1.66835,0.175616 3.33751,0.570891 5.00586,1.185547 l -41.88477,55.582034 c -0.70246,-1.22931 -1.27385,-2.6343 -1.71289,-4.21485 -0.43904,-1.58054 -0.83431,-3.20469 -1.18554,-4.87304 -0.26343,-1.75616 -0.48259,-3.46837 -0.65821,-5.13672 -0.0878,-1.66835 -0.13086,-3.1614 -0.13086,-4.47852 0,-5.88313 0.92166,-11.15282 2.76563,-15.80664 1.84397,-4.74163 4.34672,-8.78048 7.50781,-12.117186 3.2489,-3.336703 7.02358,-5.882512 11.32617,-7.638672 4.3904,-1.843966 9.04565,-2.765624 13.96289,-2.765624 z m 146.13282,0 c 4.91724,0 9.52748,0.964708 13.83007,2.896484 4.3904,1.931775 8.21009,4.610645 11.45899,8.035156 3.24889,3.424512 5.79666,7.508372 7.64062,12.250002 1.93178,4.65382 2.89649,9.70239 2.89649,15.14648 0,5.4441 -0.96471,10.49266 -2.89649,15.14649 -1.84396,4.65382 -4.39173,8.69267 -7.64062,12.11718 -3.2489,3.42452 -7.06859,6.14644 -11.45899,8.16602 -4.30259,1.93178 -8.91283,2.89844 -13.83007,2.89844 -4.91725,0 -9.57054,-0.96666 -13.96094,-2.89844 -4.30259,-2.01958 -8.07728,-4.7415 -11.32617,-8.16602 -3.2489,-3.42451 -5.79666,-7.46336 -7.64063,-12.11718 -1.84397,-4.65383 -2.76562,-9.70239 -2.76562,-15.14649 0,-4.91724 0.92165,-9.65859 2.76562,-14.22461 1.84397,-4.65382 4.39173,-8.73768 7.64063,-12.25 3.24889,-3.600121 7.02358,-6.453152 11.32617,-8.560544 4.3904,-2.195199 9.04369,-3.292968 13.96094,-3.292968 z m 418.97656,0 c 4.91724,0 9.52749,1.097769 13.83008,3.292968 4.3904,2.107392 8.21009,4.960423 11.45898,8.560544 3.2489,3.51232 5.7947,7.59618 7.63867,12.25 1.93178,4.56602 2.89844,9.30737 2.89844,14.22461 0,4.91725 -0.96666,9.70165 -2.89844,14.35547 -1.84397,4.56602 -4.38977,8.64987 -7.63867,12.25 -3.24889,3.51232 -7.06858,6.36535 -11.45898,8.56055 -4.30259,2.10739 -8.91284,3.16211 -13.83008,3.16211 -4.91725,0 -9.57054,-0.8336 -13.96094,-2.50196 -4.30259,-1.66835 -8.07923,-4.12805 -11.32812,-7.37695 -3.16109,-3.24889 -5.66385,-7.2447 -7.50782,-11.98633 -1.84396,-4.82944 -2.76562,-10.31633 -2.76562,-16.46289 0,-6.14656 0.92166,-11.5904 2.76562,-16.33203 1.84397,-4.82944 4.34673,-8.86829 7.50782,-12.117186 3.24889,-3.248895 7.02553,-5.708602 11.32812,-7.376953 4.3904,-1.668352 9.04369,-2.501953 13.96094,-2.501953 z M 1854.3848,113.41602 c 5.005,0 9.7033,0.79055 14.0937,2.37109 4.4782,1.58054 8.341,3.73303 11.5899,6.45508 3.3367,2.72204 5.9275,5.92534 7.7714,9.61328 1.9318,3.60013 2.8985,7.50788 2.8985,11.72265 0,4.21479 -0.9667,8.07948 -2.8985,11.5918 -1.8439,3.51232 -4.4347,6.54146 -7.7714,9.08789 -3.2489,2.54643 -7.1117,4.56586 -11.5899,6.0586 -4.3904,1.40492 -9.0887,2.10742 -14.0937,2.10742 -5.0051,0 -9.7014,-0.7025 -14.0918,-2.10742 -4.3904,-1.49274 -8.2551,-3.51217 -11.5918,-6.0586 -3.2489,-2.54643 -5.8397,-5.57557 -7.7715,-9.08789 -1.844,-3.51232 -2.7656,-7.37701 -2.7656,-11.5918 0,-4.21477 0.9216,-8.12252 2.7656,-11.72265 1.9318,-3.68794 4.5226,-6.89124 7.7715,-9.61328 3.3367,-2.72205 7.2014,-4.87454 11.5918,-6.45508 4.3904,-1.58054 9.0867,-2.37109 14.0918,-2.37109 z m 118.9355,49.39257 c -3.0733,0 -5.9693,0.61444 -8.6914,1.84375 -2.6342,1.14151 -5.0059,2.72261 -7.1133,4.74219 -2.0196,2.01958 -3.6437,4.38928 -4.873,7.11133 -1.1415,2.72205 -1.7129,5.62008 -1.7129,8.69336 0,2.80985 0.4833,5.48872 1.4492,8.03516 0.9659,2.45861 2.2828,4.65416 3.9512,6.58593 1.6683,2.01959 3.6447,3.68679 5.9277,5.00391 2.283,1.31712 4.7408,2.23878 7.375,2.76562 -0.7025,2.54644 -1.6672,5.04919 -2.8965,7.50782 -1.2293,2.54643 -3.0746,5.2253 -5.5332,8.03515 l 14.3574,10.00977 c 3.688,-2.72205 6.8052,-6.05841 9.3516,-10.00977 2.6342,-3.86355 4.7417,-7.99046 6.3223,-12.38086 1.6683,-4.30259 2.8542,-8.64866 3.5566,-13.03906 0.7903,-4.47821 1.1856,-8.65012 1.1856,-12.51367 0,-3.07328 -0.5714,-5.97131 -1.7129,-8.69336 -1.1415,-2.72205 -2.7657,-5.09175 -4.8731,-7.11133 -2.0196,-2.01958 -4.4343,-3.60068 -7.2441,-4.74219 -2.7221,-1.22931 -5.6651,-1.84375 -8.8262,-1.84375 z M 495.25,332.45312 c -3.3367,0 -6.4989,0.65945 -9.48438,1.97657 -2.89765,1.22931 -5.44347,2.94152 -7.63867,5.13672 -2.10739,2.10739 -3.8196,4.6532 -5.13672,7.63867 -1.22931,2.89766 -1.84375,5.97181 -1.84375,9.2207 0,3.3367 0.61444,6.4539 1.84375,9.35156 1.31712,2.89767 3.02933,5.44348 5.13672,7.63868 2.1952,2.10739 4.74102,3.81959 7.63867,5.13671 2.98548,1.22932 6.14768,1.84375 9.48438,1.84375 3.3367,0 6.4539,-0.61443 9.35156,-1.84375 2.98547,-1.31712 5.57629,-3.02932 7.77149,-5.13671 2.1952,-2.1952 3.9074,-4.74101 5.13672,-7.63868 1.31712,-2.89766 1.97461,-6.01486 1.97461,-9.35156 0,-3.24889 -0.65749,-6.32304 -1.97461,-9.2207 -1.22932,-2.98547 -2.94152,-5.53128 -5.13672,-7.63867 -2.1952,-2.1952 -4.78602,-3.90741 -7.77149,-5.13672 -2.89766,-1.31712 -6.01486,-1.97657 -9.35156,-1.97657 z m 714.4062,0 c -3.3366,0 -6.4989,0.65945 -9.4843,1.97657 -2.8977,1.22931 -5.4435,2.94152 -7.6387,5.13672 -2.1074,2.10739 -3.8196,4.6532 -5.1367,7.63867 -1.2293,2.89766 -1.8438,5.97181 -1.8438,9.2207 0,3.3367 0.6145,6.4539 1.8438,9.35156 1.3171,2.89767 3.0293,5.44348 5.1367,7.63868 2.1952,2.10739 4.741,3.81959 7.6387,5.13671 2.9854,1.22932 6.1477,1.84375 9.4843,1.84375 3.3368,0 6.4539,-0.61443 9.3516,-1.84375 2.9855,-1.31712 5.5743,-3.02932 7.7695,-5.13671 2.1952,-2.1952 3.9075,-4.74101 5.1368,-7.63868 1.3171,-2.89766 1.9765,-6.01486 1.9765,-9.35156 0,-3.24889 -0.6594,-6.32304 -1.9765,-9.2207 -1.2293,-2.98547 -2.9416,-5.53128 -5.1368,-7.63867 -2.1952,-2.1952 -4.784,-3.90741 -7.7695,-5.13672 -2.8977,-1.31712 -6.0148,-1.97657 -9.3516,-1.97657 z m -519.99995,6.19141 v 56.37305 h -17.51758 v 35.82422 h 17.51758 v 41.88476 c 0,8.69299 1.62415,16.85876 4.87305,24.49805 3.3367,7.63929 7.85888,14.35702 13.5664,20.15234 5.79533,5.70752 12.51305,10.22971 20.15235,13.56641 7.63929,3.24889 15.80505,4.87305 24.49804,4.87305 h 27.26563 v -35.82422 h -27.26563 c -3.77574,0 -7.33126,-0.7025 -10.66797,-2.10742 -3.33669,-1.49274 -6.23473,-3.46912 -8.69335,-5.92774 -2.45863,-2.45862 -4.39,-5.31165 -5.79493,-8.56055 -1.40492,-3.3367 -2.10742,-6.89417 -2.10742,-10.66992 V 430.8418 h 54.5293 v -35.82422 h -54.5293 v -56.37305 z m 391.44725,0 v 56.37305 h -17.5176 v 35.82422 h 17.5176 v 41.88476 c 0,8.69299 1.6261,16.85876 4.875,24.49805 3.3367,7.63929 7.8589,14.35702 13.5664,20.15234 5.7953,5.70752 12.5111,10.22971 20.1504,13.56641 7.6393,3.24889 15.807,4.87305 24.5,4.87305 h 27.2637 v -35.82422 h -27.2637 c -3.7757,0 -7.3332,-0.7025 -10.6699,-2.10742 -3.3367,-1.49274 -6.2347,-3.46912 -8.6934,-5.92774 -2.4586,-2.45862 -4.39,-5.31165 -5.7949,-8.56055 -1.4049,-3.3367 -2.1074,-6.89417 -2.1074,-10.66992 V 430.8418 h 54.5293 v -35.82422 h -54.5293 V 338.64453 Z M 1.4609375,346.94141 v 188.875 H 39.263672 v -37.80079 l 42.279297,-0.26367 16.46289,38.06446 h 40.171871 l -20.9414,-49.39063 c 5.44409,-3.42451 10.36155,-7.46532 14.75195,-12.11914 4.3904,-4.65382 8.07898,-9.74544 11.06445,-15.27734 3.07328,-5.53191 5.39993,-11.37102 6.98047,-17.51758 1.66835,-6.14656 2.50196,-12.46901 2.50196,-18.9668 0,-6.93683 -0.92166,-13.6115 -2.76563,-20.02148 -1.75616,-6.40998 -4.30392,-12.42326 -7.64062,-18.04297 -3.2489,-5.61971 -7.1997,-10.71328 -11.85352,-15.2793 -4.56601,-4.65382 -9.65763,-8.60462 -15.27734,-11.85351 -5.53191,-3.33671 -11.50408,-5.88447 -17.914066,-7.64063 -6.409982,-1.84397 -13.082701,-2.76562 -20.019531,-2.76562 z m 3074.6855625,0 8.0332,142.25 h 29.373 l 8.1661,-142.25 z M 39.263672,384.74414 h 37.800781 c 5.180671,0 10.053126,1.00971 14.619141,3.0293 4.566015,1.93177 8.561816,4.60869 11.986326,8.0332 3.42451,3.42451 6.10338,7.46337 8.03516,12.11719 2.01958,4.56601 3.0293,9.44042 3.0293,14.62109 0,5.18067 -1.00972,10.09813 -3.0293,14.75196 -1.93178,4.566 -4.61065,8.55986 -8.03516,11.98437 -3.42451,3.42451 -7.420311,6.14839 -11.986326,8.16797 -4.566015,1.93177 -9.43847,2.89648 -14.619141,2.89648 H 39.263672 Z m 197.566408,4.60938 c -9.9223,0 -19.27389,1.80026 -28.05469,5.40039 -8.69299,3.60012 -16.33237,8.64869 -22.91797,15.14648 -6.49779,6.49779 -11.63441,14.35633 -15.41015,23.57617 -3.77575,9.21984 -5.66211,19.40503 -5.66211,30.55664 0,10.88819 1.88636,20.89922 5.66211,30.03125 3.77574,9.04422 8.91236,16.85972 15.41015,23.44532 6.5856,6.58559 14.22498,11.72222 22.91797,15.41015 8.7808,3.68794 18.13239,5.53125 28.05469,5.53125 5.88313,0 11.59115,-0.70249 17.12304,-2.10742 5.61972,-1.31712 10.93246,-3.2935 15.9375,-5.92773 5.09287,-2.63424 9.79116,-5.8395 14.09376,-9.61524 4.39038,-3.77574 8.25314,-8.03376 11.58984,-12.77539 l -26.3418,-26.47461 c -1.40493,3.16109 -3.25019,6.05912 -5.5332,8.69336 -2.1952,2.54643 -4.74101,4.74197 -7.63867,6.58594 -2.80986,1.75616 -5.839,3.11809 -9.08789,4.08398 -3.2489,0.96589 -6.63026,1.44727 -10.14258,1.44727 -1.40493,0 -2.80992,-0.043 -4.21485,-0.13086 -1.40492,-0.17562 -2.80991,-0.48284 -4.21484,-0.92188 l 67.4375,-81.26562 c -3.3367,-4.74163 -7.2014,-9.0016 -11.5918,-12.77735 -4.3904,-3.86354 -9.13174,-7.11185 -14.22461,-9.74609 -5.00505,-2.63424 -10.31583,-4.65366 -15.93554,-6.05859 -5.61971,-1.40493 -11.37273,-2.10742 -17.25586,-2.10742 z m 140.93164,0 c -9.9223,0 -19.27389,1.88832 -28.05469,5.66406 -8.69299,3.77574 -16.33237,9.00042 -22.91797,15.67383 -6.49779,6.6734 -11.63441,14.575 -15.41015,23.70703 -3.77575,9.13203 -5.66211,19.01 -5.66211,29.63476 0,11.59066 1.88636,21.99696 5.66211,31.2168 3.77574,9.21984 8.91236,17.03338 15.41015,23.44336 6.5856,6.32217 14.22498,11.19658 22.91797,14.62109 8.7808,3.42451 18.13239,5.13672 28.05469,5.13672 2.98547,0 6.19072,-0.17611 9.61523,-0.52734 3.51232,-0.35123 6.84868,-1.00872 10.00977,-1.97461 3.24889,-0.87808 6.19193,-2.02085 8.82617,-3.42578 2.63424,-1.49274 4.65367,-3.3791 6.05859,-5.66211 -0.96588,3.60013 -2.28282,7.02454 -3.95117,10.27344 -1.58054,3.24889 -3.73303,6.10192 -6.45508,8.56054 -2.72204,2.54643 -6.0584,4.52281 -10.00976,5.92774 -3.95136,1.49273 -8.73576,2.23828 -14.35547,2.23828 l -17.78125,-0.26367 v 35.95703 l 18.04297,0.26367 c 9.9223,0 19.23084,-1.88832 27.92383,-5.66406 8.78079,-3.77575 16.42018,-8.91237 22.91797,-15.41016 6.58559,-6.49779 11.76527,-14.09217 15.54101,-22.78516 3.77574,-8.69299 5.66406,-18.00152 5.66406,-27.92382 V 395.01758 h -8.69336 l -13.96093,16.72656 c -3.33671,-3.16109 -6.93723,-6.10217 -10.80078,-8.82422 -3.77575,-2.72205 -7.7696,-5.0937 -11.98438,-7.11328 -4.21478,-2.01958 -8.56281,-3.59873 -13.04102,-4.74023 -4.47819,-1.14151 -9.00039,-1.71289 -13.5664,-1.71289 z m 596.1289,0 c -9.92229,0 -19.27388,1.84331 -28.05468,5.53125 -8.69299,3.60012 -16.33237,8.69369 -22.91797,15.27929 -6.49779,6.5856 -11.63441,14.4872 -15.41016,23.70703 -3.77574,9.13203 -5.66406,19.18612 -5.66406,30.16211 0,11.76627 1.88832,22.26063 5.66406,31.48047 3.77575,9.21984 8.91237,17.03338 15.41016,23.44336 6.5856,6.32218 14.22498,11.15158 22.91797,14.48828 8.7808,3.33671 18.13239,5.00586 28.05468,5.00586 4.56602,0 9.04515,-0.57139 13.43555,-1.71289 4.47821,-1.1415 8.82431,-2.6776 13.03903,-4.60937 4.2148,-2.01959 8.2106,-4.34623 11.9864,-6.98047 3.8635,-2.72205 7.5071,-5.62008 10.9316,-8.69336 l 13.9609,19.36133 h 8.6934 V 395.01758 h -8.6934 l -13.9609,16.72656 c -3.3367,-3.16109 -6.9372,-6.10217 -10.8008,-8.82422 -3.7757,-2.72205 -7.7715,-5.0937 -11.9863,-7.11328 -4.2148,-2.01958 -8.56086,-3.59873 -13.03907,-4.74023 -4.47821,-1.14151 -9.00039,-1.71289 -13.56641,-1.71289 z m 345.61328,0 c -9.9223,0 -19.2739,1.88832 -28.0547,5.66406 -8.693,3.77574 -16.3324,9.00042 -22.918,15.67383 -6.4976,6.58559 -11.6344,14.44414 -15.4101,23.57617 -3.7757,9.13203 -5.6641,19.05305 -5.6641,29.76562 0,10.53696 1.8884,20.37188 5.6641,29.50391 3.7757,9.04422 8.9125,16.90277 15.4101,23.57617 6.5856,6.5856 14.225,11.81028 22.918,15.67383 8.7808,3.77574 18.1324,5.66406 28.0547,5.66406 10.0101,0 19.3617,-1.88832 28.0547,-5.66406 8.7808,-3.86355 16.4202,-9.08823 22.918,-15.67383 6.4978,-6.6734 11.6344,-14.53195 15.4101,-23.57617 3.7758,-9.13203 5.6621,-18.96695 5.6621,-29.50391 0,-11.23942 -1.8863,-21.42461 -5.6621,-30.55664 -3.7757,-9.21984 -8.9123,-17.07838 -15.4101,-23.57617 -6.4978,-6.5856 -14.1372,-11.63416 -22.918,-15.14648 -8.693,-3.60013 -18.0446,-5.40039 -28.0547,-5.40039 z m 383.5449,0 c -9.9223,0 -19.2739,1.88832 -28.0547,5.66406 -8.6929,3.77574 -16.3323,9.00042 -22.9179,15.67383 -6.4978,6.58559 -11.6344,14.44414 -15.4102,23.57617 -3.7757,9.13203 -5.664,19.05305 -5.664,29.76562 0,10.53696 1.8883,20.37188 5.664,29.50391 3.7758,9.04422 8.9124,16.90277 15.4102,23.57617 6.5856,6.5856 14.225,11.81028 22.9179,15.67383 8.7808,3.77574 18.1324,5.66406 28.0547,5.66406 10.0101,0 19.3617,-1.88832 28.0547,-5.66406 8.7808,-3.86355 16.4202,-9.08823 22.918,-15.67383 6.4978,-6.6734 11.6344,-14.53195 15.4101,-23.57617 3.7758,-9.13203 5.6641,-18.96695 5.6641,-29.50391 0,-11.23942 -1.8883,-21.42461 -5.6641,-30.55664 -3.7757,-9.21984 -8.9123,-17.07838 -15.4101,-23.57617 -6.4978,-6.5856 -14.1372,-11.63416 -22.918,-15.14648 -8.693,-3.60013 -18.0446,-5.40039 -28.0547,-5.40039 z m 321.1133,0 c -9.9223,0 -19.2739,1.80026 -28.0547,5.40039 -8.693,3.60012 -16.3323,8.64869 -22.9179,15.14648 -6.4978,6.49779 -11.6345,14.35633 -15.4102,23.57617 -3.7757,9.21984 -5.6641,19.40503 -5.6641,30.55664 0,10.88819 1.8884,20.89922 5.6641,30.03125 3.7757,9.04422 8.9124,16.85972 15.4102,23.44532 6.5856,6.58559 14.2249,11.72222 22.9179,15.41015 8.7808,3.68794 18.1324,5.53125 28.0547,5.53125 5.8831,0 11.5912,-0.70249 17.1231,-2.10742 5.6197,-1.31712 10.9324,-3.2935 15.9375,-5.92773 5.0928,-2.63424 9.7892,-5.8395 14.0918,-9.61524 4.3904,-3.77574 8.2551,-8.03376 11.5917,-12.77539 l -26.3437,-26.47461 c -1.4049,3.16109 -3.2482,6.05912 -5.5313,8.69336 -2.195,2.54643 -4.741,4.74197 -7.6386,6.58594 -2.8099,1.75616 -5.839,3.11809 -9.0879,4.08398 -3.2489,0.96589 -6.6303,1.44727 -10.1426,1.44727 -1.4049,0 -2.8099,-0.043 -4.2148,-0.13086 -1.405,-0.17562 -2.81,-0.48284 -4.2149,-0.92188 l 67.4375,-81.26562 c -3.3367,-4.74163 -7.2014,-9.0016 -11.5918,-12.77735 -4.3904,-3.86354 -9.1317,-7.11185 -14.2246,-9.74609 -5.005,-2.63424 -10.3178,-4.65366 -15.9375,-6.05859 -5.6197,-1.40493 -11.3708,-2.10742 -17.2539,-2.10742 z m 650.9199,0 c -9.9223,0 -19.2739,1.88832 -28.0547,5.66406 -8.6929,3.77574 -16.3323,9.00042 -22.9179,15.67383 -6.4978,6.58559 -11.6344,14.44414 -15.4102,23.57617 -3.7757,9.13203 -5.6621,19.05305 -5.6621,29.76562 0,10.53696 1.8864,20.37188 5.6621,29.50391 3.7758,9.04422 8.9124,16.90277 15.4102,23.57617 6.5856,6.5856 14.225,11.81028 22.9179,15.67383 8.7808,3.77574 18.1324,5.66406 28.0547,5.66406 10.0101,0 19.3617,-1.88832 28.0547,-5.66406 8.7808,-3.86355 16.4202,-9.08823 22.918,-15.67383 6.4978,-6.6734 11.6344,-14.53195 15.4101,-23.57617 3.7758,-9.13203 5.6641,-18.96695 5.6641,-29.50391 0,-11.23942 -1.8883,-21.42461 -5.6641,-30.55664 -3.7757,-9.21984 -8.9123,-17.07838 -15.4101,-23.57617 -6.4978,-6.5856 -14.1372,-11.63416 -22.918,-15.14648 -8.693,-3.60013 -18.0446,-5.40039 -28.0547,-5.40039 z m 156.4746,0 c -9.9223,0 -19.2738,1.88832 -28.0546,5.66406 -8.693,3.77574 -16.3324,9.00042 -22.918,15.67383 -6.4978,6.58559 -11.6344,14.44414 -15.4102,23.57617 -3.7757,9.13203 -5.664,19.05305 -5.664,29.76562 0,10.53696 1.8883,20.37188 5.664,29.50391 3.7758,9.04422 8.9124,16.90277 15.4102,23.57617 6.5856,6.5856 14.225,11.81028 22.918,15.67383 8.7808,3.77574 18.1323,5.66406 28.0546,5.66406 10.0101,0 19.3617,-1.88832 28.0547,-5.66406 8.7808,-3.86355 16.4202,-9.08823 22.918,-15.67383 6.4978,-6.6734 11.6344,-14.53195 15.4102,-23.57617 3.7757,-9.13203 5.664,-18.96695 5.664,-29.50391 0,-11.23942 -1.8883,-21.42461 -5.664,-30.55664 -3.7758,-9.21984 -8.9124,-17.07838 -15.4102,-23.57617 -6.4978,-6.5856 -14.1372,-11.63416 -22.918,-15.14648 -8.693,-3.60013 -18.0446,-5.40039 -28.0547,-5.40039 z m -964,0.26367 c -4.566,0 -9.0882,0.56944 -13.5664,1.71093 -4.4782,1.14151 -8.8242,2.72261 -13.039,4.74219 -4.127,1.93178 -8.1228,4.25842 -11.9864,6.98047 -3.8635,2.72205 -7.419,5.62008 -10.6679,8.69336 l -14.3574,-16.99023 h -8.6934 v 194.80078 h 36.2207 v -63.22071 c 2.722,1.58055 5.532,3.11664 8.4297,4.60938 2.9855,1.49273 5.9715,2.85467 8.957,4.08398 3.0733,1.14151 6.1474,2.06316 9.2207,2.76563 3.1611,0.70246 6.3214,1.05273 9.4824,1.05273 9.9223,0 19.2309,-1.7122 27.9239,-5.13672 8.7808,-3.42451 16.4182,-8.34197 22.916,-14.75195 6.5856,-6.49779 11.7672,-14.35633 15.543,-23.57617 3.7757,-9.30765 5.664,-19.757 5.664,-31.34766 0,-11.15161 -1.8883,-21.29375 -5.664,-30.42578 -3.7758,-9.21984 -8.9574,-17.07838 -15.543,-23.57617 -6.4978,-6.49779 -14.1352,-11.50135 -22.916,-15.01367 -8.693,-3.60013 -18.0016,-5.40039 -27.9239,-5.40039 z m -392.6328,2.37109 c -7.9905,0 -15.6749,1.44804 -23.0508,4.3457 -7.288,2.80986 -13.8296,6.84871 -19.625,12.11719 l -11.8535,-13.69726 h -8.6933 v 141.0625 h 35.957 v -80.60743 c 0,-3.68793 0.7025,-7.1554 2.1074,-10.40429 1.405,-3.33671 3.3383,-6.23474 5.7969,-8.69336 2.4586,-2.45863 5.3547,-4.39 8.6914,-5.79492 3.3367,-1.40493 6.8942,-2.10743 10.6699,-2.10743 3.688,0 7.1554,0.7025 10.4043,2.10743 3.2489,1.40492 6.1039,3.33629 8.5625,5.79492 2.4586,2.45862 4.39,5.35665 5.7949,8.69336 1.405,3.24889 2.1075,6.71636 2.1075,10.40429 v 80.60743 h 35.957 v -80.60743 c 0,-8.69299 -1.6692,-16.85875 -5.0059,-24.49804 -3.2489,-7.7271 -7.726,-14.44483 -13.4336,-20.15235 -5.7075,-5.79532 -12.3821,-10.31751 -20.0214,-13.5664 -7.6393,-3.33671 -15.7601,-5.00391 -24.3653,-5.00391 z m 689.6426,0 c -7.9905,0 -15.673,1.44804 -23.0488,4.3457 -7.2881,2.80986 -13.8297,6.84871 -19.625,12.11719 l -11.8535,-13.69726 h -8.6934 v 141.0625 h 35.957 v -80.60743 c 0,-3.68793 0.7025,-7.1554 2.1075,-10.40429 1.4049,-3.33671 3.3363,-6.23474 5.7949,-8.69336 2.4586,-2.45863 5.3566,-4.39 8.6933,-5.79492 3.3367,-1.40493 6.8923,-2.10743 10.668,-2.10743 3.6879,0 7.1574,0.7025 10.4063,2.10743 3.2489,1.40492 6.1019,3.33629 8.5605,5.79492 2.4586,2.45862 4.39,5.35665 5.7949,8.69336 1.405,3.24889 2.1074,6.71636 2.1074,10.40429 v 80.60743 h 35.9571 v -80.60743 c 0,-8.69299 -1.6672,-16.85875 -5.0039,-24.49804 -3.2489,-7.7271 -7.7281,-14.44483 -13.4356,-20.15235 -5.7075,-5.79532 -12.3802,-10.31751 -20.0195,-13.5664 -7.6393,-3.33671 -15.762,-5.00391 -24.3672,-5.00391 z m 822.4102,0 c -7.9906,0 -15.673,1.44804 -23.0489,4.3457 -7.288,2.80986 -13.8296,6.84871 -19.625,12.11719 l -11.8554,-13.69726 h -8.6934 v 141.0625 h 35.959 v -80.60743 c 0,-3.68793 0.7025,-7.1554 2.1074,-10.40429 1.4049,-3.33671 3.3363,-6.23474 5.7949,-8.69336 2.4587,-2.45863 5.3567,-4.39 8.6934,-5.79492 3.3367,-1.40493 6.8922,-2.10743 10.668,-2.10743 3.6879,0 7.1554,0.7025 10.4043,2.10743 3.2489,1.40492 6.1038,3.33629 8.5625,5.79492 2.4586,2.45862 4.39,5.35665 5.7949,8.69336 1.4049,3.24889 2.1074,6.71636 2.1074,10.40429 v 80.60743 h 35.957 v -80.60743 c 0,-8.69299 -1.6672,-16.85875 -5.0039,-24.49804 -3.2489,-7.7271 -7.728,-14.44483 -13.4355,-20.15235 -5.7075,-5.79532 -12.3804,-10.31751 -20.0195,-13.5664 -7.6393,-3.33671 -15.7621,-5.00391 -24.3672,-5.00391 z m -2509.90238,2.76563 v 141.0625 h 36.2207 v -141.0625 z m 322.95703,0 v 141.0625 h 35.95703 v -77.70899 c 0,-3.77574 0.7025,-7.33322 2.10742,-10.66992 1.40493,-3.3367 3.33631,-6.23278 5.79492,-8.69141 2.45863,-2.45862 5.35666,-4.39194 8.69336,-5.79687 3.33671,-1.40493 6.89223,-2.10742 10.66797,-2.10742 h 31.74414 v -35.82422 h -31.74414 c -7.90271,0 -15.5421,1.44804 -22.91797,4.3457 -7.37587,2.80986 -13.96053,6.84871 -19.75586,12.11719 l -11.85351,-16.72656 z m 391.44725,0 v 141.0625 h 36.2207 v -141.0625 z m -610.61522,0.26367 c -6.23437,0 -12.07544,1.18387 -17.51953,3.55469 -5.44409,2.283 -10.18544,5.4452 -14.22461,9.48437 -4.03917,4.03917 -7.24442,8.78052 -9.61523,14.22461 -2.28301,5.44409 -3.42383,11.28321 -3.42383,17.51758 0,6.23436 1.14082,12.07348 3.42383,17.51758 2.37081,5.44409 5.57606,10.23044 9.61523,14.35742 4.03917,4.03917 8.78052,7.24442 14.22461,9.61523 5.44409,2.37082 11.28516,3.55469 17.51953,3.55469 h 37.40625 c 2.45862,0 4.56415,0.39528 6.32031,1.18555 1.75616,0.79027 2.63477,2.45942 2.63477,5.00586 0,2.45862 -0.87861,4.5661 -2.63477,6.32226 -1.75616,1.75616 -3.86169,2.63477 -6.32031,2.63477 h -82.18945 v 35.82422 h 82.18945 c 6.14656,0 11.94067,-1.14082 17.38477,-3.42383 5.44409,-2.37082 10.18544,-5.57607 14.22461,-9.61524 4.03916,-4.12697 7.24442,-8.86832 9.61523,-14.22461 2.37082,-5.44409 3.55664,-11.28321 3.55664,-17.51757 0,-6.14656 -1.18582,-11.80957 -3.55664,-16.99024 -2.37081,-5.18067 -5.57607,-9.61675 -9.61523,-13.30469 -4.03917,-3.68793 -8.78052,-6.54096 -14.22461,-8.56054 -5.4441,-2.10739 -11.23821,-3.16016 -17.38477,-3.16016 h -37.40625 c -2.45862,0 -4.5661,-0.8786 -6.32226,-2.63476 -1.75616,-1.84397 -2.63477,-4.03951 -2.63477,-6.58594 0,-2.45863 0.87861,-4.56611 2.63477,-6.32227 1.75616,-1.75616 3.86364,-2.63476 6.32226,-2.63476 h 72.83594 v -35.82422 z m 1712.25392,0 c -6.2344,0 -12.0735,1.18387 -17.5176,3.55469 -5.4441,2.283 -10.1854,5.4452 -14.2246,9.48437 -4.0392,4.03917 -7.2444,8.78052 -9.6152,14.22461 -2.283,5.44409 -3.4239,11.28321 -3.4239,17.51758 0,6.23436 1.1409,12.07348 3.4239,17.51758 2.3708,5.44409 5.576,10.23044 9.6152,14.35742 4.0392,4.03917 8.7805,7.24442 14.2246,9.61523 5.4441,2.37082 11.2832,3.55469 17.5176,3.55469 h 37.4062 c 2.4587,0 4.5661,0.39528 6.3223,1.18555 1.7562,0.79027 2.6348,2.45942 2.6348,5.00586 0,2.45862 -0.8786,4.5661 -2.6348,6.32226 -1.7562,1.75616 -3.8636,2.63477 -6.3223,2.63477 h -82.1875 v 35.82422 h 82.1875 c 6.1466,0 11.9427,-1.14082 17.3868,-3.42383 5.4441,-2.37082 10.1854,-5.57607 14.2246,-9.61524 4.0391,-4.12697 7.2444,-8.86832 9.6152,-14.22461 2.3708,-5.44409 3.5566,-11.28321 3.5566,-17.51757 0,-6.14656 -1.1858,-11.80957 -3.5566,-16.99024 -2.3708,-5.18067 -5.5761,-9.61675 -9.6152,-13.30469 -4.0392,-3.68793 -8.7805,-6.54096 -14.2246,-8.56054 -5.4441,-2.10739 -11.2402,-3.16016 -17.3868,-3.16016 h -37.4062 c -2.4586,0 -4.5661,-0.8786 -6.3223,-2.63476 -1.7561,-1.84397 -2.6328,-4.03951 -2.6328,-6.58594 0,-2.45863 0.8767,-4.56611 2.6328,-6.32227 1.7562,-1.75616 3.8637,-2.63476 6.3223,-2.63476 h 72.8379 v -35.82422 z m 216.5351,0 c -6.2343,0 -12.0734,1.18387 -17.5175,3.55469 -5.4441,2.283 -10.1855,5.4452 -14.2246,9.48437 -4.0392,4.03917 -7.2445,8.78052 -9.6153,14.22461 -2.283,5.44409 -3.4238,11.28321 -3.4238,17.51758 0,6.23436 1.1408,12.07348 3.4238,17.51758 2.3708,5.44409 5.5761,10.23044 9.6153,14.35742 4.0391,4.03917 8.7805,7.24442 14.2246,9.61523 5.4441,2.37082 11.2832,3.55469 17.5175,3.55469 h 37.4063 c 2.4586,0 4.5661,0.39528 6.3223,1.18555 1.7561,0.79027 2.6347,2.45942 2.6347,5.00586 0,2.45862 -0.8786,4.5661 -2.6347,6.32226 -1.7562,1.75616 -3.8637,2.63477 -6.3223,2.63477 h -82.1875 v 35.82422 h 82.1875 c 6.1466,0 11.9426,-1.14082 17.3867,-3.42383 5.4441,-2.37082 10.1855,-5.57607 14.2246,-9.61524 4.0392,-4.12697 7.2444,-8.86832 9.6153,-14.22461 2.3708,-5.44409 3.5546,-11.28321 3.5546,-17.51757 0,-6.14656 -1.1838,-11.80957 -3.5546,-16.99024 -2.3709,-5.18067 -5.5761,-9.61675 -9.6153,-13.30469 -4.0391,-3.68793 -8.7805,-6.54096 -14.2246,-8.56054 -5.4441,-2.10739 -11.2401,-3.16016 -17.3867,-3.16016 h -37.4063 c -2.4586,0 -4.5661,-0.8786 -6.3222,-2.63476 -1.7562,-1.84397 -2.6348,-4.03951 -2.6348,-6.58594 0,-2.45863 0.8786,-4.56611 2.6348,-6.32227 1.7561,-1.75616 3.8636,-2.63476 6.3222,-2.63476 h 72.836 v -35.82422 z m -2272.82222,30.6875 c 1.75616,0 3.42531,0.0881 5.00586,0.26367 1.66835,0.17562 3.33751,0.57089 5.00586,1.18555 l -41.88477,55.58203 c -0.70246,-1.22931 -1.27385,-2.6343 -1.71289,-4.21485 -0.43904,-1.58054 -0.83431,-3.20469 -1.18555,-4.87304 -0.26342,-1.75616 -0.48258,-3.46837 -0.6582,-5.13672 -0.0878,-1.66835 -0.13281,-3.1614 -0.13281,-4.47852 0,-5.88313 0.92361,-11.15086 2.76758,-15.80468 1.84396,-4.74164 4.34672,-8.78049 7.50781,-12.11719 3.24889,-3.3367 7.02358,-5.88447 11.32617,-7.64063 4.3904,-1.84396 9.04369,-2.76562 13.96094,-2.76562 z m 140.93164,0 c 4.91725,0 9.52749,1.09777 13.83008,3.29297 4.3904,2.10739 8.21009,4.96237 11.45898,8.5625 3.2489,3.51232 5.79666,7.59422 7.64063,12.24804 1.93177,4.56602 2.89648,9.30737 2.89648,14.22461 0,4.91725 -0.96471,9.70361 -2.89648,14.35742 -1.84397,4.56602 -4.39173,8.64989 -7.64063,12.25 -3.24889,3.51232 -7.06858,6.36535 -11.45898,8.56055 -4.30259,2.10739 -8.91283,3.16016 -13.83008,3.16016 -4.91725,0 -9.57054,-0.87665 -13.96094,-2.63281 -4.30259,-1.84397 -8.07728,-4.43479 -11.32617,-7.77149 -3.16109,-3.3367 -5.66385,-7.3325 -7.50781,-11.98633 -1.84397,-4.74163 -2.76563,-10.05436 -2.76563,-15.9375 0,-6.14656 0.92166,-11.5904 2.76563,-16.33203 1.84396,-4.82944 4.34672,-8.86829 7.50781,-12.11719 3.24889,-3.24889 7.02358,-5.70664 11.32617,-7.375 4.3904,-1.66835 9.04369,-2.5039 13.96094,-2.5039 z m 596.1289,0 c 4.91725,0 9.52749,1.09777 13.83008,3.29297 4.3904,2.10739 8.21009,4.96237 11.45899,8.5625 3.24891,3.51232 5.79471,7.59422 7.63871,12.24804 1.9317,4.56602 2.8984,9.30737 2.8984,14.22461 0,4.91725 -0.9667,9.70361 -2.8984,14.35742 -1.844,4.56602 -4.3898,8.64989 -7.63871,12.25 -3.2489,3.51232 -7.06859,6.36535 -11.45899,8.56055 -4.30259,2.10739 -8.91283,3.16016 -13.83008,3.16016 -4.91723,0 -9.57053,-0.83361 -13.96093,-2.50195 -4.30259,-1.66836 -8.07923,-4.12612 -11.32813,-7.375 -3.16108,-3.2489 -5.66384,-7.2447 -7.50781,-11.98633 -1.84397,-4.82944 -2.76563,-10.31829 -2.76563,-16.46485 10e-6,-6.14656 0.92166,-11.5904 2.76563,-16.33203 1.84397,-4.82944 4.34673,-8.86829 7.50781,-12.11719 3.2489,-3.24889 7.02554,-5.70664 11.32813,-7.375 4.3904,-1.66835 9.0437,-2.5039 13.96093,-2.5039 z m 345.61328,0 c 4.9173,0 9.5255,0.92166 13.8281,2.76562 4.3904,1.75616 8.2101,4.34698 11.459,7.77149 3.2489,3.3367 5.7967,7.37555 7.6406,12.11719 1.9318,4.65381 2.8965,9.8785 2.8965,15.67382 0,5.70752 -0.9647,10.9322 -2.8965,15.67383 -1.8439,4.74163 -4.3917,8.78049 -7.6406,12.11719 -3.2489,3.3367 -7.0686,5.92752 -11.459,7.77148 -4.3026,1.84397 -8.9108,2.76563 -13.8281,2.76563 -4.9172,0 -9.5725,-0.96471 -13.9629,-2.89649 -4.3026,-2.01958 -8.0773,-4.7415 -11.3262,-8.16601 -3.161,-3.42451 -5.6638,-7.46337 -7.5078,-12.11719 -1.8439,-4.65382 -2.7656,-9.70434 -2.7656,-15.14844 0,-5.79532 0.9217,-11.02001 2.7656,-15.67382 1.844,-4.74164 4.3468,-8.78049 7.5078,-12.11719 3.2489,-3.42451 7.0236,-6.01533 11.3262,-7.77149 4.3904,-1.84396 9.0457,-2.76562 13.9629,-2.76562 z m 383.5449,0 c 4.9173,0 9.5275,0.92166 13.8301,2.76562 4.3904,1.75616 8.2101,4.34698 11.459,7.77149 3.2489,3.3367 5.7947,7.37555 7.6387,12.11719 1.9317,4.65381 2.8964,9.8785 2.8964,15.67382 0,5.70752 -0.9647,10.9322 -2.8964,15.67383 -1.844,4.74163 -4.3898,8.78049 -7.6387,12.11719 -3.2489,3.3367 -7.0686,5.92752 -11.459,7.77148 -4.3026,1.84397 -8.9128,2.76563 -13.8301,2.76563 -4.9172,0 -9.5725,-0.96471 -13.9629,-2.89649 -4.3026,-2.01958 -8.0772,-4.7415 -11.3261,-8.16601 -3.1611,-3.42451 -5.6639,-7.46337 -7.5078,-12.11719 -1.844,-4.65382 -2.7657,-9.70434 -2.7657,-15.14844 0,-5.79532 0.9217,-11.02001 2.7657,-15.67382 1.8439,-4.74164 4.3467,-8.78049 7.5078,-12.11719 3.2489,-3.42451 7.0235,-6.01533 11.3261,-7.77149 4.3904,-1.84396 9.0457,-2.76562 13.9629,-2.76562 z m 164.5078,0 c 4.9173,0 9.5706,0.8786 13.961,2.63476 4.3904,1.75616 8.2101,4.30197 11.459,7.63868 3.2489,3.24889 5.7966,7.24469 7.6406,11.98632 1.9318,4.74163 2.8965,10.09742 2.8965,16.06836 0,5.70752 -0.9647,10.9322 -2.8965,15.67383 -1.844,4.74163 -4.3917,8.78049 -7.6406,12.11719 -3.2489,3.3367 -7.0686,5.92752 -11.459,7.77148 -4.3904,1.84397 -9.0437,2.76563 -13.961,2.76563 -4.9172,0 -9.5705,-0.92166 -13.9609,-2.76563 -4.3026,-1.84396 -8.0792,-4.43478 -11.3281,-7.77148 -3.2489,-3.3367 -5.8397,-7.37556 -7.7715,-12.11719 -1.844,-4.74163 -2.7656,-9.96631 -2.7656,-15.67383 0,-5.97094 0.9216,-11.32673 2.7656,-16.06836 1.9318,-4.74163 4.5226,-8.73743 7.7715,-11.98632 3.2489,-3.33671 7.0255,-5.88252 11.3281,-7.63868 4.3904,-1.75616 9.0437,-2.63476 13.9609,-2.63476 z m 156.6055,0 c 1.7562,0 3.4253,0.0881 5.0059,0.26367 1.6683,0.17562 3.3355,0.57089 5.0039,1.18555 l -41.8848,55.58203 c -0.7025,-1.22931 -1.2719,-2.6343 -1.7109,-4.21485 -0.4391,-1.58054 -0.8343,-3.20469 -1.1856,-4.87304 -0.2634,-1.75616 -0.4826,-3.46837 -0.6582,-5.13672 -0.088,-1.66835 -0.1328,-3.1614 -0.1328,-4.47852 0,-5.88313 0.9217,-11.15086 2.7656,-15.80468 1.844,-4.74164 4.3468,-8.78049 7.5078,-12.11719 3.2489,-3.3367 7.0256,-5.88447 11.3282,-7.64063 4.3904,-1.84396 9.0437,-2.76562 13.9609,-2.76562 z m 650.9199,0 c 4.9173,0 9.5275,0.92166 13.8301,2.76562 4.3904,1.75616 8.2101,4.34698 11.459,7.77149 3.2489,3.3367 5.7947,7.37555 7.6387,12.11719 1.9317,4.65381 2.8984,9.8785 2.8984,15.67382 0,5.70752 -0.9667,10.9322 -2.8984,15.67383 -1.844,4.74163 -4.3898,8.78049 -7.6387,12.11719 -3.2489,3.3367 -7.0686,5.92752 -11.459,7.77148 -4.3026,1.84397 -8.9128,2.76563 -13.8301,2.76563 -4.9172,0 -9.5705,-0.96471 -13.9609,-2.89649 -4.3026,-2.01958 -8.0773,-4.7415 -11.3262,-8.16601 -3.1611,-3.42451 -5.6638,-7.46337 -7.5078,-12.11719 -1.844,-4.65382 -2.7676,-9.70434 -2.7676,-15.14844 0,-5.79532 0.9236,-11.02001 2.7676,-15.67382 1.844,-4.74164 4.3467,-8.78049 7.5078,-12.11719 3.2489,-3.42451 7.0236,-6.01533 11.3262,-7.77149 4.3904,-1.84396 9.0437,-2.76562 13.9609,-2.76562 z m 156.4746,0 c 4.9173,0 9.5275,0.92166 13.8301,2.76562 4.3904,1.75616 8.2101,4.34698 11.459,7.77149 3.2489,3.3367 5.7947,7.37555 7.6387,12.11719 1.9318,4.65381 2.8984,9.8785 2.8984,15.67382 0,5.70752 -0.9666,10.9322 -2.8984,15.67383 -1.844,4.74163 -4.3898,8.78049 -7.6387,12.11719 -3.2489,3.3367 -7.0686,5.92752 -11.459,7.77148 -4.3026,1.84397 -8.9128,2.76563 -13.8301,2.76563 -4.9172,0 -9.5705,-0.96471 -13.9609,-2.89649 -4.3026,-2.01958 -8.0792,-4.7415 -11.3281,-8.16601 -3.1611,-3.42451 -5.6639,-7.46337 -7.5078,-12.11719 -1.844,-4.65382 -2.7657,-9.70434 -2.7657,-15.14844 0,-5.79532 0.9217,-11.02001 2.7657,-15.67382 1.8439,-4.74164 4.3467,-8.78049 7.5078,-12.11719 3.2489,-3.42451 7.0255,-6.01533 11.3281,-7.77149 4.3904,-1.84396 9.0437,-2.76562 13.9609,-2.76562 z m 267.5079,74.28711 c -3.1611,0 -6.1042,0.61444 -8.8262,1.84375 -2.7221,1.1415 -5.1368,2.72065 -7.2442,4.74023 -2.0195,2.01959 -3.6437,4.39124 -4.873,7.11328 -1.1415,2.72205 -1.7129,5.62008 -1.7129,8.69336 0,3.16109 0.5714,6.14523 1.7129,8.95508 1.2293,2.72205 2.8535,5.0937 4.873,7.11328 2.1074,2.01959 4.5221,3.60069 7.2442,4.74219 2.722,1.22931 5.6651,1.84375 8.8262,1.84375 3.0732,0 5.9693,-0.61444 8.6914,-1.84375 2.722,-1.1415 5.0937,-2.7226 7.1132,-4.74219 2.0196,-2.01958 3.6007,-4.39123 4.7422,-7.11328 1.2293,-2.80985 1.8438,-5.79399 1.8438,-8.95508 0,-3.07328 -0.6145,-5.97131 -1.8438,-8.69336 -1.1415,-2.72204 -2.7226,-5.09369 -4.7422,-7.11328 -2.0195,-2.01958 -4.3912,-3.59873 -7.1132,-4.74023 -2.7221,-1.22931 -5.6182,-1.84375 -8.6914,-1.84375 z"
       style="font-style:normal;font-variant:normal;font-weight:normal;font-stretch:normal;font-size:71.3703px;line-height:1.25;font-family:Righteous;-inkscape-font-specification:Righteous;font-variant-ligatures:normal;font-variant-caps:normal;font-variant-numeric:normal;font-feature-settings:normal;text-align:start;letter-spacing:0px;word-spacing:0px;writing-mode:lr-tb;text-anchor:start;display:inline;fill:#f7c45b;fill-opacity:1;stroke:#f7c35b;stroke-width:2.92285;stroke-miterlimit:4;stroke-dasharray:none;stroke-opacity:1" />
    <path
       inkscape:connector-curvature="0"
       id="text100"
       d="m -155.65665,344.80072 v 33.17626 c 0,2.88083 0.4991,5.52907 1.4981,7.94525 0.999,2.39295 2.35858,4.4608 4.07779,6.20324 1.74244,1.74244 3.76369,3.1015 6.06371,4.07727 2.32325,0.97577 4.79701,1.46348 7.42229,1.46348 2.6485,0 5.12278,-0.47632 7.4228,-1.42886 2.32325,-0.95253 4.3445,-2.2883 6.06371,-4.00751 1.71921,-1.74243 3.07827,-3.82168 4.07727,-6.23786 0.999,-2.41618 1.49862,-5.08771 1.49862,-8.01501 0,-2.8576 -0.49962,-5.48306 -1.49862,-7.87601 -0.999,-2.41618 -2.35806,-4.50733 -4.07727,-6.273 -1.71921,-1.76567 -3.74046,-3.13613 -6.06371,-4.11189 -2.30002,-0.99899 -4.7743,-1.49863 -7.4228,-1.49863 -0.85961,0 -1.74235,0.0932 -2.64842,0.27906 -0.90607,0.16263 -1.78882,0.40647 -2.64842,0.73175 -0.83637,0.32524 -1.62644,0.74358 -2.36988,1.25469 -0.72021,0.51112 -1.3358,1.09151 -1.84692,1.74202 v -17.42425 z m 418.84731,0.62735 c -2.2768,0 -4.42543,0.37172 -6.44666,1.11517 -2.02123,0.74345 -3.78722,1.76546 -5.29735,3.06647 -1.51011,1.2778 -2.70661,2.77664 -3.58945,4.49585 -0.8596,1.69598 -1.28931,3.51946 -1.28931,5.47099 0,0.95253 0.10459,1.91657 0.31366,2.89233 0.2091,0.95253 0.51094,1.88188 0.90591,2.78794 0.41817,0.90607 0.90641,1.76604 1.46399,2.57918 0.58082,0.81313 1.23108,1.53331 1.95131,2.16059 -1.16163,0.65051 -2.20695,1.44006 -3.13624,2.36936 -0.92933,0.90607 -1.73078,1.9053 -2.40451,2.99723 -0.65053,1.09193 -1.15014,2.26513 -1.49863,3.51969 -0.34848,1.23132 -0.52297,2.49771 -0.52297,3.79873 0,2.25356 0.51154,4.33279 1.53376,6.23786 1.02225,1.90507 2.41599,3.55459 4.18166,4.94854 1.7889,1.37072 3.86816,2.43933 6.23787,3.206 2.36971,0.78991 4.90196,1.18494 7.59696,1.18494 2.69496,0 5.22721,-0.39503 7.59695,-1.18494 2.36971,-0.76667 4.43757,-1.83528 6.20324,-3.206 1.7889,-1.39395 3.19455,-3.04347 4.21679,-4.94854 1.02222,-1.90507 1.53324,-3.9843 1.53324,-6.23786 0,-1.30102 -0.17397,-2.56741 -0.52245,-3.79873 -0.34848,-1.23133 -0.84812,-2.39313 -1.49863,-3.48506 -0.6505,-1.09193 -1.44057,-2.09065 -2.36987,-2.99672 -0.9293,-0.90607 -1.96323,-1.68423 -3.10163,-2.33474 0.72022,-0.65051 1.35911,-1.38259 1.91669,-2.19573 0.58082,-0.81314 1.06903,-1.67259 1.464,-2.57866 0.39494,-0.92929 0.69678,-1.87055 0.90588,-2.82308 0.23233,-0.97576 0.34829,-1.9398 0.34829,-2.89233 0,-1.95153 -0.44111,-3.77501 -1.32394,-5.47099 -0.85961,-1.71921 -2.05611,-3.21805 -3.58945,-4.49585 -1.51011,-1.30101 -3.27559,-2.32302 -5.29682,-3.06647 -2.02123,-0.74345 -4.18227,-1.11517 -6.48229,-1.11517 z m 124.48023,0.87125 c -2.76465,0 -5.3668,0.45302 -7.80624,1.35909 -2.41617,0.90609 -4.53061,2.36971 -6.34275,4.39094 -1.7889,2.02123 -3.20595,4.66947 -4.25143,7.94526 -1.04547,3.25256 -1.56837,7.24898 -1.56837,11.98842 0,4.69297 0.5229,8.67697 1.56837,11.95276 1.04548,3.25255 2.46253,5.9013 4.25143,7.94577 1.81214,2.02122 3.92658,3.49626 6.34275,4.42556 2.43944,0.90607 5.04159,1.3591 7.80624,1.3591 2.76469,0 5.35493,-0.44112 7.77111,-1.32396 2.43943,-0.90606 4.56525,-2.36971 6.37738,-4.39094 1.81216,-2.02123 3.24112,-4.66998 4.28657,-7.94577 1.04547,-3.27578 1.56787,-7.28309 1.56787,-12.02252 0,-4.69297 -0.5224,-8.6661 -1.56787,-11.91865 -1.04545,-3.25256 -2.47441,-5.9008 -4.28657,-7.94526 -1.81213,-2.04446 -3.93795,-3.52002 -6.37738,-4.42608 -2.41618,-0.9293 -5.00642,-1.39372 -7.77111,-1.39372 z m -614.733,0.69712 v 49.97318 h 10.00197 v -19.96881 h 14.98462 v -10.00146 h -14.98462 v -10.00144 h 24.98659 v -10.00147 z m 318.55316,0 v 10.00147 h 17.84234 c 0.69696,0 1.34723,0.12787 1.9513,0.38343 0.60404,0.25556 1.12694,0.61539 1.56837,1.08003 0.46463,0.44143 0.825,0.96433 1.08056,1.56838 0.25556,0.60405 0.3829,1.25433 0.3829,1.9513 0,0.69698 -0.12734,1.35917 -0.3829,1.98645 -0.25556,0.60404 -0.61593,1.13835 -1.08056,1.603 -0.44143,0.44142 -0.96433,0.78986 -1.56837,1.04541 -0.60407,0.25556 -1.25434,0.38344 -1.9513,0.38344 h -5.0183 c -2.06772,0 -4.00767,0.39504 -5.819805,1.18495 -1.812158,0.76667 -3.403679,1.83528 -4.774406,3.206 -1.34747,1.34749 -2.416096,2.93901 -3.205983,4.77439 -0.789914,1.81213 -1.184963,3.7521 -1.184963,5.8198 v 14.98513 H 122.95943 V 386.96764 H 99.331924 v -4.98315 c 0,-0.69698 0.127873,-1.34778 0.383434,-1.95182 0.255561,-0.60405 0.603992,-1.12645 1.045422,-1.56787 0.46463,-0.46465 0.99893,-0.82499 1.603,-1.08055 0.60405,-0.25556 1.25431,-0.38344 1.95131,-0.38344 h 5.0183 c 2.06769,0 4.00764,-0.39452 5.81977,-1.18442 1.81216,-0.78991 3.39177,-1.85904 4.73927,-3.20653 1.3707,-1.37071 2.45123,-2.96173 3.24115,-4.77386 0.78988,-1.83537 1.18493,-3.78725 1.18493,-5.85495 0,-2.06769 -0.39505,-4.00765 -1.18493,-5.81978 -0.78992,-1.81216 -1.87045,-3.3918 -3.24115,-4.73925 -1.3475,-1.37072 -2.92711,-2.45128 -4.73927,-3.24114 -1.81213,-0.78992 -3.75208,-1.18444 -5.81977,-1.18444 z m 37.18327,0 v 10.00147 h 21.25813 l -14.04411,39.97171 h 10.69856 l 17.07597,-49.97318 z m 76.98134,0 v 10.00147 h 17.84231 c 0.69699,0 1.34779,0.12787 1.95183,0.38343 0.60405,0.25556 1.12644,0.61539 1.56787,1.08003 0.46463,0.44143 0.825,0.96433 1.08056,1.56838 0.25553,0.60405 0.38343,1.25433 0.38343,1.9513 0,0.69698 -0.1279,1.35917 -0.38343,1.98645 -0.25556,0.60404 -0.61593,1.13835 -1.08056,1.603 -0.44143,0.44142 -0.96382,0.78986 -1.56787,1.04541 -0.60404,0.25556 -1.25484,0.38344 -1.95183,0.38344 h -5.0183 c -2.06769,0 -4.00764,0.39504 -5.8198,1.18495 -1.81213,0.76667 -3.40315,1.83528 -4.77385,3.206 -1.3475,1.34749 -2.41663,2.93901 -3.20654,4.77439 -0.78989,1.81213 -1.18441,3.7521 -1.18441,5.8198 v 14.98513 h 33.62894 v -10.00198 h -23.62747 v -4.98315 c 0,-0.69698 0.12787,-1.34778 0.38343,-1.95182 0.25556,-0.60405 0.60399,-1.12645 1.04539,-1.56787 0.46467,-0.46465 0.99897,-0.82499 1.60301,-1.08055 0.60404,-0.25556 1.25434,-0.38344 1.9513,-0.38344 h 5.0183 c 2.06769,0 4.00767,-0.39452 5.8198,-1.18442 1.81216,-0.78991 3.39177,-1.85904 4.73924,-3.20653 1.37073,-1.37071 2.45126,-2.96173 3.24115,-4.77386 0.78991,-1.83537 1.18496,-3.78725 1.18496,-5.85495 0,-2.06769 -0.39505,-4.00765 -1.18496,-5.81978 -0.78989,-1.81216 -1.87042,-3.3918 -3.24115,-4.73925 -1.34747,-1.37072 -2.92708,-2.45128 -4.73924,-3.24114 -1.81213,-0.78992 -3.75211,-1.18444 -5.8198,-1.18444 z m 123.6431,0 v 10.00147 h 17.84284 c 0.69696,0 1.34726,0.12787 1.9513,0.38343 0.60404,0.25556 1.12697,0.61539 1.56837,1.08003 0.46466,0.44143 0.82449,0.96433 1.08005,1.56838 0.25554,0.60405 0.38344,1.25433 0.38344,1.9513 0,0.69698 -0.1279,1.35917 -0.38344,1.98645 -0.25556,0.60404 -0.61539,1.13835 -1.08005,1.603 -0.4414,0.44142 -0.96433,0.78986 -1.56837,1.04541 -0.60404,0.25556 -1.25434,0.38344 -1.9513,0.38344 h -5.0183 c -2.06769,0 -4.00767,0.39504 -5.8198,1.18495 -1.81213,0.76667 -3.40368,1.83528 -4.77438,3.206 -1.3475,1.34749 -2.4161,2.93901 -3.20601,4.77439 -0.78992,1.81213 -1.18494,3.7521 -1.18494,5.8198 v 14.98513 h 33.62947 v -10.00198 h -23.6275 v -4.98315 c 0,-0.69698 0.12737,-1.34778 0.38293,-1.95182 0.25556,-0.60405 0.60399,-1.12645 1.04539,-1.56787 0.46466,-0.46465 0.99949,-0.82499 1.60354,-1.08055 0.60404,-0.25556 1.25433,-0.38344 1.9513,-0.38344 h 5.0183 c 2.06769,0 4.00767,-0.39452 5.8198,-1.18442 1.81213,-0.78991 3.39174,-1.85904 4.73924,-3.20653 1.37073,-1.37071 2.45123,-2.96173 3.24115,-4.77386 0.78991,-1.83537 1.18493,-3.78725 1.18493,-5.85495 0,-2.06769 -0.39502,-4.00765 -1.18493,-5.81978 -0.78992,-1.81216 -1.87042,-3.3918 -3.24115,-4.73925 -1.3475,-1.37072 -2.92711,-2.45128 -4.73924,-3.24114 -1.81213,-0.78992 -3.75211,-1.18444 -5.8198,-1.18444 z m 86.56473,0 v 10.00147 h 17.84234 c 0.69696,0 1.34776,0.12787 1.9518,0.38343 0.60405,0.25556 1.12644,0.61539 1.56787,1.08003 0.46466,0.44143 0.825,0.96433 1.08056,1.56838 0.25556,0.60405 0.38343,1.25433 0.38343,1.9513 0,0.69698 -0.12787,1.35917 -0.38343,1.98645 -0.25556,0.60404 -0.6159,1.13835 -1.08056,1.603 -0.44143,0.44142 -0.96382,0.78986 -1.56787,1.04541 -0.60404,0.25556 -1.25484,0.38344 -1.9518,0.38344 h -5.0183 c -2.06769,0 -4.00767,0.39504 -5.8198,1.18495 -1.81216,0.76667 -3.40315,1.83528 -4.77388,3.206 -1.3475,1.34749 -2.41662,2.93901 -3.20651,4.77439 -0.78992,1.81213 -1.18444,3.7521 -1.18444,5.8198 v 14.98513 h 33.62897 v -10.00198 h -23.6275 v -4.98315 c 0,-0.69698 0.12787,-1.34778 0.38343,-1.95182 0.25556,-0.60405 0.60399,-1.12645 1.04542,-1.56787 0.46464,-0.46465 0.99896,-0.82499 1.60301,-1.08055 0.60404,-0.25556 1.25431,-0.38344 1.9513,-0.38344 h 5.0183 c 2.06769,0 4.00764,-0.39452 5.8198,-1.18442 1.81213,-0.78991 3.39175,-1.85904 4.73924,-3.20653 1.3707,-1.37071 2.45123,-2.96173 3.24115,-4.77386 0.78988,-1.83537 1.18493,-3.78725 1.18493,-5.85495 0,-2.06769 -0.39505,-4.00765 -1.18493,-5.81978 -0.78992,-1.81216 -1.87045,-3.3918 -3.24115,-4.73925 -1.34749,-1.37072 -2.92711,-2.45128 -4.73924,-3.24114 -1.81216,-0.78992 -3.75211,-1.18444 -5.8198,-1.18444 z m 38.19406,0 v 10.00147 h 4.98367 v 39.97171 h 10.00146 v -49.97318 z m -190.79715,7.80571 c 0.92932,0 1.81205,0.15119 2.64843,0.45321 0.83637,0.30202 1.55654,0.72035 2.16058,1.25471 0.62728,0.53435 1.11551,1.16133 1.464,1.88153 0.37171,0.69699 0.55758,1.45237 0.55758,2.26551 0,0.81313 -0.18587,1.568 -0.55758,2.26497 -0.34849,0.69698 -0.83672,1.30118 -1.464,1.8123 -0.60404,0.51111 -1.32421,0.91754 -2.16058,1.21956 -0.83638,0.30202 -1.71911,0.4532 -2.64843,0.4532 -0.95253,0 -1.84666,-0.15118 -2.68303,-0.4532 -0.83638,-0.30202 -1.56845,-0.70845 -2.19573,-1.21956 -0.60404,-0.51112 -1.09175,-1.11532 -1.46349,-1.8123 -0.34848,-0.69697 -0.52295,-1.45184 -0.52295,-2.26497 0,-0.81314 0.17447,-1.56852 0.52295,-2.26551 0.37174,-0.7202 0.85945,-1.34718 1.46349,-1.88153 0.62728,-0.53436 1.35935,-0.95269 2.19573,-1.25471 0.83637,-0.30202 1.7305,-0.45321 2.68303,-0.45321 z m 124.41049,0.7669 c 3.29904,0 5.86598,1.34765 7.70136,4.04264 1.85857,2.69497 2.78794,6.81876 2.78794,12.37134 0,2.81113 -0.24386,5.2502 -0.73175,7.3179 -0.46464,2.04446 -1.15015,3.74057 -2.05619,5.08806 -0.88286,1.34749 -1.97477,2.35811 -3.27578,3.03186 -1.30103,0.65051 -2.77606,0.97565 -4.42558,0.97565 -3.27578,0 -5.81996,-1.34716 -7.63209,-4.04213 -1.81213,-2.69498 -2.71817,-6.81877 -2.71817,-12.37134 0,-5.59904 0.90604,-9.73474 2.71817,-12.40648 1.81213,-2.67175 4.35631,-4.0075 7.63209,-4.0075 z m -562.92996,2.6484 c -2.62528,0 -5.09955,0.47633 -7.4228,1.42886 -2.30002,0.95254 -4.32128,2.28831 -6.06372,4.00751 -1.7192,1.71921 -3.07827,3.79845 -4.07727,6.23786 -0.999,2.43942 -1.49861,5.13477 -1.49861,8.0853 0,2.88083 0.49961,5.52907 1.49861,7.94525 0.999,2.39295 2.35807,4.4608 4.07727,6.20324 1.74244,1.74244 3.7637,3.1015 6.06372,4.07727 2.32325,0.97577 4.79752,1.46348 7.4228,1.46348 1.55658,0 3.0663,-0.18587 4.52996,-0.55759 1.48688,-0.34849 2.89254,-0.87089 4.21679,-1.56787 1.34749,-0.69697 2.59058,-1.54503 3.72897,-2.54403 1.16163,-0.999 2.18365,-2.1256 3.06648,-3.38015 l -6.9696,-7.00474 c -0.37172,0.83637 -0.85943,1.60314 -1.46348,2.30011 -0.58081,0.67375 -1.2549,1.25414 -2.02158,1.74202 -0.74344,0.46465 -1.5449,0.82499 -2.4045,1.08055 -0.85961,0.25556 -1.75374,0.38344 -2.68304,0.38344 -0.37172,0 -0.74346,-0.0119 -1.11518,-0.0351 -0.37172,-0.0465 -0.74346,-0.12775 -1.11518,-0.24391 l 17.84232,-21.50153 c -0.88283,-1.25456 -1.90485,-2.38116 -3.06647,-3.38016 -1.16163,-1.02223 -2.41611,-1.88219 -3.7636,-2.57917 -1.32425,-0.69697 -2.72991,-1.23128 -4.2168,-1.60299 -1.48688,-0.37174 -3.00851,-0.55761 -4.56509,-0.55761 z m 149.518519,0 c -2.625275,0 -5.09955,0.48824 -7.422803,1.46401 -2.30002,0.95253 -4.321273,2.29968 -6.063713,4.04212 -1.719207,1.74244 -3.078271,3.83359 -4.077269,6.27301 -0.999,2.41618 -1.498618,5.07632 -1.498618,7.98039 0,3.11316 0.499618,5.88927 1.498618,8.32869 0.998998,2.43941 2.358062,4.50726 4.077269,6.20324 1.74244,1.67274 3.763693,2.95052 6.063713,3.83335 2.323253,0.88284 4.797528,1.32396 7.422803,1.32396 1.20809,0 2.393196,-0.15067 3.554823,-0.45269 1.184854,-0.30202 2.334755,-0.70896 3.449918,-1.22008 1.11516,-0.53435 2.172382,-1.14994 3.171383,-1.84692 1.022231,-0.7202 1.986261,-1.48697 2.89233,-2.30011 l 3.693829,5.1232 h 2.3001181 V 359.71608 H -8.978268 l -3.693829,4.42557 c -0.882838,-0.83637 -1.835476,-1.61453 -2.857709,-2.33474 -0.998996,-0.72021 -2.05622,-1.34719 -3.171381,-1.88154 -1.115163,-0.53436 -2.265061,-0.95269 -3.44992,-1.25472 -1.184857,-0.30202 -2.381354,-0.4532 -3.589444,-0.4532 z m -86.494459,1.42886 v 37.32331 h 9.51363 V 376.4086 c 0,-0.999 0.18587,-1.93973 0.55759,-2.82257 0.37172,-0.88283 0.88273,-1.6496 1.53324,-2.30012 0.650507,-0.65051 1.41728,-1.16151 2.300115,-1.53324 0.882836,-0.37172 1.82357,-0.55758 2.822568,-0.55758 h 8.398454 v -9.47901 h -8.398454 c -2.090928,0 -4.112181,0.38313 -6.063713,1.1498 -1.95153,0.74344 -3.69372,1.81257 -5.22707,3.20652 l -3.13676,-4.42609 z m 28.784803,0 v 20.63079 c 0,2.67174 0.429725,5.08751 1.289328,7.24813 0.882835,2.13739 2.079331,3.96139 3.589446,5.4715 1.533345,1.48688 3.310744,2.63679 5.331973,3.44992 2.021229,0.81314 4.181755,1.21957 6.481775,1.21957 1.045464,0 2.067997,-0.13928 3.066995,-0.41807 1.022233,-0.25556 2.00956,-0.60399 2.962095,-1.04541 0.952532,-0.46465 1.858576,-0.99896 2.718178,-1.603 0.882838,-0.62728 1.707595,-1.28947 2.47427,-1.98645 l 3.136241,4.35633 h 2.300118 v -37.32331 h -9.513631 v 20.63079 c 0,0.999 -0.185867,1.97442 -0.557588,2.92695 -0.371721,0.9293 -0.882729,1.76597 -1.533239,2.50941 -0.650513,0.74344 -1.417283,1.34712 -2.300118,1.81177 -0.859605,0.44142 -1.777556,0.66249 -2.753321,0.66249 -0.999,0 -1.939731,-0.17447 -2.822567,-0.52296 -0.859604,-0.34849 -1.614466,-0.8595 -2.264978,-1.53324 -0.65051,-0.67374 -1.173427,-1.4985 -1.568379,-2.47427 -0.371721,-0.999 -0.557588,-2.1256 -0.557588,-3.38015 v -20.63079 z m 83.98557238,0 v 37.32331 H 10.048996 V 376.4086 c 0,-0.999 0.185867,-1.93973 0.557588,-2.82257 0.371721,-0.88283 0.883246,-1.6496 1.533755,-2.30012 0.650513,-0.65051 1.416767,-1.16151 2.299603,-1.53324 0.882835,-0.37172 1.824085,-0.55758 2.823083,-0.55758 h 8.398454 v -9.47901 h -8.398454 c -2.090928,0 -4.112181,0.38313 -6.063713,1.1498 -1.9515324,0.74344 -3.6942396,1.81257 -5.2275873,3.20652 l -3.1362438,-4.42609 z m 28.78532262,0 v 20.63079 c 0,2.67174 0.429723,5.08751 1.289325,7.24813 0.882838,2.13739 2.079331,3.96139 3.589446,5.4715 1.533347,1.48688 3.310744,2.63679 5.331976,3.44992 2.021231,0.81314 4.181766,1.21957 6.481762,1.21957 1.091935,0 2.171938,-0.22056 3.240643,-0.66198 1.091935,-0.44142 2.161064,-0.88305 3.206512,-1.32447 -0.348483,0.85961 -0.801502,1.64968 -1.359085,2.36988 -0.557583,0.74344 -1.208379,1.38234 -1.951805,1.91668 -0.720222,0.53435 -1.510295,0.95268 -2.369899,1.25471 -0.859605,0.30202 -1.753738,0.4532 -2.683034,0.4532 l -5.297355,-0.0698 v 9.58339 l 4.879287,0.0698 c 2.625275,0 5.087646,-0.49961 7.387669,-1.49861 2.300023,-0.999 4.309877,-2.35807 6.029087,-4.07727 1.74244,-1.71921 3.112902,-3.72907 4.111889,-6.02909 0.999014,-2.30002 1.510004,-4.76239 1.533234,-7.38766 v -32.61869 h -9.583393 v 20.63079 c 0,0.999 -0.18587,1.97442 -0.557583,2.92695 -0.371713,0.9293 -0.882729,1.76597 -1.533234,2.50941 -0.650505,0.74344 -1.417293,1.34712 -2.300129,1.81177 -0.859604,0.44142 -1.777021,0.66249 -2.752804,0.66249 -0.998987,0 -1.940243,-0.16308 -2.823078,-0.48834 -0.859604,-0.32525 -1.614461,-0.81296 -2.264965,-1.46347 -0.650531,-0.67375 -1.173427,-1.49851 -1.568397,-2.47427 -0.371713,-0.999 -0.557583,-2.16029 -0.557583,-3.48454 v -20.63079 z m 137.565232,7.35304 v 9.47901 h 29.27316 v -9.47901 z m -342.14499,0.83665 c 0.46465,0 0.90576,0.0233 1.32395,0.0698 0.44142,0.0465 0.88305,0.15053 1.32447,0.31316 l -11.08202,14.70659 c -0.18586,-0.32525 -0.33704,-0.69699 -0.4532,-1.11517 -0.11616,-0.41819 -0.22074,-0.84791 -0.31367,-1.28933 -0.0697,-0.46465 -0.12769,-0.91767 -0.17415,-1.35909 -0.0232,-0.44142 -0.0346,-0.83645 -0.0346,-1.18494 0,-1.55658 0.24386,-2.95085 0.73174,-4.18218 0.48789,-1.25455 1.15007,-2.32316 1.98644,-3.206 0.85961,-0.88284 1.85833,-1.55642 2.99672,-2.02107 1.16163,-0.48788 2.39333,-0.73173 3.69435,-0.73173 z m 38.66431,0 c 1.30102,0 2.52081,0.25524 3.6592,0.76636 1.16163,0.51111 2.17225,1.2199 3.03186,2.12597 0.8596,0.90606 1.5337,1.98658 2.02158,3.24114 0.51112,1.23132 0.76636,2.56709 0.76636,4.00751 0,1.44042 -0.25524,2.77618 -0.76636,4.00751 -0.48788,1.23132 -1.16198,2.29993 -2.02158,3.206 -0.85961,0.90607 -1.87023,1.62625 -3.03186,2.16059 -1.13839,0.51112 -2.35818,0.76688 -3.6592,0.76688 -1.30103,0 -2.53221,-0.25576 -3.69384,-0.76688 -1.13839,-0.53434 -2.13711,-1.25452 -2.99671,-2.16059 -0.85961,-0.90607 -1.5337,-1.97468 -2.02159,-3.206 -0.48788,-1.23133 -0.73173,-2.56709 -0.73173,-4.00751 0,-1.30102 0.24385,-2.55551 0.73173,-3.76359 0.48789,-1.23133 1.16198,-2.31185 2.02159,-3.24115 0.8596,-0.95254 1.85832,-1.7074 2.99671,-2.26498 1.16163,-0.58081 2.39281,-0.87126 3.69384,-0.87126 z m 110.854209,0 c 1.30102,0 2.520815,0.29045 3.659209,0.87126 1.161627,0.55758 2.172253,1.31244 3.031855,2.26498 0.859605,0.9293 1.533181,2.00982 2.021065,3.24115 0.511117,1.20808 0.766879,2.46257 0.766879,3.76359 0,1.30102 -0.255762,2.56689 -0.766879,3.79822 -0.487884,1.20809 -1.16146,2.28861 -2.021065,3.24114 -0.859602,0.9293 -1.870228,1.68417 -3.031855,2.26498 -1.138394,0.55758 -2.358189,0.83664 -3.659209,0.83664 -1.301022,0 -2.532205,-0.22107 -3.693832,-0.66249 -1.138393,-0.44142 -2.137629,-1.0917 -2.997231,-1.9513 -0.836372,-0.85961 -1.498561,-1.91683 -1.986444,-3.17138 -0.487881,-1.27779 -0.731737,-2.72954 -0.731737,-4.35581 0,-1.62628 0.243856,-3.06663 0.731737,-4.32119 0.487883,-1.27779 1.150072,-2.34691 1.986444,-3.20652 0.859602,-0.8596 1.858838,-1.50988 2.997231,-1.9513 1.161627,-0.44142 2.39281,-0.66197 3.693832,-0.66197 z m 288.931211,6.58616 c 1.32424,0 2.56733,0.20916 3.72895,0.62735 1.18486,0.41818 2.20689,0.98718 3.0665,1.70739 0.88283,0.72021 1.56832,1.56826 2.05618,2.54403 0.51112,0.95253 0.7669,1.98646 0.7669,3.10162 0,1.11516 -0.25578,2.13769 -0.7669,3.06699 -0.48786,0.9293 -1.17335,1.73076 -2.05618,2.40451 -0.85961,0.67374 -1.88164,1.20805 -3.0665,1.603 -1.16162,0.37172 -2.40471,0.55759 -3.72895,0.55759 -1.32427,0 -2.56683,-0.18587 -3.72846,-0.55759 -1.16163,-0.39495 -2.18416,-0.92926 -3.067,-1.603 -0.8596,-0.67375 -1.54508,-1.47521 -2.05621,-2.40451 -0.48789,-0.9293 -0.73173,-1.95183 -0.73173,-3.06699 0,-1.11516 0.24384,-2.14909 0.73173,-3.10162 0.51113,-0.97577 1.19661,-1.82382 2.05621,-2.54403 0.88284,-0.72021 1.90537,-1.28921 3.067,-1.70739 1.16163,-0.41819 2.40419,-0.62735 3.72846,-0.62735 z m 31.46835,13.06845 c -0.81315,0 -1.57938,0.16257 -2.2996,0.48783 -0.69697,0.30202 -1.32448,0.72035 -1.88206,1.2547 -0.53436,0.53435 -0.96407,1.16133 -1.28932,1.88154 -0.30202,0.72021 -0.4532,1.48698 -0.4532,2.30012 0,0.74344 0.12787,1.45222 0.38343,2.12596 0.25556,0.65051 0.60399,1.23142 1.04542,1.74253 0.44141,0.53435 0.96433,0.97547 1.56837,1.32395 0.60405,0.34849 1.25434,0.59235 1.95131,0.73174 -0.18587,0.67375 -0.44112,1.33593 -0.76637,1.98644 -0.32525,0.67375 -0.81349,1.38253 -1.46399,2.12597 l 3.79873,2.64842 c 0.97578,-0.72021 1.80054,-1.60296 2.47427,-2.64842 0.69697,-1.02223 1.25458,-2.11414 1.67278,-3.27577 0.4414,-1.13839 0.75517,-2.28829 0.94102,-3.44992 0.2091,-1.18485 0.31369,-2.28867 0.31369,-3.3109 0,-0.81314 -0.15119,-1.57991 -0.45321,-2.30012 -0.30202,-0.72021 -0.73176,-1.34719 -1.28934,-1.88154 -0.53435,-0.53435 -1.17324,-0.95268 -1.91667,-1.2547 -0.72022,-0.32526 -1.49889,-0.48783 -2.33526,-0.48783 z"
       style="font-style:normal;font-variant:normal;font-weight:normal;font-stretch:normal;font-size:71.3703px;line-height:1.25;font-family:Righteous;-inkscape-font-specification:Righteous;font-variant-ligatures:normal;font-variant-caps:normal;font-variant-numeric:normal;font-feature-settings:normal;text-align:start;letter-spacing:0px;word-spacing:0px;writing-mode:lr-tb;text-anchor:start;display:inline;fill:#f7c35b;fill-opacity:1;stroke:#f7c35b;stroke-width:0.773337;stroke-miterlimit:4;stroke-dasharray:none;stroke-opacity:1" />
  </g>
  <g
     transform="translate(227.44878,-344.41405)"
     id="layer1"
     inkscape:groupmode="layer"
     inkscape:label="GoldFront" />
</svg>
