<svg xmlns="http://www.w3.org/2000/svg" viewBox="0 0 222.34 199.55"><defs><style>.cls-1{opacity:0.32;}.cls-15,.cls-2{fill:#c9c0bd;}.cls-2,.cls-4,.cls-5{stroke:#000;stroke-miterlimit:10;stroke-width:3px;}.cls-3,.cls-6{fill:#dfd9d7;}.cls-3{opacity:0.46;}.cls-21,.cls-4{fill:#f7c45b;}.cls-23,.cls-5{fill:#f7da5b;}.cls-7{fill:#f4f2f2;}.cls-8{fill:#e9e6e5;}.cls-9{fill:#f9f9f9;}.cls-10{fill:#fafafa;}.cls-11{fill:#f6f5f5;}.cls-12{fill:#edebea;}.cls-13{fill:#f1f0ef;}.cls-14{fill:#e8e6e5;}.cls-16{fill:#d4cdca;}.cls-17{fill:#97908e;}.cls-18{fill:#b1a8a5;}.cls-19{fill:#f8cc72;}.cls-20{fill:#fadc9d;}.cls-22{fill:#f8ce78;}</style></defs><g id="Layer_2" data-name="Layer 2"><g id="Assets"><g id="Layer_47" data-name="Layer 47"><g class="cls-1"><path class="cls-2" d="M151.61,134.19a164.28,164.28,0,0,1-44-52C92.73,54.44,87,33.65,86.71,22.34a160.25,160.25,0,0,1-35-2.18A161.08,161.08,0,0,1,3.43,3.53s32.73,65.8,137.3,141.15Z"/><path class="cls-3" d="M148.27,135.12c-20.2-10.74-52.63-31.72-78.69-69.39A215.57,215.57,0,0,1,45.65,20.41,173.1,173.1,0,0,1,16.3,11.33q-4.83-2-9.21-4.09A417.22,417.22,0,0,0,34.85,45.67C59.46,76,82.8,96.05,100.78,111.37c9.7,8.28,23.12,19.22,39.85,31.36l3.15-3.26Z"/><path d="M158.5,120.3a4.54,4.54,0,0,1-1.43,3,3.17,3.17,0,0,1-1.82.69,5,5,0,0,1-1.86-.29,7.67,7.67,0,0,1-3-2,6.5,6.5,0,0,1-1.65-3.51,8,8,0,0,1,.58-3.89,9.59,9.59,0,0,1,2.15-3.16,8.85,8.85,0,0,1,1.57-1.24,7.85,7.85,0,0,1,1.94-.87,9.44,9.44,0,0,1,2-.36,8.29,8.29,0,0,1,1,0l.51,0,.27,0,.14,0H159l.25.07a2.5,2.5,0,0,1,.38.15,2.46,2.46,0,0,1,.66.47l-1.22-.67a6,6,0,0,1,.81.16,9.06,9.06,0,0,1,.88.29,7.3,7.3,0,0,1,.85.41c.26.15.48.3.7.45a14.51,14.51,0,0,1,2.29,2,16.26,16.26,0,0,1,3.24,5,13.57,13.57,0,0,1,.89,3,8.42,8.42,0,0,1-.26,3.76,9.63,9.63,0,0,1-1.76,3.21,26,26,0,0,1-1.94,2.09c-.6.59-1.14,1.13-1.62,1.66-.24.25-.64.7-1,1s-.67.65-1,1c-1.31,1.21-2.57,2.18-3.73,3.22a55.15,55.15,0,0,0-6.39,6.74l-.18.22-1.09.76a.59.59,0,0,1-.14.06l.68-.41a59.89,59.89,0,0,0-7.27,6.45c-1.15,1.18-2.24,2.44-3.47,3.71-.62.64-1.27,1.3-2,2l-1,.89-.88.79c-.61.56-1.25,1.2-2,1.86a11.31,11.31,0,0,1-3.05,1.9,8.28,8.28,0,0,1-4,.54,11.88,11.88,0,0,1-3.29-.91,16,16,0,0,1-5.15-3.44,15.13,15.13,0,0,1-2-2.42c-.15-.23-.29-.46-.44-.73a5.41,5.41,0,0,1-.4-.89,8.06,8.06,0,0,1-.28-.92,6.27,6.27,0,0,1-.14-.86l.63,1.24a2.91,2.91,0,0,1-.45-.67,3,3,0,0,1-.14-.39c0-.12-.06-.3,0-.25v-1.05c0-.33,0-.67.07-1a9.45,9.45,0,0,1,.43-2,7.82,7.82,0,0,1,.94-1.9,9.35,9.35,0,0,1,4.53-3.55,7.9,7.9,0,0,1,3.9-.44,6.4,6.4,0,0,1,3.44,1.77,7.48,7.48,0,0,1,1.91,3.07,4.86,4.86,0,0,1,.23,1.87,3.16,3.16,0,0,1-.75,1.79,4.58,4.58,0,0,1-3.1,1.32l-.08-.39a4.07,4.07,0,0,0,2.53-1.39,2.86,2.86,0,0,0,.12-2.77,5.79,5.79,0,0,0-4.47-3.54,6.87,6.87,0,0,0-5.34,2.28,6.23,6.23,0,0,0-1.49,2.55,7.37,7.37,0,0,0-.24,1.48q0,.38,0,.75l0,.37,0,.19v.16a.24.24,0,0,0-.07-.13l.08.14a7.47,7.47,0,0,0,2.61,4.11,12.91,12.91,0,0,0,4.28,2.61,6.35,6.35,0,0,0,4.78.21,13.9,13.9,0,0,0,3.88-3.15c.6-.61,1.27-1.2,1.87-1.77s1.19-1.22,1.76-1.85c1.15-1.27,2.28-2.57,3.46-3.82a64.06,64.06,0,0,1,7.66-7l0,0,0,0,.14-.06-.14.11a58.28,58.28,0,0,1,6.94-7.11c1.25-1.09,2.56-2.1,3.8-3.16a23.43,23.43,0,0,0,1.78-1.67c.59-.6,1.2-1.16,1.8-1.72a9.59,9.59,0,0,0,2.89-3.74,7.14,7.14,0,0,0-.38-4.63,13.29,13.29,0,0,0-2.45-4.13,7.35,7.35,0,0,0-3.88-2.62l-.14-.07a.26.26,0,0,0,.12.07h-.06l-.09,0-.19,0-.37,0a6.26,6.26,0,0,0-.75,0,7.31,7.31,0,0,0-1.48.18,6.11,6.11,0,0,0-2.6,1.4,6.83,6.83,0,0,0-2.48,5.25,5.77,5.77,0,0,0,3.37,4.59,2.84,2.84,0,0,0,2.77,0,4,4,0,0,0,1.48-2.48Z"/><path class="cls-4" d="M146.73,139c-5.85,6-.71,20.95,6.75,29.65,10.45,12.21,30.37,17.78,36.35,11.19,5.77-6.37-1.18-24.41-12.68-34C168.18,138.34,152.72,132.9,146.73,139Z"/><path class="cls-4" d="M148.94,162.08a25.65,25.65,0,0,0,10.63-13.24,24.78,24.78,0,0,0,1-11.58"/><path class="cls-4" d="M159.46,174.22a31.07,31.07,0,0,0,10.77-12.43c4.43-9.3,3.06-16.52,2.43-19.21"/><path class="cls-4" d="M172.66,181.07a34.69,34.69,0,0,0,9.05-11.35,29.44,29.44,0,0,0,2.53-16.21"/><path class="cls-4" d="M186.28,178.41a14.36,14.36,0,0,0,4.07-13.31"/><ellipse class="cls-5" cx="195.16" cy="184.73" rx="11.26" ry="11.71" transform="translate(-73.56 187.2) rotate(-43.95)"/></g><path class="cls-2" d="M24.73,35.6c20.17,26.32,56.42,66.15,116,109.08l10.88-10.49a164.28,164.28,0,0,1-44-52C92.73,54.44,87,33.65,86.71,22.34a160.25,160.25,0,0,1-35-2.18A161.08,161.08,0,0,1,3.43,3.53a156.92,156.92,0,0,0,9.32,15.39c2.17,3.26,4.76,7,7.8,11.12q2,2.67,4.18,5.56"/><path class="cls-3" d="M26,15c-3.16-1.08-6.38-2.28-9.65-3.63S10,8.65,7.09,7.24A417.22,417.22,0,0,0,34.85,45.67C59.46,76,82.8,96.05,100.78,111.37c9.7,8.28,23.12,19.22,39.85,31.36l3.15-3.26,4.49-4.35c-20.2-10.74-52.63-31.72-78.69-69.39A215.57,215.57,0,0,1,45.65,20.41,175.59,175.59,0,0,1,26,15"/><path d="M158.5,120.3a4.54,4.54,0,0,1-1.43,3,3.17,3.17,0,0,1-1.82.69,5,5,0,0,1-1.86-.29,7.67,7.67,0,0,1-3-2,6.5,6.5,0,0,1-1.65-3.51,8,8,0,0,1,.58-3.89,9.59,9.59,0,0,1,2.15-3.16,8.85,8.85,0,0,1,1.57-1.24,7.85,7.85,0,0,1,1.94-.87,9.44,9.44,0,0,1,2-.36,8.29,8.29,0,0,1,1,0l.51,0,.27,0,.14,0H159l.25.07a2.5,2.5,0,0,1,.38.15,2.46,2.46,0,0,1,.66.47l-1.22-.67a6,6,0,0,1,.81.16,9.06,9.06,0,0,1,.88.29,7.3,7.3,0,0,1,.85.41c.26.15.48.3.7.45a14.51,14.51,0,0,1,2.29,2,16.26,16.26,0,0,1,3.24,5,13.57,13.57,0,0,1,.89,3,8.42,8.42,0,0,1-.26,3.76,9.63,9.63,0,0,1-1.76,3.21,26,26,0,0,1-1.94,2.09c-.6.59-1.14,1.13-1.62,1.66-.24.25-.64.7-1,1s-.67.65-1,1c-1.31,1.21-2.57,2.18-3.73,3.22a55.15,55.15,0,0,0-6.39,6.74l-.18.22-1.09.76a.59.59,0,0,1-.14.06l.68-.41a59.89,59.89,0,0,0-7.27,6.45c-1.15,1.18-2.24,2.44-3.47,3.71-.62.64-1.27,1.3-2,2l-1,.89-.88.79c-.61.56-1.25,1.2-2,1.86a11.31,11.31,0,0,1-3.05,1.9,8.28,8.28,0,0,1-4,.54,11.88,11.88,0,0,1-3.29-.91,16,16,0,0,1-5.15-3.44,15.13,15.13,0,0,1-2-2.42c-.15-.23-.29-.46-.44-.73a5.41,5.41,0,0,1-.4-.89,8.06,8.06,0,0,1-.28-.92,6.27,6.27,0,0,1-.14-.86l.63,1.24a2.91,2.91,0,0,1-.45-.67,3,3,0,0,1-.14-.39c0-.12-.06-.3,0-.25v-1.05c0-.33,0-.67.07-1a9.45,9.45,0,0,1,.43-2,7.82,7.82,0,0,1,.94-1.9,9.35,9.35,0,0,1,4.53-3.55,7.9,7.9,0,0,1,3.9-.44,6.4,6.4,0,0,1,3.44,1.77,7.48,7.48,0,0,1,1.91,3.07,4.86,4.86,0,0,1,.23,1.87,3.16,3.16,0,0,1-.75,1.79,4.58,4.58,0,0,1-3.1,1.32l-.08-.39a4.07,4.07,0,0,0,2.53-1.39,2.86,2.86,0,0,0,.12-2.77,5.79,5.79,0,0,0-4.47-3.54,6.87,6.87,0,0,0-5.34,2.28,6.23,6.23,0,0,0-1.49,2.55,7.37,7.37,0,0,0-.24,1.48q0,.38,0,.75l0,.37,0,.19v.16a.24.24,0,0,0-.07-.13l.08.14a7.47,7.47,0,0,0,2.61,4.11,12.91,12.91,0,0,0,4.28,2.61,6.35,6.35,0,0,0,4.78.21,13.9,13.9,0,0,0,3.88-3.15c.6-.61,1.27-1.2,1.87-1.77s1.19-1.22,1.76-1.85c1.15-1.27,2.28-2.57,3.46-3.82a64.06,64.06,0,0,1,7.66-7l0,0,0,0,.14-.06-.14.11a58.28,58.28,0,0,1,6.94-7.11c1.25-1.09,2.56-2.1,3.8-3.16a23.43,23.43,0,0,0,1.78-1.67c.59-.6,1.2-1.16,1.8-1.72a9.59,9.59,0,0,0,2.89-3.74,7.14,7.14,0,0,0-.38-4.63,13.29,13.29,0,0,0-2.45-4.13,7.35,7.35,0,0,0-3.88-2.62l-.14-.07a.26.26,0,0,0,.12.07h-.06l-.09,0-.19,0-.37,0a6.26,6.26,0,0,0-.75,0,7.31,7.31,0,0,0-1.48.18,6.11,6.11,0,0,0-2.6,1.4,6.83,6.83,0,0,0-2.48,5.25,5.77,5.77,0,0,0,3.37,4.59,2.84,2.84,0,0,0,2.77,0,4,4,0,0,0,1.48-2.48Z"/><path class="cls-4" d="M146.73,139c-5.85,6-.71,20.95,6.75,29.65,10.45,12.21,30.37,17.78,36.35,11.19,5.77-6.37-1.18-24.41-12.68-34C168.18,138.34,152.72,132.9,146.73,139Z"/><path class="cls-4" d="M148.94,162.08a25.65,25.65,0,0,0,10.63-13.24,24.78,24.78,0,0,0,1-11.58"/><path class="cls-4" d="M159.46,174.22a31.07,31.07,0,0,0,10.77-12.43c4.43-9.3,3.06-16.52,2.43-19.21"/><path class="cls-4" d="M172.66,181.07a34.69,34.69,0,0,0,9.05-11.35,29.44,29.44,0,0,0,2.53-16.21"/><path class="cls-4" d="M186.28,178.41a14.36,14.36,0,0,0,4.07-13.31"/><ellipse class="cls-5" cx="195.16" cy="184.73" rx="11.26" ry="11.71" transform="translate(-73.56 187.2) rotate(-43.95)"/><polygon class="cls-6" points="14.07 8.72 12.75 18.92 3.43 3.53 14.07 8.72"/><polygon class="cls-7" points="14.07 8.72 22.59 12.21 12.75 18.92 14.07 8.72"/><polygon class="cls-8" points="22.59 12.21 12.75 18.92 20.55 30.04 22.59 12.21"/><polygon class="cls-9" points="20.55 30.04 27.32 38.95 33.54 25.85 20.55 30.04"/><polygon class="cls-7" points="33.75 25.85 20.55 30.04 22.59 12.21 33.75 25.85"/><polygon class="cls-10" points="22.59 12.21 32.78 15.68 33.75 25.95 22.59 12.21"/><polygon class="cls-8" points="32.78 15.67 42.43 18.27 33.42 25.95 32.78 15.67"/><polygon class="cls-10" points="27.15 38.63 32.78 45.74 47.38 40.36 27.15 38.63"/><polyline class="cls-8" points="39.76 39.85 27.2 38.69 33.33 25.54 47.37 40.37"/><polygon class="cls-7" points="42.43 18.27 45.33 18.92 48.58 27.87 33.41 25.85 42.43 18.27"/><polygon class="cls-11" points="48.47 27.87 47.37 40.37 33.41 25.63 48.47 27.87"/><polygon class="cls-10" points="48.54 27.87 58.13 47.25 47.36 40.37 48.54 27.87"/><polygon class="cls-8" points="32.78 45.74 43.2 57.96 58 47.25 32.78 45.74"/><polyline class="cls-7" points="32.78 45.74 47.33 40.37 58.09 47.25 33.41 46.49"/><polygon class="cls-7" points="58 46.97 54.79 70.58 42.65 57.33 58 46.97"/><path class="cls-12" d="M58.13,47l8.94,15.17L54.79,70.58S57.47,48.44,58.13,47Z"/><polygon class="cls-13" points="67.07 62.03 63.58 79.59 54.79 70.58 67.07 62.03"/><polygon class="cls-10" points="67.07 61.85 80.02 79.59 63.57 79.58 67.07 61.85"/><path class="cls-11" d="M63.55,79.56l9.82,9.58,7.17-9.55S69.36,78.89,63.55,79.56Z"/><polygon class="cls-13" points="73.37 89.14 83.59 92.22 80.02 79.27 73.37 89.14"/><polygon class="cls-12" points="83.61 92.22 96.25 97.18 79.87 79.41 83.61 92.22"/><path class="cls-10" d="M96.25,97.27l-8.19,5.37L73.37,89.14A125.39,125.39,0,0,1,96.25,97.27Z"/><polygon class="cls-11" points="96.25 97.27 101.38 114.13 88.06 102.64 96.25 97.27"/><polygon class="cls-10" points="96.14 97.09 113.92 112.81 101.38 114.13 96.14 97.09"/><polygon class="cls-13" points="101.38 114.13 113.69 112.9 107.53 119.22 101.38 114.13"/><polygon class="cls-14" points="107.53 119.22 113.92 112.76 119.24 128.57 107.53 119.22"/><polygon class="cls-12" points="113.69 112.58 138.54 129.53 118.85 128.57 113.69 112.58"/><polygon class="cls-11" points="118.93 128.33 118.97 128.36 133.1 139.11 138.54 129.45 118.93 128.33"/><polygon class="cls-10" points="133.1 139.11 140.73 144.68 138.43 129.45 133.1 139.11"/><polyline class="cls-13" points="138.44 129.4 149.35 136.36 140.73 144.68"/><path class="cls-15" d="M45.33,18.92l15.21,2.52L52.48,35.82S47.3,27.29,45.33,18.92Z"/><polygon class="cls-6" points="60.54 21.44 69.3 22.22 63.01 32.4 60.54 21.44"/><polygon class="cls-16" points="60.54 21.44 63.01 32.4 54.46 30.04 60.54 21.44"/><polygon class="cls-17" points="50.9 33 54.46 30.04 63.01 32.4 50.9 33"/><polygon class="cls-15" points="50.9 33 63.01 32.4 55.63 42.18 50.9 33"/><path class="cls-6" d="M55.63,42.18l5.58-7.39-.67,16.26S57.94,46.85,55.63,42.18Z"/><polyline class="cls-16" points="61.21 34.79 73.96 44.89 60.54 51.05"/><polygon class="cls-17" points="66.4 26.92 73.96 44.89 61.21 34.79 66.4 26.92"/><polygon class="cls-16" points="69.3 22.22 79.15 23.07 68.49 31.88 66.4 26.92 69.3 22.22"/><polygon class="cls-6" points="79.15 23.07 68.49 31.88 71.8 40.06 79.15 23.07"/><polygon class="cls-17" points="45.33 18.92 57.06 26.36 60.54 21.44 45.33 18.92"/><polyline class="cls-15" points="71.8 40.06 88.76 35.91 91.18 42.92"/><polygon class="cls-17" points="71.8 40.06 88.76 35.91 79.15 23.07 71.8 40.06"/><polygon class="cls-6" points="79.15 23.07 86.74 23.07 88.76 35.91 79.15 23.07"/><polygon class="cls-6" points="71.8 40.06 91.18 42.92 77.07 51.85 71.8 40.06"/><polygon class="cls-15" points="73.96 44.89 77.07 51.85 60.54 51.05 73.96 44.89"/><path class="cls-18" d="M60.54,51.05l16.53.8L70,65.87A78.37,78.37,0,0,1,60.54,51.05Z"/><polygon class="cls-15" points="70 65.87 91.18 42.92 77.07 51.85 70 65.87"/><polygon class="cls-16" points="70 65.87 80.28 54.73 89.1 73.57 70 65.87"/><polygon class="cls-17" points="80.28 54.73 91.18 42.92 85.43 65.87 80.28 54.73"/><polygon class="cls-15" points="85.43 65.87 98.72 64.15 91.18 42.92 85.43 65.87"/><polygon class="cls-6" points="85.43 65.87 89.1 73.57 98.72 64.15 85.43 65.87"/><polygon class="cls-6" points="89.1 73.57 80.54 80.22 70 65.87 89.1 73.57"/><polygon class="cls-15" points="80.54 80.22 92.16 70.58 95.06 95.89 80.54 80.22"/><polygon class="cls-18" points="91.88 70.81 91.18 91.7 100.9 84.61 91.88 70.81"/><polygon class="cls-16" points="100.9 84.61 98.72 63.9 91.88 70.81 100.9 84.61"/><polyline class="cls-8" points="98.72 63.9 108.89 84.61 100.9 84.61"/><polyline class="cls-16" points="91.18 91.7 108.89 84.61 100.9 84.61"/><path class="cls-18" d="M91.18,91.7l11.54-4.62-1.19,14.78S94.33,95.81,91.18,91.7Z"/><polygon class="cls-15" points="102.72 87.08 108.89 84.61 116.74 97.27 102.72 87.08"/><path class="cls-17" d="M102.72,87.08l-1.35,14.65s15.3-4.56,15.37-4.46"/><polygon class="cls-6" points="116.74 97.27 101.38 101.73 113.69 112.58 116.74 97.27"/><polyline class="cls-18" points="116.74 97.27 125.54 120.66 113.69 112.58"/><polyline class="cls-6" points="116.74 97.27 134.81 119.22 125.54 120.66"/><polygon class="cls-15" points="125.54 120.66 149.35 136.36 134.81 119.22 125.54 120.66"/><polyline class="cls-17" points="134.81 119.22 151.61 134.72 149.35 136.36"/><path class="cls-19" d="M148.27,139.11l2.13,7.55s-6.21.11-6.2,0S144,140.9,148.27,139.11Z"/><path class="cls-20" d="M149.71,144.22l5.2-7.16s-5.21.48-6.64,2.05"/><path class="cls-21" d="M154.91,137.06a16.58,16.58,0,0,1,3.86-.22,4.6,4.6,0,0,1,2.1,3.8Z"/><polyline class="cls-22" points="160.87 140.64 149.71 144.22 154.91 137.06"/><polygon class="cls-21" points="152.5 151.21 156.56 142.03 149.71 144.22 152.01 152.56 152.5 151.21"/><path class="cls-20" d="M153.14,152.56l6.32-11.47,1.41-.45s.68,2-.69,6.07"/><path class="cls-22" d="M160.18,146.71a23.66,23.66,0,0,1-.84,2.84,23.26,23.26,0,0,1-3.32,6.11,22.82,22.82,0,0,1-2.49,2.77l-.6-5.86Z"/><polyline class="cls-20" points="152.93 152.57 150.4 146.66 144.2 146.66"/><path class="cls-21" d="M152.93,152.57l-8.73-5.91s.31,7.39,2.51,10.81"/><path class="cls-20" d="M146.71,157.47l6.22-4.9.6,5.86-4.18,3.65A21.79,21.79,0,0,1,146.71,157.47Z"/><polyline class="cls-22" points="149.71 163.4 153.53 160.59 154.91 170.21"/><path class="cls-22" d="M153.53,160.59a29.76,29.76,0,0,0,5.13-6l8.05,7.5"/><polyline class="cls-20" points="153.53 160.59 154.91 170.21 166.41 162.08"/><polyline class="cls-21" points="154.91 170.21 159.29 174.22 166.41 162.08"/><path class="cls-19" d="M159.3,174.22a29.35,29.35,0,0,0,8.75-8.58l-7.18.36"/><path class="cls-21" d="M160.87,166q2.65-2,5.64-3.92c1.67-1.1,4.55-4.35,6.15-5.31-1.13,2.21-3.49,6.65-4.61,8.87Z"/><path class="cls-20" d="M172.66,156.77a46.57,46.57,0,0,1-3.56,3.09c-.92.72-1.82,1.36-2.69,1.94l-8-7.22Z"/><path class="cls-21" d="M158.44,154.58s3.27-5.13,3.64-9.66l10.58,11.85"/><polyline class="cls-22" points="161.66 147.29 170.4 140.64 167.37 150.84"/><path class="cls-20" d="M170.4,140.64,161.25,137a9.8,9.8,0,0,1,1,2.49,11.62,11.62,0,0,1,.18,3.59,20.52,20.52,0,0,1-.73,4.24Z"/><polyline class="cls-20" points="170.37 140.63 172.66 156.77 167.37 150.84"/><path class="cls-21" d="M170.37,140.63l3,2a48.83,48.83,0,0,1,.2,6.93,47.63,47.63,0,0,1-.91,7.26"/><path class="cls-21" d="M160.53,175l6.84-6.37L166.71,179a22.61,22.61,0,0,1-3.2-1.7A21.09,21.09,0,0,1,160.53,175Z"/><path class="cls-20" d="M167.37,168.63a19.57,19.57,0,0,0,2.82-3.58,19.88,19.88,0,0,0,1.57-3.21l6.86,7.49Z"/><path class="cls-19" d="M167.37,168.63,166.71,179l11.91-9.68Z"/><path class="cls-20" d="M166.71,179l5.9,2.46c.32-1.57.64-3.17.94-4.78.22-1.15.43-2.3.64-3.44Z"/><path class="cls-19" d="M172.61,181.47a35.36,35.36,0,0,0,7.55-8.58l-6,.36"/><path class="cls-20" d="M174.19,173.25l10.14-9.46c-.5,1.44-1.11,3-1.87,4.66s-1.54,3.13-2.3,4.44Z"/><path class="cls-21" d="M178.62,169.33l-3.43-3.75-3.43-3.74,12.57,1.95Z"/><path class="cls-20" d="M171.76,161.84a26.64,26.64,0,0,0,1.57-3.77c.84-2.54.43-1.35.56-3.19,3.64,2.82,7.65,3.37,10.44,8.91Z"/><polyline class="cls-19" points="173.89 154.88 182.64 150.16 179.6 158.43"/><path class="cls-21" d="M174.64,150.22a34,34,0,0,1-.75,4.66c1.48-.78,3-1.57,4.48-2.39s2.86-1.55,4.27-2.33a26,26,0,0,0-8.07-6.31A33.94,33.94,0,0,1,174.64,150.22Z"/><path class="cls-21" d="M182.64,150.16c.42,2.15.8,4.45,1.1,6.91s.48,4.61.59,6.72l-4.85-5.69C180.53,155.45,181.58,152.81,182.64,150.16Z"/><path class="cls-20" d="M182.64,150.16l2.73,4.35-1,8.88Z"/><path class="cls-21" d="M174.31,181.56l4.26-4.2c1.6,2.12,3.2,4.25,4.81,6.37Z"/><path class="cls-20" d="M184.61,179.07l-6.12-1.7,4.89,6.36a12.65,12.65,0,0,1,.22-1.5A14.34,14.34,0,0,1,184.61,179.07Z"/><path class="cls-19" d="M178.57,177.36l3-4.23,5.72,2.71Z"/><path class="cls-21" d="M184.61,179.07l2.63-3.23-8.75,1.53Z"/><path class="cls-20" d="M187.24,175.84l-2.3-10.44s-2.06,6.45-3.5,7.85"/><path class="cls-22" d="M184.9,165.1l7,8.49a8.8,8.8,0,0,0-4.66,2.25"/><path class="cls-21" d="M186.28,156.57a62.49,62.49,0,0,1-1.38,8.53l7,8.49S194.09,168.31,186.28,156.57Z"/><path class="cls-20" d="M184.91,165.08l5.75-.62s-2.51-6.64-4.38-7.89Z"/><path class="cls-19" d="M183.83,186.16a12.3,12.3,0,0,0,1.7,4.45,11.94,11.94,0,0,0,2.51,2.85q3.87-4.2,7.75-8.41Z"/><path class="cls-20" d="M188,193.46a11.79,11.79,0,0,0,6.9,2.75l.85-11.16Q191.92,189.27,188,193.46Z"/><path class="cls-23" d="M194.94,196.21a10.94,10.94,0,0,0,2.89-.2,11.32,11.32,0,0,0,4-1.69l-6.09-9.27Z"/><path class="cls-21" d="M201.88,194.32a11.55,11.55,0,0,0,2-1.8,11.17,11.17,0,0,0,2.14-3.72l-10.26-3.75Z"/><path class="cls-20" d="M195.79,185.05l10.26,3.75a11.81,11.81,0,0,0,.45-1.84,11.57,11.57,0,0,0,.08-3Z"/><path class="cls-23" d="M206.58,184a11.78,11.78,0,0,0-.79-3.19,12.09,12.09,0,0,0-3-4.41l-7,8.64Z"/><path class="cls-19" d="M202.74,176.41a11.89,11.89,0,0,0-2.45-1.75,12,12,0,0,0-3.09-1.15l-1.41,11.54Z"/><path class="cls-21" d="M197.71,173.64a9.06,9.06,0,0,0-8.59,1.68q3.24,5,6.49,9.93Z"/><path class="cls-23" d="M195.61,185.25l-11.78.91a9.36,9.36,0,0,1,1-5.23Z"/><path class="cls-20" d="M184.85,180.93a22,22,0,0,1,2-3.12,21.2,21.2,0,0,1,2.26-2.49q3.24,5,6.49,9.93Z"/><g id="Layer_48" data-name="Layer 48"><path class="cls-2" d="M70.74,136a164.41,164.41,0,0,0,44-52c14.85-27.78,20.57-48.57,20.87-59.88a160.33,160.33,0,0,0,35-2.18A161,161,0,0,0,218.91,5.35S186.18,71.15,81.62,146.5Z"/><path class="cls-3" d="M74.07,136.94c20.2-10.74,52.64-31.72,78.7-69.39a216,216,0,0,0,23.92-45.32,173.19,173.19,0,0,0,29.36-9.08q4.81-2,9.2-4.09a417.22,417.22,0,0,1-27.76,38.43c-24.6,30.29-48,50.38-65.92,65.7-9.7,8.28-23.13,19.22-39.86,31.36-1-1.09-2.09-2.17-3.14-3.26Z"/><path d="M64.23,122a3.77,3.77,0,0,0,1.69,2.17,2.47,2.47,0,0,0,2.27-.32,4.9,4.9,0,0,0,2.4-4,4.78,4.78,0,0,0-.74-2.13A7.26,7.26,0,0,0,68.22,116a4.71,4.71,0,0,0-1-.55,3.29,3.29,0,0,0-.94-.27,6.41,6.41,0,0,0-1.08,0,3.33,3.33,0,0,0-.54.07l-.27.05-.11,0h-.07c-.06,0,.12,0,.24-.06a2.87,2.87,0,0,0,.37-.15,2.31,2.31,0,0,0,.63-.47l-1.22.68a1.75,1.75,0,0,0-.38.13l-.28.15-.24.17-.32.25a10.38,10.38,0,0,0-1.32,1.4,10.82,10.82,0,0,0-1.79,3.45,6.93,6.93,0,0,0-.33,1.74,2.53,2.53,0,0,0,.16,1.12,3.6,3.6,0,0,0,.71,1A20.42,20.42,0,0,0,62,126.19c.6.54,1.27,1.12,1.94,1.78.34.32.5.48.8.73s.54.47.83.7c1.19.93,2.52,2,3.85,3.12A61.55,61.55,0,0,1,76.78,140l-1.27-1a.52.52,0,0,1,.13.06l.58.33.1.08a66.46,66.46,0,0,1,8,7.36c1.21,1.31,2.39,2.63,3.47,3.9.53.63,1.06,1.23,1.56,1.75l.88.86c.35.33.67.66,1,1A13.65,13.65,0,0,0,94.1,157a2.39,2.39,0,0,0,1.07.23,6,6,0,0,0,1.7-.3,10.52,10.52,0,0,0,3.58-1.92,9.61,9.61,0,0,0,1.43-1.42c.1-.12.19-.25.26-.35a1.7,1.7,0,0,0,.18-.26l.15-.29a2.54,2.54,0,0,0,.12-.4l.63-1.24a2.27,2.27,0,0,0-.44.64,2.46,2.46,0,0,0-.14.38,2.29,2.29,0,0,0,0,.24h0v-.05l0-.12,0-.27c0-.18,0-.36,0-.55a5.35,5.35,0,0,0-.07-1.07,3.69,3.69,0,0,0-.3-.94,5.39,5.39,0,0,0-.59-.94,7.24,7.24,0,0,0-1.79-1.56,4.72,4.72,0,0,0-2.16-.66,4.86,4.86,0,0,0-3.94,2.54,2.46,2.46,0,0,0-.24,2.29,3.79,3.79,0,0,0,2.23,1.61l-.08.39A4.45,4.45,0,0,1,93,151.38a3.26,3.26,0,0,1-.18-3.17,6.71,6.71,0,0,1,1.9-2.56,5.39,5.39,0,0,1,2.93-1.29,7.31,7.31,0,0,1,5.75,2.4,6.67,6.67,0,0,1,1.63,2.76,7.78,7.78,0,0,1,.27,1.59c0,.26,0,.53,0,.8l0,.4,0,.2v.18a.31.31,0,0,1-.07.17l.07-.14a5.57,5.57,0,0,1-1,2.47,12.52,12.52,0,0,1-1.74,2A13.66,13.66,0,0,1,98,159.91a6.93,6.93,0,0,1-5.24.23,14.52,14.52,0,0,1-4.11-3.26c-.61-.61-1.22-1.15-1.88-1.76s-1.22-1.23-1.8-1.87c-1.16-1.27-2.29-2.55-3.47-3.79a63.3,63.3,0,0,0-7.61-6.84l.08,0a.61.61,0,0,1-.14-.07l-.09,0,0-.07a58.24,58.24,0,0,0-6.81-7.06c-1.23-1.08-2.52-2.1-3.78-3.18-.62-.54-1.24-1.13-1.81-1.73s-1.16-1.14-1.76-1.7a10.2,10.2,0,0,1-3-4,7.7,7.7,0,0,1,.41-5,13.92,13.92,0,0,1,2.59-4.31,12.51,12.51,0,0,1,1.85-1.71,5.52,5.52,0,0,1,2.34-1l-.13.07a.34.34,0,0,1,.16-.08h.08l.1,0,.2,0,.4,0a7.3,7.3,0,0,1,.81,0,7.79,7.79,0,0,1,1.59.21,6.59,6.59,0,0,1,2.82,1.53A7.31,7.31,0,0,1,72.33,120a5.43,5.43,0,0,1-1.18,3,6.63,6.63,0,0,1-2.49,2,3.27,3.27,0,0,1-3.18-.06,4.49,4.49,0,0,1-1.64-2.74Z"/><path class="cls-4" d="M75.61,140.81c5.86,6,.72,20.95-6.74,29.65-10.46,12.21-30.37,17.78-36.35,11.19-5.78-6.37,1.18-24.42,12.68-34C54.17,140.16,69.62,134.71,75.61,140.81Z"/><path class="cls-4" d="M73.4,163.9a25.65,25.65,0,0,1-10.62-13.24,25,25,0,0,1-1-11.58"/><path class="cls-4" d="M62.88,176a31.22,31.22,0,0,1-10.77-12.43c-4.43-9.3-3.06-16.52-2.42-19.21"/><path class="cls-4" d="M49.69,182.89a34.57,34.57,0,0,1-9.06-11.35,29.54,29.54,0,0,1-2.53-16.21"/><path class="cls-4" d="M36.06,180.23a14.6,14.6,0,0,1-3.93-6.79,14.38,14.38,0,0,1-.14-6.52"/><ellipse class="cls-5" cx="27.19" cy="186.55" rx="11.71" ry="11.26" transform="translate(-125.98 76.64) rotate(-46.05)"/><path class="cls-2" d="M197.62,37.42c-20.17,26.32-56.43,66.15-116,109.08L70.74,136a164.41,164.41,0,0,0,44-52c14.85-27.78,20.57-48.57,20.87-59.88a160.33,160.33,0,0,0,35-2.18A161,161,0,0,0,218.91,5.35a157.74,157.74,0,0,1-9.31,15.39c-2.18,3.26-4.77,7-7.81,11.12q-2,2.67-4.17,5.56"/><path class="cls-4" d="M75.61,140.81c5.86,6,.72,20.95-6.74,29.65-10.46,12.21-30.37,17.78-36.35,11.19-5.78-6.37,1.18-24.42,12.68-34C54.17,140.16,69.62,134.71,75.61,140.81Z"/><path class="cls-4" d="M73.4,163.9a25.65,25.65,0,0,1-10.62-13.24,25,25,0,0,1-1-11.58"/><path class="cls-4" d="M62.88,176a31.22,31.22,0,0,1-10.77-12.43c-4.43-9.3-3.06-16.52-2.42-19.21"/><path class="cls-4" d="M49.69,182.89a34.57,34.57,0,0,1-9.06-11.35,29.54,29.54,0,0,1-2.53-16.21"/><path class="cls-4" d="M36.06,180.23a14.6,14.6,0,0,1-3.93-6.79,14.38,14.38,0,0,1-.14-6.52"/><polygon class="cls-6" points="208.27 10.54 209.59 20.74 218.91 5.35 208.27 10.54"/><polygon class="cls-7" points="208.27 10.54 199.76 14.03 209.6 20.73 208.27 10.54"/><polygon class="cls-8" points="199.76 14.03 209.59 20.74 201.79 31.86 199.76 14.03"/><polygon class="cls-9" points="201.79 31.86 195.03 40.77 188.81 27.67 201.79 31.86"/><polygon class="cls-7" points="188.6 27.67 201.79 31.86 199.76 14.03 188.6 27.67"/><polygon class="cls-10" points="199.76 14.03 189.56 17.5 188.6 27.77 199.76 14.03"/><polygon class="cls-8" points="189.56 17.49 179.91 20.09 188.93 27.77 189.56 17.49"/><polygon class="cls-10" points="195.19 40.44 189.56 47.56 174.97 42.18 195.19 40.44"/><polyline class="cls-8" points="182.59 41.67 195.15 40.51 189.02 27.36 174.97 42.19"/><polygon class="cls-7" points="179.91 20.09 177.01 20.74 173.76 29.69 188.93 27.67 179.91 20.09"/><polygon class="cls-11" points="173.88 29.69 174.97 42.19 188.93 27.45 173.88 29.69"/><polygon class="cls-10" points="173.81 29.69 164.21 49.07 174.99 42.19 173.81 29.69"/><polygon class="cls-8" points="189.56 47.56 179.14 59.78 164.35 49.07 189.56 47.56"/><polyline class="cls-7" points="189.56 47.56 175.01 42.19 164.25 49.07 188.93 48.31"/><polygon class="cls-7" points="164.35 48.79 167.56 72.4 179.7 59.15 164.35 48.79"/><path class="cls-12" d="M164.21,48.79,155.27,64l12.29,8.44S164.88,50.26,164.21,48.79Z"/><polygon class="cls-13" points="155.27 63.85 158.76 81.41 167.56 72.39 155.27 63.85"/><polygon class="cls-10" points="155.27 63.67 142.32 81.41 158.77 81.4 155.27 63.67"/><path class="cls-11" d="M158.79,81.38,149,91l-7.18-9.55S153,80.71,158.79,81.38Z"/><polygon class="cls-13" points="148.98 90.96 138.76 94.04 142.32 81.09 148.98 90.96"/><polygon class="cls-12" points="138.74 94.04 126.1 99 142.48 81.23 138.74 94.04"/><path class="cls-10" d="M126.1,99.09l8.19,5.37L149,91A125.1,125.1,0,0,0,126.1,99.09Z"/><polygon class="cls-11" points="126.1 99.09 120.97 115.95 134.29 104.46 126.1 99.09"/><polygon class="cls-10" points="126.21 98.91 108.43 114.64 120.97 115.95 126.21 98.91"/><polygon class="cls-13" points="120.97 115.95 108.65 114.72 114.81 121.04 120.97 115.95"/><polygon class="cls-14" points="114.81 121.04 108.43 114.58 103.11 130.39 114.81 121.04"/><polygon class="cls-12" points="108.65 114.4 83.8 131.35 103.49 130.39 108.65 114.4"/><polygon class="cls-11" points="103.42 130.15 103.37 130.18 89.24 140.93 83.8 131.27 103.42 130.15"/><polygon class="cls-10" points="89.24 140.93 81.62 146.5 83.92 131.27 89.24 140.93"/><polyline class="cls-13" points="83.91 131.22 73 138.18 81.62 146.5"/><path class="cls-15" d="M177,20.74l-15.2,2.52,8.06,14.38S175.05,29.11,177,20.74Z"/><polygon class="cls-6" points="161.81 23.26 153.04 24.04 159.33 34.22 161.81 23.26"/><polygon class="cls-16" points="161.81 23.26 159.33 34.22 167.89 31.86 161.81 23.26"/><polygon class="cls-17" points="171.44 34.82 167.89 31.86 159.33 34.22 171.44 34.82"/><polygon class="cls-15" points="171.44 34.82 159.33 34.22 166.72 44 171.44 34.82"/><path class="cls-6" d="M166.72,44l-5.59-7.39.68,16.26S164.41,48.67,166.72,44Z"/><polyline class="cls-16" points="161.13 36.61 148.39 46.71 161.81 52.87"/><polygon class="cls-17" points="155.95 28.74 148.39 46.71 161.13 36.61 155.95 28.74"/><polygon class="cls-16" points="153.04 24.04 143.19 24.89 153.86 33.7 155.95 28.74 153.04 24.04"/><polygon class="cls-6" points="143.19 24.89 153.86 33.7 150.55 41.88 143.19 24.89"/><polygon class="cls-17" points="177.01 20.74 165.29 28.18 161.81 23.26 177.01 20.74"/><polyline class="cls-15" points="150.55 41.88 133.58 37.73 131.17 44.74"/><polygon class="cls-17" points="150.55 41.88 133.58 37.73 143.19 24.89 150.55 41.88"/><polygon class="cls-6" points="143.19 24.89 135.6 24.89 133.58 37.73 143.19 24.89"/><polygon class="cls-6" points="150.55 41.88 131.17 44.74 145.27 53.67 150.55 41.88"/><polygon class="cls-15" points="148.39 46.71 145.27 53.67 161.81 52.87 148.39 46.71"/><path class="cls-18" d="M161.81,52.87l-16.54.8,7.07,14A78.69,78.69,0,0,0,161.81,52.87Z"/><polygon class="cls-15" points="152.34 67.69 131.17 44.74 145.27 53.67 152.34 67.69"/><polygon class="cls-16" points="152.34 67.69 142.06 56.55 133.24 75.39 152.34 67.69"/><polygon class="cls-17" points="142.06 56.55 131.17 44.74 136.91 67.69 142.06 56.55"/><polygon class="cls-15" points="136.91 67.69 123.62 65.97 131.17 44.74 136.91 67.69"/><polygon class="cls-6" points="136.91 67.69 133.24 75.39 123.62 65.97 136.91 67.69"/><polygon class="cls-6" points="133.24 75.39 141.8 82.04 152.34 67.69 133.24 75.39"/><polygon class="cls-15" points="141.8 82.04 130.19 72.4 127.29 97.71 141.8 82.04"/><polygon class="cls-18" points="130.47 72.63 131.17 93.52 121.44 86.43 130.47 72.63"/><polygon class="cls-16" points="121.44 86.43 123.62 65.72 130.47 72.63 121.44 86.43"/><polyline class="cls-8" points="123.62 65.72 113.46 86.43 121.44 86.43"/><polyline class="cls-16" points="131.17 93.52 113.46 86.43 121.44 86.43"/><path class="cls-18" d="M131.17,93.52,119.63,88.9l1.18,14.78S128,97.63,131.17,93.52Z"/><polygon class="cls-15" points="119.63 88.9 113.46 86.43 105.61 99.09 119.63 88.9"/><path class="cls-17" d="M119.63,88.9,121,103.55S105.68,99,105.61,99.09"/><polygon class="cls-6" points="105.61 99.09 120.97 103.55 108.65 114.4 105.61 99.09"/><polyline class="cls-18" points="105.61 99.09 96.8 122.48 108.65 114.4"/><polyline class="cls-6" points="105.61 99.09 87.53 121.04 96.8 122.48"/><polygon class="cls-15" points="96.8 122.48 73 138.18 87.53 121.04 96.8 122.48"/><polyline class="cls-17" points="87.53 121.04 70.74 136.54 73 138.18"/><path class="cls-19" d="M74.07,140.93,72,148.48s6.2.11,6.2,0S78.37,142.72,74.07,140.93Z"/><path class="cls-20" d="M72.63,146l-5.19-7.16s5.21.48,6.63,2.05"/><path class="cls-21" d="M67.44,138.88a16.63,16.63,0,0,0-3.86-.22,4.58,4.58,0,0,0-2.1,3.8Z"/><polyline class="cls-22" points="61.48 142.46 72.63 146.04 67.44 138.88"/><polygon class="cls-21" points="69.84 153.03 65.78 143.84 72.63 146.04 70.33 154.38 69.84 153.03"/><path class="cls-20" d="M69.21,154.38l-6.33-11.47-1.4-.45s-.68,2,.68,6.07"/><path class="cls-22" d="M62.16,148.53a22.25,22.25,0,0,0,.85,2.84,23.26,23.26,0,0,0,3.32,6.11,21.91,21.91,0,0,0,2.49,2.77l.6-5.86Z"/><polyline class="cls-20" points="69.42 154.39 71.95 148.48 78.15 148.48"/><path class="cls-21" d="M69.42,154.39l8.73-5.91s-.31,7.39-2.51,10.81"/><path class="cls-20" d="M75.64,159.29l-6.22-4.9-.6,5.86L73,163.9A22.32,22.32,0,0,0,75.64,159.29Z"/><polyline class="cls-22" points="72.63 165.22 68.82 162.41 67.44 172.03"/><path class="cls-22" d="M68.82,162.41a30,30,0,0,1-5.14-6l-8,7.5"/><polyline class="cls-20" points="68.82 162.41 67.44 172.03 55.93 163.9"/><polyline class="cls-21" points="67.44 172.03 63.05 176.04 55.93 163.9"/><path class="cls-19" d="M63.05,176a29.23,29.23,0,0,1-8.75-8.58l7.18.36"/><path class="cls-21" d="M61.48,167.82q-2.67-1.95-5.65-3.92c-1.67-1.1-4.54-4.35-6.14-5.31,1.12,2.21,3.48,6.65,4.61,8.87Z"/><path class="cls-20" d="M49.69,158.59a44.72,44.72,0,0,0,3.56,3.09c.92.72,1.82,1.36,2.68,1.94l8-7.22Z"/><path class="cls-21" d="M63.9,156.4s-3.26-5.14-3.64-9.66L49.69,158.59"/><polyline class="cls-22" points="60.69 149.11 51.94 142.46 54.97 152.66"/><path class="cls-20" d="M51.94,142.46l9.16-3.67a9.44,9.44,0,0,0-1,2.49,11,11,0,0,0-.18,3.59,20.52,20.52,0,0,0,.73,4.24Z"/><polyline class="cls-20" points="51.98 142.45 49.69 158.59 54.97 152.66"/><path class="cls-21" d="M52,142.45l-3,2a46,46,0,0,0-.2,6.93,45.24,45.24,0,0,0,.91,7.26"/><path class="cls-21" d="M61.82,176.82,55,170.45c.22,3.46.45,6.92.67,10.38a22.55,22.55,0,0,0,3.19-1.7A21.84,21.84,0,0,0,61.82,176.82Z"/><path class="cls-20" d="M55,170.45a19.57,19.57,0,0,1-4.39-6.79l-6.85,7.49Z"/><path class="cls-19" d="M55,170.45c.22,3.46.45,6.92.67,10.38l-11.91-9.68Z"/><path class="cls-20" d="M55.64,180.83l-5.91,2.46c-.32-1.57-.63-3.17-.94-4.78-.22-1.15-.43-2.3-.63-3.44Z"/><path class="cls-19" d="M49.73,183.29a35.45,35.45,0,0,1-7.54-8.58l6,.36"/><path class="cls-20" d="M48.16,175.07,38,165.61c.5,1.44,1.11,3,1.86,4.66s1.54,3.13,2.31,4.44Z"/><path class="cls-21" d="M43.73,171.15l3.42-3.75,3.43-3.74-12.56,2Z"/><path class="cls-20" d="M50.58,163.66A27.87,27.87,0,0,1,49,159.89c-.84-2.54-.43-1.35-.56-3.19-3.64,2.82-7.65,3.37-10.43,8.91Z"/><polyline class="cls-19" points="48.45 156.7 39.71 151.98 42.74 160.25"/><path class="cls-21" d="M47.71,152a34,34,0,0,0,.74,4.67q-2.22-1.17-4.47-2.39c-1.44-.77-2.87-1.55-4.27-2.33a25.53,25.53,0,0,1,3.7-3.54,26.06,26.06,0,0,1,4.37-2.77A33,33,0,0,0,47.71,152Z"/><path class="cls-21" d="M39.71,152c-.42,2.15-.8,4.45-1.1,6.91s-.48,4.61-.59,6.72q2.41-2.85,4.85-5.69C41.82,157.27,40.76,154.63,39.71,152Z"/><path class="cls-20" d="M39.71,152,37,156.33c.33,3,.65,5.92,1,8.88Q38.83,158.6,39.71,152Z"/><path class="cls-21" d="M48,183.38l-4.26-4.2c-1.61,2.12-3.21,4.25-4.81,6.37Z"/><path class="cls-20" d="M37.73,180.88l6.13-1.69L39,185.55c0-.47-.12-1-.22-1.5A14.59,14.59,0,0,0,37.73,180.88Z"/><path class="cls-19" d="M43.78,179.18l-3-4.23-5.73,2.71Z"/><path class="cls-21" d="M37.73,180.88l-2.63-3.22,8.76,1.53Z"/><path class="cls-20" d="M35.1,177.66l2.31-10.44s2.05,6.45,3.5,7.85"/><path class="cls-22" d="M37.44,166.92l-7,8.49a8.8,8.8,0,0,1,4.66,2.25"/><path class="cls-21" d="M36.06,158.39a62.49,62.49,0,0,0,1.38,8.53l-7,8.49S28.25,170.13,36.06,158.39Z"/><path class="cls-20" d="M37.44,166.9l-5.75-.62s2.51-6.64,4.37-7.89Z"/><path class="cls-19" d="M38.51,188a12.05,12.05,0,0,1-4.21,7.3l-7.75-8.41Z"/><path class="cls-20" d="M34.3,195.28a11.67,11.67,0,0,1-2.84,1.77,11.93,11.93,0,0,1-4.06,1l-.85-11.16Z"/><path class="cls-23" d="M27.4,198a10.86,10.86,0,0,1-2.88-.2,11.24,11.24,0,0,1-4.05-1.69l6.08-9.27Z"/><path class="cls-21" d="M20.47,196.14a10.88,10.88,0,0,1-2-1.8,11,11,0,0,1-2.14-3.72l10.25-3.75Z"/><path class="cls-20" d="M26.55,186.87,16.3,190.62a10.78,10.78,0,0,1-.45-1.84,11.12,11.12,0,0,1-.08-2.95Z"/><path class="cls-23" d="M15.77,185.83a11.91,11.91,0,0,1,3.83-7.6l7,8.64Z"/><path class="cls-19" d="M19.6,178.23a12,12,0,0,1,2.46-1.75,11.77,11.77,0,0,1,3.09-1.15l1.4,11.54Z"/><path class="cls-21" d="M24.64,175.46a9.06,9.06,0,0,1,8.59,1.68q-3.25,5-6.49,9.93Z"/><path class="cls-23" d="M26.74,187.07l11.77.91a9.36,9.36,0,0,0-1-5.23Z"/><path class="cls-20" d="M37.49,182.75a21.13,21.13,0,0,0-2-3.12,22.11,22.11,0,0,0-2.25-2.49q-3.25,5-6.49,9.93Z"/></g></g></g></g></svg>