<?xml version="1.0" encoding="UTF-8" standalone="no"?>
<!-- Created with Inkscape (http://www.inkscape.org/) -->

<svg
   xmlns:dc="http://purl.org/dc/elements/1.1/"
   xmlns:cc="http://creativecommons.org/ns#"
   xmlns:rdf="http://www.w3.org/1999/02/22-rdf-syntax-ns#"
   xmlns:svg="http://www.w3.org/2000/svg"
   xmlns="http://www.w3.org/2000/svg"
   xmlns:sodipodi="http://sodipodi.sourceforge.net/DTD/sodipodi-0.dtd"
   xmlns:inkscape="http://www.inkscape.org/namespaces/inkscape"
   width="826.34119mm"
   height="156.44289mm"
   viewBox="0 0 826.34118 156.44289"
   version="1.1"
   id="svg8"
   inkscape:version="0.92.4 (5da689c313, 2019-01-14)"
   sodipodi:docname="registrationdatespaths.svg">
  <defs
     id="defs2" />
  <sodipodi:namedview
     id="base"
     pagecolor="#ffffff"
     bordercolor="#666666"
     borderopacity="1.0"
     inkscape:pageopacity="0.0"
     inkscape:pageshadow="2"
     inkscape:zoom="0.35000001"
     inkscape:cx="1651.4342"
     inkscape:cy="543.26046"
     inkscape:document-units="mm"
     inkscape:current-layer="layer2"
     showgrid="false"
     inkscape:window-width="1920"
     inkscape:window-height="1001"
     inkscape:window-x="-9"
     inkscape:window-y="-9"
     inkscape:window-maximized="1"
     inkscape:lockguides="false"
     fit-margin-top="0"
     fit-margin-left="0"
     fit-margin-right="0"
     fit-margin-bottom="0" />
  <metadata
     id="metadata5">
    <rdf:RDF>
      <cc:Work
         rdf:about="">
        <dc:format>image/svg+xml</dc:format>
        <dc:type
           rdf:resource="http://purl.org/dc/dcmitype/StillImage" />
        <dc:title></dc:title>
      </cc:Work>
    </rdf:RDF>
  </metadata>
  <g
     inkscape:groupmode="layer"
     id="layer2"
     inkscape:label="backblack"
     style="display:inline"
     transform="translate(227.44865,-344.41417)">
    <path
       style="font-style:normal;font-variant:normal;font-weight:normal;font-stretch:normal;font-size:71.37032318px;line-height:1.25;font-family:Righteous;-inkscape-font-specification:Righteous;font-variant-ligatures:normal;font-variant-caps:normal;font-variant-numeric:normal;font-feature-settings:normal;text-align:start;letter-spacing:0px;word-spacing:0px;writing-mode:lr-tb;text-anchor:start;display:inline;fill:#f7c45b;fill-opacity:1;stroke:#000000;stroke-width:2.92284775;stroke-miterlimit:4;stroke-dasharray:none;stroke-opacity:1"
       d="M 271.33984 1.4609375 L 271.33984 126.85156 C 271.33984 137.73975 273.22621 147.74883 277.00195 156.88086 C 280.7777 165.92508 285.91627 173.74057 292.41406 180.32617 C 298.99966 186.91177 306.63904 192.04839 315.33203 195.73633 C 324.11283 199.42426 333.46246 201.26758 343.38477 201.26758 C 353.39487 201.26758 362.74646 199.46927 371.43945 195.86914 C 380.22025 192.26901 387.85963 187.21849 394.35742 180.7207 C 400.85521 174.1351 405.99184 166.27656 409.76758 157.14453 C 413.54332 148.0125 415.43164 137.91537 415.43164 126.85156 C 415.43164 116.05118 413.54332 106.12821 409.76758 97.083984 C 405.99184 87.951955 400.85521 80.050359 394.35742 73.376953 C 387.85963 66.703547 380.22025 61.521919 371.43945 57.833984 C 362.74646 54.058241 353.39487 52.169922 343.38477 52.169922 C 340.13587 52.169922 336.79951 52.522146 333.375 53.224609 C 329.95049 53.839265 326.61413 54.760923 323.36523 55.990234 C 320.20415 57.219546 317.21806 58.800646 314.4082 60.732422 C 311.68616 62.664197 309.35951 64.859736 307.42773 67.318359 L 307.42773 1.4609375 L 271.33984 1.4609375 z M 1854.3848 3.8320312 C 1845.7796 3.8320312 1837.6588 5.2370198 1830.0195 8.046875 C 1822.3802 10.85673 1815.7056 14.719472 1809.998 19.636719 C 1804.2905 24.466157 1799.7683 30.131116 1796.4316 36.628906 C 1793.1827 43.038889 1791.5586 49.930771 1791.5586 57.306641 C 1791.5586 60.906768 1791.9539 64.552299 1792.7441 68.240234 C 1793.5344 71.840361 1794.6752 75.35088 1796.168 78.775391 C 1797.7485 82.199902 1799.5938 85.450158 1801.7012 88.523438 C 1803.8964 91.596716 1806.3541 94.318638 1809.0762 96.689453 C 1804.6858 99.148076 1800.735 102.13417 1797.2227 105.64648 C 1793.7103 109.071 1790.6812 112.84568 1788.1348 116.97266 C 1785.6761 121.09963 1783.7878 125.53376 1782.4707 130.27539 C 1781.1536 134.92921 1780.4941 139.71557 1780.4941 144.63281 C 1780.4941 153.15019 1782.4275 161.00873 1786.291 168.20898 C 1790.1546 175.40924 1795.4223 181.64363 1802.0957 186.91211 C 1808.8569 192.09278 1816.7155 196.13163 1825.6719 199.0293 C 1834.6283 202.01477 1844.199 203.50781 1854.3848 203.50781 C 1864.5705 203.50781 1874.1412 202.01477 1883.0977 199.0293 C 1892.0541 196.13163 1899.8696 192.09278 1906.543 186.91211 C 1913.3042 181.64363 1918.6169 175.40924 1922.4805 168.20898 C 1926.344 161.00873 1928.2754 153.15019 1928.2754 144.63281 C 1928.2754 139.71557 1927.6179 134.92921 1926.3008 130.27539 C 1924.9837 125.62157 1923.0953 121.23244 1920.6367 117.10547 C 1918.1781 112.97849 1915.192 109.20185 1911.6797 105.77734 C 1908.1674 102.35283 1904.2596 99.411748 1899.957 96.953125 C 1902.6791 94.494502 1905.0938 91.727576 1907.2012 88.654297 C 1909.3964 85.581018 1911.2416 82.332714 1912.7344 78.908203 C 1914.2271 75.395884 1915.3679 71.840361 1916.1582 68.240234 C 1917.0363 64.552299 1917.4746 60.906768 1917.4746 57.306641 C 1917.4746 49.930771 1915.8074 43.038889 1912.4707 36.628906 C 1909.2218 30.131116 1904.6996 24.466157 1898.9043 19.636719 C 1893.1968 14.719472 1886.5241 10.85673 1878.8848 8.046875 C 1871.2455 5.2370198 1863.0778 3.8320312 1854.3848 3.8320312 z M 2324.8613 7.125 C 2314.4122 7.125 2304.5773 8.8372075 2295.3574 12.261719 C 2286.2254 15.68623 2278.2338 21.218128 2271.3848 28.857422 C 2264.6236 36.496716 2259.2678 46.507747 2255.3164 58.888672 C 2251.365 71.181789 2249.3887 86.284434 2249.3887 104.19727 C 2249.3887 121.93448 2251.365 136.99212 2255.3164 149.37305 C 2259.2678 161.66616 2264.6236 171.67719 2271.3848 179.4043 C 2278.2338 187.04359 2286.2254 192.61854 2295.3574 196.13086 C 2304.5773 199.55537 2314.4122 201.26758 2324.8613 201.26758 C 2335.3105 201.26758 2345.1004 199.60037 2354.2324 196.26367 C 2363.4523 192.83916 2371.4869 187.30726 2378.3359 179.66797 C 2385.185 172.02867 2390.5858 162.01764 2394.5371 149.63672 C 2398.4885 137.25579 2400.4629 122.11009 2400.4629 104.19727 C 2400.4629 86.46005 2398.4885 71.443506 2394.5371 59.150391 C 2390.5858 46.857274 2385.185 36.848196 2378.3359 29.121094 C 2371.4869 21.393992 2363.4523 15.817089 2354.2324 12.392578 C 2345.1004 8.8802593 2335.3105 7.125 2324.8613 7.125 z M 1.4609375 9.7597656 L 1.4609375 198.63477 L 39.263672 198.63477 L 39.263672 123.16406 L 95.898438 123.16406 L 95.898438 85.361328 L 39.263672 85.361328 L 39.263672 47.560547 L 133.70117 47.560547 L 133.70117 9.7597656 L 1.4609375 9.7597656 z M 1205.4414 9.7597656 L 1205.4414 47.560547 L 1272.877 47.560547 C 1275.5112 47.560547 1277.9689 48.043878 1280.252 49.009766 C 1282.535 49.975653 1284.5113 51.335637 1286.1797 53.091797 C 1287.9358 54.760148 1289.2978 56.736524 1290.2637 59.019531 C 1291.2296 61.302539 1291.7109 63.760292 1291.7109 66.394531 C 1291.7109 69.028771 1291.2296 71.531528 1290.2637 73.902344 C 1289.2978 76.185351 1287.9358 78.204778 1286.1797 79.960938 C 1284.5113 81.629288 1282.535 82.948176 1280.252 83.914062 C 1277.9689 84.87995 1275.5112 85.361328 1272.877 85.361328 L 1253.9102 85.361328 C 1246.0952 85.361328 1238.7631 86.854373 1231.9141 89.839844 C 1225.065 92.737507 1219.0498 96.776362 1213.8691 101.95703 C 1208.7763 107.04989 1204.7374 113.06512 1201.752 120.00195 C 1198.7665 126.85098 1197.2734 134.18314 1197.2734 141.99805 L 1197.2734 198.63477 L 1324.377 198.63477 L 1324.377 160.83203 L 1235.0762 160.83203 L 1235.0762 141.99805 C 1235.0762 139.36381 1235.5595 136.90605 1236.5254 134.62305 C 1237.4913 132.34004 1238.8082 130.36366 1240.4766 128.69531 C 1242.2327 126.93915 1244.2521 125.57722 1246.5352 124.61133 C 1248.8182 123.64544 1251.2759 123.16406 1253.9102 123.16406 L 1272.877 123.16406 C 1280.6919 123.16406 1288.024 121.67102 1294.873 118.68555 C 1301.7221 115.70008 1307.6923 111.66122 1312.7852 106.56836 C 1317.9658 101.38769 1322.0497 95.372459 1325.0352 88.523438 C 1328.0206 81.586607 1329.5137 74.209441 1329.5137 66.394531 C 1329.5137 58.579621 1328.0206 51.249413 1325.0352 44.400391 C 1322.0497 37.551368 1317.9658 31.579191 1312.7852 26.486328 C 1307.6923 21.305658 1301.7221 17.223752 1294.873 14.238281 C 1288.024 11.25281 1280.6919 9.7597656 1272.877 9.7597656 L 1205.4414 9.7597656 z M 1345.9766 9.7597656 L 1345.9766 47.560547 L 1426.3223 47.560547 L 1373.2422 198.63477 L 1413.6777 198.63477 L 1478.2168 9.7597656 L 1345.9766 9.7597656 z M 1636.9297 9.7597656 L 1636.9297 47.560547 L 1704.3652 47.560547 C 1706.9995 47.560547 1709.4592 48.043878 1711.7422 49.009766 C 1714.0252 49.975653 1715.9996 51.335637 1717.668 53.091797 C 1719.4241 54.760148 1720.7861 56.736524 1721.752 59.019531 C 1722.7178 61.302539 1723.2012 63.760292 1723.2012 66.394531 C 1723.2012 69.028771 1722.7178 71.531528 1721.752 73.902344 C 1720.7861 76.185351 1719.4241 78.204778 1717.668 79.960938 C 1715.9996 81.629288 1714.0252 82.948176 1711.7422 83.914062 C 1709.4592 84.87995 1706.9995 85.361328 1704.3652 85.361328 L 1685.3984 85.361328 C 1677.5835 85.361328 1670.2514 86.854373 1663.4023 89.839844 C 1656.5533 92.737507 1650.54 96.776362 1645.3594 101.95703 C 1640.2665 107.04989 1636.2257 113.06512 1633.2402 120.00195 C 1630.2548 126.85098 1628.7637 134.18314 1628.7637 141.99805 L 1628.7637 198.63477 L 1755.8652 198.63477 L 1755.8652 160.83203 L 1666.5645 160.83203 L 1666.5645 141.99805 C 1666.5645 139.36381 1667.0478 136.90605 1668.0137 134.62305 C 1668.9796 132.34004 1670.2965 130.36366 1671.9648 128.69531 C 1673.721 126.93915 1675.7404 125.57722 1678.0234 124.61133 C 1680.3064 123.64544 1682.7642 123.16406 1685.3984 123.16406 L 1704.3652 123.16406 C 1712.1801 123.16406 1719.5123 121.67102 1726.3613 118.68555 C 1733.2104 115.70008 1739.1806 111.66122 1744.2734 106.56836 C 1749.4541 101.38769 1753.538 95.372459 1756.5234 88.523438 C 1759.5089 81.586607 1761.002 74.209441 1761.002 66.394531 C 1761.002 58.579621 1759.5089 51.249413 1756.5234 44.400391 C 1753.538 37.551368 1749.4541 31.579191 1744.2734 26.486328 C 1739.1806 21.305658 1733.2104 17.223752 1726.3613 14.238281 C 1719.5123 11.25281 1712.1801 9.7597656 1704.3652 9.7597656 L 1636.9297 9.7597656 z M 2104.2422 9.7597656 L 2104.2422 47.560547 L 2171.6797 47.560547 C 2174.3139 47.560547 2176.7717 48.043878 2179.0547 49.009766 C 2181.3377 49.975653 2183.3141 51.335637 2184.9824 53.091797 C 2186.7386 54.760148 2188.0986 56.736524 2189.0645 59.019531 C 2190.0303 61.302539 2190.5137 63.760292 2190.5137 66.394531 C 2190.5137 69.028771 2190.0303 71.531528 2189.0645 73.902344 C 2188.0986 76.185351 2186.7386 78.204778 2184.9824 79.960938 C 2183.3141 81.629288 2181.3377 82.948176 2179.0547 83.914062 C 2176.7717 84.87995 2174.3139 85.361328 2171.6797 85.361328 L 2152.7129 85.361328 C 2144.898 85.361328 2137.5658 86.854373 2130.7168 89.839844 C 2123.8678 92.737507 2117.8525 96.776362 2112.6719 101.95703 C 2107.579 107.04989 2103.5402 113.06512 2100.5547 120.00195 C 2097.5692 126.85098 2096.0762 134.18314 2096.0762 141.99805 L 2096.0762 198.63477 L 2223.1797 198.63477 L 2223.1797 160.83203 L 2133.8789 160.83203 L 2133.8789 141.99805 C 2133.8789 139.36381 2134.3603 136.90605 2135.3262 134.62305 C 2136.2921 132.34004 2137.609 130.36366 2139.2773 128.69531 C 2141.0335 126.93915 2143.0549 125.57722 2145.3379 124.61133 C 2147.6209 123.64544 2150.0787 123.16406 2152.7129 123.16406 L 2171.6797 123.16406 C 2179.4946 123.16406 2186.8268 121.67102 2193.6758 118.68555 C 2200.5248 115.70008 2206.495 111.66122 2211.5879 106.56836 C 2216.7686 101.38769 2220.8524 95.372459 2223.8379 88.523438 C 2226.8234 81.586607 2228.3164 74.209441 2228.3164 66.394531 C 2228.3164 58.579621 2226.8234 51.249413 2223.8379 44.400391 C 2220.8524 37.551368 2216.7686 31.579191 2211.5879 26.486328 C 2206.495 21.305658 2200.5248 17.223752 2193.6758 14.238281 C 2186.8268 11.25281 2179.4946 9.7597656 2171.6797 9.7597656 L 2104.2422 9.7597656 z M 2431.416 9.7597656 L 2431.416 47.560547 L 2498.8516 47.560547 C 2501.4858 47.560547 2503.9455 48.043878 2506.2285 49.009766 C 2508.5115 49.975653 2510.4859 51.335637 2512.1543 53.091797 C 2513.9105 54.760148 2515.2724 56.736524 2516.2383 59.019531 C 2517.2042 61.302539 2517.6875 63.760292 2517.6875 66.394531 C 2517.6875 69.028771 2517.2042 71.531528 2516.2383 73.902344 C 2515.2724 76.185351 2513.9105 78.204778 2512.1543 79.960938 C 2510.4859 81.629288 2508.5115 82.948176 2506.2285 83.914062 C 2503.9455 84.87995 2501.4858 85.361328 2498.8516 85.361328 L 2479.8848 85.361328 C 2472.0699 85.361328 2464.7377 86.854373 2457.8887 89.839844 C 2451.0396 92.737507 2445.0264 96.776362 2439.8457 101.95703 C 2434.7528 107.04989 2430.712 113.06512 2427.7266 120.00195 C 2424.7411 126.85098 2423.25 134.18314 2423.25 141.99805 L 2423.25 198.63477 L 2550.3516 198.63477 L 2550.3516 160.83203 L 2461.0508 160.83203 L 2461.0508 141.99805 C 2461.0508 139.36381 2461.5341 136.90605 2462.5 134.62305 C 2463.4659 132.34004 2464.7828 130.36366 2466.4512 128.69531 C 2468.2073 126.93915 2470.2268 125.57722 2472.5098 124.61133 C 2474.7928 123.64544 2477.2505 123.16406 2479.8848 123.16406 L 2498.8516 123.16406 C 2506.6665 123.16406 2513.9986 121.67102 2520.8477 118.68555 C 2527.6967 115.70008 2533.6669 111.66122 2538.7598 106.56836 C 2543.9404 101.38769 2548.0243 95.372459 2551.0098 88.523438 C 2553.9952 81.586607 2555.4883 74.209441 2555.4883 66.394531 C 2555.4883 58.579621 2553.9952 51.249413 2551.0098 44.400391 C 2548.0243 37.551368 2543.9404 31.579191 2538.7598 26.486328 C 2533.6669 21.305658 2527.6967 17.223752 2520.8477 14.238281 C 2513.9986 11.25281 2506.6665 9.7597656 2498.8516 9.7597656 L 2431.416 9.7597656 z M 2575.7715 9.7597656 L 2575.7715 47.560547 L 2594.6074 47.560547 L 2594.6074 198.63477 L 2632.4082 198.63477 L 2632.4082 9.7597656 L 2575.7715 9.7597656 z M 1854.6484 39.263672 C 1858.1608 39.263672 1861.4971 39.833106 1864.6582 40.974609 C 1867.8193 42.116113 1870.5412 43.697213 1872.8242 45.716797 C 1875.195 47.73638 1877.0403 50.108031 1878.3574 52.830078 C 1879.7623 55.464317 1880.4648 58.317346 1880.4648 61.390625 C 1880.4648 64.463904 1879.7623 67.316933 1878.3574 69.951172 C 1877.0403 72.585411 1875.195 74.869006 1872.8242 76.800781 C 1870.5412 78.732557 1867.8193 80.268653 1864.6582 81.410156 C 1861.4971 82.55166 1858.1608 83.123047 1854.6484 83.123047 C 1851.0483 83.123047 1847.6689 82.55166 1844.5078 81.410156 C 1841.3467 80.268653 1838.5798 78.732557 1836.209 76.800781 C 1833.926 74.869006 1832.0827 72.585411 1830.6777 69.951172 C 1829.3606 67.316933 1828.7012 64.463904 1828.7012 61.390625 C 1828.7012 58.317346 1829.3606 55.464317 1830.6777 52.830078 C 1832.0827 50.108031 1833.926 47.73638 1836.209 45.716797 C 1838.5798 43.697213 1841.3467 42.116113 1844.5078 40.974609 C 1847.6689 39.833106 1851.0483 39.263672 1854.6484 39.263672 z M 2324.8613 42.160156 C 2337.3301 42.160156 2347.0319 47.253728 2353.9688 57.439453 C 2360.9933 67.625178 2364.5059 83.211155 2364.5059 104.19727 C 2364.5059 114.82203 2363.5842 124.04056 2361.7402 131.85547 C 2359.9841 139.58257 2357.3932 145.99307 2353.9688 151.08594 C 2350.632 156.1788 2346.5051 159.99849 2341.5879 162.54492 C 2336.6706 165.00355 2331.0957 166.23242 2324.8613 166.23242 C 2312.4804 166.23242 2302.8646 161.1408 2296.0156 150.95508 C 2289.1666 140.76935 2285.7422 125.18337 2285.7422 104.19727 C 2285.7422 83.035539 2289.1666 67.404557 2296.0156 57.306641 C 2302.8646 47.208723 2312.4804 42.160156 2324.8613 42.160156 z M 197.25195 52.169922 C 187.32965 52.169922 177.97806 53.970186 169.19727 57.570312 C 160.50428 61.17044 152.8649 66.219007 146.2793 72.716797 C 139.78151 79.214587 134.64488 87.075084 130.86914 96.294922 C 127.0934 105.51476 125.20508 115.69995 125.20508 126.85156 C 125.20508 137.73975 127.0934 147.74883 130.86914 156.88086 C 134.64488 165.92508 139.78151 173.74057 146.2793 180.32617 C 152.8649 186.91177 160.50428 192.04839 169.19727 195.73633 C 177.97806 199.42426 187.32965 201.26758 197.25195 201.26758 C 203.13509 201.26758 208.84114 200.56508 214.37305 199.16016 C 219.99276 197.84304 225.30549 195.8686 230.31055 193.23438 C 235.40341 190.60014 240.10171 187.39488 244.4043 183.61914 C 248.7947 179.8434 252.65744 175.58538 255.99414 170.84375 L 229.65234 144.36914 C 228.24742 147.53023 226.4041 150.42826 224.12109 153.0625 C 221.92589 155.60893 219.37813 157.80447 216.48047 159.64844 C 213.67061 161.4046 210.64147 162.76458 207.39258 163.73047 C 204.14368 164.69636 200.76427 165.17969 197.25195 165.17969 C 195.84703 165.17969 194.44204 165.13467 193.03711 165.04688 C 191.63218 164.87126 190.22719 164.56404 188.82227 164.125 L 256.25781 82.859375 C 252.92111 78.117744 249.05837 73.859727 244.66797 70.083984 C 240.27757 66.220433 235.53622 62.970176 230.44336 60.335938 C 225.4383 57.701698 220.12557 55.682271 214.50586 54.277344 C 208.88615 52.872416 203.13509 52.169922 197.25195 52.169922 z M 762.36133 52.169922 C 752.43903 52.169922 743.08744 54.01519 734.30664 57.703125 C 725.61365 61.303252 717.97427 66.394871 711.38867 72.980469 C 704.89088 79.566067 699.75426 87.469616 695.97852 96.689453 C 692.20277 105.82148 690.31445 115.87557 690.31445 126.85156 C 690.31445 138.61783 692.20277 149.11024 695.97852 158.33008 C 699.75426 167.54992 704.89088 175.36541 711.38867 181.77539 C 717.97427 188.09756 725.61365 192.92697 734.30664 196.26367 C 743.08744 199.60037 752.43903 201.26758 762.36133 201.26758 C 766.92734 201.26758 771.40648 200.69814 775.79688 199.55664 C 780.27507 198.41514 784.62115 196.87904 788.83594 194.94727 C 793.05072 192.92768 797.04652 190.59908 800.82227 187.96484 C 804.68582 185.2428 808.3294 182.34672 811.75391 179.27344 L 825.71484 198.63477 L 834.4082 198.63477 L 834.4082 57.833984 L 825.71484 57.833984 L 811.75391 74.5625 C 808.4172 71.401413 804.81668 68.458375 800.95312 65.736328 C 797.17739 63.014281 793.18158 60.644583 788.9668 58.625 C 784.75201 56.605417 780.40594 55.024316 775.92773 53.882812 C 771.44953 52.74131 766.92734 52.169922 762.36133 52.169922 z M 435.45312 57.570312 L 435.45312 198.63477 L 471.41016 198.63477 L 471.41016 120.92383 C 471.41016 117.14809 472.11265 113.59256 473.51758 110.25586 C 474.92251 106.91916 476.85388 104.02112 479.3125 101.5625 C 481.77112 99.103877 484.66916 97.172506 488.00586 95.767578 C 491.34256 94.362651 494.89809 93.660156 498.67383 93.660156 L 530.41602 93.660156 L 530.41602 57.833984 L 498.67383 57.833984 C 490.77111 57.833984 483.13173 59.282024 475.75586 62.179688 C 468.37999 64.989542 461.79533 69.03035 456 74.298828 L 444.14453 57.570312 L 435.45312 57.570312 z M 544.24609 57.570312 L 544.24609 135.54492 C 544.24609 145.64284 545.87025 154.77331 549.11914 162.93945 C 552.45584 171.01779 556.97803 177.91162 562.68555 183.61914 C 568.48087 189.23885 575.1986 193.58492 582.83789 196.6582 C 590.47718 199.73148 598.64295 201.26758 607.33594 201.26758 C 611.2873 201.26758 615.15199 200.7412 618.92773 199.6875 C 622.79129 198.72161 626.52292 197.40468 630.12305 195.73633 C 633.72317 193.98017 637.14759 191.96074 640.39648 189.67773 C 643.73319 187.30692 646.85038 184.80416 649.74805 182.16992 L 661.60156 198.63477 L 670.29492 198.63477 L 670.29492 57.570312 L 634.33789 57.570312 L 634.33789 135.54492 C 634.33789 139.32066 633.6354 143.00729 632.23047 146.60742 C 630.82554 150.11974 628.89417 153.28194 626.43555 156.0918 C 623.97692 158.90165 621.07889 161.18329 617.74219 162.93945 C 614.49329 164.6078 611.02387 165.44336 607.33594 165.44336 C 603.56019 165.44336 600.00467 164.78392 596.66797 163.4668 C 593.41907 162.14968 590.56605 160.2183 588.10742 157.67188 C 585.6488 155.12544 583.67242 152.00825 582.17969 148.32031 C 580.77476 144.54457 580.07227 140.28655 580.07227 135.54492 L 580.07227 57.570312 L 544.24609 57.570312 z M 861.67188 57.570312 L 861.67188 198.63477 L 897.62891 198.63477 L 897.62891 120.92383 C 897.62891 117.14809 898.3314 113.59256 899.73633 110.25586 C 901.14126 106.91916 903.07458 104.02112 905.5332 101.5625 C 907.99183 99.103877 910.88791 97.172506 914.22461 95.767578 C 917.56131 94.362651 921.11879 93.660156 924.89453 93.660156 L 956.63672 93.660156 L 956.63672 57.833984 L 924.89453 57.833984 C 916.99181 57.833984 909.35243 59.282024 901.97656 62.179688 C 894.60069 64.989542 888.01408 69.03035 882.21875 74.298828 L 870.36523 57.570312 L 861.67188 57.570312 z M 970.4668 57.570312 L 970.4668 135.54492 C 970.4668 145.64284 972.09095 154.77331 975.33984 162.93945 C 978.67655 171.01779 983.19873 177.91162 988.90625 183.61914 C 994.70158 189.23885 1001.4193 193.58492 1009.0586 196.6582 C 1016.6979 199.73148 1024.8637 201.26758 1033.5566 201.26758 C 1037.6836 201.26758 1041.7655 200.43398 1045.8047 198.76562 C 1049.9317 197.09728 1053.9725 195.43007 1057.9238 193.76172 C 1056.6067 197.01061 1054.8945 199.99475 1052.7871 202.7168 C 1050.6797 205.52665 1048.22 207.94135 1045.4102 209.96094 C 1042.6881 211.98052 1039.702 213.56163 1036.4531 214.70312 C 1033.2042 215.84463 1029.8248 216.41602 1026.3125 216.41602 L 1006.291 216.15234 L 1006.291 252.37305 L 1024.7324 252.63672 C 1034.6547 252.63672 1043.9613 250.7484 1052.6543 246.97266 C 1061.3473 243.19691 1068.9436 238.06029 1075.4414 231.5625 C 1082.027 225.06471 1087.2067 217.46838 1090.9824 208.77539 C 1094.7582 200.0824 1096.6895 190.77582 1096.7773 180.85352 L 1096.7773 57.570312 L 1060.5566 57.570312 L 1060.5566 135.54492 C 1060.5566 139.32066 1059.8541 143.00729 1058.4492 146.60742 C 1057.0443 150.11974 1055.1129 153.28194 1052.6543 156.0918 C 1050.1957 158.90165 1047.2976 161.18329 1043.9609 162.93945 C 1040.712 164.6078 1037.2446 165.44336 1033.5566 165.44336 C 1029.7809 165.44336 1026.2234 164.82892 1022.8867 163.59961 C 1019.6378 162.3703 1016.7848 160.52503 1014.3262 158.06641 C 1011.8675 155.51997 1009.8912 152.40278 1008.3984 148.71484 C 1006.9935 144.9391 1006.291 140.54998 1006.291 135.54492 L 1006.291 57.570312 L 970.4668 57.570312 z M 1490.3984 85.361328 L 1490.3984 121.1875 L 1601.0371 121.1875 L 1601.0371 85.361328 L 1490.3984 85.361328 z M 197.25195 88.523438 C 199.00811 88.523438 200.67532 88.611493 202.25586 88.787109 C 203.92421 88.962725 205.59337 89.358 207.26172 89.972656 L 165.37695 145.55469 C 164.67449 144.32538 164.1031 142.92039 163.66406 141.33984 C 163.22502 139.7593 162.82975 138.13515 162.47852 136.4668 C 162.21509 134.71064 161.99593 132.99843 161.82031 131.33008 C 161.7325 129.66173 161.68945 128.16868 161.68945 126.85156 C 161.68945 120.96843 162.61111 115.69874 164.45508 111.04492 C 166.29905 106.30329 168.8018 102.26444 171.96289 98.927734 C 175.21179 95.591031 178.98647 93.045222 183.28906 91.289062 C 187.67946 89.445096 192.33471 88.523438 197.25195 88.523438 z M 343.38477 88.523438 C 348.30201 88.523438 352.91225 89.488146 357.21484 91.419922 C 361.60524 93.351697 365.42493 96.030567 368.67383 99.455078 C 371.92272 102.87959 374.47049 106.96345 376.31445 111.70508 C 378.24623 116.3589 379.21094 121.40747 379.21094 126.85156 C 379.21094 132.29566 378.24623 137.34422 376.31445 141.99805 C 374.47049 146.65187 371.92272 150.69072 368.67383 154.11523 C 365.42493 157.53975 361.60524 160.26167 357.21484 162.28125 C 352.91225 164.21303 348.30201 165.17969 343.38477 165.17969 C 338.46752 165.17969 333.81423 164.21303 329.42383 162.28125 C 325.12124 160.26167 321.34655 157.53975 318.09766 154.11523 C 314.84876 150.69072 312.301 146.65187 310.45703 141.99805 C 308.61306 137.34422 307.69141 132.29566 307.69141 126.85156 C 307.69141 121.93432 308.61306 117.19297 310.45703 112.62695 C 312.301 107.97313 314.84876 103.88927 318.09766 100.37695 C 321.34655 96.776829 325.12124 93.923798 329.42383 91.816406 C 333.81423 89.621207 338.46752 88.523438 343.38477 88.523438 z M 762.36133 88.523438 C 767.27857 88.523438 771.88882 89.621207 776.19141 91.816406 C 780.58181 93.923798 784.4015 96.776829 787.65039 100.37695 C 790.89929 103.88927 793.44509 107.97313 795.28906 112.62695 C 797.22084 117.19297 798.1875 121.93432 798.1875 126.85156 C 798.1875 131.76881 797.22084 136.55321 795.28906 141.20703 C 793.44509 145.77305 790.89929 149.8569 787.65039 153.45703 C 784.4015 156.96935 780.58181 159.82238 776.19141 162.01758 C 771.88882 164.12497 767.27857 165.17969 762.36133 165.17969 C 757.44408 165.17969 752.79079 164.34609 748.40039 162.67773 C 744.0978 161.00938 740.32116 158.54968 737.07227 155.30078 C 733.91118 152.05189 731.40842 148.05608 729.56445 143.31445 C 727.72049 138.48501 726.79883 132.99812 726.79883 126.85156 C 726.79883 120.705 727.72049 115.26116 729.56445 110.51953 C 731.40842 105.69009 733.91118 101.65124 737.07227 98.402344 C 740.32116 95.153449 744.0978 92.693742 748.40039 91.025391 C 752.79079 89.357039 757.44408 88.523438 762.36133 88.523438 z M 1854.3848 113.41602 C 1859.3898 113.41602 1864.0881 114.20657 1868.4785 115.78711 C 1872.9567 117.36765 1876.8195 119.52014 1880.0684 122.24219 C 1883.4051 124.96423 1885.9959 128.16753 1887.8398 131.85547 C 1889.7716 135.4556 1890.7383 139.36335 1890.7383 143.57812 C 1890.7383 147.79291 1889.7716 151.6576 1887.8398 155.16992 C 1885.9959 158.68224 1883.4051 161.71138 1880.0684 164.25781 C 1876.8195 166.80424 1872.9567 168.82367 1868.4785 170.31641 C 1864.0881 171.72133 1859.3898 172.42383 1854.3848 172.42383 C 1849.3797 172.42383 1844.6834 171.72133 1840.293 170.31641 C 1835.9026 168.82367 1832.0379 166.80424 1828.7012 164.25781 C 1825.4523 161.71138 1822.8615 158.68224 1820.9297 155.16992 C 1819.0857 151.6576 1818.1641 147.79291 1818.1641 143.57812 C 1818.1641 139.36335 1819.0857 135.4556 1820.9297 131.85547 C 1822.8615 128.16753 1825.4523 124.96423 1828.7012 122.24219 C 1832.0379 119.52014 1835.9026 117.36765 1840.293 115.78711 C 1844.6834 114.20657 1849.3797 113.41602 1854.3848 113.41602 z M 1973.3203 162.80859 C 1970.247 162.80859 1967.351 163.42303 1964.6289 164.65234 C 1961.9947 165.79385 1959.623 167.37495 1957.5156 169.39453 C 1955.496 171.41411 1953.8719 173.78381 1952.6426 176.50586 C 1951.5011 179.22791 1950.9297 182.12594 1950.9297 185.19922 C 1950.9297 188.00907 1951.413 190.68794 1952.3789 193.23438 C 1953.3448 195.69299 1954.6617 197.88854 1956.3301 199.82031 C 1957.9984 201.8399 1959.9748 203.5071 1962.2578 204.82422 C 1964.5408 206.14134 1966.9986 207.063 1969.6328 207.58984 C 1968.9303 210.13628 1967.9656 212.63903 1966.7363 215.09766 C 1965.507 217.64409 1963.6617 220.32296 1961.2031 223.13281 L 1975.5605 233.14258 C 1979.2485 230.42053 1982.3657 227.08417 1984.9121 223.13281 C 1987.5463 219.26926 1989.6538 215.14235 1991.2344 210.75195 C 1992.9027 206.44936 1994.0886 202.10329 1994.791 197.71289 C 1995.5813 193.23468 1995.9766 189.06277 1995.9766 185.19922 C 1995.9766 182.12594 1995.4052 179.22791 1994.2637 176.50586 C 1993.1222 173.78381 1991.498 171.41411 1989.3906 169.39453 C 1987.371 167.37495 1984.9563 165.79385 1982.1465 164.65234 C 1979.4244 163.42303 1976.4814 162.80859 1973.3203 162.80859 z M 495.25 332.45312 C 491.9133 332.45312 488.7511 333.11257 485.76562 334.42969 C 482.86797 335.659 480.32215 337.37121 478.12695 339.56641 C 476.01956 341.6738 474.30735 344.21961 472.99023 347.20508 C 471.76092 350.10274 471.14648 353.17689 471.14648 356.42578 C 471.14648 359.76248 471.76092 362.87968 472.99023 365.77734 C 474.30735 368.67501 476.01956 371.22082 478.12695 373.41602 C 480.32215 375.52341 482.86797 377.23561 485.76562 378.55273 C 488.7511 379.78205 491.9133 380.39648 495.25 380.39648 C 498.5867 380.39648 501.7039 379.78205 504.60156 378.55273 C 507.58703 377.23561 510.17785 375.52341 512.37305 373.41602 C 514.56825 371.22082 516.28045 368.67501 517.50977 365.77734 C 518.82689 362.87968 519.48438 359.76248 519.48438 356.42578 C 519.48438 353.17689 518.82689 350.10274 517.50977 347.20508 C 516.28045 344.21961 514.56825 341.6738 512.37305 339.56641 C 510.17785 337.37121 507.58703 335.659 504.60156 334.42969 C 501.7039 333.11257 498.5867 332.45312 495.25 332.45312 z M 1209.6562 332.45312 C 1206.3196 332.45312 1203.1573 333.11257 1200.1719 334.42969 C 1197.2742 335.659 1194.7284 337.37121 1192.5332 339.56641 C 1190.4258 341.6738 1188.7136 344.21961 1187.3965 347.20508 C 1186.1672 350.10274 1185.5527 353.17689 1185.5527 356.42578 C 1185.5527 359.76248 1186.1672 362.87968 1187.3965 365.77734 C 1188.7136 368.67501 1190.4258 371.22082 1192.5332 373.41602 C 1194.7284 375.52341 1197.2742 377.23561 1200.1719 378.55273 C 1203.1573 379.78205 1206.3196 380.39648 1209.6562 380.39648 C 1212.993 380.39648 1216.1101 379.78205 1219.0078 378.55273 C 1221.9933 377.23561 1224.5821 375.52341 1226.7773 373.41602 C 1228.9725 371.22082 1230.6848 368.67501 1231.9141 365.77734 C 1233.2312 362.87968 1233.8906 359.76248 1233.8906 356.42578 C 1233.8906 353.17689 1233.2312 350.10274 1231.9141 347.20508 C 1230.6848 344.21961 1228.9725 341.6738 1226.7773 339.56641 C 1224.5821 337.37121 1221.9933 335.659 1219.0078 334.42969 C 1216.1101 333.11257 1212.993 332.45312 1209.6562 332.45312 z M 689.65625 338.64453 L 689.65625 395.01758 L 672.13867 395.01758 L 672.13867 430.8418 L 689.65625 430.8418 L 689.65625 472.72656 C 689.65625 481.41955 691.2804 489.58532 694.5293 497.22461 C 697.866 504.8639 702.38818 511.58163 708.0957 517.37695 C 713.89103 523.08447 720.60875 527.60666 728.24805 530.94336 C 735.88734 534.19225 744.0531 535.81641 752.74609 535.81641 L 780.01172 535.81641 L 780.01172 499.99219 L 752.74609 499.99219 C 748.97035 499.99219 745.41483 499.28969 742.07812 497.88477 C 738.74143 496.39203 735.84339 494.41565 733.38477 491.95703 C 730.92614 489.49841 728.99477 486.64538 727.58984 483.39648 C 726.18492 480.05978 725.48242 476.50231 725.48242 472.72656 L 725.48242 430.8418 L 780.01172 430.8418 L 780.01172 395.01758 L 725.48242 395.01758 L 725.48242 338.64453 L 689.65625 338.64453 z M 1081.1035 338.64453 L 1081.1035 395.01758 L 1063.5859 395.01758 L 1063.5859 430.8418 L 1081.1035 430.8418 L 1081.1035 472.72656 C 1081.1035 481.41955 1082.7296 489.58532 1085.9785 497.22461 C 1089.3152 504.8639 1093.8374 511.58163 1099.5449 517.37695 C 1105.3402 523.08447 1112.056 527.60666 1119.6953 530.94336 C 1127.3346 534.19225 1135.5023 535.81641 1144.1953 535.81641 L 1171.459 535.81641 L 1171.459 499.99219 L 1144.1953 499.99219 C 1140.4196 499.99219 1136.8621 499.28969 1133.5254 497.88477 C 1130.1887 496.39203 1127.2907 494.41565 1124.832 491.95703 C 1122.3734 489.49841 1120.442 486.64538 1119.0371 483.39648 C 1117.6322 480.05978 1116.9297 476.50231 1116.9297 472.72656 L 1116.9297 430.8418 L 1171.459 430.8418 L 1171.459 395.01758 L 1116.9297 395.01758 L 1116.9297 338.64453 L 1081.1035 338.64453 z M 1.4609375 346.94141 L 1.4609375 535.81641 L 39.263672 535.81641 L 39.263672 498.01562 L 81.542969 497.75195 L 98.005859 535.81641 L 138.17773 535.81641 L 117.23633 486.42578 C 122.68042 483.00127 127.59788 478.96046 131.98828 474.30664 C 136.37868 469.65282 140.06726 464.5612 143.05273 459.0293 C 146.12601 453.49739 148.45266 447.65828 150.0332 441.51172 C 151.70155 435.36516 152.53516 429.04271 152.53516 422.54492 C 152.53516 415.60809 151.6135 408.93342 149.76953 402.52344 C 148.01337 396.11346 145.46561 390.10018 142.12891 384.48047 C 138.88001 378.86076 134.92921 373.76719 130.27539 369.20117 C 125.70938 364.54735 120.61776 360.59655 114.99805 357.34766 C 109.46614 354.01095 103.49397 351.46319 97.083984 349.70703 C 90.674002 347.86306 84.001283 346.94141 77.064453 346.94141 L 1.4609375 346.94141 z M 3076.1465 346.94141 L 3084.1797 489.19141 L 3113.5527 489.19141 L 3121.7188 346.94141 L 3076.1465 346.94141 z M 39.263672 384.74414 L 77.064453 384.74414 C 82.245124 384.74414 87.117579 385.75385 91.683594 387.77344 C 96.249609 389.70521 100.24541 392.38213 103.66992 395.80664 C 107.09443 399.23115 109.7733 403.27001 111.70508 407.92383 C 113.72466 412.48984 114.73438 417.36425 114.73438 422.54492 C 114.73438 427.72559 113.72466 432.64305 111.70508 437.29688 C 109.7733 441.86288 107.09443 445.85674 103.66992 449.28125 C 100.24541 452.70576 96.249609 455.42964 91.683594 457.44922 C 87.117579 459.38099 82.245124 460.3457 77.064453 460.3457 L 39.263672 460.3457 L 39.263672 384.74414 z M 236.83008 389.35352 C 226.90778 389.35352 217.55619 391.15378 208.77539 394.75391 C 200.0824 398.35403 192.44302 403.4026 185.85742 409.90039 C 179.35963 416.39818 174.22301 424.25672 170.44727 433.47656 C 166.67152 442.6964 164.78516 452.88159 164.78516 464.0332 C 164.78516 474.92139 166.67152 484.93242 170.44727 494.06445 C 174.22301 503.10867 179.35963 510.92417 185.85742 517.50977 C 192.44302 524.09536 200.0824 529.23199 208.77539 532.91992 C 217.55619 536.60786 226.90778 538.45117 236.83008 538.45117 C 242.71321 538.45117 248.42123 537.74868 253.95312 536.34375 C 259.57284 535.02663 264.88558 533.05025 269.89062 530.41602 C 274.98349 527.78178 279.68178 524.57652 283.98438 520.80078 C 288.37476 517.02504 292.23752 512.76702 295.57422 508.02539 L 269.23242 481.55078 C 267.82749 484.71187 265.98223 487.6099 263.69922 490.24414 C 261.50402 492.79057 258.95821 494.98611 256.06055 496.83008 C 253.25069 498.58624 250.22155 499.94817 246.97266 500.91406 C 243.72376 501.87995 240.3424 502.36133 236.83008 502.36133 C 235.42515 502.36133 234.02016 502.31828 232.61523 502.23047 C 231.21031 502.05485 229.80532 501.74763 228.40039 501.30859 L 295.83789 420.04297 C 292.50119 415.30134 288.63649 411.04137 284.24609 407.26562 C 279.85569 403.40208 275.11435 400.15377 270.02148 397.51953 C 265.01643 394.88529 259.70565 392.86587 254.08594 391.46094 C 248.46623 390.05601 242.71321 389.35352 236.83008 389.35352 z M 377.76172 389.35352 C 367.83942 389.35352 358.48783 391.24184 349.70703 395.01758 C 341.01404 398.79332 333.37466 404.018 326.78906 410.69141 C 320.29127 417.36481 315.15465 425.26641 311.37891 434.39844 C 307.60316 443.53047 305.7168 453.40844 305.7168 464.0332 C 305.7168 475.62386 307.60316 486.03016 311.37891 495.25 C 315.15465 504.46984 320.29127 512.28338 326.78906 518.69336 C 333.37466 525.01553 341.01404 529.88994 349.70703 533.31445 C 358.48783 536.73896 367.83942 538.45117 377.76172 538.45117 C 380.74719 538.45117 383.95244 538.27506 387.37695 537.92383 C 390.88927 537.5726 394.22563 536.91511 397.38672 535.94922 C 400.63561 535.07114 403.57865 533.92837 406.21289 532.52344 C 408.84713 531.0307 410.86656 529.14434 412.27148 526.86133 C 411.3056 530.46146 409.98866 533.88587 408.32031 537.13477 C 406.73977 540.38366 404.58728 543.23669 401.86523 545.69531 C 399.14319 548.24174 395.80683 550.21812 391.85547 551.62305 C 387.90411 553.11578 383.11971 553.86133 377.5 553.86133 L 359.71875 553.59766 L 359.71875 589.55469 L 377.76172 589.81836 C 387.68402 589.81836 396.99256 587.93004 405.68555 584.1543 C 414.46634 580.37855 422.10573 575.24193 428.60352 568.74414 C 435.18911 562.24635 440.36879 554.65197 444.14453 545.95898 C 447.92027 537.26599 449.80859 527.95746 449.80859 518.03516 L 449.80859 395.01758 L 441.11523 395.01758 L 427.1543 411.74414 C 423.81759 408.58305 420.21707 405.64197 416.35352 402.91992 C 412.57777 400.19787 408.58392 397.82622 404.36914 395.80664 C 400.15436 393.78706 395.80633 392.20791 391.32812 391.06641 C 386.84993 389.9249 382.32773 389.35352 377.76172 389.35352 z M 973.89062 389.35352 C 963.96833 389.35352 954.61674 391.19683 945.83594 394.88477 C 937.14295 398.48489 929.50357 403.57846 922.91797 410.16406 C 916.42018 416.74966 911.28356 424.65126 907.50781 433.87109 C 903.73207 443.00312 901.84375 453.05721 901.84375 464.0332 C 901.84375 475.79947 903.73207 486.29383 907.50781 495.51367 C 911.28356 504.73351 916.42018 512.54705 922.91797 518.95703 C 929.50357 525.27921 937.14295 530.10861 945.83594 533.44531 C 954.61674 536.78202 963.96833 538.45117 973.89062 538.45117 C 978.45664 538.45117 982.93577 537.87978 987.32617 536.73828 C 991.80438 535.59678 996.15048 534.06068 1000.3652 532.12891 C 1004.58 530.10932 1008.5758 527.78268 1012.3516 525.14844 C 1016.2151 522.42639 1019.8587 519.52836 1023.2832 516.45508 L 1037.2441 535.81641 L 1045.9375 535.81641 L 1045.9375 395.01758 L 1037.2441 395.01758 L 1023.2832 411.74414 C 1019.9465 408.58305 1016.346 405.64197 1012.4824 402.91992 C 1008.7067 400.19787 1004.7109 397.82622 1000.4961 395.80664 C 996.2813 393.78706 991.93524 392.20791 987.45703 391.06641 C 982.97882 389.9249 978.45664 389.35352 973.89062 389.35352 z M 1319.5039 389.35352 C 1309.5816 389.35352 1300.23 391.24184 1291.4492 395.01758 C 1282.7562 398.79332 1275.1168 404.018 1268.5312 410.69141 C 1262.0336 417.277 1256.8968 425.13555 1253.1211 434.26758 C 1249.3454 443.39961 1247.457 453.32063 1247.457 464.0332 C 1247.457 474.57016 1249.3454 484.40508 1253.1211 493.53711 C 1256.8968 502.58133 1262.0336 510.43988 1268.5312 517.11328 C 1275.1168 523.69888 1282.7562 528.92356 1291.4492 532.78711 C 1300.23 536.56285 1309.5816 538.45117 1319.5039 538.45117 C 1329.514 538.45117 1338.8656 536.56285 1347.5586 532.78711 C 1356.3394 528.92356 1363.9788 523.69888 1370.4766 517.11328 C 1376.9744 510.43988 1382.111 502.58133 1385.8867 493.53711 C 1389.6625 484.40508 1391.5488 474.57016 1391.5488 464.0332 C 1391.5488 452.79378 1389.6625 442.60859 1385.8867 433.47656 C 1382.111 424.25672 1376.9744 416.39818 1370.4766 409.90039 C 1363.9788 403.31479 1356.3394 398.26623 1347.5586 394.75391 C 1338.8656 391.15378 1329.514 389.35352 1319.5039 389.35352 z M 1703.0488 389.35352 C 1693.1265 389.35352 1683.7749 391.24184 1674.9941 395.01758 C 1666.3012 398.79332 1658.6618 404.018 1652.0762 410.69141 C 1645.5784 417.277 1640.4418 425.13555 1636.666 434.26758 C 1632.8903 443.39961 1631.002 453.32063 1631.002 464.0332 C 1631.002 474.57016 1632.8903 484.40508 1636.666 493.53711 C 1640.4418 502.58133 1645.5784 510.43988 1652.0762 517.11328 C 1658.6618 523.69888 1666.3012 528.92356 1674.9941 532.78711 C 1683.7749 536.56285 1693.1265 538.45117 1703.0488 538.45117 C 1713.0589 538.45117 1722.4105 536.56285 1731.1035 532.78711 C 1739.8843 528.92356 1747.5237 523.69888 1754.0215 517.11328 C 1760.5193 510.43988 1765.6559 502.58133 1769.4316 493.53711 C 1773.2074 484.40508 1775.0957 474.57016 1775.0957 464.0332 C 1775.0957 452.79378 1773.2074 442.60859 1769.4316 433.47656 C 1765.6559 424.25672 1760.5193 416.39818 1754.0215 409.90039 C 1747.5237 403.31479 1739.8843 398.26623 1731.1035 394.75391 C 1722.4105 391.15378 1713.0589 389.35352 1703.0488 389.35352 z M 2024.1621 389.35352 C 2014.2398 389.35352 2004.8882 391.15378 1996.1074 394.75391 C 1987.4144 398.35403 1979.7751 403.4026 1973.1895 409.90039 C 1966.6917 416.39818 1961.555 424.25672 1957.7793 433.47656 C 1954.0036 442.6964 1952.1152 452.88159 1952.1152 464.0332 C 1952.1152 474.92139 1954.0036 484.93242 1957.7793 494.06445 C 1961.555 503.10867 1966.6917 510.92417 1973.1895 517.50977 C 1979.7751 524.09536 1987.4144 529.23199 1996.1074 532.91992 C 2004.8882 536.60786 2014.2398 538.45117 2024.1621 538.45117 C 2030.0452 538.45117 2035.7533 537.74868 2041.2852 536.34375 C 2046.9049 535.02663 2052.2176 533.05025 2057.2227 530.41602 C 2062.3155 527.78178 2067.0119 524.57652 2071.3145 520.80078 C 2075.7049 517.02504 2079.5696 512.76702 2082.9062 508.02539 L 2056.5625 481.55078 C 2055.1576 484.71187 2053.3143 487.6099 2051.0312 490.24414 C 2048.8362 492.79057 2046.2902 494.98611 2043.3926 496.83008 C 2040.5827 498.58624 2037.5536 499.94817 2034.3047 500.91406 C 2031.0558 501.87995 2027.6744 502.36133 2024.1621 502.36133 C 2022.7572 502.36133 2021.3522 502.31828 2019.9473 502.23047 C 2018.5423 502.05485 2017.1373 501.74763 2015.7324 501.30859 L 2083.1699 420.04297 C 2079.8332 415.30134 2075.9685 411.04137 2071.5781 407.26562 C 2067.1877 403.40208 2062.4464 400.15377 2057.3535 397.51953 C 2052.3485 394.88529 2047.0357 392.86587 2041.416 391.46094 C 2035.7963 390.05601 2030.0452 389.35352 2024.1621 389.35352 z M 2675.082 389.35352 C 2665.1597 389.35352 2655.8081 391.24184 2647.0273 395.01758 C 2638.3344 398.79332 2630.695 404.018 2624.1094 410.69141 C 2617.6116 417.277 2612.475 425.13555 2608.6992 434.26758 C 2604.9235 443.39961 2603.0371 453.32063 2603.0371 464.0332 C 2603.0371 474.57016 2604.9235 484.40508 2608.6992 493.53711 C 2612.475 502.58133 2617.6116 510.43988 2624.1094 517.11328 C 2630.695 523.69888 2638.3344 528.92356 2647.0273 532.78711 C 2655.8081 536.56285 2665.1597 538.45117 2675.082 538.45117 C 2685.0921 538.45117 2694.4437 536.56285 2703.1367 532.78711 C 2711.9175 528.92356 2719.5569 523.69888 2726.0547 517.11328 C 2732.5525 510.43988 2737.6891 502.58133 2741.4648 493.53711 C 2745.2406 484.40508 2747.1289 474.57016 2747.1289 464.0332 C 2747.1289 452.79378 2745.2406 442.60859 2741.4648 433.47656 C 2737.6891 424.25672 2732.5525 416.39818 2726.0547 409.90039 C 2719.5569 403.31479 2711.9175 398.26623 2703.1367 394.75391 C 2694.4437 391.15378 2685.0921 389.35352 2675.082 389.35352 z M 2831.5566 389.35352 C 2821.6343 389.35352 2812.2828 391.24184 2803.502 395.01758 C 2794.809 398.79332 2787.1696 404.018 2780.584 410.69141 C 2774.0862 417.277 2768.9496 425.13555 2765.1738 434.26758 C 2761.3981 443.39961 2759.5098 453.32063 2759.5098 464.0332 C 2759.5098 474.57016 2761.3981 484.40508 2765.1738 493.53711 C 2768.9496 502.58133 2774.0862 510.43988 2780.584 517.11328 C 2787.1696 523.69888 2794.809 528.92356 2803.502 532.78711 C 2812.2828 536.56285 2821.6343 538.45117 2831.5566 538.45117 C 2841.5667 538.45117 2850.9183 536.56285 2859.6113 532.78711 C 2868.3921 528.92356 2876.0315 523.69888 2882.5293 517.11328 C 2889.0271 510.43988 2894.1637 502.58133 2897.9395 493.53711 C 2901.7152 484.40508 2903.6035 474.57016 2903.6035 464.0332 C 2903.6035 452.79378 2901.7152 442.60859 2897.9395 433.47656 C 2894.1637 424.25672 2889.0271 416.39818 2882.5293 409.90039 C 2876.0315 403.31479 2868.3921 398.26623 2859.6113 394.75391 C 2850.9183 391.15378 2841.5667 389.35352 2831.5566 389.35352 z M 1867.5566 389.61719 C 1862.9906 389.61719 1858.4684 390.18663 1853.9902 391.32812 C 1849.512 392.46963 1845.166 394.05073 1840.9512 396.07031 C 1836.8242 398.00209 1832.8284 400.32873 1828.9648 403.05078 C 1825.1013 405.77283 1821.5458 408.67086 1818.2969 411.74414 L 1803.9395 394.75391 L 1795.2461 394.75391 L 1795.2461 589.55469 L 1831.4668 589.55469 L 1831.4668 526.33398 C 1834.1888 527.91453 1836.9988 529.45062 1839.8965 530.94336 C 1842.882 532.43609 1845.868 533.79803 1848.8535 535.02734 C 1851.9268 536.16885 1855.0009 537.0905 1858.0742 537.79297 C 1861.2353 538.49543 1864.3956 538.8457 1867.5566 538.8457 C 1877.4789 538.8457 1886.7875 537.1335 1895.4805 533.70898 C 1904.2613 530.28447 1911.8987 525.36701 1918.3965 518.95703 C 1924.9821 512.45924 1930.1637 504.6007 1933.9395 495.38086 C 1937.7152 486.07321 1939.6035 475.62386 1939.6035 464.0332 C 1939.6035 452.88159 1937.7152 442.73945 1933.9395 433.60742 C 1930.1637 424.38758 1924.9821 416.52904 1918.3965 410.03125 C 1911.8987 403.53346 1904.2613 398.5299 1895.4805 395.01758 C 1886.7875 391.41745 1877.4789 389.61719 1867.5566 389.61719 z M 1474.9238 391.98828 C 1466.9333 391.98828 1459.2489 393.43632 1451.873 396.33398 C 1444.585 399.14384 1438.0434 403.18269 1432.248 408.45117 L 1420.3945 394.75391 L 1411.7012 394.75391 L 1411.7012 535.81641 L 1447.6582 535.81641 L 1447.6582 455.20898 C 1447.6582 451.52105 1448.3607 448.05358 1449.7656 444.80469 C 1451.1706 441.46798 1453.1039 438.56995 1455.5625 436.11133 C 1458.0211 433.6527 1460.9172 431.72133 1464.2539 430.31641 C 1467.5906 428.91148 1471.1481 428.20898 1474.9238 428.20898 C 1478.6118 428.20898 1482.0792 428.91148 1485.3281 430.31641 C 1488.577 431.72133 1491.432 433.6527 1493.8906 436.11133 C 1496.3492 438.56995 1498.2806 441.46798 1499.6855 444.80469 C 1501.0905 448.05358 1501.793 451.52105 1501.793 455.20898 L 1501.793 535.81641 L 1537.75 535.81641 L 1537.75 455.20898 C 1537.75 446.51599 1536.0808 438.35023 1532.7441 430.71094 C 1529.4952 422.98384 1525.0181 416.26611 1519.3105 410.55859 C 1513.603 404.76327 1506.9284 400.24108 1499.2891 396.99219 C 1491.6498 393.65548 1483.529 391.98828 1474.9238 391.98828 z M 2164.5664 391.98828 C 2156.5759 391.98828 2148.8934 393.43632 2141.5176 396.33398 C 2134.2295 399.14384 2127.6879 403.18269 2121.8926 408.45117 L 2110.0391 394.75391 L 2101.3457 394.75391 L 2101.3457 535.81641 L 2137.3027 535.81641 L 2137.3027 455.20898 C 2137.3027 451.52105 2138.0052 448.05358 2139.4102 444.80469 C 2140.8151 441.46798 2142.7465 438.56995 2145.2051 436.11133 C 2147.6637 433.6527 2150.5617 431.72133 2153.8984 430.31641 C 2157.2351 428.91148 2160.7907 428.20898 2164.5664 428.20898 C 2168.2543 428.20898 2171.7238 428.91148 2174.9727 430.31641 C 2178.2216 431.72133 2181.0746 433.6527 2183.5332 436.11133 C 2185.9918 438.56995 2187.9232 441.46798 2189.3281 444.80469 C 2190.7331 448.05358 2191.4355 451.52105 2191.4355 455.20898 L 2191.4355 535.81641 L 2227.3926 535.81641 L 2227.3926 455.20898 C 2227.3926 446.51599 2225.7254 438.35023 2222.3887 430.71094 C 2219.1398 422.98384 2214.6606 416.26611 2208.9531 410.55859 C 2203.2456 404.76327 2196.5729 400.24108 2188.9336 396.99219 C 2181.2943 393.65548 2173.1716 391.98828 2164.5664 391.98828 z M 2986.9766 391.98828 C 2978.986 391.98828 2971.3036 393.43632 2963.9277 396.33398 C 2956.6397 399.14384 2950.0981 403.18269 2944.3027 408.45117 L 2932.4473 394.75391 L 2923.7539 394.75391 L 2923.7539 535.81641 L 2959.7129 535.81641 L 2959.7129 455.20898 C 2959.7129 451.52105 2960.4154 448.05358 2961.8203 444.80469 C 2963.2252 441.46798 2965.1566 438.56995 2967.6152 436.11133 C 2970.0739 433.6527 2972.9719 431.72133 2976.3086 430.31641 C 2979.6453 428.91148 2983.2008 428.20898 2986.9766 428.20898 C 2990.6645 428.20898 2994.132 428.91148 2997.3809 430.31641 C 3000.6298 431.72133 3003.4847 433.6527 3005.9434 436.11133 C 3008.402 438.56995 3010.3334 441.46798 3011.7383 444.80469 C 3013.1432 448.05358 3013.8457 451.52105 3013.8457 455.20898 L 3013.8457 535.81641 L 3049.8027 535.81641 L 3049.8027 455.20898 C 3049.8027 446.51599 3048.1355 438.35023 3044.7988 430.71094 C 3041.5499 422.98384 3037.0708 416.26611 3031.3633 410.55859 C 3025.6558 404.76327 3018.9829 400.24108 3011.3438 396.99219 C 3003.7045 393.65548 2995.5817 391.98828 2986.9766 391.98828 z M 477.07422 394.75391 L 477.07422 535.81641 L 513.29492 535.81641 L 513.29492 394.75391 L 477.07422 394.75391 z M 800.03125 394.75391 L 800.03125 535.81641 L 835.98828 535.81641 L 835.98828 458.10742 C 835.98828 454.33168 836.69078 450.7742 838.0957 447.4375 C 839.50063 444.1008 841.43201 441.20472 843.89062 438.74609 C 846.34925 436.28747 849.24728 434.35415 852.58398 432.94922 C 855.92069 431.54429 859.47621 430.8418 863.25195 430.8418 L 894.99609 430.8418 L 894.99609 395.01758 L 863.25195 395.01758 C 855.34924 395.01758 847.70985 396.46562 840.33398 399.36328 C 832.95811 402.17314 826.37345 406.21199 820.57812 411.48047 L 808.72461 394.75391 L 800.03125 394.75391 z M 1191.4785 394.75391 L 1191.4785 535.81641 L 1227.6992 535.81641 L 1227.6992 394.75391 L 1191.4785 394.75391 z M 580.86328 395.01758 C 574.62891 395.01758 568.78784 396.20145 563.34375 398.57227 C 557.89966 400.85527 553.15831 404.01747 549.11914 408.05664 C 545.07997 412.09581 541.87472 416.83716 539.50391 422.28125 C 537.2209 427.72534 536.08008 433.56446 536.08008 439.79883 C 536.08008 446.03319 537.2209 451.87231 539.50391 457.31641 C 541.87472 462.7605 545.07997 467.54685 549.11914 471.67383 C 553.15831 475.713 557.89966 478.91825 563.34375 481.28906 C 568.78784 483.65988 574.62891 484.84375 580.86328 484.84375 L 618.26953 484.84375 C 620.72815 484.84375 622.83368 485.23903 624.58984 486.0293 C 626.346 486.81957 627.22461 488.48872 627.22461 491.03516 C 627.22461 493.49378 626.346 495.60126 624.58984 497.35742 C 622.83368 499.11358 620.72815 499.99219 618.26953 499.99219 L 536.08008 499.99219 L 536.08008 535.81641 L 618.26953 535.81641 C 624.41609 535.81641 630.2102 534.67559 635.6543 532.39258 C 641.09839 530.02176 645.83974 526.81651 649.87891 522.77734 C 653.91807 518.65037 657.12333 513.90902 659.49414 508.55273 C 661.86496 503.10864 663.05078 497.26952 663.05078 491.03516 C 663.05078 484.8886 661.86496 479.22559 659.49414 474.04492 C 657.12333 468.86425 653.91807 464.42817 649.87891 460.74023 C 645.83974 457.0523 641.09839 454.19927 635.6543 452.17969 C 630.2102 450.0723 624.41609 449.01953 618.26953 449.01953 L 580.86328 449.01953 C 578.40466 449.01953 576.29718 448.14093 574.54102 446.38477 C 572.78486 444.5408 571.90625 442.34526 571.90625 439.79883 C 571.90625 437.3402 572.78486 435.23272 574.54102 433.47656 C 576.29718 431.7204 578.40466 430.8418 580.86328 430.8418 L 653.69922 430.8418 L 653.69922 395.01758 L 580.86328 395.01758 z M 2293.1172 395.01758 C 2286.8828 395.01758 2281.0437 396.20145 2275.5996 398.57227 C 2270.1555 400.85527 2265.4142 404.01747 2261.375 408.05664 C 2257.3358 412.09581 2254.1306 416.83716 2251.7598 422.28125 C 2249.4768 427.72534 2248.3359 433.56446 2248.3359 439.79883 C 2248.3359 446.03319 2249.4768 451.87231 2251.7598 457.31641 C 2254.1306 462.7605 2257.3358 467.54685 2261.375 471.67383 C 2265.4142 475.713 2270.1555 478.91825 2275.5996 481.28906 C 2281.0437 483.65988 2286.8828 484.84375 2293.1172 484.84375 L 2330.5234 484.84375 C 2332.9821 484.84375 2335.0895 485.23903 2336.8457 486.0293 C 2338.6019 486.81957 2339.4805 488.48872 2339.4805 491.03516 C 2339.4805 493.49378 2338.6019 495.60126 2336.8457 497.35742 C 2335.0895 499.11358 2332.9821 499.99219 2330.5234 499.99219 L 2248.3359 499.99219 L 2248.3359 535.81641 L 2330.5234 535.81641 C 2336.67 535.81641 2342.4661 534.67559 2347.9102 532.39258 C 2353.3543 530.02176 2358.0956 526.81651 2362.1348 522.77734 C 2366.1739 518.65037 2369.3792 513.90902 2371.75 508.55273 C 2374.1208 503.10864 2375.3066 497.26952 2375.3066 491.03516 C 2375.3066 484.8886 2374.1208 479.22559 2371.75 474.04492 C 2369.3792 468.86425 2366.1739 464.42817 2362.1348 460.74023 C 2358.0956 457.0523 2353.3543 454.19927 2347.9102 452.17969 C 2342.4661 450.0723 2336.67 449.01953 2330.5234 449.01953 L 2293.1172 449.01953 C 2290.6586 449.01953 2288.5511 448.14093 2286.7949 446.38477 C 2285.0388 444.5408 2284.1621 442.34526 2284.1621 439.79883 C 2284.1621 437.3402 2285.0388 435.23272 2286.7949 433.47656 C 2288.5511 431.7204 2290.6586 430.8418 2293.1172 430.8418 L 2365.9551 430.8418 L 2365.9551 395.01758 L 2293.1172 395.01758 z M 2509.6523 395.01758 C 2503.418 395.01758 2497.5789 396.20145 2492.1348 398.57227 C 2486.6907 400.85527 2481.9493 404.01747 2477.9102 408.05664 C 2473.871 412.09581 2470.6657 416.83716 2468.2949 422.28125 C 2466.0119 427.72534 2464.8711 433.56446 2464.8711 439.79883 C 2464.8711 446.03319 2466.0119 451.87231 2468.2949 457.31641 C 2470.6657 462.7605 2473.871 467.54685 2477.9102 471.67383 C 2481.9493 475.713 2486.6907 478.91825 2492.1348 481.28906 C 2497.5789 483.65988 2503.418 484.84375 2509.6523 484.84375 L 2547.0586 484.84375 C 2549.5172 484.84375 2551.6247 485.23903 2553.3809 486.0293 C 2555.137 486.81957 2556.0156 488.48872 2556.0156 491.03516 C 2556.0156 493.49378 2555.137 495.60126 2553.3809 497.35742 C 2551.6247 499.11358 2549.5172 499.99219 2547.0586 499.99219 L 2464.8711 499.99219 L 2464.8711 535.81641 L 2547.0586 535.81641 C 2553.2052 535.81641 2559.0012 534.67559 2564.4453 532.39258 C 2569.8894 530.02176 2574.6308 526.81651 2578.6699 522.77734 C 2582.7091 518.65037 2585.9143 513.90902 2588.2852 508.55273 C 2590.656 503.10864 2591.8398 497.26952 2591.8398 491.03516 C 2591.8398 484.8886 2590.656 479.22559 2588.2852 474.04492 C 2585.9143 468.86425 2582.7091 464.42817 2578.6699 460.74023 C 2574.6308 457.0523 2569.8894 454.19927 2564.4453 452.17969 C 2559.0012 450.0723 2553.2052 449.01953 2547.0586 449.01953 L 2509.6523 449.01953 C 2507.1937 449.01953 2505.0862 448.14093 2503.3301 446.38477 C 2501.5739 444.5408 2500.6953 442.34526 2500.6953 439.79883 C 2500.6953 437.3402 2501.5739 435.23272 2503.3301 433.47656 C 2505.0862 431.7204 2507.1937 430.8418 2509.6523 430.8418 L 2582.4883 430.8418 L 2582.4883 395.01758 L 2509.6523 395.01758 z M 236.83008 425.70508 C 238.58624 425.70508 240.25539 425.79313 241.83594 425.96875 C 243.50429 426.14437 245.17345 426.53964 246.8418 427.1543 L 204.95703 482.73633 C 204.25457 481.50702 203.68318 480.10203 203.24414 478.52148 C 202.8051 476.94094 202.40983 475.31679 202.05859 473.64844 C 201.79517 471.89228 201.57601 470.18007 201.40039 468.51172 C 201.31258 466.84337 201.26758 465.35032 201.26758 464.0332 C 201.26758 458.15007 202.19119 452.88234 204.03516 448.22852 C 205.87912 443.48688 208.38188 439.44803 211.54297 436.11133 C 214.79186 432.77463 218.56655 430.22686 222.86914 428.4707 C 227.25954 426.62674 231.91283 425.70508 236.83008 425.70508 z M 377.76172 425.70508 C 382.67897 425.70508 387.28921 426.80285 391.5918 428.99805 C 395.9822 431.10544 399.80189 433.96042 403.05078 437.56055 C 406.29968 441.07287 408.84744 445.15477 410.69141 449.80859 C 412.62318 454.37461 413.58789 459.11596 413.58789 464.0332 C 413.58789 468.95045 412.62318 473.73681 410.69141 478.39062 C 408.84744 482.95664 406.29968 487.04051 403.05078 490.64062 C 399.80189 494.15294 395.9822 497.00597 391.5918 499.20117 C 387.28921 501.30856 382.67897 502.36133 377.76172 502.36133 C 372.84447 502.36133 368.19118 501.48468 363.80078 499.72852 C 359.49819 497.88455 355.7235 495.29373 352.47461 491.95703 C 349.31352 488.62033 346.81076 484.62453 344.9668 479.9707 C 343.12283 475.22907 342.20117 469.91634 342.20117 464.0332 C 342.20117 457.88664 343.12283 452.4428 344.9668 447.70117 C 346.81076 442.87173 349.31352 438.83288 352.47461 435.58398 C 355.7235 432.33509 359.49819 429.87734 363.80078 428.20898 C 368.19118 426.54063 372.84447 425.70508 377.76172 425.70508 z M 973.89062 425.70508 C 978.80787 425.70508 983.41811 426.80285 987.7207 428.99805 C 992.1111 431.10544 995.93079 433.96042 999.17969 437.56055 C 1002.4286 441.07287 1004.9744 445.15477 1006.8184 449.80859 C 1008.7501 454.37461 1009.7168 459.11596 1009.7168 464.0332 C 1009.7168 468.95045 1008.7501 473.73681 1006.8184 478.39062 C 1004.9744 482.95664 1002.4286 487.04051 999.17969 490.64062 C 995.93079 494.15294 992.1111 497.00597 987.7207 499.20117 C 983.41811 501.30856 978.80787 502.36133 973.89062 502.36133 C 968.97339 502.36133 964.32009 501.52772 959.92969 499.85938 C 955.6271 498.19102 951.85046 495.73326 948.60156 492.48438 C 945.44048 489.23548 942.93772 485.23968 941.09375 480.49805 C 939.24978 475.66861 938.32812 470.17976 938.32812 464.0332 C 938.32813 457.88664 939.24978 452.4428 941.09375 447.70117 C 942.93772 442.87173 945.44048 438.83288 948.60156 435.58398 C 951.85046 432.33509 955.6271 429.87734 959.92969 428.20898 C 964.32009 426.54063 968.97339 425.70508 973.89062 425.70508 z M 1319.5039 425.70508 C 1324.4212 425.70508 1329.0294 426.62674 1333.332 428.4707 C 1337.7224 430.22686 1341.5421 432.81768 1344.791 436.24219 C 1348.0399 439.57889 1350.5877 443.61774 1352.4316 448.35938 C 1354.3634 453.01319 1355.3281 458.23788 1355.3281 464.0332 C 1355.3281 469.74072 1354.3634 474.9654 1352.4316 479.70703 C 1350.5877 484.44866 1348.0399 488.48752 1344.791 491.82422 C 1341.5421 495.16092 1337.7224 497.75174 1333.332 499.5957 C 1329.0294 501.43967 1324.4212 502.36133 1319.5039 502.36133 C 1314.5867 502.36133 1309.9314 501.39662 1305.541 499.46484 C 1301.2384 497.44526 1297.4637 494.72334 1294.2148 491.29883 C 1291.0538 487.87432 1288.551 483.83546 1286.707 479.18164 C 1284.8631 474.52782 1283.9414 469.4773 1283.9414 464.0332 C 1283.9414 458.23788 1284.8631 453.01319 1286.707 448.35938 C 1288.551 443.61774 1291.0538 439.57889 1294.2148 436.24219 C 1297.4637 432.81768 1301.2384 430.22686 1305.541 428.4707 C 1309.9314 426.62674 1314.5867 425.70508 1319.5039 425.70508 z M 1703.0488 425.70508 C 1707.9661 425.70508 1712.5763 426.62674 1716.8789 428.4707 C 1721.2693 430.22686 1725.089 432.81768 1728.3379 436.24219 C 1731.5868 439.57889 1734.1326 443.61774 1735.9766 448.35938 C 1737.9083 453.01319 1738.873 458.23788 1738.873 464.0332 C 1738.873 469.74072 1737.9083 474.9654 1735.9766 479.70703 C 1734.1326 484.44866 1731.5868 488.48752 1728.3379 491.82422 C 1725.089 495.16092 1721.2693 497.75174 1716.8789 499.5957 C 1712.5763 501.43967 1707.9661 502.36133 1703.0488 502.36133 C 1698.1316 502.36133 1693.4763 501.39662 1689.0859 499.46484 C 1684.7833 497.44526 1681.0087 494.72334 1677.7598 491.29883 C 1674.5987 487.87432 1672.0959 483.83546 1670.252 479.18164 C 1668.408 474.52782 1667.4863 469.4773 1667.4863 464.0332 C 1667.4863 458.23788 1668.408 453.01319 1670.252 448.35938 C 1672.0959 443.61774 1674.5987 439.57889 1677.7598 436.24219 C 1681.0087 432.81768 1684.7833 430.22686 1689.0859 428.4707 C 1693.4763 426.62674 1698.1316 425.70508 1703.0488 425.70508 z M 1867.5566 425.70508 C 1872.4739 425.70508 1877.1272 426.58368 1881.5176 428.33984 C 1885.908 430.096 1889.7277 432.64181 1892.9766 435.97852 C 1896.2255 439.22741 1898.7732 443.22321 1900.6172 447.96484 C 1902.549 452.70647 1903.5137 458.06226 1903.5137 464.0332 C 1903.5137 469.74072 1902.549 474.9654 1900.6172 479.70703 C 1898.7732 484.44866 1896.2255 488.48752 1892.9766 491.82422 C 1889.7277 495.16092 1885.908 497.75174 1881.5176 499.5957 C 1877.1272 501.43967 1872.4739 502.36133 1867.5566 502.36133 C 1862.6394 502.36133 1857.9861 501.43967 1853.5957 499.5957 C 1849.2931 497.75174 1845.5165 495.16092 1842.2676 491.82422 C 1839.0187 488.48752 1836.4279 484.44866 1834.4961 479.70703 C 1832.6521 474.9654 1831.7305 469.74072 1831.7305 464.0332 C 1831.7305 458.06226 1832.6521 452.70647 1834.4961 447.96484 C 1836.4279 443.22321 1839.0187 439.22741 1842.2676 435.97852 C 1845.5165 432.64181 1849.2931 430.096 1853.5957 428.33984 C 1857.9861 426.58368 1862.6394 425.70508 1867.5566 425.70508 z M 2024.1621 425.70508 C 2025.9183 425.70508 2027.5874 425.79313 2029.168 425.96875 C 2030.8363 426.14437 2032.5035 426.53964 2034.1719 427.1543 L 1992.2871 482.73633 C 1991.5846 481.50702 1991.0152 480.10203 1990.5762 478.52148 C 1990.1371 476.94094 1989.7419 475.31679 1989.3906 473.64844 C 1989.1272 471.89228 1988.908 470.18007 1988.7324 468.51172 C 1988.6446 466.84337 1988.5996 465.35032 1988.5996 464.0332 C 1988.5996 458.15007 1989.5213 452.88234 1991.3652 448.22852 C 1993.2092 443.48688 1995.712 439.44803 1998.873 436.11133 C 2002.1219 432.77463 2005.8986 430.22686 2010.2012 428.4707 C 2014.5916 426.62674 2019.2449 425.70508 2024.1621 425.70508 z M 2675.082 425.70508 C 2679.9993 425.70508 2684.6095 426.62674 2688.9121 428.4707 C 2693.3025 430.22686 2697.1222 432.81768 2700.3711 436.24219 C 2703.62 439.57889 2706.1658 443.61774 2708.0098 448.35938 C 2709.9415 453.01319 2710.9082 458.23788 2710.9082 464.0332 C 2710.9082 469.74072 2709.9415 474.9654 2708.0098 479.70703 C 2706.1658 484.44866 2703.62 488.48752 2700.3711 491.82422 C 2697.1222 495.16092 2693.3025 497.75174 2688.9121 499.5957 C 2684.6095 501.43967 2679.9993 502.36133 2675.082 502.36133 C 2670.1648 502.36133 2665.5115 501.39662 2661.1211 499.46484 C 2656.8185 497.44526 2653.0438 494.72334 2649.7949 491.29883 C 2646.6338 487.87432 2644.1311 483.83546 2642.2871 479.18164 C 2640.4431 474.52782 2639.5195 469.4773 2639.5195 464.0332 C 2639.5195 458.23788 2640.4431 453.01319 2642.2871 448.35938 C 2644.1311 443.61774 2646.6338 439.57889 2649.7949 436.24219 C 2653.0438 432.81768 2656.8185 430.22686 2661.1211 428.4707 C 2665.5115 426.62674 2670.1648 425.70508 2675.082 425.70508 z M 2831.5566 425.70508 C 2836.4739 425.70508 2841.0841 426.62674 2845.3867 428.4707 C 2849.7771 430.22686 2853.5968 432.81768 2856.8457 436.24219 C 2860.0946 439.57889 2862.6404 443.61774 2864.4844 448.35938 C 2866.4162 453.01319 2867.3828 458.23788 2867.3828 464.0332 C 2867.3828 469.74072 2866.4162 474.9654 2864.4844 479.70703 C 2862.6404 484.44866 2860.0946 488.48752 2856.8457 491.82422 C 2853.5968 495.16092 2849.7771 497.75174 2845.3867 499.5957 C 2841.0841 501.43967 2836.4739 502.36133 2831.5566 502.36133 C 2826.6394 502.36133 2821.9861 501.39662 2817.5957 499.46484 C 2813.2931 497.44526 2809.5165 494.72334 2806.2676 491.29883 C 2803.1065 487.87432 2800.6037 483.83546 2798.7598 479.18164 C 2796.9158 474.52782 2795.9941 469.4773 2795.9941 464.0332 C 2795.9941 458.23788 2796.9158 453.01319 2798.7598 448.35938 C 2800.6037 443.61774 2803.1065 439.57889 2806.2676 436.24219 C 2809.5165 432.81768 2813.2931 430.22686 2817.5957 428.4707 C 2821.9861 426.62674 2826.6394 425.70508 2831.5566 425.70508 z M 3099.0645 499.99219 C 3095.9034 499.99219 3092.9603 500.60663 3090.2383 501.83594 C 3087.5162 502.97744 3085.1015 504.55659 3082.9941 506.57617 C 3080.9746 508.59576 3079.3504 510.96741 3078.1211 513.68945 C 3076.9796 516.4115 3076.4082 519.30953 3076.4082 522.38281 C 3076.4082 525.5439 3076.9796 528.52804 3078.1211 531.33789 C 3079.3504 534.05994 3080.9746 536.43159 3082.9941 538.45117 C 3085.1015 540.47076 3087.5162 542.05186 3090.2383 543.19336 C 3092.9603 544.42267 3095.9034 545.03711 3099.0645 545.03711 C 3102.1377 545.03711 3105.0338 544.42267 3107.7559 543.19336 C 3110.4779 542.05186 3112.8496 540.47076 3114.8691 538.45117 C 3116.8887 536.43159 3118.4698 534.05994 3119.6113 531.33789 C 3120.8406 528.52804 3121.4551 525.5439 3121.4551 522.38281 C 3121.4551 519.30953 3120.8406 516.4115 3119.6113 513.68945 C 3118.4698 510.96741 3116.8887 508.59576 3114.8691 506.57617 C 3112.8496 504.55659 3110.4779 502.97744 3107.7559 501.83594 C 3105.0338 500.60663 3102.1377 499.99219 3099.0645 499.99219 z "
       transform="matrix(0.26458333,0,0,0.26458333,-227.44865,344.41417)"
       id="text855-8-4" />
    <path
       style="font-style:normal;font-variant:normal;font-weight:normal;font-stretch:normal;font-size:71.37032318px;line-height:1.25;font-family:Righteous;-inkscape-font-specification:Righteous;font-variant-ligatures:normal;font-variant-caps:normal;font-variant-numeric:normal;font-feature-settings:normal;text-align:start;letter-spacing:0px;word-spacing:0px;writing-mode:lr-tb;text-anchor:start;display:inline;fill:#000000;fill-opacity:1;stroke:#000000;stroke-width:0.77333677;stroke-miterlimit:4;stroke-dasharray:none;stroke-opacity:1"
       d="m -155.65665,344.80072 v 33.17626 c 0,2.88083 0.4991,5.52907 1.4981,7.94525 0.999,2.39295 2.35858,4.4608 4.07779,6.20324 1.74244,1.74244 3.76369,3.1015 6.06371,4.07727 2.32325,0.97577 4.79701,1.46348 7.42229,1.46348 2.6485,0 5.12278,-0.47632 7.4228,-1.42886 2.32325,-0.95253 4.3445,-2.2883 6.06371,-4.00751 1.71921,-1.74243 3.07827,-3.82168 4.07727,-6.23786 0.999,-2.41618 1.49862,-5.08771 1.49862,-8.01501 0,-2.8576 -0.49962,-5.48306 -1.49862,-7.87601 -0.999,-2.41618 -2.35806,-4.50733 -4.07727,-6.273 -1.71921,-1.76567 -3.74046,-3.13613 -6.06371,-4.11189 -2.30002,-0.99899 -4.7743,-1.49863 -7.4228,-1.49863 -0.85961,0 -1.74235,0.0932 -2.64842,0.27906 -0.90607,0.16263 -1.78882,0.40647 -2.64842,0.73175 -0.83637,0.32524 -1.62644,0.74358 -2.36988,1.25469 -0.72021,0.51112 -1.3358,1.09151 -1.84692,1.74202 v -17.42425 z m 418.84731,0.62735 c -2.2768,0 -4.42543,0.37172 -6.44666,1.11517 -2.02123,0.74345 -3.78722,1.76546 -5.29735,3.06647 -1.51011,1.2778 -2.70661,2.77664 -3.58945,4.49585 -0.8596,1.69598 -1.28931,3.51946 -1.28931,5.47099 0,0.95253 0.10459,1.91657 0.31366,2.89233 0.2091,0.95253 0.51094,1.88188 0.90591,2.78794 0.41817,0.90607 0.90641,1.76604 1.46399,2.57918 0.58082,0.81313 1.23108,1.53331 1.95131,2.16059 -1.16163,0.65051 -2.20695,1.44006 -3.13624,2.36936 -0.92933,0.90607 -1.73078,1.9053 -2.40451,2.99723 -0.65053,1.09193 -1.15014,2.26513 -1.49863,3.51969 -0.34848,1.23132 -0.52297,2.49771 -0.52297,3.79873 0,2.25356 0.51154,4.33279 1.53376,6.23786 1.02225,1.90507 2.41599,3.55459 4.18166,4.94854 1.7889,1.37072 3.86816,2.43933 6.23787,3.206 2.36971,0.78991 4.90196,1.18494 7.59696,1.18494 2.69496,0 5.22721,-0.39503 7.59695,-1.18494 2.36971,-0.76667 4.43757,-1.83528 6.20324,-3.206 1.7889,-1.39395 3.19455,-3.04347 4.21679,-4.94854 1.02222,-1.90507 1.53324,-3.9843 1.53324,-6.23786 0,-1.30102 -0.17397,-2.56741 -0.52245,-3.79873 -0.34848,-1.23133 -0.84812,-2.39313 -1.49863,-3.48506 -0.6505,-1.09193 -1.44057,-2.09065 -2.36987,-2.99672 -0.9293,-0.90607 -1.96323,-1.68423 -3.10163,-2.33474 0.72022,-0.65051 1.35911,-1.38259 1.91669,-2.19573 0.58082,-0.81314 1.06903,-1.67259 1.464,-2.57866 0.39494,-0.92929 0.69678,-1.87055 0.90588,-2.82308 0.23233,-0.97576 0.34829,-1.9398 0.34829,-2.89233 0,-1.95153 -0.44111,-3.77501 -1.32394,-5.47099 -0.85961,-1.71921 -2.05611,-3.21805 -3.58945,-4.49585 -1.51011,-1.30101 -3.27559,-2.32302 -5.29682,-3.06647 -2.02123,-0.74345 -4.18227,-1.11517 -6.48229,-1.11517 z m 124.48023,0.87125 c -2.76465,0 -5.3668,0.45302 -7.80624,1.35909 -2.41617,0.90609 -4.53061,2.36971 -6.34275,4.39094 -1.7889,2.02123 -3.20595,4.66947 -4.25143,7.94526 -1.04547,3.25256 -1.56837,7.24898 -1.56837,11.98842 0,4.69297 0.5229,8.67697 1.56837,11.95276 1.04548,3.25255 2.46253,5.9013 4.25143,7.94577 1.81214,2.02122 3.92658,3.49626 6.34275,4.42556 2.43944,0.90607 5.04159,1.3591 7.80624,1.3591 2.76469,0 5.35493,-0.44112 7.77111,-1.32396 2.43943,-0.90606 4.56525,-2.36971 6.37738,-4.39094 1.81216,-2.02123 3.24112,-4.66998 4.28657,-7.94577 1.04547,-3.27578 1.56787,-7.28309 1.56787,-12.02252 0,-4.69297 -0.5224,-8.6661 -1.56787,-11.91865 -1.04545,-3.25256 -2.47441,-5.9008 -4.28657,-7.94526 -1.81213,-2.04446 -3.93795,-3.52002 -6.37738,-4.42608 -2.41618,-0.9293 -5.00642,-1.39372 -7.77111,-1.39372 z m -614.733,0.69712 v 49.97318 h 10.00197 v -19.96881 h 14.98462 v -10.00146 h -14.98462 v -10.00144 h 24.98659 v -10.00147 z m 318.55316,0 v 10.00147 h 17.84234 c 0.69696,0 1.34723,0.12787 1.9513,0.38343 0.60404,0.25556 1.12694,0.61539 1.56837,1.08003 0.46463,0.44143 0.825,0.96433 1.08056,1.56838 0.25556,0.60405 0.3829,1.25433 0.3829,1.9513 0,0.69698 -0.12734,1.35917 -0.3829,1.98645 -0.25556,0.60404 -0.61593,1.13835 -1.08056,1.603 -0.44143,0.44142 -0.96433,0.78986 -1.56837,1.04541 -0.60407,0.25556 -1.25434,0.38344 -1.9513,0.38344 h -5.0183 c -2.06772,0 -4.00767,0.39504 -5.819805,1.18495 -1.812158,0.76667 -3.403679,1.83528 -4.774406,3.206 -1.34747,1.34749 -2.416096,2.93901 -3.205983,4.77439 -0.789914,1.81213 -1.184963,3.7521 -1.184963,5.8198 v 14.98513 H 122.95943 V 386.96764 H 99.331924 v -4.98315 c 0,-0.69698 0.127873,-1.34778 0.383434,-1.95182 0.255561,-0.60405 0.603992,-1.12645 1.045422,-1.56787 0.46463,-0.46465 0.99893,-0.82499 1.603,-1.08055 0.60405,-0.25556 1.25431,-0.38344 1.95131,-0.38344 h 5.0183 c 2.06769,0 4.00764,-0.39452 5.81977,-1.18442 1.81216,-0.78991 3.39177,-1.85904 4.73927,-3.20653 1.3707,-1.37071 2.45123,-2.96173 3.24115,-4.77386 0.78988,-1.83537 1.18493,-3.78725 1.18493,-5.85495 0,-2.06769 -0.39505,-4.00765 -1.18493,-5.81978 -0.78992,-1.81216 -1.87045,-3.3918 -3.24115,-4.73925 -1.3475,-1.37072 -2.92711,-2.45128 -4.73927,-3.24114 -1.81213,-0.78992 -3.75208,-1.18444 -5.81977,-1.18444 z m 37.18327,0 v 10.00147 h 21.25813 l -14.04411,39.97171 h 10.69856 l 17.07597,-49.97318 z m 76.98134,0 v 10.00147 h 17.84231 c 0.69699,0 1.34779,0.12787 1.95183,0.38343 0.60405,0.25556 1.12644,0.61539 1.56787,1.08003 0.46463,0.44143 0.825,0.96433 1.08056,1.56838 0.25553,0.60405 0.38343,1.25433 0.38343,1.9513 0,0.69698 -0.1279,1.35917 -0.38343,1.98645 -0.25556,0.60404 -0.61593,1.13835 -1.08056,1.603 -0.44143,0.44142 -0.96382,0.78986 -1.56787,1.04541 -0.60404,0.25556 -1.25484,0.38344 -1.95183,0.38344 h -5.0183 c -2.06769,0 -4.00764,0.39504 -5.8198,1.18495 -1.81213,0.76667 -3.40315,1.83528 -4.77385,3.206 -1.3475,1.34749 -2.41663,2.93901 -3.20654,4.77439 -0.78989,1.81213 -1.18441,3.7521 -1.18441,5.8198 v 14.98513 h 33.62894 v -10.00198 h -23.62747 v -4.98315 c 0,-0.69698 0.12787,-1.34778 0.38343,-1.95182 0.25556,-0.60405 0.60399,-1.12645 1.04539,-1.56787 0.46467,-0.46465 0.99897,-0.82499 1.60301,-1.08055 0.60404,-0.25556 1.25434,-0.38344 1.9513,-0.38344 h 5.0183 c 2.06769,0 4.00767,-0.39452 5.8198,-1.18442 1.81216,-0.78991 3.39177,-1.85904 4.73924,-3.20653 1.37073,-1.37071 2.45126,-2.96173 3.24115,-4.77386 0.78991,-1.83537 1.18496,-3.78725 1.18496,-5.85495 0,-2.06769 -0.39505,-4.00765 -1.18496,-5.81978 -0.78989,-1.81216 -1.87042,-3.3918 -3.24115,-4.73925 -1.34747,-1.37072 -2.92708,-2.45128 -4.73924,-3.24114 -1.81213,-0.78992 -3.75211,-1.18444 -5.8198,-1.18444 z m 123.6431,0 v 10.00147 h 17.84284 c 0.69696,0 1.34726,0.12787 1.9513,0.38343 0.60404,0.25556 1.12697,0.61539 1.56837,1.08003 0.46466,0.44143 0.82449,0.96433 1.08005,1.56838 0.25554,0.60405 0.38344,1.25433 0.38344,1.9513 0,0.69698 -0.1279,1.35917 -0.38344,1.98645 -0.25556,0.60404 -0.61539,1.13835 -1.08005,1.603 -0.4414,0.44142 -0.96433,0.78986 -1.56837,1.04541 -0.60404,0.25556 -1.25434,0.38344 -1.9513,0.38344 h -5.0183 c -2.06769,0 -4.00767,0.39504 -5.8198,1.18495 -1.81213,0.76667 -3.40368,1.83528 -4.77438,3.206 -1.3475,1.34749 -2.4161,2.93901 -3.20601,4.77439 -0.78992,1.81213 -1.18494,3.7521 -1.18494,5.8198 v 14.98513 h 33.62947 v -10.00198 h -23.6275 v -4.98315 c 0,-0.69698 0.12737,-1.34778 0.38293,-1.95182 0.25556,-0.60405 0.60399,-1.12645 1.04539,-1.56787 0.46466,-0.46465 0.99949,-0.82499 1.60354,-1.08055 0.60404,-0.25556 1.25433,-0.38344 1.9513,-0.38344 h 5.0183 c 2.06769,0 4.00767,-0.39452 5.8198,-1.18442 1.81213,-0.78991 3.39174,-1.85904 4.73924,-3.20653 1.37073,-1.37071 2.45123,-2.96173 3.24115,-4.77386 0.78991,-1.83537 1.18493,-3.78725 1.18493,-5.85495 0,-2.06769 -0.39502,-4.00765 -1.18493,-5.81978 -0.78992,-1.81216 -1.87042,-3.3918 -3.24115,-4.73925 -1.3475,-1.37072 -2.92711,-2.45128 -4.73924,-3.24114 -1.81213,-0.78992 -3.75211,-1.18444 -5.8198,-1.18444 z m 86.56473,0 v 10.00147 h 17.84234 c 0.69696,0 1.34776,0.12787 1.9518,0.38343 0.60405,0.25556 1.12644,0.61539 1.56787,1.08003 0.46466,0.44143 0.825,0.96433 1.08056,1.56838 0.25556,0.60405 0.38343,1.25433 0.38343,1.9513 0,0.69698 -0.12787,1.35917 -0.38343,1.98645 -0.25556,0.60404 -0.6159,1.13835 -1.08056,1.603 -0.44143,0.44142 -0.96382,0.78986 -1.56787,1.04541 -0.60404,0.25556 -1.25484,0.38344 -1.9518,0.38344 h -5.0183 c -2.06769,0 -4.00767,0.39504 -5.8198,1.18495 -1.81216,0.76667 -3.40315,1.83528 -4.77388,3.206 -1.3475,1.34749 -2.41662,2.93901 -3.20651,4.77439 -0.78992,1.81213 -1.18444,3.7521 -1.18444,5.8198 v 14.98513 h 33.62897 v -10.00198 h -23.6275 v -4.98315 c 0,-0.69698 0.12787,-1.34778 0.38343,-1.95182 0.25556,-0.60405 0.60399,-1.12645 1.04542,-1.56787 0.46464,-0.46465 0.99896,-0.82499 1.60301,-1.08055 0.60404,-0.25556 1.25431,-0.38344 1.9513,-0.38344 h 5.0183 c 2.06769,0 4.00764,-0.39452 5.8198,-1.18442 1.81213,-0.78991 3.39175,-1.85904 4.73924,-3.20653 1.3707,-1.37071 2.45123,-2.96173 3.24115,-4.77386 0.78988,-1.83537 1.18493,-3.78725 1.18493,-5.85495 0,-2.06769 -0.39505,-4.00765 -1.18493,-5.81978 -0.78992,-1.81216 -1.87045,-3.3918 -3.24115,-4.73925 -1.34749,-1.37072 -2.92711,-2.45128 -4.73924,-3.24114 -1.81216,-0.78992 -3.75211,-1.18444 -5.8198,-1.18444 z m 38.19406,0 v 10.00147 h 4.98367 v 39.97171 h 10.00146 v -49.97318 z m -190.79715,7.80571 c 0.92932,0 1.81205,0.15119 2.64843,0.45321 0.83637,0.30202 1.55654,0.72035 2.16058,1.25471 0.62728,0.53435 1.11551,1.16133 1.464,1.88153 0.37171,0.69699 0.55758,1.45237 0.55758,2.26551 0,0.81313 -0.18587,1.568 -0.55758,2.26497 -0.34849,0.69698 -0.83672,1.30118 -1.464,1.8123 -0.60404,0.51111 -1.32421,0.91754 -2.16058,1.21956 -0.83638,0.30202 -1.71911,0.4532 -2.64843,0.4532 -0.95253,0 -1.84666,-0.15118 -2.68303,-0.4532 -0.83638,-0.30202 -1.56845,-0.70845 -2.19573,-1.21956 -0.60404,-0.51112 -1.09175,-1.11532 -1.46349,-1.8123 -0.34848,-0.69697 -0.52295,-1.45184 -0.52295,-2.26497 0,-0.81314 0.17447,-1.56852 0.52295,-2.26551 0.37174,-0.7202 0.85945,-1.34718 1.46349,-1.88153 0.62728,-0.53436 1.35935,-0.95269 2.19573,-1.25471 0.83637,-0.30202 1.7305,-0.45321 2.68303,-0.45321 z m 124.41049,0.7669 c 3.29904,0 5.86598,1.34765 7.70136,4.04264 1.85857,2.69497 2.78794,6.81876 2.78794,12.37134 0,2.81113 -0.24386,5.2502 -0.73175,7.3179 -0.46464,2.04446 -1.15015,3.74057 -2.05619,5.08806 -0.88286,1.34749 -1.97477,2.35811 -3.27578,3.03186 -1.30103,0.65051 -2.77606,0.97565 -4.42558,0.97565 -3.27578,0 -5.81996,-1.34716 -7.63209,-4.04213 -1.81213,-2.69498 -2.71817,-6.81877 -2.71817,-12.37134 0,-5.59904 0.90604,-9.73474 2.71817,-12.40648 1.81213,-2.67175 4.35631,-4.0075 7.63209,-4.0075 z m -562.92996,2.6484 c -2.62528,0 -5.09955,0.47633 -7.4228,1.42886 -2.30002,0.95254 -4.32128,2.28831 -6.06372,4.00751 -1.7192,1.71921 -3.07827,3.79845 -4.07727,6.23786 -0.999,2.43942 -1.49861,5.13477 -1.49861,8.0853 0,2.88083 0.49961,5.52907 1.49861,7.94525 0.999,2.39295 2.35807,4.4608 4.07727,6.20324 1.74244,1.74244 3.7637,3.1015 6.06372,4.07727 2.32325,0.97577 4.79752,1.46348 7.4228,1.46348 1.55658,0 3.0663,-0.18587 4.52996,-0.55759 1.48688,-0.34849 2.89254,-0.87089 4.21679,-1.56787 1.34749,-0.69697 2.59058,-1.54503 3.72897,-2.54403 1.16163,-0.999 2.18365,-2.1256 3.06648,-3.38015 l -6.9696,-7.00474 c -0.37172,0.83637 -0.85943,1.60314 -1.46348,2.30011 -0.58081,0.67375 -1.2549,1.25414 -2.02158,1.74202 -0.74344,0.46465 -1.5449,0.82499 -2.4045,1.08055 -0.85961,0.25556 -1.75374,0.38344 -2.68304,0.38344 -0.37172,0 -0.74346,-0.0119 -1.11518,-0.0351 -0.37172,-0.0465 -0.74346,-0.12775 -1.11518,-0.24391 l 17.84232,-21.50153 c -0.88283,-1.25456 -1.90485,-2.38116 -3.06647,-3.38016 -1.16163,-1.02223 -2.41611,-1.88219 -3.7636,-2.57917 -1.32425,-0.69697 -2.72991,-1.23128 -4.2168,-1.60299 -1.48688,-0.37174 -3.00851,-0.55761 -4.56509,-0.55761 z m 149.518519,0 c -2.625275,0 -5.09955,0.48824 -7.422803,1.46401 -2.30002,0.95253 -4.321273,2.29968 -6.063713,4.04212 -1.719207,1.74244 -3.078271,3.83359 -4.077269,6.27301 -0.999,2.41618 -1.498618,5.07632 -1.498618,7.98039 0,3.11316 0.499618,5.88927 1.498618,8.32869 0.998998,2.43941 2.358062,4.50726 4.077269,6.20324 1.74244,1.67274 3.763693,2.95052 6.063713,3.83335 2.323253,0.88284 4.797528,1.32396 7.422803,1.32396 1.20809,0 2.393196,-0.15067 3.554823,-0.45269 1.184854,-0.30202 2.334755,-0.70896 3.449918,-1.22008 1.11516,-0.53435 2.172382,-1.14994 3.171383,-1.84692 1.022231,-0.7202 1.986261,-1.48697 2.89233,-2.30011 l 3.693829,5.1232 h 2.3001181 V 359.71608 H -8.978268 l -3.693829,4.42557 c -0.882838,-0.83637 -1.835476,-1.61453 -2.857709,-2.33474 -0.998996,-0.72021 -2.05622,-1.34719 -3.171381,-1.88154 -1.115163,-0.53436 -2.265061,-0.95269 -3.44992,-1.25472 -1.184857,-0.30202 -2.381354,-0.4532 -3.589444,-0.4532 z m -86.494459,1.42886 v 37.32331 h 9.51363 V 376.4086 c 0,-0.999 0.18587,-1.93973 0.55759,-2.82257 0.37172,-0.88283 0.88273,-1.6496 1.53324,-2.30012 0.650507,-0.65051 1.41728,-1.16151 2.300115,-1.53324 0.882836,-0.37172 1.82357,-0.55758 2.822568,-0.55758 h 8.398454 v -9.47901 h -8.398454 c -2.090928,0 -4.112181,0.38313 -6.063713,1.1498 -1.95153,0.74344 -3.69372,1.81257 -5.22707,3.20652 l -3.13676,-4.42609 z m 28.784803,0 v 20.63079 c 0,2.67174 0.429725,5.08751 1.289328,7.24813 0.882835,2.13739 2.079331,3.96139 3.589446,5.4715 1.533345,1.48688 3.310744,2.63679 5.331973,3.44992 2.021229,0.81314 4.181755,1.21957 6.481775,1.21957 1.045464,0 2.067997,-0.13928 3.066995,-0.41807 1.022233,-0.25556 2.00956,-0.60399 2.962095,-1.04541 0.952532,-0.46465 1.858576,-0.99896 2.718178,-1.603 0.882838,-0.62728 1.707595,-1.28947 2.47427,-1.98645 l 3.136241,4.35633 h 2.300118 v -37.32331 h -9.513631 v 20.63079 c 0,0.999 -0.185867,1.97442 -0.557588,2.92695 -0.371721,0.9293 -0.882729,1.76597 -1.533239,2.50941 -0.650513,0.74344 -1.417283,1.34712 -2.300118,1.81177 -0.859605,0.44142 -1.777556,0.66249 -2.753321,0.66249 -0.999,0 -1.939731,-0.17447 -2.822567,-0.52296 -0.859604,-0.34849 -1.614466,-0.8595 -2.264978,-1.53324 -0.65051,-0.67374 -1.173427,-1.4985 -1.568379,-2.47427 -0.371721,-0.999 -0.557588,-2.1256 -0.557588,-3.38015 v -20.63079 z m 83.98557238,0 v 37.32331 H 10.048996 V 376.4086 c 0,-0.999 0.185867,-1.93973 0.557588,-2.82257 0.371721,-0.88283 0.883246,-1.6496 1.533755,-2.30012 0.650513,-0.65051 1.416767,-1.16151 2.299603,-1.53324 0.882835,-0.37172 1.824085,-0.55758 2.823083,-0.55758 h 8.398454 v -9.47901 h -8.398454 c -2.090928,0 -4.112181,0.38313 -6.063713,1.1498 -1.9515324,0.74344 -3.6942396,1.81257 -5.2275873,3.20652 l -3.1362438,-4.42609 z m 28.78532262,0 v 20.63079 c 0,2.67174 0.429723,5.08751 1.289325,7.24813 0.882838,2.13739 2.079331,3.96139 3.589446,5.4715 1.533347,1.48688 3.310744,2.63679 5.331976,3.44992 2.021231,0.81314 4.181766,1.21957 6.481762,1.21957 1.091935,0 2.171938,-0.22056 3.240643,-0.66198 1.091935,-0.44142 2.161064,-0.88305 3.206512,-1.32447 -0.348483,0.85961 -0.801502,1.64968 -1.359085,2.36988 -0.557583,0.74344 -1.208379,1.38234 -1.951805,1.91668 -0.720222,0.53435 -1.510295,0.95268 -2.369899,1.25471 -0.859605,0.30202 -1.753738,0.4532 -2.683034,0.4532 l -5.297355,-0.0698 v 9.58339 l 4.879287,0.0698 c 2.625275,0 5.087646,-0.49961 7.387669,-1.49861 2.300023,-0.999 4.309877,-2.35807 6.029087,-4.07727 1.74244,-1.71921 3.112902,-3.72907 4.111889,-6.02909 0.999014,-2.30002 1.510004,-4.76239 1.533234,-7.38766 v -32.61869 h -9.583393 v 20.63079 c 0,0.999 -0.18587,1.97442 -0.557583,2.92695 -0.371713,0.9293 -0.882729,1.76597 -1.533234,2.50941 -0.650505,0.74344 -1.417293,1.34712 -2.300129,1.81177 -0.859604,0.44142 -1.777021,0.66249 -2.752804,0.66249 -0.998987,0 -1.940243,-0.16308 -2.823078,-0.48834 -0.859604,-0.32525 -1.614461,-0.81296 -2.264965,-1.46347 -0.650531,-0.67375 -1.173427,-1.49851 -1.568397,-2.47427 -0.371713,-0.999 -0.557583,-2.16029 -0.557583,-3.48454 v -20.63079 z m 137.565232,7.35304 v 9.47901 h 29.27316 v -9.47901 z m -342.14499,0.83665 c 0.46465,0 0.90576,0.0233 1.32395,0.0698 0.44142,0.0465 0.88305,0.15053 1.32447,0.31316 l -11.08202,14.70659 c -0.18586,-0.32525 -0.33704,-0.69699 -0.4532,-1.11517 -0.11616,-0.41819 -0.22074,-0.84791 -0.31367,-1.28933 -0.0697,-0.46465 -0.12769,-0.91767 -0.17415,-1.35909 -0.0232,-0.44142 -0.0346,-0.83645 -0.0346,-1.18494 0,-1.55658 0.24386,-2.95085 0.73174,-4.18218 0.48789,-1.25455 1.15007,-2.32316 1.98644,-3.206 0.85961,-0.88284 1.85833,-1.55642 2.99672,-2.02107 1.16163,-0.48788 2.39333,-0.73173 3.69435,-0.73173 z m 38.66431,0 c 1.30102,0 2.52081,0.25524 3.6592,0.76636 1.16163,0.51111 2.17225,1.2199 3.03186,2.12597 0.8596,0.90606 1.5337,1.98658 2.02158,3.24114 0.51112,1.23132 0.76636,2.56709 0.76636,4.00751 0,1.44042 -0.25524,2.77618 -0.76636,4.00751 -0.48788,1.23132 -1.16198,2.29993 -2.02158,3.206 -0.85961,0.90607 -1.87023,1.62625 -3.03186,2.16059 -1.13839,0.51112 -2.35818,0.76688 -3.6592,0.76688 -1.30103,0 -2.53221,-0.25576 -3.69384,-0.76688 -1.13839,-0.53434 -2.13711,-1.25452 -2.99671,-2.16059 -0.85961,-0.90607 -1.5337,-1.97468 -2.02159,-3.206 -0.48788,-1.23133 -0.73173,-2.56709 -0.73173,-4.00751 0,-1.30102 0.24385,-2.55551 0.73173,-3.76359 0.48789,-1.23133 1.16198,-2.31185 2.02159,-3.24115 0.8596,-0.95254 1.85832,-1.7074 2.99671,-2.26498 1.16163,-0.58081 2.39281,-0.87126 3.69384,-0.87126 z m 110.854209,0 c 1.30102,0 2.520815,0.29045 3.659209,0.87126 1.161627,0.55758 2.172253,1.31244 3.031855,2.26498 0.859605,0.9293 1.533181,2.00982 2.021065,3.24115 0.511117,1.20808 0.766879,2.46257 0.766879,3.76359 0,1.30102 -0.255762,2.56689 -0.766879,3.79822 -0.487884,1.20809 -1.16146,2.28861 -2.021065,3.24114 -0.859602,0.9293 -1.870228,1.68417 -3.031855,2.26498 -1.138394,0.55758 -2.358189,0.83664 -3.659209,0.83664 -1.301022,0 -2.532205,-0.22107 -3.693832,-0.66249 -1.138393,-0.44142 -2.137629,-1.0917 -2.997231,-1.9513 -0.836372,-0.85961 -1.498561,-1.91683 -1.986444,-3.17138 -0.487881,-1.27779 -0.731737,-2.72954 -0.731737,-4.35581 0,-1.62628 0.243856,-3.06663 0.731737,-4.32119 0.487883,-1.27779 1.150072,-2.34691 1.986444,-3.20652 0.859602,-0.8596 1.858838,-1.50988 2.997231,-1.9513 1.161627,-0.44142 2.39281,-0.66197 3.693832,-0.66197 z m 288.931211,6.58616 c 1.32424,0 2.56733,0.20916 3.72895,0.62735 1.18486,0.41818 2.20689,0.98718 3.0665,1.70739 0.88283,0.72021 1.56832,1.56826 2.05618,2.54403 0.51112,0.95253 0.7669,1.98646 0.7669,3.10162 0,1.11516 -0.25578,2.13769 -0.7669,3.06699 -0.48786,0.9293 -1.17335,1.73076 -2.05618,2.40451 -0.85961,0.67374 -1.88164,1.20805 -3.0665,1.603 -1.16162,0.37172 -2.40471,0.55759 -3.72895,0.55759 -1.32427,0 -2.56683,-0.18587 -3.72846,-0.55759 -1.16163,-0.39495 -2.18416,-0.92926 -3.067,-1.603 -0.8596,-0.67375 -1.54508,-1.47521 -2.05621,-2.40451 -0.48789,-0.9293 -0.73173,-1.95183 -0.73173,-3.06699 0,-1.11516 0.24384,-2.14909 0.73173,-3.10162 0.51113,-0.97577 1.19661,-1.82382 2.05621,-2.54403 0.88284,-0.72021 1.90537,-1.28921 3.067,-1.70739 1.16163,-0.41819 2.40419,-0.62735 3.72846,-0.62735 z m 31.46835,13.06845 c -0.81315,0 -1.57938,0.16257 -2.2996,0.48783 -0.69697,0.30202 -1.32448,0.72035 -1.88206,1.2547 -0.53436,0.53435 -0.96407,1.16133 -1.28932,1.88154 -0.30202,0.72021 -0.4532,1.48698 -0.4532,2.30012 0,0.74344 0.12787,1.45222 0.38343,2.12596 0.25556,0.65051 0.60399,1.23142 1.04542,1.74253 0.44141,0.53435 0.96433,0.97547 1.56837,1.32395 0.60405,0.34849 1.25434,0.59235 1.95131,0.73174 -0.18587,0.67375 -0.44112,1.33593 -0.76637,1.98644 -0.32525,0.67375 -0.81349,1.38253 -1.46399,2.12597 l 3.79873,2.64842 c 0.97578,-0.72021 1.80054,-1.60296 2.47427,-2.64842 0.69697,-1.02223 1.25458,-2.11414 1.67278,-3.27577 0.4414,-1.13839 0.75517,-2.28829 0.94102,-3.44992 0.2091,-1.18485 0.31369,-2.28867 0.31369,-3.3109 0,-0.81314 -0.15119,-1.57991 -0.45321,-2.30012 -0.30202,-0.72021 -0.73176,-1.34719 -1.28934,-1.88154 -0.53435,-0.53435 -1.17324,-0.95268 -1.91667,-1.2547 -0.72022,-0.32526 -1.49889,-0.48783 -2.33526,-0.48783 z"
       id="text100"
       inkscape:connector-curvature="0" />
  </g>
  <g
     inkscape:label="GoldFront"
     inkscape:groupmode="layer"
     id="layer1"
     transform="translate(227.44865,-344.41417)" />
</svg>
