<svg xmlns="http://www.w3.org/2000/svg" viewBox="0 0 898.69 319.93"><defs><style>.cls-1{fill:#f7c45b;}.cls-1,.cls-2,.cls-3,.cls-5{stroke:#000;}.cls-1,.cls-2,.cls-5{stroke-miterlimit:10;stroke-width:3px;}.cls-2{fill:#e05263;}.cls-3,.cls-4{fill:#fff;}.cls-5{fill:none;}</style></defs><g id="Layer_2" data-name="Layer 2"><g id="Posts"><path class="cls-1" d="M32.86,118.28H10.47V6.41H32.86V51.19h44.7V6.41H100V118.28H77.56V73.58H32.86Zm165.3,0H193l-8.27-11.47a71.29,71.29,0,0,1-6.47,5.15,50.56,50.56,0,0,1-7.1,4.13,44.38,44.38,0,0,1-7.73,2.73,31.23,31.23,0,0,1-7.95,1,46.31,46.31,0,0,1-16.62-3,40,40,0,0,1-13.57-8.58,41.06,41.06,0,0,1-9.13-13.88,49,49,0,0,1-3.35-18.65,46.42,46.42,0,0,1,3.35-17.86,42.89,42.89,0,0,1,9.13-14,41.35,41.35,0,0,1,13.57-9,42.55,42.55,0,0,1,16.62-3.28,32.2,32.2,0,0,1,8,1,40.9,40.9,0,0,1,7.73,2.81,46,46,0,0,1,7.09,4.21,57.28,57.28,0,0,1,6.4,5.22l8.27-9.9h5.15ZM176.71,75.76A21.46,21.46,0,0,0,175,67.34a23.11,23.11,0,0,0-4.52-7.26A21.85,21.85,0,0,0,163.68,55a17.78,17.78,0,0,0-8.19-1.95,23.06,23.06,0,0,0-8.27,1.49,19.17,19.17,0,0,0-6.71,4.36,21,21,0,0,0-4.45,7.18,26.6,26.6,0,0,0-1.63,9.67,27.33,27.33,0,0,0,1.63,9.76,21,21,0,0,0,4.45,7.09A19.19,19.19,0,0,0,147.22,97a23.05,23.05,0,0,0,8.27,1.48,18.36,18.36,0,0,0,8.19-1.87,23.52,23.52,0,0,0,6.79-5.07A24.38,24.38,0,0,0,175,84.27,22.08,22.08,0,0,0,176.71,75.76ZM287.48,51.35,271.88,67a20.42,20.42,0,0,0-3.2-5.85,20.81,20.81,0,0,0-4.6-4.45A19.15,19.15,0,0,0,258.62,54a20.27,20.27,0,0,0-6.09-.94,19.51,19.51,0,0,0-8.27,1.8,20.34,20.34,0,0,0-6.71,5.07,24,24,0,0,0-4.44,7.64,28.08,28.08,0,0,0-1.64,9.83,20.45,20.45,0,0,0,1.64,8.19,21.8,21.8,0,0,0,4.44,6.71,20.83,20.83,0,0,0,15,6.16,21.09,21.09,0,0,0,6-.85,22.14,22.14,0,0,0,5.38-2.42,20.17,20.17,0,0,0,4.52-3.9,20.37,20.37,0,0,0,3.28-5.15l15.6,15.68a41.11,41.11,0,0,1-6.86,7.57,41.74,41.74,0,0,1-8.35,5.69,39.47,39.47,0,0,1-9.44,3.51,41.06,41.06,0,0,1-10.14,1.25,42.33,42.33,0,0,1-16.61-3.28,44.24,44.24,0,0,1-13.58-9.12,43.32,43.32,0,0,1-9.13-13.5,41.16,41.16,0,0,1-3.35-16.54,47.78,47.78,0,0,1,3.35-17.94A46.28,46.28,0,0,1,222.34,45a43.64,43.64,0,0,1,13.58-9.83,39.28,39.28,0,0,1,16.61-3.59,39.8,39.8,0,0,1,10.22,1.33,42.42,42.42,0,0,1,18,10.06A37.91,37.91,0,0,1,287.48,51.35Zm31.9,66.93H297.93V1.5h21.45V75.14l31.75-40.25h24.5l-27.7,34.79,27.7,48.6h-24.5L334.2,87.93l-14.82,19.66Zm155.16-44.7A43.87,43.87,0,0,1,471,91.05a44.39,44.39,0,0,1-23.87,23.72,43.34,43.34,0,0,1-17.39,3.51,43.91,43.91,0,0,1-17.48-3.51,44.1,44.1,0,0,1-23.71-23.72,43.87,43.87,0,0,1-3.51-17.47V6.41h22.31V73.58a22.08,22.08,0,0,0,1.71,8.66,23.35,23.35,0,0,0,4.84,7.1,23,23,0,0,0,7.1,4.83,22.48,22.48,0,0,0,8.74,1.72,21.86,21.86,0,0,0,8.65-1.72,22.8,22.8,0,0,0,7.18-4.83,22.1,22.1,0,0,0,4.76-7.1,21.12,21.12,0,0,0,1.79-8.66V6.41h22.39Zm66.39,44.7H518.62V28.8H485V6.41h89.48V28.8H540.93ZM676,62.35a56.33,56.33,0,0,1-7.64,28.24,60,60,0,0,1-8.74,11.31,56,56,0,0,1-11.31,8.73,56.7,56.7,0,0,1-13.42,5.7,55.67,55.67,0,0,1-14.82,2h-33.7V6.41H620a53.74,53.74,0,0,1,14.82,2,54.62,54.62,0,0,1,24.73,14.43,56.44,56.44,0,0,1,8.74,11.32,53.28,53.28,0,0,1,5.61,13.33A53.86,53.86,0,0,1,676,62.35Zm-22.39,0a33.32,33.32,0,0,0-9.83-23.64,33.06,33.06,0,0,0-10.68-7.25,32.24,32.24,0,0,0-13-2.66H608.87V95.89H620a33.21,33.21,0,0,0,13-2.57,33.85,33.85,0,0,0,10.68-7.18,33.36,33.36,0,0,0,7.18-10.69A32.77,32.77,0,0,0,653.57,62.35ZM716,65.54a13.66,13.66,0,0,1-3.9,9.52A14.07,14.07,0,0,1,707.86,78a13.23,13.23,0,0,1-5.14,1,13.47,13.47,0,0,1-5.23-1,15.2,15.2,0,0,1-4.29-2.89,12.8,12.8,0,0,1-3.9-9.52,13.14,13.14,0,0,1,1-5.07,14.14,14.14,0,0,1,2.89-4.21,13.17,13.17,0,0,1,4.29-2.88,12.51,12.51,0,0,1,5.23-1.1,13.44,13.44,0,0,1,9.36,4,13.22,13.22,0,0,1,2.81,4.21A12.36,12.36,0,0,1,716,65.54Zm0,44.78a13.18,13.18,0,0,1-8.12,12.33,12.29,12.29,0,0,1-5.14,1.09,12.5,12.5,0,0,1-5.23-1.09,12.94,12.94,0,0,1-8.19-12.33,13.32,13.32,0,0,1,1-5.15A14.14,14.14,0,0,1,693.2,101a14,14,0,0,1,4.29-2.81,12.5,12.5,0,0,1,5.23-1.09,12.29,12.29,0,0,1,5.14,1.09,13,13,0,0,1,4.22,2.81,13.22,13.22,0,0,1,2.81,4.21A12.52,12.52,0,0,1,716,110.32ZM57.43,316.87H35.12V227.4H1.5V205H91V227.4H57.43Zm64.44,0h-21.3V200.09h21.3V237a24.28,24.28,0,0,1,7.88-4.06,28,28,0,0,1,8.26-1.24,36.84,36.84,0,0,1,26.29,11,37,37,0,0,1,8,11.94,35.77,35.77,0,0,1,3,14.51v47.74H153.77V269.13h.16a15.35,15.35,0,0,0-1.25-6.16,15.91,15.91,0,0,0-3.43-5.15,16.17,16.17,0,0,0-5.07-3.43,15.26,15.26,0,0,0-6.17-1.25,15.93,15.93,0,0,0-6.31,1.25,15.74,15.74,0,0,0-8.58,8.58,15.18,15.18,0,0,0-1.25,6.16Zm101.8-20.44a14.82,14.82,0,0,0,2.49.55c.84,0,1.67.08,2.5.08a21.09,21.09,0,0,0,6-.86,21.94,21.94,0,0,0,5.38-2.42,20.17,20.17,0,0,0,4.52-3.9,20.37,20.37,0,0,0,3.28-5.15l15.6,15.68a41.11,41.11,0,0,1-6.86,7.57,41.74,41.74,0,0,1-8.35,5.69,39.47,39.47,0,0,1-9.44,3.51,41.18,41.18,0,0,1-10.14,1.25A42.22,42.22,0,0,1,198.47,306a43.28,43.28,0,0,1-9.13-13.89A46.22,46.22,0,0,1,186,274.36a47.43,47.43,0,0,1,3.35-18.1A40.68,40.68,0,0,1,212,233.32a43.46,43.46,0,0,1,16.62-3.2,42.12,42.12,0,0,1,10.22,1.25,42.88,42.88,0,0,1,17.86,9.36,41.52,41.52,0,0,1,6.87,7.57Zm10.92-43.92a12.84,12.84,0,0,0-3-.7,28.1,28.1,0,0,0-3-.15,21.18,21.18,0,0,0-8.27,1.63,19.61,19.61,0,0,0-6.71,4.53,21.74,21.74,0,0,0-4.44,7.17,25.12,25.12,0,0,0-1.64,9.37c0,.78,0,1.66.08,2.65s.23,2,.39,3,.44,1.95.7,2.89a11.07,11.07,0,0,0,1,2.49ZM406.91,205,370.17,316.87H347.78L311.19,205h25.43l22.31,74.65L381.32,205Zm33.15,111.86H417.67V205h22.39Zm43.22,0H460.89V205h22.39Zm59.05-78.32a32.4,32.4,0,0,1,2.65-13,34.06,34.06,0,0,1,17.87-17.86,32.2,32.2,0,0,1,13-2.65H627.2V227.4H575.88a11.09,11.09,0,0,0-4.37.85,11.26,11.26,0,0,0-3.59,2.42,10.9,10.9,0,0,0-2.34,3.51,11.13,11.13,0,0,0-.86,4.37,11.42,11.42,0,0,0,3.2,8,11.94,11.94,0,0,0,3.59,2.35,11.09,11.09,0,0,0,4.37.85h22.38a33.49,33.49,0,0,1,30.89,46.57A33.17,33.17,0,0,1,622,307a33.9,33.9,0,0,1-10.69,7.18,32.23,32.23,0,0,1-13,2.65H548.57V294.48h49.69a11.09,11.09,0,0,0,7.88-3.2A11.36,11.36,0,0,0,608.56,279a11.79,11.79,0,0,0-5.93-5.93,11.13,11.13,0,0,0-4.37-.86H575.88a32.2,32.2,0,0,1-13-2.65A33.43,33.43,0,0,1,545,251.66,33,33,0,0,1,542.33,238.55Zm135.19,57.88a14.72,14.72,0,0,0,2.5.55c.83,0,1.66.08,2.49.08a21.09,21.09,0,0,0,6-.86,21.77,21.77,0,0,0,5.38-2.42,20.22,20.22,0,0,0,4.53-3.9,20.61,20.61,0,0,0,3.27-5.15l15.6,15.68a41.11,41.11,0,0,1-6.86,7.57,41.74,41.74,0,0,1-8.35,5.69,39.47,39.47,0,0,1-9.44,3.51,41.06,41.06,0,0,1-10.14,1.25A42.26,42.26,0,0,1,652.32,306a43.09,43.09,0,0,1-9.12-13.89,46,46,0,0,1-3.36-17.78,47.24,47.24,0,0,1,3.36-18.1,40.6,40.6,0,0,1,22.7-22.94,43.41,43.41,0,0,1,16.61-3.2,42.75,42.75,0,0,1,28.09,10.61,41.47,41.47,0,0,1,6.86,7.57Zm10.92-43.92a12.84,12.84,0,0,0-3-.7,28.1,28.1,0,0,0-3-.15,21.18,21.18,0,0,0-8.27,1.63,19.58,19.58,0,0,0-6.7,4.53,21.6,21.6,0,0,0-4.45,7.17,25.33,25.33,0,0,0-1.64,9.37c0,.78,0,1.66.08,2.65s.23,2,.39,3,.44,1.95.7,2.89a11.07,11.07,0,0,0,1,2.49ZM808.5,316.87h-5.15l-8.27-11.47a70.08,70.08,0,0,1-6.48,5.15,50.46,50.46,0,0,1-7.1,4.14,46,46,0,0,1-7.72,2.73,31.74,31.74,0,0,1-7.95,1,46.52,46.52,0,0,1-16.62-3,40.26,40.26,0,0,1-13.57-8.58A41.2,41.2,0,0,1,726.51,293a48.78,48.78,0,0,1-3.35-18.64,46.25,46.25,0,0,1,3.35-17.87,42.89,42.89,0,0,1,9.13-14,41.35,41.35,0,0,1,13.57-9,42.55,42.55,0,0,1,16.62-3.28,32.2,32.2,0,0,1,8,1,41.51,41.51,0,0,1,7.72,2.81,45.61,45.61,0,0,1,7.1,4.21,56.27,56.27,0,0,1,6.4,5.23l8.27-9.91h5.15ZM787,274.36a21.46,21.46,0,0,0-1.71-8.43,23,23,0,0,0-4.53-7.25,21.39,21.39,0,0,0-6.78-5.07,17.78,17.78,0,0,0-8.19-2,23,23,0,0,0-8.27,1.48,19.1,19.1,0,0,0-6.71,4.37,20.68,20.68,0,0,0-4.45,7.17,26.61,26.61,0,0,0-1.64,9.68,27.23,27.23,0,0,0,1.64,9.75,20.94,20.94,0,0,0,4.45,7.1,19.08,19.08,0,0,0,6.71,4.36,23,23,0,0,0,8.27,1.49,18.36,18.36,0,0,0,8.19-1.88,23.35,23.35,0,0,0,6.78-5.07,24.2,24.2,0,0,0,4.53-7.25A22.06,22.06,0,0,0,787,274.36Zm83.63,42.51H822V295.65h48.68a5.33,5.33,0,0,0,5.3-5.3,2.91,2.91,0,0,0-1.56-3,9.21,9.21,0,0,0-3.74-.7H848.51a25.73,25.73,0,0,1-10.37-2.1,27.27,27.27,0,0,1-8.43-5.7,28,28,0,0,1-5.69-8.5,27.53,27.53,0,0,1,0-20.75,27,27,0,0,1,5.69-8.43,26,26,0,0,1,8.43-5.61,25.57,25.57,0,0,1,10.37-2.11h43.14V254.7H848.51a5.33,5.33,0,0,0-5.3,5.3,5.45,5.45,0,0,0,1.56,3.9,5.11,5.11,0,0,0,3.74,1.56h22.16a28.28,28.28,0,0,1,10.3,1.88,25.3,25.3,0,0,1,8.42,5.07,24.1,24.1,0,0,1,5.69,7.87,23.84,23.84,0,0,1,2.11,10.07,25.57,25.57,0,0,1-2.11,10.37,28.29,28.29,0,0,1-5.69,8.43,27,27,0,0,1-8.42,5.69A26.43,26.43,0,0,1,870.67,316.87Z"/><path class="cls-2" d="M197.43,117.65h-5.07l-8.15-11.3a65.13,65.13,0,0,1-6.38,5.07,49.49,49.49,0,0,1-7,4.08,45.88,45.88,0,0,1-7.61,2.69,31.27,31.27,0,0,1-7.84,1A45.87,45.87,0,0,1,139,116.27a39.61,39.61,0,0,1-13.37-8.46,40.46,40.46,0,0,1-9-13.68,48,48,0,0,1-3.31-18.37,45.53,45.53,0,0,1,3.31-17.6,42.14,42.14,0,0,1,9-13.83A40.82,40.82,0,0,1,139,35.41a41.89,41.89,0,0,1,16.37-3.22,31.72,31.72,0,0,1,7.92,1A40.55,40.55,0,0,1,170.92,36a45.48,45.48,0,0,1,7,4.15,55.79,55.79,0,0,1,6.3,5.15l8.15-9.76h5.07Z"/><path class="cls-3" d="M141.36,67.06a4.86,4.86,0,1,1-4.86-4.92A4.88,4.88,0,0,1,141.36,67.06Z"/><ellipse cx="134.64" cy="67.48" rx="2.87" ry="3.44" transform="translate(-2.84 5.99) rotate(-2.52)"/><path class="cls-4" d="M119.44,97.63c5.35,1.19,12.41,1.72,18.62-1.84,4-2.28,6.16-5.4,7-4.84,1.06.75-1.27,7.36-6,11.94A22.92,22.92,0,0,1,128,108.72"/><path d="M119.44,97.63a41.19,41.19,0,0,0,6.73.38,24.31,24.31,0,0,0,6.6-.66,19.34,19.34,0,0,0,6-2.62,25.67,25.67,0,0,0,2.66-2l1.28-1.11a8.35,8.35,0,0,1,1.47-1.08l.29-.11a1.56,1.56,0,0,1,.39,0,.94.94,0,0,1,.72.52,2.12,2.12,0,0,1,.15,1.09,8.17,8.17,0,0,1-.38,1.77A18.87,18.87,0,0,1,144,97a25.31,25.31,0,0,1-4,5.63,21.82,21.82,0,0,1-5.49,4.21,23.06,23.06,0,0,1-6.58,1.91,25.21,25.21,0,0,0,6.1-2.79,20.92,20.92,0,0,0,5.24-4,24.48,24.48,0,0,0,3.84-5.41,19.26,19.26,0,0,0,1.29-3,7.19,7.19,0,0,0,.33-1.54,1.27,1.27,0,0,0-.05-.57s0,0,.07,0h0l-.12,0a8,8,0,0,0-1.24.94l-1.29,1.11a28.06,28.06,0,0,1-2.76,2.08A20.51,20.51,0,0,1,133,98.32a25.27,25.27,0,0,1-6.87.69A32.81,32.81,0,0,1,119.44,97.63Z"/><path class="cls-5" d="M197.43,117.65h-5.07l-8.15-11.3a65.13,65.13,0,0,1-6.38,5.07,49.49,49.49,0,0,1-7,4.08,45.88,45.88,0,0,1-7.61,2.69,31.27,31.27,0,0,1-7.84,1A45.87,45.87,0,0,1,139,116.27a39.61,39.61,0,0,1-13.37-8.46,40.46,40.46,0,0,1-9-13.68,48,48,0,0,1-3.31-18.37,45.53,45.53,0,0,1,3.31-17.6,42.14,42.14,0,0,1,9-13.83A40.82,40.82,0,0,1,139,35.41a41.89,41.89,0,0,1,16.37-3.22,31.72,31.72,0,0,1,7.92,1A40.55,40.55,0,0,1,170.92,36a45.48,45.48,0,0,1,7,4.15,55.79,55.79,0,0,1,6.3,5.15l8.15-9.76h5.07Z"/><path class="cls-2" d="M807.87,316.32h-5.08L794.65,305a67.59,67.59,0,0,1-6.38,5.07,50.16,50.16,0,0,1-7,4.08,45.56,45.56,0,0,1-7.61,2.69,31.27,31.27,0,0,1-7.84,1,45.81,45.81,0,0,1-16.36-2.92,39.55,39.55,0,0,1-13.38-8.46,40.46,40.46,0,0,1-9-13.68,48.18,48.18,0,0,1-3.3-18.37,45.71,45.71,0,0,1,3.3-17.6,42.14,42.14,0,0,1,9-13.83,40.92,40.92,0,0,1,13.38-8.92,41.84,41.84,0,0,1,16.36-3.22,31.72,31.72,0,0,1,7.92,1,40.55,40.55,0,0,1,7.61,2.76,45.48,45.48,0,0,1,7,4.15,56.81,56.81,0,0,1,6.31,5.15l8.14-9.76h5.08Z"/><path class="cls-3" d="M751.79,265.73a4.86,4.86,0,1,1-4.86-4.92A4.88,4.88,0,0,1,751.79,265.73Z"/><ellipse cx="745.08" cy="266.15" rx="2.87" ry="3.44" transform="translate(-11 33.07) rotate(-2.52)"/><path class="cls-4" d="M729.87,296.3c5.35,1.19,12.42,1.72,18.62-1.84,4-2.28,6.16-5.4,7-4.84,1.06.75-1.27,7.36-6,11.94a22.92,22.92,0,0,1-11.09,5.83"/><path d="M729.87,296.3a41.38,41.38,0,0,0,6.74.38,24.28,24.28,0,0,0,6.59-.66,19.4,19.4,0,0,0,6-2.62,28,28,0,0,0,2.66-2l1.28-1.11a8.35,8.35,0,0,1,1.47-1.08l.28-.11a1.61,1.61,0,0,1,.39,0,.94.94,0,0,1,.72.52,2.12,2.12,0,0,1,.15,1.09,7.62,7.62,0,0,1-.38,1.77,19.68,19.68,0,0,1-1.35,3.2,25.35,25.35,0,0,1-4,5.63,21.82,21.82,0,0,1-5.49,4.21,23.06,23.06,0,0,1-6.58,1.91,25.45,25.45,0,0,0,6.11-2.79,20.64,20.64,0,0,0,5.23-4,24.48,24.48,0,0,0,3.84-5.41,19.26,19.26,0,0,0,1.29-3,7.19,7.19,0,0,0,.33-1.54,1.48,1.48,0,0,0,0-.57s0,.05.07,0h0l-.11,0a8,8,0,0,0-1.25.94l-1.29,1.11a26.92,26.92,0,0,1-2.76,2.08,20.41,20.41,0,0,1-6.35,2.75,25.16,25.16,0,0,1-6.86.69A32.9,32.9,0,0,1,729.87,296.3Z"/><path class="cls-5" d="M807.87,316.32h-5.08L794.65,305a67.59,67.59,0,0,1-6.38,5.07,50.16,50.16,0,0,1-7,4.08,45.56,45.56,0,0,1-7.61,2.69,31.27,31.27,0,0,1-7.84,1,45.81,45.81,0,0,1-16.36-2.92,39.55,39.55,0,0,1-13.38-8.46,40.46,40.46,0,0,1-9-13.68,48.18,48.18,0,0,1-3.3-18.37,45.71,45.71,0,0,1,3.3-17.6,42.14,42.14,0,0,1,9-13.83,40.92,40.92,0,0,1,13.38-8.92,41.84,41.84,0,0,1,16.36-3.22,31.72,31.72,0,0,1,7.92,1,40.55,40.55,0,0,1,7.61,2.76,45.48,45.48,0,0,1,7,4.15,56.81,56.81,0,0,1,6.31,5.15l8.14-9.76h5.08Z"/></g></g></svg>