<?xml version="1.0" encoding="UTF-8" standalone="no"?>
<!-- Created with Inkscape (http://www.inkscape.org/) -->

<svg
   xmlns:dc="http://purl.org/dc/elements/1.1/"
   xmlns:cc="http://creativecommons.org/ns#"
   xmlns:rdf="http://www.w3.org/1999/02/22-rdf-syntax-ns#"
   xmlns:svg="http://www.w3.org/2000/svg"
   xmlns="http://www.w3.org/2000/svg"
   xmlns:sodipodi="http://sodipodi.sourceforge.net/DTD/sodipodi-0.dtd"
   xmlns:inkscape="http://www.inkscape.org/namespaces/inkscape"
   width="1070.7352mm"
   height="375.35837mm"
   viewBox="0 0 1070.7352 375.35837"
   version="1.1"
   id="svg8"
   inkscape:version="0.92.4 (5da689c313, 2019-01-14)"
   sodipodi:docname="titleofhackathonpathvers.svg">
  <defs
     id="defs2" />
  <sodipodi:namedview
     id="base"
     pagecolor="#ffffff"
     bordercolor="#666666"
     borderopacity="1.0"
     inkscape:pageopacity="0.0"
     inkscape:pageshadow="2"
     inkscape:zoom="0.24748737"
     inkscape:cx="2700.4193"
     inkscape:cy="577.86329"
     inkscape:document-units="mm"
     inkscape:current-layer="layer2"
     showgrid="false"
     inkscape:window-width="1920"
     inkscape:window-height="1001"
     inkscape:window-x="-9"
     inkscape:window-y="-9"
     inkscape:window-maximized="1"
     inkscape:lockguides="false"
     fit-margin-top="0"
     fit-margin-left="0"
     fit-margin-right="0"
     fit-margin-bottom="0" />
  <metadata
     id="metadata5">
    <rdf:RDF>
      <cc:Work
         rdf:about="">
        <dc:format>image/svg+xml</dc:format>
        <dc:type
           rdf:resource="http://purl.org/dc/dcmitype/StillImage" />
        <dc:title></dc:title>
      </cc:Work>
    </rdf:RDF>
  </metadata>
  <g
     inkscape:groupmode="layer"
     id="layer2"
     inkscape:label="backblack"
     style="display:inline"
     transform="translate(0.45090438,218.83437)">
    <path
       style="font-style:normal;font-variant:normal;font-weight:normal;font-stretch:normal;font-size:166.8447113px;line-height:1.25;font-family:Righteous;-inkscape-font-specification:Righteous;font-variant-ligatures:normal;font-variant-caps:normal;font-variant-numeric:normal;font-feature-settings:normal;text-align:start;letter-spacing:0px;word-spacing:0px;writing-mode:lr-tb;text-anchor:start;fill:#000000;fill-opacity:1;stroke:#000000;stroke-width:6.83283615;stroke-miterlimit:4;stroke-dasharray:none;stroke-opacity:1"
       d="M 414.5957 948.16406 L 414.5957 1409.1016 L 498.6543 1409.1016 L 498.6543 1220.6621 C 498.6543 1212.0407 500.29769 1203.9329 503.58203 1196.3379 C 506.86638 1188.5376 511.3813 1181.7632 517.12891 1176.0156 C 522.87651 1170.268 529.65085 1165.7511 537.45117 1162.4668 C 545.25149 1159.1825 553.56396 1157.541 562.39062 1157.541 C 571.01203 1157.541 579.12175 1159.1825 586.7168 1162.4668 C 594.31184 1165.7511 600.98287 1170.268 606.73047 1176.0156 C 612.47807 1181.7632 616.993 1188.5376 620.27734 1196.3379 C 623.56169 1203.9329 625.20508 1212.0407 625.20508 1220.6621 L 624.58789 1220.6621 L 624.58789 1409.1016 L 709.26367 1409.1016 L 709.26367 1220.6621 C 709.26367 1200.3402 705.36282 1181.2492 697.5625 1163.3906 C 689.96745 1145.3267 679.4989 1129.6239 666.15625 1116.2812 C 653.01887 1102.7334 637.52073 1092.1615 619.66211 1084.5664 C 601.80349 1076.7661 582.71251 1072.8672 562.39062 1072.8672 C 551.30597 1072.8672 540.42803 1074.5086 529.75391 1077.793 C 519.07979 1080.872 508.7126 1086.2096 498.6543 1093.8047 L 498.6543 948.16406 L 414.5957 948.16406 z M 23.552734 967.5625 L 23.552734 1055.9316 L 156.26172 1055.9316 L 156.26172 1409.1016 L 244.32227 1409.1016 L 244.32227 1055.9316 L 376.72266 1055.9316 L 376.72266 967.5625 L 23.552734 967.5625 z M 1245.3301 967.5625 L 1389.7383 1409.1016 L 1478.1074 1409.1016 L 1623.1328 967.5625 L 1522.1387 967.5625 L 1433.7695 1262.2285 L 1345.707 967.5625 L 1245.3301 967.5625 z M 1665.0078 967.5625 L 1665.0078 1409.1016 L 1753.377 1409.1016 L 1753.377 967.5625 L 1665.0078 967.5625 z M 1834.9727 967.5625 L 1834.9727 1409.1016 L 1923.3418 1409.1016 L 1923.3418 967.5625 L 1834.9727 967.5625 z M 2287.5957 967.5625 C 2269.3265 967.5625 2252.187 971.05202 2236.1758 978.03125 C 2220.1646 985.01048 2206.1032 994.55501 2193.9922 1006.666 C 2182.0864 1018.5718 2172.6433 1032.5298 2165.6641 1048.541 C 2158.6848 1064.5522 2155.1953 1081.6937 2155.1953 1099.9629 C 2155.1953 1118.2321 2158.6848 1135.475 2165.6641 1151.6914 C 2172.6433 1167.7026 2182.0864 1181.764 2193.9922 1193.875 C 2206.1032 1205.7807 2220.1646 1215.2219 2236.1758 1222.2012 C 2252.187 1229.1804 2269.3265 1232.6699 2287.5957 1232.6699 L 2375.9648 1232.6699 C 2382.123 1232.6699 2387.8719 1233.7987 2393.209 1236.0566 C 2398.546 1238.3146 2403.1643 1241.4961 2407.0645 1245.6016 C 2411.1699 1249.5017 2414.3514 1254.1219 2416.6094 1259.459 C 2418.8674 1264.796 2419.9961 1270.543 2419.9961 1276.7012 C 2419.9961 1282.8593 2418.8674 1288.6063 2416.6094 1293.9434 C 2414.3514 1299.2804 2411.1699 1304.002 2407.0645 1308.1074 C 2403.1643 1312.0076 2398.546 1315.0877 2393.209 1317.3457 C 2387.8719 1319.6037 2382.123 1320.7324 2375.9648 1320.7324 L 2179.8281 1320.7324 L 2179.8281 1409.1016 L 2375.9648 1409.1016 C 2394.234 1409.1016 2411.3755 1405.612 2427.3867 1398.6328 C 2443.6032 1391.6536 2457.6646 1382.2104 2469.5703 1370.3047 C 2481.6813 1358.1937 2491.1225 1344.1323 2497.8965 1328.1211 C 2504.8757 1312.1099 2508.3652 1294.9703 2508.3652 1276.7012 C 2508.3652 1258.432 2504.8757 1241.2924 2497.8965 1225.2812 C 2491.1225 1209.0649 2481.6813 1195.0034 2469.5703 1183.0977 C 2457.6646 1170.9866 2443.6032 1161.5435 2427.3867 1154.7695 C 2411.3755 1147.7903 2394.234 1144.3008 2375.9648 1144.3008 L 2287.5957 1144.3008 C 2281.4376 1144.3008 2275.6906 1143.172 2270.3535 1140.9141 C 2265.0165 1138.6561 2260.2949 1135.5779 2256.1895 1131.6777 C 2252.2893 1127.5723 2249.2111 1122.8507 2246.9531 1117.5137 C 2244.6951 1111.9713 2243.5664 1106.121 2243.5664 1099.9629 C 2243.5664 1093.8047 2244.6951 1088.0557 2246.9531 1082.7188 C 2249.2111 1077.3817 2252.2893 1072.7634 2256.1895 1068.8633 C 2260.2949 1064.7579 2265.0165 1061.5763 2270.3535 1059.3184 C 2275.6906 1057.0604 2281.4376 1055.9316 2287.5957 1055.9316 L 2490.1992 1055.9316 L 2490.1992 967.5625 L 2287.5957 967.5625 z M 920.17969 1066.709 C 896.984 1066.709 875.12286 1070.9159 854.5957 1079.332 C 834.27382 1087.7482 816.4149 1099.5521 801.01953 1114.7422 C 785.82944 1129.9323 773.82082 1148.3039 764.99414 1169.8574 C 756.16746 1191.4109 751.75391 1215.2215 751.75391 1241.291 C 751.75391 1266.7447 756.16746 1290.1459 764.99414 1311.4941 C 773.82082 1332.6371 785.82944 1350.9074 801.01953 1366.3027 C 816.4149 1381.6981 834.27382 1393.7067 854.5957 1402.3281 C 875.12286 1410.9495 896.984 1415.2598 920.17969 1415.2598 C 933.93288 1415.2598 947.27492 1413.6164 960.20703 1410.332 C 973.34441 1407.253 985.76437 1402.6347 997.46484 1396.4766 C 1009.3706 1390.3184 1020.3519 1382.8267 1030.4102 1374 C 1040.6737 1365.1733 1049.7055 1355.2175 1057.5059 1344.1328 L 995.92578 1282.2441 C 992.64144 1289.6339 988.32925 1296.4063 982.99219 1302.5645 C 977.8604 1308.5173 971.90873 1313.6502 965.13477 1317.9609 C 958.56608 1322.0664 951.48372 1325.2479 943.88867 1327.5059 C 936.29362 1329.7638 928.39055 1330.8926 920.17969 1330.8926 C 916.89534 1330.8926 913.61052 1330.7893 910.32617 1330.584 C 907.04183 1330.1734 903.75895 1329.456 900.47461 1328.4297 L 1058.123 1138.4512 C 1050.3227 1127.3665 1041.2909 1117.4107 1031.0273 1108.584 C 1020.7638 1099.552 1009.6772 1091.957 997.77148 1085.7988 C 986.07101 1079.6407 973.653 1074.9191 960.51562 1071.6348 C 947.37826 1068.3504 933.93288 1066.709 920.17969 1066.709 z M 2708.5059 1066.709 C 2685.3102 1066.709 2663.449 1070.9159 2642.9219 1079.332 C 2622.6 1087.7482 2604.7411 1099.5521 2589.3457 1114.7422 C 2574.1556 1129.9323 2562.147 1148.3039 2553.3203 1169.8574 C 2544.4936 1191.4109 2540.0801 1215.2215 2540.0801 1241.291 C 2540.0801 1266.7447 2544.4936 1290.1459 2553.3203 1311.4941 C 2562.147 1332.6371 2574.1556 1350.9074 2589.3457 1366.3027 C 2604.7411 1381.6981 2622.6 1393.7067 2642.9219 1402.3281 C 2663.449 1410.9495 2685.3102 1415.2598 2708.5059 1415.2598 C 2722.2591 1415.2598 2735.6011 1413.6164 2748.5332 1410.332 C 2761.6706 1407.253 2774.0905 1402.6347 2785.791 1396.4766 C 2797.6968 1390.3184 2808.678 1382.8267 2818.7363 1374 C 2828.9999 1365.1733 2838.0317 1355.2175 2845.832 1344.1328 L 2784.25 1282.2441 C 2780.9657 1289.6339 2776.6554 1296.4063 2771.3184 1302.5645 C 2766.1866 1308.5173 2760.2349 1313.6502 2753.4609 1317.9609 C 2746.8922 1322.0664 2739.8099 1325.2479 2732.2148 1327.5059 C 2724.6198 1329.7638 2716.7167 1330.8926 2708.5059 1330.8926 C 2705.2215 1330.8926 2701.9367 1330.7893 2698.6523 1330.584 C 2695.368 1330.1734 2692.0832 1329.456 2688.7988 1328.4297 L 2846.4473 1138.4512 C 2838.6469 1127.3665 2829.6151 1117.4107 2819.3516 1108.584 C 2809.088 1099.552 2798.0034 1091.957 2786.0977 1085.7988 C 2774.3972 1079.6407 2761.9792 1074.9191 2748.8418 1071.6348 C 2735.7044 1068.3504 2722.2591 1066.709 2708.5059 1066.709 z M 3039.8145 1066.709 C 3016.6188 1066.709 2994.7576 1071.0192 2974.2305 1079.6406 C 2953.9086 1088.0568 2936.0497 1099.9621 2920.6543 1115.3574 C 2905.4642 1130.7528 2893.4556 1149.2278 2884.6289 1170.7812 C 2875.8022 1192.1295 2871.3887 1215.6321 2871.3887 1241.291 C 2871.3887 1268.7974 2875.8022 1293.3273 2884.6289 1314.8809 C 2893.4556 1336.4344 2905.4642 1354.7046 2920.6543 1369.6895 C 2936.0497 1384.469 2953.9086 1395.7583 2974.2305 1403.5586 C 2994.7576 1411.3589 3016.6188 1415.2598 3039.8145 1415.2598 C 3050.4886 1415.2598 3060.9571 1413.9244 3071.2207 1411.2559 C 3081.6896 1408.5873 3091.8501 1404.9964 3101.7031 1400.4805 C 3111.5562 1395.7592 3120.896 1390.3183 3129.7227 1384.1602 C 3138.7546 1377.7967 3147.2737 1371.0243 3155.2793 1363.8398 L 3187.918 1409.1016 L 3208.2383 1409.1016 L 3208.2383 1079.9492 L 3187.918 1079.9492 L 3155.2793 1119.0527 C 3147.479 1111.663 3139.0632 1104.7853 3130.0312 1098.4219 C 3121.2047 1092.0585 3111.8648 1086.5162 3102.0117 1081.7949 C 3092.1587 1077.0737 3081.9962 1073.3795 3071.5273 1070.7109 C 3061.0585 1068.0424 3050.4886 1066.709 3039.8145 1066.709 z M 3365.5801 1079.9492 C 3351.0058 1079.9492 3337.3538 1082.7194 3324.627 1088.2617 C 3311.9001 1093.5988 3300.8155 1100.9891 3291.373 1110.4316 C 3281.9306 1119.8741 3274.4388 1130.9587 3268.8965 1143.6855 C 3263.5594 1156.4124 3260.8906 1170.0624 3260.8906 1184.6367 C 3260.8906 1199.211 3263.5594 1212.8611 3268.8965 1225.5879 C 3274.4388 1238.3147 3281.9306 1249.5026 3291.373 1259.1504 C 3300.8155 1268.5929 3311.9001 1276.0846 3324.627 1281.627 C 3337.3538 1287.1693 3351.0058 1289.9414 3365.5801 1289.9414 L 3453.0254 1289.9414 C 3458.773 1289.9414 3463.6993 1290.8654 3467.8047 1292.7129 C 3471.9101 1294.5603 3473.9629 1298.4592 3473.9629 1304.4121 C 3473.9629 1310.1597 3471.9101 1315.086 3467.8047 1319.1914 C 3463.6993 1323.2968 3458.773 1325.3496 3453.0254 1325.3496 L 3260.8906 1325.3496 L 3260.8906 1409.1016 L 3453.0254 1409.1016 C 3467.3944 1409.1016 3480.9431 1406.4328 3493.6699 1401.0957 C 3506.3968 1395.5534 3517.4813 1388.0616 3526.9238 1378.6191 C 3536.3663 1368.9714 3543.8581 1357.8868 3549.4004 1345.3652 C 3554.9427 1332.6384 3557.7129 1318.9864 3557.7129 1304.4121 C 3557.7129 1290.0431 3554.9427 1276.8044 3549.4004 1264.6934 C 3543.8581 1252.5823 3536.3663 1242.2151 3526.9238 1233.5938 C 3517.4813 1224.9723 3506.3968 1218.3013 3493.6699 1213.5801 C 3480.9431 1208.6536 3467.3944 1206.1895 3453.0254 1206.1895 L 3365.5801 1206.1895 C 3359.8325 1206.1895 3354.9062 1204.1367 3350.8008 1200.0312 C 3346.6954 1195.7206 3344.6426 1190.5896 3344.6426 1184.6367 C 3344.6426 1178.8891 3346.6954 1173.9629 3350.8008 1169.8574 C 3354.9062 1165.752 3359.8325 1163.6992 3365.5801 1163.6992 L 3535.8516 1163.6992 L 3535.8516 1079.9492 L 3365.5801 1079.9492 z M 920.17969 1151.6914 C 924.28512 1151.6914 928.18597 1151.8961 931.88086 1152.3066 C 935.78102 1152.7172 939.67992 1153.6412 943.58008 1155.0781 L 845.66602 1285.0137 C 844.02384 1282.1399 842.69042 1278.857 841.66406 1275.1621 C 840.6377 1271.4672 839.71366 1267.6697 838.89258 1263.7695 C 838.27676 1259.6641 837.76406 1255.6599 837.35352 1251.7598 C 837.14824 1247.8596 837.04492 1244.3701 837.04492 1241.291 C 837.04492 1227.5378 839.20102 1215.223 843.51172 1204.3438 C 847.82242 1193.2591 853.67272 1183.8159 861.0625 1176.0156 C 868.65755 1168.2153 877.48271 1162.2617 887.54102 1158.1562 C 897.80459 1153.8456 908.68448 1151.6914 920.17969 1151.6914 z M 2708.5059 1151.6914 C 2712.6113 1151.6914 2716.5121 1151.8961 2720.207 1152.3066 C 2724.1072 1152.7172 2728.0062 1153.6412 2731.9062 1155.0781 L 2633.9922 1285.0137 C 2632.35 1282.1399 2631.0146 1278.857 2629.9883 1275.1621 C 2628.9619 1271.4672 2628.0397 1267.6697 2627.2188 1263.7695 C 2626.6029 1259.6641 2626.0883 1255.6599 2625.6777 1251.7598 C 2625.4725 1247.8596 2625.3711 1244.3701 2625.3711 1241.291 C 2625.3711 1227.5378 2627.5252 1215.223 2631.8359 1204.3438 C 2636.1466 1193.2591 2641.9969 1183.8159 2649.3867 1176.0156 C 2656.9818 1168.2153 2665.8089 1162.2617 2675.8672 1158.1562 C 2686.1308 1153.8456 2697.0107 1151.6914 2708.5059 1151.6914 z M 3039.8145 1151.6914 C 3051.3097 1151.6914 3062.0862 1154.2569 3072.1445 1159.3887 C 3082.4081 1164.3152 3091.3366 1170.9862 3098.9316 1179.4023 C 3106.5267 1187.6132 3112.4803 1197.1577 3116.791 1208.0371 C 3121.307 1218.7112 3123.5645 1229.7958 3123.5645 1241.291 C 3123.5645 1252.7862 3121.307 1263.9741 3116.791 1274.8535 C 3112.4803 1285.5276 3106.5267 1295.0721 3098.9316 1303.4883 C 3091.3366 1311.6991 3082.4081 1318.3721 3072.1445 1323.5039 C 3062.0862 1328.4304 3051.3097 1330.8926 3039.8145 1330.8926 C 3028.3192 1330.8926 3017.4394 1328.9431 3007.1758 1325.043 C 2997.1175 1321.1428 2988.2904 1315.3939 2980.6953 1307.7988 C 2973.3055 1300.2038 2967.4552 1290.864 2963.1445 1279.7793 C 2958.8338 1268.4894 2956.6797 1255.66 2956.6797 1241.291 C 2956.6797 1226.922 2958.8338 1214.196 2963.1445 1203.1113 C 2967.4552 1191.8214 2973.3055 1182.3783 2980.6953 1174.7832 C 2988.2904 1167.1882 2997.1175 1161.4412 3007.1758 1157.541 C 3017.4394 1153.6409 3028.3192 1151.6914 3039.8145 1151.6914 z "
       transform="matrix(0.26458333,0,0,0.26458333,-0.45090438,-218.83437)"
       id="text855-8" />
  </g>
  <g
     inkscape:label="GoldFront"
     inkscape:groupmode="layer"
     id="layer1"
     transform="translate(0.45090438,218.83437)">
    <g
       transform="matrix(2.0095645,0,0,2.0095645,193.63908,-159.26354)"
       id="g5347"
       inkscape:export-xdpi="82.559998"
       inkscape:export-ydpi="82.559998">
      <ellipse
         ry="22.806307"
         rx="22.737059"
         cy="133.36374"
         cx="412.52731"
         id="path895"
         style="opacity:1;fill:#000000;fill-opacity:1;fill-rule:evenodd;stroke:#000000;stroke-width:1.94406629;stroke-linejoin:round;stroke-miterlimit:4;stroke-dasharray:none;stroke-opacity:1;paint-order:markers fill stroke" />
      <ellipse
         style="opacity:1;fill:#f7c45b;fill-opacity:1;fill-rule:evenodd;stroke:#000000;stroke-width:1.63877141;stroke-linejoin:round;stroke-miterlimit:4;stroke-dasharray:none;stroke-opacity:1;paint-order:markers fill stroke"
         id="ellipse899"
         cx="413.15939"
         cy="133.36374"
         rx="19.431147"
         ry="18.962927" />
      <ellipse
         ry="14.693824"
         rx="15.0718"
         cy="133.36374"
         cx="413.15939"
         id="path5195"
         style="opacity:1;fill:#d59b24;fill-opacity:1;fill-rule:evenodd;stroke:#d59b24;stroke-width:1;stroke-linejoin:round;stroke-miterlimit:4;stroke-dasharray:none;stroke-opacity:1;paint-order:markers fill stroke" />
      <g
         transform="matrix(0.27042703,0,0,0.27042703,313.19127,86.51766)"
         id="g5164">
        <path
           inkscape:connector-curvature="0"
           class="cls-1"
           d="m 345.0195,170.13913 c -1.32292,-2.25689 -4.96623,-4.37885 -7.14375,-4.7625 -4.68048,-0.82814 -10.70504,4.49792 -11.90625,11.90625 -0.23813,1.4605 -1.05833,7.08554 2.38125,11.90625 0.87842,1.22767 3.40783,4.7625 7.14375,4.7625 3.65919,0 6.15685,-3.41841 7.14375,-4.7625 4.65931,-6.36587 5.87904,-13.11804 2.38125,-19.05 z"
           id="path22"
           style="stroke-width:0.26458332" />
        <path
           inkscape:connector-curvature="0"
           class="cls-7"
           d="m 340.257,174.90163 c -0.55298,-0.99219 -1.23296,-2.21191 -2.38125,-2.38125 -2.03465,-0.30162 -4.00579,2.91042 -4.7625,4.7625 -0.47096,1.14829 -1.50019,4.27567 0,7.14375 0.37835,0.72496 1.05833,2.01877 2.38125,2.38125 1.89442,0.52917 3.87085,-1.22502 4.7625,-2.38125 2.286,-2.97921 1.30175,-7.17814 0,-9.525 z"
           id="path24"
           style="stroke-width:0.26458332" />
        <path
           inkscape:connector-curvature="0"
           class="cls-1"
           d="m 397.407,162.99538 c 0.31485,-0.48419 3.55071,-5.31019 7.14375,-4.7625 1.76477,0.26459 3.16177,1.76477 4.7625,4.7625 2.99244,5.60652 8.2841,19.44159 2.38125,23.8125 -2.77548,2.05317 -6.99294,1.25148 -9.525,0 -7.81315,-3.86556 -9.32392,-16.84337 -4.7625,-23.8125 z"
           id="path26"
           style="stroke-width:0.26458332" />
        <path
           inkscape:connector-curvature="0"
           class="cls-7"
           d="m 399.78825,170.13913 c 0.17462,-0.39423 0.97367,-2.17487 2.38125,-2.38125 2.05052,-0.30427 4.01637,2.94481 4.7625,4.7625 0.34396,0.83609 1.67217,4.07723 0,7.14375 -0.51065,0.93134 -1.25942,2.30452 -2.38125,2.38125 -2.71198,0.18256 -6.87917,-7.19402 -4.7625,-11.90625 z"
           id="path28"
           style="stroke-width:0.26458332" />
        <path
           inkscape:connector-curvature="0"
           class="cls-8"
           d="m 405.8525,187.56724 a 10.694458,10.694458 0 0 1 2.78871,0 5.5059791,5.5059791 0 0 0 0.70114,-0.41011 c 5.88434,-4.03489 0.61119,-16.80898 -2.38125,-21.98423 -1.5875,-2.76754 -2.98979,-4.14866 -4.74927,-4.39737 -3.57981,-0.50536 -6.80508,3.95287 -7.11994,4.39737 -4.54024,6.43467 -3.03741,18.415 4.74663,21.98423 0.3466,0.15875 0.7276,0.30956 1.12977,0.44715 a 14.099646,14.099646 0 0 0 1.65629,0.23548 1.1033125,1.1033125 0 0 1 0.86254,-0.74877 3.0268333,3.0268333 0 0 1 2.36538,0.47625 z"
           id="path30"
           style="stroke-width:0.26458332" />
        <path
           inkscape:connector-curvature="0"
           class="cls-9"
           d="m 343.5881,188.85311 a 25.325916,25.325916 0 0 1 -1.32291,-8.23648 29.604229,29.604229 0 0 1 2.21191,-11.21833 c -0.40481,-0.26458 -0.79375,-0.54504 -1.18533,-0.83873 -0.26458,-0.1905 -0.51329,-0.40217 -0.762,-0.62706 -2.30981,4.53496 -3.54277,9.42181 -3.48985,14.02291 0.0159,1.45786 0.0635,5.00592 1.5531,8.84767 a 14.086416,14.086416 0 0 1 2.99508,-1.94998 z"
           id="path32"
           style="stroke-width:0.26458332" />
        <path
           inkscape:connector-curvature="0"
           class="cls-1"
           d="m 405.10637,182.01099 c 0,-14.2875 -13.08364,-25.38148 -14.2875,-26.19375 a 35.213395,35.213395 0 0 0 -10.58333,-4.71752 c -0.18521,-0.0423 -0.37306,-0.09 -0.56621,-0.14023 -2.34685,-0.62442 -5.25991,-1.85209 -7.14375,-4.51909 -1.81239,-2.52941 -2.23043,-5.75733 -2.43416,-5.70441 -0.20373,0.0529 0.4445,2.4421 0.20373,5.715 -0.10319,1.36789 -0.24078,3.06387 -0.98161,3.26231 -0.74083,0.19844 -1.85208,-1.34938 -1.99231,-1.56104 -0.92604,-1.34673 -1.05833,-2.75432 -1.18269,-2.74109 -0.12435,0.0132 0.49477,2.26484 -0.60589,3.95552 -0.48419,0.73819 -1.19592,1.2065 -1.905,1.67482 -0.31486,0.20373 -0.61913,0.37835 -0.90753,0.52916 -13.78743,4.51115 -22.33877,18.47057 -22.19854,30.47471 0.0238,2.14313 0.0979,8.81063 4.7625,14.2875 a 17.727083,17.727083 0 0 0 1.75154,1.78065 c 3.80207,3.51631 8.43757,4.63021 12.8323,5.63033 5.11704,1.16152 19.05,2.38125 33.3375,-4.7625 3.46075,-1.73037 11.90625,-7.46919 11.90625,-16.66875 0,-0.0661 0,-0.12964 0,-0.19579 0,-0.0661 -0.005,-0.0635 -0.005,-0.10583 z"
           id="path34"
           style="stroke-width:0.26458332" />
        <path
           inkscape:connector-curvature="0"
           class="cls-10"
           d="m 373.5945,179.66413 c 1.52665,-1.35202 3.60362,-4.63285 6.84742,-6.20183 a 16.949208,16.949208 0 0 1 10.48014,-1.35731 c 0.26459,0.0476 4.00844,1.32291 6.48494,5.17789 3.79942,5.90021 1.64835,14.84842 -4.7625,19.05 -1.39435,0.91281 -2.48444,1.48961 -4.7625,2.38125 -2.27806,0.89165 -12.49098,4.68313 -26.19375,2.38125 -4.83923,-0.81491 -6.31825,-1.75154 -7.14375,-2.38125 -3.70417,-2.83633 -5.10381,-7.80785 -4.7625,-11.90625 0.10319,-1.26471 0.58737,-6.12775 4.7625,-9.525 5.0456,-4.11162 11.18129,-2.57704 11.90625,-2.38125 a 13.49375,13.49375 0 0 1 4.7625,2.38125 z"
           id="path36"
           style="fill:#f7c45b;fill-opacity:1;stroke-width:0.26458332" />
        <path
           inkscape:connector-curvature="0"
           class="cls-11"
           d="m 370.90104,190.91686 c -0.12171,-0.508 0.64294,-1.12977 1.14829,-1.40758 1.42082,-0.77788 3.48457,-0.30427 3.64332,0.40216 0.12435,0.54769 -0.88371,1.29117 -1.72244,1.5875 -1.27529,0.42863 -2.91042,0.0741 -3.06917,-0.58208 z"
           id="path38"
           style="stroke-width:0.26458332" />
        <circle
           cx="379.67462"
           cy="192.63666"
           r="0.26458332"
           id="circle40"
           style="stroke-width:0.26458332" />
        <path
           inkscape:connector-curvature="0"
           class="cls-12"
           d="m 360.8945,186.6994 c -0.6694,0.16404 -0.99748,1.16417 -1.03452,1.83621 -0.0582,1.15623 0.69321,2.57175 1.62719,2.56911 0.79375,0 1.54781,-1.03982 1.5875,-1.99761 0.0476,-1.34144 -1.29646,-2.62996 -2.18017,-2.40771 z"
           id="path42"
           style="stroke-width:0.26458332" />
        <path
           inkscape:connector-curvature="0"
           class="cls-13"
           d="m 340.18027,178.4788 c 20.44965,7.79992 44.52673,3.83117 61.47594,-9.62554"
           id="path44"
           style="stroke:#f7c45b;stroke-width:0.26188925;stroke-miterlimit:4;stroke-dasharray:none;stroke-opacity:1" />
        <path
           inkscape:connector-curvature="0"
           class="cls-14"
           d="m 390.59398,175.82767 c 1.27794,5.55625 0.0476,10.19705 -2.62202,11.44323 -1.34938,0.62971 -2.78342,0.26459 -3.09827,0.17463 -2.62467,-0.74084 -4.55613,-3.70417 -4.7625,-7.51946 l 2.41564,-0.75935 5.62769,-2.19605 z"
           id="path46"
           style="fill:#1d1d1d;fill-opacity:1;stroke-width:0.26458332" />
        <path
           inkscape:connector-curvature="0"
           class="cls-15"
           d="m 390.24473,156.10828 c -3.556,-2.40771 -6.29444,-3.29936 -6.29444,-3.29936 -4.23333,-1.72773 -6.05896,-1.55575 -8.54339,-3.32052 -1.26471,-0.89958 -2.99244,-2.51089 -4.3868,-5.54302 -0.0556,3.54806 0.96838,5.57742 2.08227,6.80773 0.90753,1.00277 9.46944,4.97681 12.85875,7.00617 0.65617,0.39423 3.89467,2.78871 4.13809,3.00302 2.51883,2.19869 11.19187,10.45104 9.89541,21.26721 -1.12712,9.42181 -9.13077,15.27968 -11.90625,16.66875 a 54.400978,54.400978 0 0 1 -25.019,5.64091 54.361291,54.361291 0 0 0 29.55661,-5.36839 c 3.4581,-1.73038 11.90625,-7.47184 11.90625,-16.66875 0,-14.2875 -13.08629,-25.38148 -14.2875,-26.19375 z"
           id="path48"
           style="stroke-width:0.26458332" />
        <path
           class="cls-16"
           d="m 379.15075,195.39367 a 18.123958,18.123958 0 0 1 -2.64583,0.22489 19.460104,19.460104 0 0 1 -3.22792,-0.24077 20.211521,20.211521 0 0 1 -2.71198,-0.52917 18.459979,18.459979 0 0 1 -3.2094,-1.21179 c 0.0926,0.42334 0.20109,0.86519 0.32544,1.32292 q 0.21431,0.76994 0.4445,1.45785 a 14.2875,14.2875 0 0 0 5.6859,1.94998 15.610416,15.610416 0 0 0 6.45054,-0.52916 7.6305832,7.6305832 0 0 1 -0.52917,-0.86519 6.7601041,6.7601041 0 0 1 -0.58208,-1.57956 z"
           id="path50"
           inkscape:connector-curvature="0"
           style="fill:#ffffff;stroke:#000000;stroke-width:0.52916664px;stroke-miterlimit:10" />
        <path
           inkscape:connector-curvature="0"
           class="cls-17"
           d="m 372.37742,195.44653 a 9.7895832,9.7895832 0 0 0 -4.69107,1.51077"
           id="path52"
           style="stroke-width:0.26458332" />
        <path
           d="m 372.37742,196.91497 a 10.485437,10.485437 0 0 1 -2.40771,-0.52917 c -0.38894,-0.14023 -0.75671,-0.3175 -1.13506,-0.47625 l -1.14036,-0.48948 v 0.0212 a 4.9503541,4.9503541 0 0 0 1.03981,0.70908 6.3499999,6.3499999 0 0 0 1.18269,0.43656 9.2604166,9.2604166 0 0 0 2.47386,0.36777 z"
           id="path54"
           inkscape:connector-curvature="0"
           style="stroke-width:0.26458332" />
        <path
           inkscape:connector-curvature="0"
           class="cls-22"
           d="m 355.33825,183.35507 a 19.420416,19.420416 0 0 0 2.21985,0.6059 c 0.37307,0.0794 0.74613,0.14816 1.12448,0.20108 0.37836,0.0529 0.75142,0.10583 1.12713,0.13758 0.75671,0.0661 1.51077,0 2.26219,0.0688 0.75141,0.0688 1.50812,0.0794 2.29922,0.18786 v 0.0794 a 6.8288957,6.8288957 0 0 1 -2.30716,0.52917 9.3609582,9.3609582 0 0 1 -2.3495,-0.23283 14.851062,14.851062 0 0 1 -2.27277,-0.58738 15.671271,15.671271 0 0 1 -2.14313,-0.91546 z"
           id="path74"
           style="stroke-width:0.26458332" />
      </g>
    </g>
    <g
       id="g6060"
       transform="matrix(2.0095645,0,0,2.0095645,0.59638412,-158.02108)"
       inkscape:export-xdpi="82.559998"
       inkscape:export-ydpi="82.559998">
      <path
         style="font-style:normal;font-variant:normal;font-weight:normal;font-stretch:normal;font-size:83.0253067px;line-height:1.25;font-family:Righteous;-inkscape-font-specification:Righteous;font-variant-ligatures:normal;font-variant-caps:normal;font-variant-numeric:normal;font-feature-settings:normal;text-align:start;letter-spacing:0px;word-spacing:0px;writing-mode:lr-tb;text-anchor:start;fill:#f7c45b;fill-opacity:1;stroke:#000000;stroke-width:0.899625;stroke-miterlimit:4;stroke-dasharray:none;stroke-opacity:1"
         d="m 162.40262,96.993565 19.0133,58.133905 h 11.63497 l 11.87764,-34.88146 c -4.72142,3.24959 -8.63188,13.18961 -14.63321,5.87993 l -3.08233,9.66422 c -13.44661,-9.88134 -18.04673,-24.10861 -24.81037,-38.796595 z m 55.25555,16.536455 v 41.59745 h 11.63495 v -33.75444 c -3.05388,-9.89689 -7.07188,-11.27728 -11.63495,-7.84301 z m 22.37796,10.5914 v 31.00605 h 11.63494 v -38.62323 c -3.52486,5.63181 -6.75358,13.85481 -11.63494,7.61718 z"
         id="text855-8-5"
         inkscape:connector-curvature="0"
         sodipodi:nodetypes="ccccccccccccccccc" />
      <path
         style="font-style:normal;font-variant:normal;font-weight:normal;font-stretch:normal;font-size:83.0253067px;line-height:1.25;font-family:Righteous;-inkscape-font-specification:Righteous;font-variant-ligatures:normal;font-variant-caps:normal;font-variant-numeric:normal;font-feature-settings:normal;text-align:start;letter-spacing:0px;word-spacing:0px;writing-mode:lr-tb;text-anchor:start;fill:#f7c45b;fill-opacity:1;stroke:#000000;stroke-width:0.899625;stroke-miterlimit:4;stroke-dasharray:none;stroke-opacity:1"
         d="m 52.99603,130.67234 v 24.59105 h 11.067547 v -24.81038 c 0,-1.13511 0.216112,-2.2024 0.648547,-3.20238 0.432408,-1.02701 1.027112,-1.91907 1.783874,-2.67581 0.756734,-0.75674 1.648803,-1.35145 2.67581,-1.78387 1.02698,-0.43243 2.121376,-0.64854 3.283506,-0.64854 1.135115,0 2.202418,0.21611 3.202384,0.64854 0.999993,0.43242 1.878753,1.02713 2.635515,1.78387 0.756734,0.75674 1.350909,1.6488 1.783344,2.67581 0.432435,0.99998 0.64905,2.06727 0.64905,3.20238 h -0.08112 v 24.81038 h 11.148141 v -24.81038 c 0,-2.67562 -0.51345,-5.1888 -1.54046,-7.5401 -25.879513,-11.23601 -32.894817,6.52193 -37.256138,7.75943 z m -51.398582,-21.83468 17.38621,-0.0491 v 46.47486 h 11.594121 v -33.64778 c -0.349796,-5.31305 0.09193,-11.38922 -5.434068,-15.3795 -8.291718,-5.98739 -23.512658,-5.9053 -23.500554,-8.969192 l -0.04571,11.570702 z m 97.53324,14.92636 c -1.16213,2.83778 -1.74355,5.97275 -1.74355,9.40511 0,3.35128 0.58142,6.43261 1.74355,9.24336 1.162152,2.78373 2.742912,5.18911 4.742872,7.2161 2.02697,2.02698 4.37821,3.60775 7.05384,4.74286 2.70264,1.13511 5.58112,1.70274 8.63513,1.70274 1.81075,0 3.56729,-0.21612 5.26994,-0.64854 1.72971,-0.4054 3.36516,-1.01338 4.90567,-1.82418 1.56752,-0.81079 3.01342,-1.79737 4.33771,-2.95951 1.35133,-1.16214 2.54021,-2.47315 3.56722,-3.93257 l -8.10803,-8.14834 c -0.43243,0.97295 -0.99954,1.86501 -1.70222,2.6758 -0.67567,0.78377 -1.45992,1.4592 -2.3518,2.02675 -0.86485,0.54053 -1.79726,0.95948 -2.79723,1.25677 -0.99999,0.29729 -2.0402,0.44597 -3.12126,0.44597 -0.43244,0 -0.86466,-0.0133 -1.2971,-0.0403 -0.43241,-0.0541 -0.86516,-0.14857 -1.29759,-0.2837 l 20.75637,-25.01346 c -1.027,-1.45943 -2.21591,-2.76992 -3.56724,-3.93206 -7.17333,1.77516 -25.82962,7.64896 -35.026282,8.0672 z m 20.431842,-2.39159 c 0.54051,0 1.05399,0.0271 1.54045,0.0811 0.51351,0.0541 1.02698,0.17565 1.54049,0.36484 l -12.89172,17.10748 c -0.21622,-0.37837 -0.39198,-0.8106 -0.5271,-1.29708 -0.13513,-0.48647 -0.25673,-0.98666 -0.36484,-1.50016 -0.0811,-0.54053 -0.14851,-1.06728 -0.20256,-1.58078 -0.027,-0.51351 -0.0403,-0.97334 -0.0403,-1.37873 0,-1.81078 0.28355,-3.4319 0.85111,-4.86431 0.56756,-1.45942 1.33802,-2.703 2.31097,-3.73 1,-1.02701 2.16181,-1.81075 3.4861,-2.35128 1.35133,-0.56755 2.78392,-0.85111 4.29742,-0.85111 z"
         id="text855-8-7"
         inkscape:connector-curvature="0"
         sodipodi:nodetypes="cccscccscccccccsccsccccsscsccccsccccccccsccccccccsccscccsccc" />
      <path
         inkscape:connector-curvature="0"
         style="font-style:normal;font-variant:normal;font-weight:normal;font-stretch:normal;font-size:83.0253067px;line-height:1.25;font-family:Righteous;-inkscape-font-specification:Righteous;font-variant-ligatures:normal;font-variant-caps:normal;font-variant-numeric:normal;font-feature-settings:normal;text-align:start;letter-spacing:0px;word-spacing:0px;writing-mode:lr-tb;text-anchor:start;fill:#f7c45b;fill-opacity:1;stroke:#000000;stroke-width:0.899625;stroke-miterlimit:4;stroke-dasharray:none;stroke-opacity:1"
         d="m 283.61703,107.78743 c -0.9189,2.10807 -1.37875,4.36478 -1.37875,6.77013 0,2.40536 0.45985,4.67587 1.37875,6.81096 0.91889,2.10806 2.16193,3.9591 3.72948,5.55367 1.59457,1.56753 3.44559,2.8111 5.55366,3.73 2.10807,0.9189 4.36478,1.37821 6.77013,1.37821 h 11.63495 c 0.81079,0 1.56747,0.14868 2.27015,0.44597 0.70268,0.29729 1.31119,0.71624 1.8247,1.25677 0.54052,0.5135 0.95948,1.12149 1.25677,1.82418 0.29728,0.70268 0.44595,1.45935 0.44595,2.27014 0,0.8108 -0.14867,1.56746 -0.44595,2.27015 -0.29729,0.70269 -0.71625,1.32447 -1.25677,1.865 -0.51351,0.5135 -1.12202,0.91865 -1.8247,1.21595 -0.70268,0.29729 -1.45936,0.44596 -2.27015,0.44596 h -25.82373 v 11.63495 h 25.82373 c 2.40535,0 4.66206,-0.45931 6.77013,-1.37821 2.13508,-0.9189 3.98663,-2.16195 5.55419,-3.72949 1.59456,-1.59456 2.8376,-3.44611 3.72948,-5.55418 0.9189,-2.10806 1.37822,-4.36477 1.37822,-6.77013 0,-2.40535 -0.45932,-4.66206 -1.37822,-6.77013 -15.00066,-4.99669 -31.92076,2.62002 -43.74202,-23.2699 z m 62.83647,46.58011 c 2.70264,1.13511 5.58062,1.70274 8.6346,1.70274 1.81078,0 3.56783,-0.21612 5.2705,-0.64854 1.72969,-0.4054 3.3646,-1.01339 4.90511,-1.82418 3.20979,-1.72405 5.95086,-4.14189 7.90546,-6.89209 -6.5156,3.69997 -26.99065,4.51844 -39.35939,-5.84632 -0.42635,-0.35727 1.21609,3.72027 4.07946,7.39785 2.66184,3.41874 7.87398,6.46942 8.56426,6.11054 z m 106.6596,-14.79703 c 0.7568,0 1.4056,0.12159 1.9462,0.36483 0.5405,0.24324 0.8108,0.75671 0.8108,1.54048 0,0.75674 -0.2703,1.4056 -0.8108,1.94613 -0.5406,0.54053 -1.1894,0.81081 -1.9462,0.81081 h -25.2966 v 11.02671 h 25.2966 c 1.8919,0 3.676,-0.35151 5.3516,-1.0542 1.6757,-0.72971 3.1349,-1.71577 4.3781,-2.95899 1.2432,-1.27024 2.2298,-2.72993 2.9595,-4.37854 0.7297,-1.67564 1.0945,-3.47304 1.0945,-5.39192 0,-1.89185 -0.3648,-3.63458 -1.0945,-5.22914 -0.7297,-1.59456 -1.7163,-2.95973 -2.9595,-4.09484 -0.89717,4.50614 -5.10765,6.14076 -9.7297,7.41867 z"
         id="path5413"
         sodipodi:nodetypes="csccssssccscccsccscccscccscccsscccscsccscccsscc" />
    </g>
    <ellipse
       style="opacity:1;fill:#000000;fill-opacity:1;fill-rule:evenodd;stroke:none;stroke-width:2.00956464;stroke-linejoin:round;stroke-miterlimit:4;stroke-dasharray:none;stroke-opacity:1;paint-order:markers fill stroke"
       id="path5493"
       cx="801.24017"
       cy="108.21783"
       rx="25.635405"
       ry="30.19281"
       inkscape:export-xdpi="82.559998"
       inkscape:export-ydpi="82.559998" />
    <ellipse
       style="opacity:1;fill:#f7c45b;fill-opacity:1;fill-rule:evenodd;stroke:none;stroke-width:2.00956464;stroke-linejoin:round;stroke-miterlimit:4;stroke-dasharray:none;stroke-opacity:1;paint-order:markers fill stroke"
       id="path6041"
       cx="779.78241"
       cy="93.406258"
       rx="4.557405"
       ry="5.1270809"
       inkscape:export-xdpi="82.559998"
       inkscape:export-ydpi="82.559998" />
    <path
       style="fill:#f7c45b;fill-opacity:1;stroke:#000000;stroke-width:0.53169727px;stroke-linecap:butt;stroke-linejoin:miter;stroke-opacity:1"
       d="m 767.24946,138.41062 c 0,0 21.15249,-1.67518 22.30504,-5.97659 1.15255,-4.30143 7.25685,-0.0981 2.62029,4.53852 -4.63657,4.63657 -14.86103,11.50234 -24.92533,1.43807 z"
       id="path6043"
       inkscape:connector-curvature="0"
       inkscape:export-xdpi="82.559998"
       inkscape:export-ydpi="82.559998" />
    <path
       inkscape:connector-curvature="0"
       style="font-style:normal;font-variant:normal;font-weight:normal;font-stretch:normal;font-size:129.06729126px;line-height:1.25;font-family:'Monotype Corsiva';-inkscape-font-specification:'Monotype Corsiva';font-variant-ligatures:normal;font-variant-caps:normal;font-variant-numeric:normal;font-feature-settings:normal;text-align:start;letter-spacing:0px;word-spacing:0px;writing-mode:lr-tb;text-anchor:start;fill:#000000;fill-opacity:1;stroke:#000000;stroke-width:2.65848637;stroke-miterlimit:4;stroke-dasharray:none;stroke-opacity:1"
       d="m 680.46461,-217.50471 c -2.27965,0 -4.22168,0.80197 -5.82586,2.40614 -1.5197,1.60417 -2.27944,3.673 -2.27944,6.2059 0,1.35088 0.16908,2.61671 0.50681,3.79873 0.25325,0.8443 1.47685,3.46152 3.67201,7.85188 4.13708,8.61186 6.20592,17.73038 6.20592,27.35541 0,13.84652 -2.6595,28.74891 -7.9786,44.70618 -5.3191,15.87285 -12.19974,29.508371 -20.64272,40.906423 -8.3586,11.398053 -17.4771,19.882628 -27.3554,25.455007 -7.42983,4.221501 -15.36706,6.3326 -23.81009,6.3326 -8.94958,0 -16.42084,-3.419186 -22.4154,-10.25802 -5.91008,-6.838834 -8.86542,-16.422251 -8.86542,-28.749036 0,-11.060334 2.91307,-24.822644 8.73871,-41.286504 8.27417,-23.21826 16.67525,-42.34076 25.20267,-57.3693 -2.11073,0.42215 -7.89459,0.88601 -17.35077,1.39259 -13.84652,0.75987 -22.96502,1.6041 -27.3554,2.53283 -8.86515,1.85746 -16.33746,4.77052 -22.41647,8.73873 -5.99451,3.96822 -10.89084,9.24492 -14.69019,15.83046 -3.79934,6.50111 -5.69913,13.00242 -5.69913,19.50353 0,4.05264 1.01329,7.34504 3.03961,9.87794 2.11075,2.5329 4.55892,3.79976 7.34511,3.79976 2.27961,0 4.17939,-0.80197 5.69913,-2.40614 1.51975,-1.60417 2.27944,-3.63074 2.27944,-6.07921 0,-1.94189 -1.01331,-4.64363 -3.03961,-8.10526 -1.94189,-3.03949 -2.9129,-5.44539 -2.9129,-7.21842 0,-4.30593 1.81525,-8.65491 5.44575,-13.04527 3.71492,-4.39036 9.75133,-7.97861 18.10988,-10.7648 8.3586,-2.87062 17.8152,-4.17871 28.36897,-3.92542 -13.50883,29.04393 -22.41604,50.86922 -26.72194,65.47561 -3.2928,11.14477 -4.93898,22.036278 -4.93898,32.674461 0,12.917798 3.54599,23.809308 10.63809,32.674461 7.09215,8.78072 17.26623,13.170929 30.52171,13.170929 16.29503,0 31.82926,-5.48802 46.60454,-16.463921 14.85966,-10.975907 27.94681,-29.255212 39.26042,-54.83751 11.31361,-25.5823 16.97071,-51.29063 16.97071,-77.12622 0,-12.0735 -1.64725,-20.98174 -4.94,-26.72298 -2.27965,-4.22151 -5.40294,-6.33156 -9.37116,-6.33156 z m -195.79338,0.50573 c -4.64366,0 -10.04715,1.09781 -16.21054,3.293 -6.07896,2.11075 -11.7783,5.19286 -17.09739,9.2455 -5.23467,4.05265 -9.62487,8.65417 -13.17093,13.8044 -3.46163,5.15023 -6.45922,11.6938 -8.99213,19.63022 -2.44847,7.93643 -7.6829,29.00097 -15.70375,63.19513 l -16.59062,69.021995 h 18.87006 l 12.28512,-54.584127 c 4.55921,3.799354 8.14745,7.641176 10.76479,11.524953 3.3772,4.981371 7.17676,12.452658 11.39826,22.415405 9.03401,21.023076 15.36626,34.49058 18.99675,40.400682 6.33225,10.2160315 13.12836,17.6450547 20.38934,22.2887072 7.26098,4.6436526 15.49301,6.9660638 24.69589,6.9660638 8.94958,5e-6 16.21059,-2.3646758 21.78299,-7.0927566 5.57235,-4.7280808 8.35866,-10.1315712 8.35866,-16.2105354 0,-3.123913 -0.84423,-5.656605 -2.53285,-7.598496 -1.68862,-1.857458 -3.71518,-2.786216 -6.07921,-2.786216 -2.02633,0 -3.79931,0.759705 -5.31905,2.279445 -1.51974,1.519739 -2.27945,3.250467 -2.27945,5.192353 0,1.519745 0.4649,3.377256 1.39363,5.572437 0.8443,2.0263252 1.26589,3.6312959 1.26589,4.8133175 0,1.8574578 -1.35035,3.6727095 -4.05211,5.44574442 -2.70176,1.85745778 -6.12199,2.78621598 -10.25905,2.78621598 -7.09213,0 -13.59344,-2.78627447 -19.50353,-8.3586533 -5.99454,-5.5723836 -12.4948,-16.8020006 -19.50249,-33.6880096 -5.91011,-14.184242 -10.76521,-24.273788 -14.56456,-30.268318 -3.71492,-6.078964 -7.51448,-10.807279 -11.39826,-14.184482 -3.88379,-3.461631 -9.07596,-6.627234 -15.57708,-9.497857 19.25005,-0.50658 33.56075,-4.306137 42.93249,-11.398258 9.37173,-7.09212 14.05778,-15.1551 14.05778,-24.18911 0,-4.81251 -1.47715,-8.78113 -4.4322,-11.90504 -2.87061,-3.20834 -6.41659,-4.81227 -10.6381,-4.81227 -5.99453,0 -12.28555,1.85751 -18.8711,5.57243 -8.69629,4.98138 -17.09633,12.07333 -25.20161,21.2762 l 8.99108,-40.52634 c 3.29277,-15.02854 5.8265,-24.90677 7.59953,-29.63485 1.85747,-4.81251 3.92526,-8.14717 6.20487,-10.00463 2.36404,-1.85746 4.8555,-2.78622 7.47284,-2.78622 1.85746,0 4.00978,0.25358 6.45825,0.76016 7.51427,1.26645 13.12908,1.89936 16.844,1.89936 2.95505,0 5.40322,-0.84423 7.34511,-2.53283 1.94189,-1.6886 2.91291,-3.71517 2.91291,-6.07921 0,-2.78619 -1.09781,-5.02303 -3.29299,-6.71164 -2.11075,-1.6886 -5.36088,-2.53387 -9.75124,-2.53387 z m 376.00967,7.09276 c -2.11079,0 -3.926,0.75971 -5.44575,2.27945 -1.51975,1.51974 -2.2805,3.41952 -2.2805,5.69913 0,0.50658 0.12681,1.56212 0.38011,3.1663 0.2533,1.77303 0.38005,2.95433 0.38005,3.54534 0,2.95505 -1.09779,5.31972 -3.29296,7.09275 -2.19521,1.77303 -5.95251,2.65953 -11.27161,2.65953 -5.31904,0 -13.88814,-0.7597 -25.70836,-2.27945 -16.63271,-2.19518 -28.74881,-3.29299 -36.34757,-3.29299 -15.95724,0 -29.50824,2.65949 -40.65298,7.97858 -11.1448,5.31909 -19.9252,12.83368 -26.34188,22.54313 -6.33225,9.70945 -9.49787,19.71447 -9.49787,30.01493 0,7.68314 1.60392,14.01539 4.81229,18.99676 2.19516,3.3772 5.06595,5.06566 8.61206,5.06566 2.36403,0 4.38953,-0.80197 6.07815,-2.40614 1.68861,-1.60417 2.53284,-3.54621 2.53284,-5.82582 0,-2.61733 -1.43489,-5.48813 -4.30552,-8.61204 -3.03945,-3.3772 -4.89699,-5.82537 -5.57246,-7.34511 -0.92871,-2.19518 -1.39256,-4.60212 -1.39256,-7.21945 0,-7.42984 2.27912,-14.35274 6.83831,-20.76943 4.64369,-6.41668 11.52433,-11.31405 20.64278,-14.69125 9.20283,-3.3772 21.61482,-5.06566 37.23439,-5.06566 2.5329,0 6.29019,0.0845 11.27155,0.25339 l -0.88687,3.1663 -16.21054,67.12158 c -7.00767,28.030772 -11.5247,44.410302 -13.551,49.138383 -1.94192,4.643653 -4.30659,7.937087 -7.09279,9.878978 -3.88378,2.701761 -10.08922,4.474748 -18.61663,5.319052 l -1.77268,6.965026 c 8.94958,-1.519739 17.64549,-2.279444 26.08847,-2.279444 4.89693,0 10.42722,0.253577 16.5906,0.760157 8.18973,0.759875 14.05813,1.139204 17.60418,1.139204 3.71491,0 8.48445,-0.632912 14.31015,-1.899361 l 1.77369,-7.218413 c -6.16338,1.435306 -12.07405,2.152747 -17.73088,2.152747 -3.71492,0 -8.39991,-0.338107 -14.05675,-1.013548 l 6.96502,-30.521704 6.71268,-26.721947 11.0172,-43.81933 c 4.47476,-17.56144 7.13527,-27.86127 7.9796,-30.90075 6.50112,0.50658 12.62202,0.75912 18.36328,0.75912 16.04168,0 27.48157,-2.32137 34.32042,-6.96502 6.83885,-4.64365 10.25804,-10.17394 10.25804,-16.59062 0,-3.12391 -0.84423,-5.61434 -2.53285,-7.4718 -1.60418,-1.85746 -3.67195,-2.78622 -6.20485,-2.78622 z m -653.10911,5.82583 c -8.61186,0 -16.42126,2.15232 -23.42895,6.45825 -6.92326,4.30593 -13.17098,11.3144 -18.74336,21.02385 -5.57239,9.62502 -12.03143,26.67973 -19.37684,51.16444 -12.83336,1.60417 -30.39523,2.40613 -52.684757,2.40613 7.683127,-31.23911 14.649337,-53.02213 20.897157,-65.34891 -23.218261,0 -38.711297,0.88649 -46.478862,2.65952 -13.508803,3.12391 -23.809664,8.44288 -30.901786,15.95715 -7.092122,7.51427 -10.6381,16.16894 -10.6381,25.96282 0,5.40352 1.055549,9.54015 3.166299,12.41077 2.110751,2.78619 4.643443,4.17881 7.598494,4.17881 2.364041,0 4.306083,-0.75971 5.825824,-2.27945 1.60417,-1.60417 2.406138,-3.63074 2.406138,-6.07921 0,-2.11075 -1.013285,-4.85372 -3.039606,-8.23092 -2.27961,-3.63049 -3.419686,-6.62808 -3.419686,-8.99212 0,-7.00769 4.222193,-13.29768 12.665196,-18.87006 8.527434,-5.57238 21.234196,-8.35866 38.120199,-8.35866 l -12.411808,46.35217 c -11.144763,41.961719 -19.629333,68.261742 -25.455005,78.899925 -5.741241,10.638183 -11.905476,15.95715 -18.491018,15.95715 -1.60417,0 -3.081315,-0.380371 -4.432195,-1.140241 -1.266451,-0.844303 -2.954912,-2.659555 -5.065663,-5.445745 -3.461631,-4.643652 -6.838554,-6.965026 -10.131325,-6.965026 -2.026321,0 -3.757046,0.759705 -5.1923564,2.279444 -1.4353105,1.435312 -2.1537894,3.208299 -2.1537894,5.319047 0,3.546064 1.815252,6.501392 5.4457428,8.86543 4.981372,3.377202 10.976553,5.065665 17.984245,5.065665 7.176553,0 14.647839,-2.574956 22.415402,-7.725189 7.851991,-5.065804 14.818193,-13.001986 20.897157,-23.809031 6.078964,-10.80704 11.988577,-27.482417 17.729817,-50.025239 6.332254,-0.59101 12.495446,-1.0559 18.489976,-1.39362 l 34.19478,-1.2659 -9.75227,37.993506 c -4.39037,17.308155 -8.31568,30.816887 -11.77731,40.526343 3.88378,-1.182021 7.64108,-1.772673 11.27157,-1.772673 4.55922,0 10.04724,0.294805 16.46392,0.885818 5.99453,0.591008 10.80633,0.886855 14.43683,0.886855 2.27961,0 5.57305,-0.253582 9.87897,-0.760162 l 1.64598,-7.218412 c -4.39036,0.844298 -8.31671,1.265896 -11.77834,1.265896 -2.95505,0 -6.8381,-0.421598 -11.65061,-1.265896 -2.61733,-0.422152 -4.6439,-0.717994 -6.07921,-0.886856 14.43754,-67.459589 27.1443,-111.658549 38.1202,-132.597199 6.1634,-11.73577 12.41112,-17.60313 18.74337,-17.60313 2.95505,0 6.33198,2.11006 10.13133,6.33156 3.71492,4.2215 7.04958,6.3326 10.00463,6.3326 2.27961,0 4.13713,-0.67518 5.57243,-2.02606 1.43531,-1.35088 2.1538,-3.0816 2.1538,-5.19235 0,-3.63049 -2.02657,-6.8394 -6.07922,-9.62559 -3.96821,-2.87062 -9.66755,-4.3055 -17.09739,-4.3055 z m 720.86414,12.79085 c -18.91231,0 -36.09379,4.01087 -51.54448,12.03172 -15.4507,8.02086 -27.52459,18.82784 -36.22087,32.42108 -8.61185,13.5088 -12.91753,27.52365 -12.91753,42.04562 0,8.696289 2.87079,17.181901 8.61206,25.456041 4.22146,5.910103 8.56942,8.86543 13.04423,8.86543 2.0263,0 3.7993,-0.760742 5.31905,-2.280481 1.60413,-1.604168 2.40614,-3.419425 2.40614,-5.445745 0,-1.604168 -0.42264,-2.954525 -1.26698,-4.052113 -0.75985,-1.097593 -2.49058,-2.406722 -5.19234,-3.926462 -9.45613,-5.065798 -14.18446,-13.001986 -14.18446,-23.80903 0,-11.06033 3.84183,-22.4157 11.52496,-34.06705 7.76757,-11.73577 18.2797,-21.15014 31.53523,-28.24226 13.25553,-7.09212 27.35492,-10.6381 42.29902,-10.6381 17.7303,0 32.08325,5.7416 43.05918,17.22408 10.97588,11.39806 16.4639,26.51072 16.4639,45.33862 0,14.3531 -3.2501,27.481466 -9.75122,39.386099 -6.41668,11.904633 -15.1136,20.980891 -26.08953,27.228717 -10.97588,6.163392 -23.85067,9.245509 -38.62595,9.245509 -5.57235,0 -11.98913,-0.717441 -19.2501,-2.152752 7.51427,-13.002226 14.2681,-32.252555 20.26261,-57.750423 l 8.35866,-35.33398 c 2.7862,-11.90464 5.9951,-22.54257 9.62558,-31.9143 -12.49563,2.95505 -23.34486,4.81256 -32.54774,5.57243 l -1.26693,5.44575 c 1.77305,-0.25329 2.95538,-0.38008 3.54636,-0.38008 1.51975,0 2.70103,0.42159 3.54536,1.26589 0.84428,0.75987 1.26693,1.81542 1.26693,3.1663 0,1.43531 -0.25357,3.16604 -0.76017,5.19236 l -10.13133,41.2865 -8.73871,33.054536 c -4.22152,13.002226 -7.55616,21.445573 -10.00463,25.329356 -1.35088,2.195176 -2.99707,3.756851 -4.93899,4.685582 -1.85748,0.928727 -6.6703,1.603908 -14.43786,2.026054 l -2.91291,6.205907 c 7.76757,-0.25329 13.55142,-0.380084 17.35077,-0.380084 8.18974,0 16.84332,0.338112 25.96177,1.013548 10.80707,0.844303 18.40619,1.265897 22.79652,1.265897 13.59327,0 27.18653,-3.08108 40.77975,-9.244472 13.67764,-6.24782 25.32888,-16.675473 34.95388,-31.281867 9.62505,-14.690822 14.43684,-30.774507 14.43684,-48.251527 0,-18.8279 -6.92289,-34.44772 -20.76941,-46.85894 -13.76213,-12.49564 -32.29396,-18.74336 -55.59666,-18.74336 z m -634.6191,42.04666 -8.35866,1.77267 -3.03856,4.93897 c -2.7862,-0.33772 -5.53021,-0.50678 -8.23197,-0.50678 -10.72261,0 -19.50406,1.60394 -26.3429,4.81228 -8.86515,4.2215 -17.30745,10.80733 -25.32831,19.75691 -8.02085,8.94959 -14.43763,18.912342 -19.25014,29.888243 -4.72808,10.975906 -7.09276,20.938658 -7.09276,29.88824 0,7.514276 1.77299,13.592942 5.31905,18.236594 2.61733,3.461631 6.37463,5.193396 11.27157,5.193396 5.15023,0 10.80731,-1.94204 16.9707,-5.825823 10.04717,-6.24782 18.7008,-13.72015 25.96178,-22.416442 l -5.06566,17.224083 c -0.67545,2.195182 -1.01252,3.925909 -1.01252,5.192359 0,1.941891 0.54839,3.419031 1.64598,4.432197 1.09759,1.013159 2.74379,1.519282 4.93897,1.519282 3.03948,0 6.16386,-0.590652 9.3722,-1.772673 4.89695,-1.77303 10.04685,-4.51704 15.45038,-8.231961 2.70176,-1.857458 8.86495,-7.176424 18.48998,-15.957149 l -4.05212,-4.938968 c -4.81251,4.643652 -9.83667,8.527738 -15.07133,11.651646 -2.95505,1.773029 -5.10737,2.659528 -6.45825,2.659528 -2.11075,0 -3.1663,-1.309129 -3.1663,-3.926462 0,-2.617333 0.92876,-8.443459 2.78622,-17.477469 3.3772,-16.632719 6.96544,-31.322751 10.76479,-44.071681 z m 77.76072,3.92542 c -9.96274,0 -18.91221,2.91306 -26.84863,8.73873 -10.1316,7.51428 -18.744,18.32126 -25.83613,32.42108 -7.09212,14.099811 -10.6381,27.81986 -10.6381,41.159805 0,8.02085 1.6462,14.647909 4.93897,19.882569 3.3772,5.234661 8.73844,7.852919 16.08384,7.852919 13.84653,0 30.81775,-7.89496 50.9121,-23.683376 l -2.65953,-7.345105 c -13.67766,11.566915 -25.45567,17.350776 -35.33398,17.350776 -4.13707,0 -7.34598,-1.6895 -9.62559,-5.066703 -3.12391,-4.390357 -4.68559,-10.595817 -4.68559,-18.616672 0,-10.891473 1.85752,-21.740719 5.57244,-32.547763 3.71492,-10.80705 7.59797,-18.06805 11.65061,-21.78297 4.13707,-3.79936 8.27474,-5.69913 12.41181,-5.69913 3.20834,0 7.21818,1.43591 12.03069,4.30654 4.64365,2.70176 8.44321,4.05211 11.39826,4.05211 3.03948,0 5.40416,-0.80197 7.09276,-2.40614 1.6886,-1.6886 2.53283,-3.84092 2.53283,-6.45825 0,-3.3772 -1.60498,-6.248 -4.81332,-8.61204 -3.20834,-2.36404 -7.93561,-3.54638 -14.18344,-3.54638 z m 670.83895,1.14024 c -3.7994,0 -6.8393,1.47714 -9.1189,4.4322 -3.1238,3.96821 -4.6855,8.56973 -4.6855,13.80439 0,3.63049 1.0967,6.62808 3.2919,8.99213 2.2797,2.27961 5.0659,3.41864 8.3587,3.41864 3.9682,0 7.2616,-1.5194 9.879,-4.55889 2.6173,-3.12391 3.9254,-7.47185 3.9254,-13.04423 0,-3.79935 -1.139,-6.92373 -3.4187,-9.37221 -2.1952,-2.44847 -4.9391,-3.67203 -8.2319,-3.67203 z m -574.96936,10.00463 c 2.44847,0 4.5173,0.97102 6.2059,2.91291 1.77303,1.94189 2.65953,4.51685 2.65953,7.72519 0,4.47479 -1.51941,8.61142 -4.55889,12.41077 -2.95505,3.79935 -7.97921,6.8392 -15.07133,9.11882 -7.00769,2.279608 -16.2097,3.37742 -27.60776,3.292992 l 1.89936,-8.865432 c 16.37943,-17.73031 28.53677,-26.59525 36.47319,-26.59525 z m -209.21768,4.68558 c 3.12391,0 6.96573,0.4649 11.52495,1.39363 L 259.243,-88.580587 c -3.1239,11.820204 -8.02023,20.896463 -14.69021,27.228717 -6.66997,6.24782 -12.91873,9.372201 -18.7444,9.372201 -3.12392,0 -5.65661,-1.266864 -7.5985,-3.799764 -1.94189,-2.532899 -2.91291,-6.669531 -2.91291,-12.410771 0,-10.807045 2.40694,-21.614026 7.21945,-32.421066 4.89694,-10.89148 10.17364,-18.40607 15.83046,-22.54314 5.65681,-4.2215 12.28386,-6.3326 19.88257,-6.3326 z m 766.07604,63.322865 c -3.7993,0 -6.8381,1.477145 -9.1177,4.432196 -3.124,3.968211 -4.6867,8.611997 -4.6867,13.931091 0,3.630493 1.0979,6.62808 3.293,8.992123 2.2796,2.279609 5.0659,3.419685 8.3587,3.419685 3.9682,0 7.2606,-1.562711 9.8779,-4.686624 2.6173,-3.123908 3.9265,-7.429587 3.9265,-12.917543 0,-3.799349 -1.1401,-6.922693 -3.4197,-9.371164 -2.1952,-2.5329 -4.9392,-3.799764 -8.232,-3.799764 z"
       id="text6047" />
    <path
       style="font-style:normal;font-variant:normal;font-weight:normal;font-stretch:normal;font-size:259.36904907px;line-height:1.25;font-family:'Monotype Corsiva';-inkscape-font-specification:'Monotype Corsiva';font-variant-ligatures:normal;font-variant-caps:normal;font-variant-numeric:normal;font-feature-settings:normal;text-align:start;letter-spacing:0px;word-spacing:0px;writing-mode:lr-tb;text-anchor:start;fill:#f7c45b;fill-opacity:1;stroke:#000000;stroke-width:10.04782295;stroke-miterlimit:4;stroke-dasharray:none;stroke-opacity:1"
       d="M 2553.4023 5.0234375 C 2544.7865 5.0234375 2537.4458 8.0561332 2531.3828 14.119141 C 2525.6389 20.182147 2522.7676 27.999097 2522.7676 37.572266 C 2522.7676 42.677956 2523.4052 47.464162 2524.6816 51.931641 C 2525.639 55.122697 2530.2658 65.015883 2538.5625 81.609375 C 2554.1987 114.15815 2562.0176 148.62196 2562.0176 185 C 2562.0176 237.33332 2551.965 293.65583 2531.8613 353.9668 C 2511.7577 413.95865 2485.7504 465.49301 2453.8398 508.57227 C 2422.2484 551.65152 2387.7865 583.72223 2350.4512 604.7832 C 2322.3699 620.73848 2292.3735 628.7168 2260.4629 628.7168 C 2226.6377 628.7168 2198.3967 615.79287 2175.7402 589.94531 C 2153.4028 564.09776 2142.2344 527.87848 2142.2344 481.28906 C 2142.2344 439.48623 2153.2434 387.47169 2175.2617 325.24609 C 2206.5341 237.49205 2238.284 165.21486 2270.5137 108.41406 C 2262.536 110.00959 2240.6773 111.76505 2204.9375 113.67969 C 2152.6042 116.55164 2118.1423 119.74179 2101.5488 123.25195 C 2068.0427 130.27228 2039.8018 141.28133 2016.8262 156.2793 C 1994.1697 171.27726 1975.6605 191.22109 1961.3008 216.11133 C 1946.941 240.68246 1939.7617 265.25504 1939.7617 289.82617 C 1939.7617 305.14324 1943.5915 317.58699 1951.25 327.16016 C 1959.2276 336.73332 1968.4812 341.52148 1979.0117 341.52148 C 1987.6276 341.52148 1994.8069 338.48879 2000.5508 332.42578 C 2006.2947 326.36277 2009.166 318.70523 2009.166 309.45117 C 2009.166 302.11174 2005.3382 291.89974 1997.6797 278.81641 C 1990.3403 267.3286 1986.6699 258.23442 1986.6699 251.5332 C 1986.6699 235.25882 1993.5304 218.82396 2007.252 202.23047 C 2021.2926 185.63698 2044.1097 172.07541 2075.7012 161.54492 C 2107.2926 150.69533 2143.0317 145.74971 2182.9199 146.70703 C 2131.863 256.47937 2098.1982 338.96856 2081.9238 394.17383 C 2069.4787 436.29577 2063.2559 477.46066 2063.2559 517.66797 C 2063.2559 566.49113 2076.658 607.65407 2103.4629 641.16016 C 2130.2678 674.34714 2168.7188 690.94141 2218.8184 690.94141 C 2280.4057 690.94141 2339.1214 670.20053 2394.9648 628.7168 C 2451.1274 587.23307 2500.5895 518.14603 2543.3496 421.45703 C 2586.1098 324.76803 2607.4902 227.59945 2607.4902 129.95312 C 2607.4902 84.321033 2601.2674 50.656214 2588.8223 28.957031 C 2580.2064 13.00175 2568.4003 5.0234375 2553.4023 5.0234375 z M 1813.3945 6.9394531 C 1795.8437 6.9394531 1775.4217 11.086068 1752.127 19.382812 C 1729.1513 27.360453 1707.6115 39.009102 1687.5078 54.326172 C 1667.7233 69.643242 1651.131 87.034557 1637.7285 106.5 C 1624.6452 125.96544 1613.3154 150.69548 1603.7422 180.69141 C 1594.4881 210.68733 1574.7037 290.30519 1544.3887 419.54297 L 1481.6855 680.41016 L 1553.0059 680.41016 L 1599.4355 474.10938 C 1616.6673 488.46911 1630.2288 502.98911 1640.1211 517.66797 C 1652.8853 536.4952 1667.2459 564.73421 1683.2012 602.38867 C 1717.3455 681.84597 1741.2785 732.74464 1755 755.08203 C 1778.9329 793.69381 1804.6194 821.77536 1832.0625 839.32617 C 1859.5056 856.87698 1890.6198 865.65234 1925.4023 865.65234 C 1959.2275 865.65234 1986.6695 856.71757 2007.7305 838.84766 C 2028.7914 820.97774 2039.3223 800.55373 2039.3223 777.57812 C 2039.3223 765.77124 2036.1321 756.19878 2029.75 748.85938 C 2023.3679 741.83905 2015.7084 738.32813 2006.7734 738.32812 C 1999.1149 738.32812 1992.4138 741.20141 1986.6699 746.94531 C 1980.926 752.68921 1978.0547 759.23088 1978.0547 766.57031 C 1978.0547 772.31421 1979.8082 779.33411 1983.3184 787.63086 C 1986.5094 795.28939 1988.1055 801.35283 1988.1055 805.82031 C 1988.1055 812.84064 1983.0004 819.70113 1972.7891 826.40234 C 1962.5777 833.42267 1949.6538 836.93164 1934.0176 836.93164 C 1907.2127 836.93164 1882.6421 826.40277 1860.3047 805.3418 C 1837.6482 784.28083 1813.0756 741.8387 1786.5898 678.01758 C 1764.2525 624.40783 1745.9047 586.27564 1731.5449 563.61914 C 1717.5043 540.64354 1703.1437 522.77204 1688.4648 510.00781 C 1673.786 496.92448 1654.161 484.95895 1629.5898 474.10938 C 1702.3459 472.19474 1756.4347 457.83417 1791.8555 431.0293 C 1827.2762 404.22442 1844.9863 373.74977 1844.9863 339.60547 C 1844.9863 321.41645 1839.4031 306.41824 1828.2344 294.61133 C 1817.3848 282.48531 1803.9826 276.42383 1788.0273 276.42383 C 1765.3708 276.42383 1741.5973 283.44373 1716.707 297.48438 C 1683.8392 316.31159 1652.0873 343.11592 1621.4531 377.89844 L 1655.4375 224.72852 C 1667.8826 167.92772 1677.457 130.59257 1684.1582 112.72266 C 1691.1785 94.533628 1698.9955 81.928527 1707.6113 74.908203 C 1716.5463 67.887879 1725.9612 64.376953 1735.8535 64.376953 C 1742.8738 64.376953 1751.0096 65.335366 1760.2637 67.25 C 1788.6641 72.036584 1809.8851 74.429688 1823.9258 74.429688 C 1835.0945 74.429688 1844.3481 71.237581 1851.6875 64.855469 C 1859.0269 58.473356 1862.6973 50.815817 1862.6973 41.880859 C 1862.6973 31.350376 1858.5487 22.893831 1850.252 16.511719 C 1842.2743 10.129606 1829.988 6.9394531 1813.3945 6.9394531 z M 3234.5312 33.744141 C 3226.5538 33.744141 3219.6931 36.615474 3213.9492 42.359375 C 3208.2053 48.103276 3205.334 55.282586 3205.334 63.898438 C 3205.334 65.813069 3205.8122 69.802228 3206.7695 75.865234 C 3207.7268 82.566452 3208.2051 87.033839 3208.2051 89.267578 C 3208.2051 100.43627 3204.0585 109.37105 3195.7617 116.07227 C 3187.465 122.77348 3173.2638 126.125 3153.1602 126.125 C 3133.0565 126.125 3100.667 123.25171 3055.9922 117.50781 C 2993.1284 109.21107 2947.3367 105.06445 2918.6172 105.06445 C 2858.3062 105.06445 2807.0905 115.1151 2764.9688 135.21875 C 2722.8468 155.3224 2689.6602 183.72278 2665.4082 220.41992 C 2641.4753 257.11707 2629.5078 294.93044 2629.5078 333.86133 C 2629.5078 362.89994 2635.5713 386.83292 2647.6973 405.66016 C 2655.994 418.42438 2666.8437 424.80664 2680.2461 424.80664 C 2689.1811 424.80664 2696.8386 421.7759 2703.2207 415.71289 C 2709.6028 409.64988 2712.7949 402.31116 2712.7949 393.69531 C 2712.7949 383.80304 2707.3691 372.95339 2696.5195 361.14648 C 2685.0317 348.38226 2678.0118 339.12671 2675.459 333.38281 C 2671.9488 325.08607 2670.1934 315.99188 2670.1934 306.09961 C 2670.1934 278.01831 2678.8093 251.85164 2696.041 227.59961 C 2713.5918 203.34758 2739.5991 184.8404 2774.0625 172.07617 C 2808.845 159.31195 2855.7545 152.92969 2914.7891 152.92969 C 2924.3622 152.92969 2938.5614 153.24851 2957.3887 153.88672 L 2954.0391 165.85352 L 2892.7695 419.54297 C 2866.2838 525.48604 2849.2113 587.3918 2841.5527 605.26172 C 2834.2133 622.81253 2825.2785 635.25823 2814.748 642.59766 C 2800.0692 652.80904 2776.6164 659.51012 2744.3867 662.70117 L 2737.6855 689.02734 C 2771.5107 683.28344 2804.3785 680.41016 2836.2891 680.41016 C 2854.7972 680.41016 2875.6975 681.36857 2898.9922 683.2832 C 2929.9454 686.15515 2952.123 687.5918 2965.5254 687.5918 C 2979.566 687.5918 2997.5969 685.19674 3019.6152 680.41016 L 3026.3164 653.12695 C 3003.0217 658.55175 2980.6828 661.26367 2959.3027 661.26367 C 2945.2621 661.26367 2927.552 659.98839 2906.1719 657.43555 L 2932.498 542.07812 L 2957.8672 441.08203 L 2999.5117 275.4668 C 3016.4243 209.09283 3026.475 170.16163 3029.666 158.67383 C 3054.2371 160.58846 3077.3731 161.54492 3099.0723 161.54492 C 3159.7023 161.54492 3202.9415 152.76956 3228.7891 135.21875 C 3254.6366 117.66794 3267.5605 96.767652 3267.5605 72.515625 C 3267.5605 60.708717 3264.3684 51.293759 3257.9863 44.273438 C 3251.9233 37.253114 3244.1044 33.744141 3234.5312 33.744141 z M 766.08984 55.761719 C 733.54107 55.761719 704.02483 63.899441 677.53906 80.173828 C 651.3724 96.448215 627.75824 122.93371 606.69727 159.63086 C 585.63629 196.0089 561.22508 260.46718 533.46289 353.00781 C 484.95884 359.07082 418.58568 362.10352 334.3418 362.10352 C 363.38041 244.03444 389.7065 161.70466 413.32031 115.11523 C 325.56627 115.11523 267.01006 118.46675 237.65234 125.16797 C 186.59544 136.97488 147.66423 157.07812 120.85938 185.47852 C 94.054493 213.87892 80.652344 246.58726 80.652344 283.60352 C 80.652344 304.02628 84.6415 319.66213 92.619141 330.51172 C 100.59678 341.0422 110.16919 346.30664 121.33789 346.30664 C 130.27285 346.30664 137.61157 343.43531 143.35547 337.69141 C 149.41848 331.6284 152.45117 323.97086 152.45117 314.7168 C 152.45117 306.73916 148.62143 296.36774 140.96289 283.60352 C 132.34704 269.88197 128.03906 258.5541 128.03906 249.61914 C 128.03906 223.13337 143.99373 199.3598 175.9043 178.29883 C 208.13396 157.23786 256.15934 146.70703 319.98047 146.70703 L 273.07227 321.89648 C 230.95032 480.49198 198.87962 579.8923 176.86133 620.09961 C 155.16215 660.30692 131.86875 680.41016 106.97852 680.41016 C 100.91551 680.41016 95.330299 678.97547 90.224609 676.10352 C 85.438025 672.91246 79.055766 666.05197 71.078125 655.52148 C 57.994795 637.97068 45.230275 629.19531 32.785156 629.19531 C 25.126621 629.19531 18.584952 632.06665 13.160156 637.81055 C 7.7353613 643.23534 5.0234375 649.93642 5.0234375 657.91406 C 5.0234375 671.3165 11.883927 682.48496 25.605469 691.41992 C 44.4327 704.18415 67.090405 710.56641 93.576172 710.56641 C 120.70015 710.56641 148.94111 700.83458 178.29883 681.36914 C 207.97565 662.2228 234.30174 632.22638 257.27734 591.38086 C 280.25295 550.53534 302.58988 487.51175 324.28906 402.31055 C 348.22198 400.07681 371.51733 398.32134 394.17383 397.04492 L 523.41016 392.25781 L 486.55469 535.85547 C 469.9612 601.27212 455.12239 652.3302 442.03906 689.02734 C 456.71792 684.55987 470.9191 682.32617 484.64062 682.32617 C 501.87233 682.32617 522.61321 683.44204 546.86523 685.67578 C 569.52173 687.90952 587.7101 689.02734 601.43164 689.02734 C 610.04749 689.02734 622.49319 688.06893 638.76758 686.1543 L 644.99023 658.87109 C 628.39674 662.06215 613.55794 663.6582 600.47461 663.6582 C 589.30591 663.6582 574.62652 662.06215 556.4375 658.87109 C 546.54523 657.27557 538.88769 656.1597 533.46289 655.52148 C 588.02995 400.55611 636.05533 233.50343 677.53906 154.36523 C 700.83377 110.00955 724.44794 87.832031 748.38086 87.832031 C 759.54956 87.832031 772.31408 95.810354 786.67383 111.76562 C 800.71448 127.72091 813.31763 135.69727 824.48633 135.69727 C 833.10218 135.69727 840.12403 133.14475 845.54883 128.03906 C 850.97362 122.93337 853.68555 116.3917 853.68555 108.41406 C 853.68555 94.692527 846.02605 82.565642 830.70898 72.035156 C 815.71102 61.185565 794.17114 55.761719 766.08984 55.761719 z M 3490.6152 104.10547 C 3419.1356 104.10547 3354.1971 119.26311 3295.8008 149.57812 C 3237.4045 179.89316 3191.7722 220.73925 3158.9043 272.11523 C 3126.3555 323.17213 3110.082 376.14313 3110.082 431.0293 C 3110.082 463.89718 3120.9317 495.96788 3142.6309 527.24023 C 3158.5861 549.57763 3175.019 560.74609 3191.9316 560.74609 C 3199.5902 560.74609 3206.2913 557.87476 3212.0352 552.13086 C 3218.0982 546.06785 3221.1309 539.20736 3221.1309 531.54883 C 3221.1309 525.48582 3219.5346 520.37884 3216.3438 516.23047 C 3213.4718 512.0821 3206.9299 507.13648 3196.7188 501.39258 C 3160.9789 482.24624 3143.1094 452.24982 3143.1094 411.4043 C 3143.1094 369.60146 3157.6274 326.68306 3186.666 282.64648 C 3216.0237 238.2908 3255.752 202.70917 3305.8516 175.9043 C 3355.9511 149.09942 3409.2429 135.69727 3465.7246 135.69727 C 3532.7368 135.69727 3586.985 157.39656 3628.4688 200.79492 C 3669.9523 243.87418 3690.6934 300.99374 3690.6934 372.1543 C 3690.6934 426.40225 3678.409 476.02369 3653.8379 521.01758 C 3629.5859 566.01147 3596.7181 600.31587 3555.2344 623.92969 C 3513.7506 647.2244 3465.0857 658.87109 3409.2422 658.87109 C 3388.1812 658.87109 3363.9294 656.15915 3336.4863 650.73438 C 3364.8867 601.59211 3390.4158 528.83669 3413.0723 432.4668 L 3444.6641 298.91992 C 3455.1945 253.92603 3467.3195 213.71955 3481.041 178.29883 C 3433.8134 189.46752 3392.8079 196.48742 3358.0254 199.35938 L 3353.2402 219.94141 C 3359.9415 218.98409 3364.4088 218.50586 3366.6426 218.50586 C 3372.3865 218.50586 3376.8539 220.10191 3380.0449 223.29297 C 3383.236 226.16492 3384.832 230.15212 3384.832 235.25781 C 3384.832 240.68261 3383.8736 247.22428 3381.959 254.88281 L 3343.666 410.92578 L 3310.6387 535.85547 C 3294.6834 584.99773 3282.0783 616.90903 3272.8242 631.58789 C 3267.7185 639.88464 3261.4976 645.78867 3254.1582 649.29883 C 3247.1379 652.80899 3228.9476 655.3615 3199.5898 656.95703 L 3188.582 680.41016 C 3217.9397 679.45284 3239.7985 678.97461 3254.1582 678.97461 C 3285.1114 678.97461 3317.8198 680.25184 3352.2832 682.80469 C 3393.1287 685.99574 3421.8479 687.5918 3438.4414 687.5918 C 3489.8174 687.5918 3541.1924 675.94315 3592.5684 652.64844 C 3644.2635 629.03462 3688.2997 589.62519 3724.6777 534.41992 C 3761.0558 478.89554 3779.2461 418.10564 3779.2461 352.05078 C 3779.2461 280.89023 3753.0794 221.85579 3700.7461 174.94727 C 3648.7319 127.71963 3578.6884 104.10547 3490.6152 104.10547 z M 1092.0566 263.02148 L 1060.4648 269.72266 L 1048.9785 288.39062 C 1038.448 287.11422 1028.0766 286.47461 1017.8652 286.47461 C 977.33888 286.47461 944.15224 292.53805 918.30469 304.66406 C 884.7986 320.61934 852.8873 345.50879 822.57227 379.33398 C 792.25723 413.15918 768.00543 450.8151 749.81641 492.29883 C 731.94649 533.78256 723.01172 571.43652 723.01172 605.26172 C 723.01172 633.66212 729.7128 656.63669 743.11523 674.1875 C 753.00751 687.27083 767.20672 693.8125 785.71484 693.8125 C 805.18029 693.8125 826.56076 686.47378 849.85547 671.79492 C 887.82904 648.18111 920.53739 619.94014 947.98047 587.07227 L 928.83398 652.16992 C 926.28114 660.46667 925.00586 667.00834 925.00586 671.79492 C 925.00586 679.13435 927.08014 684.71956 931.22852 688.54883 C 935.37689 692.3781 941.59974 694.29297 949.89648 694.29297 C 961.38429 694.29297 973.19039 692.05928 985.31641 687.5918 C 1003.8245 680.89058 1023.2901 670.51916 1043.7129 656.47852 C 1053.9243 649.45819 1077.2196 629.35495 1113.5977 596.16797 L 1098.2793 577.5 C 1080.0903 595.05081 1061.1049 609.72825 1041.3203 621.53516 C 1030.1516 628.23637 1022.0139 631.58789 1016.9082 631.58789 C 1008.9306 631.58789 1004.9414 626.64227 1004.9414 616.75 C 1004.9414 606.85773 1008.4523 584.83961 1015.4727 550.69531 C 1028.2369 487.83151 1041.7985 432.30604 1056.1582 384.12109 L 1092.0566 263.02148 z M 1385.9531 277.85938 C 1348.2987 277.85938 1314.4744 288.86843 1284.4785 310.88672 C 1246.1858 339.28712 1213.6369 380.13319 1186.832 433.42383 C 1160.0272 486.71447 1146.625 538.56764 1146.625 588.98633 C 1146.625 619.30136 1152.8478 644.35217 1165.293 664.13672 C 1178.0572 683.92127 1198.3198 693.8125 1226.082 693.8125 C 1278.4154 693.8125 1342.5548 663.97744 1418.502 604.30469 L 1408.4512 576.54297 C 1356.7561 620.26044 1312.2397 642.11914 1274.9043 642.11914 C 1259.2681 642.11914 1247.1432 635.73688 1238.5273 622.97266 C 1226.7204 606.37916 1220.8164 582.92439 1220.8164 552.60938 C 1220.8164 511.44475 1227.8363 470.43927 1241.877 429.59375 C 1255.9176 388.74823 1270.597 361.30627 1285.9141 347.26562 C 1301.5502 332.90589 1317.1861 325.72461 1332.8223 325.72461 C 1344.9483 325.72461 1360.1059 331.15041 1378.2949 342 C 1395.8457 352.21138 1410.2063 357.31641 1421.375 357.31641 C 1432.8628 357.31641 1441.7976 354.28566 1448.1797 348.22266 C 1454.5618 341.84054 1457.752 333.70282 1457.752 323.81055 C 1457.752 311.04632 1451.6885 300.19668 1439.5625 291.26172 C 1427.4365 282.32676 1409.5669 277.85938 1385.9531 277.85938 z M 3921.4082 282.16797 C 3907.0485 282.16797 3895.5592 287.75123 3886.9434 298.91992 C 3875.1365 313.91789 3869.2344 331.3092 3869.2344 351.09375 C 3869.2344 364.81529 3873.381 376.14319 3881.6777 385.07812 C 3890.2936 393.69398 3900.8244 398.00195 3913.2695 398.00195 C 3928.2675 398.00195 3940.7132 392.25929 3950.6055 380.77148 C 3960.4977 368.96458 3965.4434 352.52972 3965.4434 331.46875 C 3965.4434 317.109 3961.1354 305.30289 3952.5195 296.04883 C 3944.2228 286.79477 3933.8533 282.16797 3921.4082 282.16797 z M 1748.2988 319.98047 C 1757.5529 319.98047 1765.3698 323.65081 1771.752 330.99023 C 1778.4532 338.32966 1781.8047 348.06344 1781.8047 360.18945 C 1781.8047 377.10205 1776.0601 392.7379 1764.5723 407.09766 C 1753.4036 421.45741 1734.4162 432.9447 1707.6113 441.56055 C 1681.1256 450.1764 1646.3429 454.32496 1603.2637 454.00586 L 1610.4434 420.5 C 1672.3498 353.48782 1718.3029 319.98047 1748.2988 319.98047 z M 957.55469 337.69141 C 969.3616 337.69141 983.87968 339.44687 1001.1113 342.95703 L 961.38281 492.29883 C 949.5759 536.97362 931.0687 571.27606 905.85938 595.20898 C 880.65003 618.8228 857.03587 630.63086 835.01758 630.63086 C 823.21067 630.63086 813.63826 625.84465 806.29883 616.27148 C 798.9594 606.69832 795.28906 591.06051 795.28906 569.36133 C 795.28906 528.51581 804.38325 487.67169 822.57227 446.82617 C 841.08039 405.66155 861.02422 377.26118 882.4043 361.625 C 903.78437 345.66972 928.83518 337.69141 957.55469 337.69141 z M 3852.959 577.02148 C 3838.5992 577.02148 3827.1119 582.60474 3818.4961 593.77344 C 3806.6892 608.7714 3800.7852 626.32213 3800.7852 646.42578 C 3800.7852 660.14732 3804.9337 671.4752 3813.2305 680.41016 C 3821.8463 689.02601 3832.3771 693.33398 3844.8223 693.33398 C 3859.8202 693.33398 3872.2659 687.43191 3882.1582 675.625 C 3892.0505 663.81809 3896.9961 647.54265 3896.9961 626.80078 C 3896.9961 612.44103 3892.6881 600.63492 3884.0723 591.38086 C 3875.7755 581.80769 3865.4041 577.02148 3852.959 577.02148 z "
       transform="matrix(0.26458333,0,0,0.26458333,-0.45090438,-218.83437)"
       id="text12" />
    <g
       id="g6106"
       transform="matrix(2.0095645,0,0,2.0095645,188.13385,-159.26354)"
       inkscape:export-xdpi="82.559998"
       inkscape:export-ydpi="82.559998">
      <ellipse
         style="opacity:1;fill:#000000;fill-opacity:1;fill-rule:evenodd;stroke:#000000;stroke-width:1.94406629;stroke-linejoin:round;stroke-miterlimit:4;stroke-dasharray:none;stroke-opacity:1;paint-order:markers fill stroke"
         id="ellipse6062"
         cx="412.52731"
         cy="133.36374"
         rx="22.737059"
         ry="22.806307" />
      <ellipse
         ry="18.962927"
         rx="19.431147"
         cy="133.36374"
         cx="413.15939"
         id="ellipse6064"
         style="opacity:1;fill:#f7c45b;fill-opacity:1;fill-rule:evenodd;stroke:#000000;stroke-width:1.63877141;stroke-linejoin:round;stroke-miterlimit:4;stroke-dasharray:none;stroke-opacity:1;paint-order:markers fill stroke" />
      <ellipse
         style="opacity:1;fill:#d59b24;fill-opacity:1;fill-rule:evenodd;stroke:#d59b24;stroke-width:1;stroke-linejoin:round;stroke-miterlimit:4;stroke-dasharray:none;stroke-opacity:1;paint-order:markers fill stroke"
         id="ellipse6066"
         cx="413.15939"
         cy="133.36374"
         rx="15.0718"
         ry="14.693824" />
      <g
         id="g6104"
         transform="matrix(0.27042703,0,0,0.27042703,313.19127,86.51766)">
        <path
           style="stroke-width:0.26458332"
           id="path6068"
           d="m 345.0195,170.13913 c -1.32292,-2.25689 -4.96623,-4.37885 -7.14375,-4.7625 -4.68048,-0.82814 -10.70504,4.49792 -11.90625,11.90625 -0.23813,1.4605 -1.05833,7.08554 2.38125,11.90625 0.87842,1.22767 3.40783,4.7625 7.14375,4.7625 3.65919,0 6.15685,-3.41841 7.14375,-4.7625 4.65931,-6.36587 5.87904,-13.11804 2.38125,-19.05 z"
           class="cls-1"
           inkscape:connector-curvature="0" />
        <path
           style="stroke-width:0.26458332"
           id="path6070"
           d="m 340.257,174.90163 c -0.55298,-0.99219 -1.23296,-2.21191 -2.38125,-2.38125 -2.03465,-0.30162 -4.00579,2.91042 -4.7625,4.7625 -0.47096,1.14829 -1.50019,4.27567 0,7.14375 0.37835,0.72496 1.05833,2.01877 2.38125,2.38125 1.89442,0.52917 3.87085,-1.22502 4.7625,-2.38125 2.286,-2.97921 1.30175,-7.17814 0,-9.525 z"
           class="cls-7"
           inkscape:connector-curvature="0" />
        <path
           style="stroke-width:0.26458332"
           id="path6072"
           d="m 397.407,162.99538 c 0.31485,-0.48419 3.55071,-5.31019 7.14375,-4.7625 1.76477,0.26459 3.16177,1.76477 4.7625,4.7625 2.99244,5.60652 8.2841,19.44159 2.38125,23.8125 -2.77548,2.05317 -6.99294,1.25148 -9.525,0 -7.81315,-3.86556 -9.32392,-16.84337 -4.7625,-23.8125 z"
           class="cls-1"
           inkscape:connector-curvature="0" />
        <path
           style="stroke-width:0.26458332"
           id="path6074"
           d="m 399.78825,170.13913 c 0.17462,-0.39423 0.97367,-2.17487 2.38125,-2.38125 2.05052,-0.30427 4.01637,2.94481 4.7625,4.7625 0.34396,0.83609 1.67217,4.07723 0,7.14375 -0.51065,0.93134 -1.25942,2.30452 -2.38125,2.38125 -2.71198,0.18256 -6.87917,-7.19402 -4.7625,-11.90625 z"
           class="cls-7"
           inkscape:connector-curvature="0" />
        <path
           style="stroke-width:0.26458332"
           id="path6076"
           d="m 405.8525,187.56724 a 10.694458,10.694458 0 0 1 2.78871,0 5.5059791,5.5059791 0 0 0 0.70114,-0.41011 c 5.88434,-4.03489 0.61119,-16.80898 -2.38125,-21.98423 -1.5875,-2.76754 -2.98979,-4.14866 -4.74927,-4.39737 -3.57981,-0.50536 -6.80508,3.95287 -7.11994,4.39737 -4.54024,6.43467 -3.03741,18.415 4.74663,21.98423 0.3466,0.15875 0.7276,0.30956 1.12977,0.44715 a 14.099646,14.099646 0 0 0 1.65629,0.23548 1.1033125,1.1033125 0 0 1 0.86254,-0.74877 3.0268333,3.0268333 0 0 1 2.36538,0.47625 z"
           class="cls-8"
           inkscape:connector-curvature="0" />
        <path
           style="stroke-width:0.26458332"
           id="path6078"
           d="m 343.5881,188.85311 a 25.325916,25.325916 0 0 1 -1.32291,-8.23648 29.604229,29.604229 0 0 1 2.21191,-11.21833 c -0.40481,-0.26458 -0.79375,-0.54504 -1.18533,-0.83873 -0.26458,-0.1905 -0.51329,-0.40217 -0.762,-0.62706 -2.30981,4.53496 -3.54277,9.42181 -3.48985,14.02291 0.0159,1.45786 0.0635,5.00592 1.5531,8.84767 a 14.086416,14.086416 0 0 1 2.99508,-1.94998 z"
           class="cls-9"
           inkscape:connector-curvature="0" />
        <path
           style="stroke-width:0.26458332"
           id="path6080"
           d="m 405.10637,182.01099 c 0,-14.2875 -13.08364,-25.38148 -14.2875,-26.19375 a 35.213395,35.213395 0 0 0 -10.58333,-4.71752 c -0.18521,-0.0423 -0.37306,-0.09 -0.56621,-0.14023 -2.34685,-0.62442 -5.25991,-1.85209 -7.14375,-4.51909 -1.81239,-2.52941 -2.23043,-5.75733 -2.43416,-5.70441 -0.20373,0.0529 0.4445,2.4421 0.20373,5.715 -0.10319,1.36789 -0.24078,3.06387 -0.98161,3.26231 -0.74083,0.19844 -1.85208,-1.34938 -1.99231,-1.56104 -0.92604,-1.34673 -1.05833,-2.75432 -1.18269,-2.74109 -0.12435,0.0132 0.49477,2.26484 -0.60589,3.95552 -0.48419,0.73819 -1.19592,1.2065 -1.905,1.67482 -0.31486,0.20373 -0.61913,0.37835 -0.90753,0.52916 -13.78743,4.51115 -22.33877,18.47057 -22.19854,30.47471 0.0238,2.14313 0.0979,8.81063 4.7625,14.2875 a 17.727083,17.727083 0 0 0 1.75154,1.78065 c 3.80207,3.51631 8.43757,4.63021 12.8323,5.63033 5.11704,1.16152 19.05,2.38125 33.3375,-4.7625 3.46075,-1.73037 11.90625,-7.46919 11.90625,-16.66875 0,-0.0661 0,-0.12964 0,-0.19579 0,-0.0661 -0.005,-0.0635 -0.005,-0.10583 z"
           class="cls-1"
           inkscape:connector-curvature="0" />
        <path
           style="fill:#f7c45b;fill-opacity:1;stroke-width:0.26458332"
           id="path6082"
           d="m 373.5945,179.66413 c 1.52665,-1.35202 3.60362,-4.63285 6.84742,-6.20183 a 16.949208,16.949208 0 0 1 10.48014,-1.35731 c 0.26459,0.0476 4.00844,1.32291 6.48494,5.17789 3.79942,5.90021 1.64835,14.84842 -4.7625,19.05 -1.39435,0.91281 -2.48444,1.48961 -4.7625,2.38125 -2.27806,0.89165 -12.49098,4.68313 -26.19375,2.38125 -4.83923,-0.81491 -6.31825,-1.75154 -7.14375,-2.38125 -3.70417,-2.83633 -5.10381,-7.80785 -4.7625,-11.90625 0.10319,-1.26471 0.58737,-6.12775 4.7625,-9.525 5.0456,-4.11162 11.18129,-2.57704 11.90625,-2.38125 a 13.49375,13.49375 0 0 1 4.7625,2.38125 z"
           class="cls-10"
           inkscape:connector-curvature="0" />
        <path
           style="stroke-width:0.26458332"
           id="path6084"
           d="m 370.90104,190.91686 c -0.12171,-0.508 0.64294,-1.12977 1.14829,-1.40758 1.42082,-0.77788 3.48457,-0.30427 3.64332,0.40216 0.12435,0.54769 -0.88371,1.29117 -1.72244,1.5875 -1.27529,0.42863 -2.91042,0.0741 -3.06917,-0.58208 z"
           class="cls-11"
           inkscape:connector-curvature="0" />
        <circle
           style="stroke-width:0.26458332"
           id="circle6086"
           r="0.26458332"
           cy="192.63666"
           cx="379.67462" />
        <path
           style="stroke-width:0.26458332"
           id="path6088"
           d="m 360.8945,186.6994 c -0.6694,0.16404 -0.99748,1.16417 -1.03452,1.83621 -0.0582,1.15623 0.69321,2.57175 1.62719,2.56911 0.79375,0 1.54781,-1.03982 1.5875,-1.99761 0.0476,-1.34144 -1.29646,-2.62996 -2.18017,-2.40771 z"
           class="cls-12"
           inkscape:connector-curvature="0" />
        <path
           style="stroke:#f7c45b;stroke-width:0.26188925;stroke-miterlimit:4;stroke-dasharray:none;stroke-opacity:1"
           id="path6090"
           d="m 340.18027,178.4788 c 20.44965,7.79992 44.52673,3.83117 61.47594,-9.62554"
           class="cls-13"
           inkscape:connector-curvature="0" />
        <path
           style="fill:#1d1d1d;fill-opacity:1;stroke-width:0.26458332"
           id="path6092"
           d="m 390.59398,175.82767 c 1.27794,5.55625 0.0476,10.19705 -2.62202,11.44323 -1.34938,0.62971 -2.78342,0.26459 -3.09827,0.17463 -2.62467,-0.74084 -4.55613,-3.70417 -4.7625,-7.51946 l 2.41564,-0.75935 5.62769,-2.19605 z"
           class="cls-14"
           inkscape:connector-curvature="0" />
        <path
           style="stroke-width:0.26458332"
           id="path6094"
           d="m 390.24473,156.10828 c -3.556,-2.40771 -6.29444,-3.29936 -6.29444,-3.29936 -4.23333,-1.72773 -6.05896,-1.55575 -8.54339,-3.32052 -1.26471,-0.89958 -2.99244,-2.51089 -4.3868,-5.54302 -0.0556,3.54806 0.96838,5.57742 2.08227,6.80773 0.90753,1.00277 9.46944,4.97681 12.85875,7.00617 0.65617,0.39423 3.89467,2.78871 4.13809,3.00302 2.51883,2.19869 11.19187,10.45104 9.89541,21.26721 -1.12712,9.42181 -9.13077,15.27968 -11.90625,16.66875 a 54.400978,54.400978 0 0 1 -25.019,5.64091 54.361291,54.361291 0 0 0 29.55661,-5.36839 c 3.4581,-1.73038 11.90625,-7.47184 11.90625,-16.66875 0,-14.2875 -13.08629,-25.38148 -14.2875,-26.19375 z"
           class="cls-15"
           inkscape:connector-curvature="0" />
        <path
           style="fill:#ffffff;stroke:#000000;stroke-width:0.52916664px;stroke-miterlimit:10"
           inkscape:connector-curvature="0"
           id="path6096"
           d="m 379.15075,195.39367 a 18.123958,18.123958 0 0 1 -2.64583,0.22489 19.460104,19.460104 0 0 1 -3.22792,-0.24077 20.211521,20.211521 0 0 1 -2.71198,-0.52917 18.459979,18.459979 0 0 1 -3.2094,-1.21179 c 0.0926,0.42334 0.20109,0.86519 0.32544,1.32292 q 0.21431,0.76994 0.4445,1.45785 a 14.2875,14.2875 0 0 0 5.6859,1.94998 15.610416,15.610416 0 0 0 6.45054,-0.52916 7.6305832,7.6305832 0 0 1 -0.52917,-0.86519 6.7601041,6.7601041 0 0 1 -0.58208,-1.57956 z"
           class="cls-16" />
        <path
           style="stroke-width:0.26458332"
           id="path6098"
           d="m 372.37742,195.44653 a 9.7895832,9.7895832 0 0 0 -4.69107,1.51077"
           class="cls-17"
           inkscape:connector-curvature="0" />
        <path
           style="stroke-width:0.26458332"
           inkscape:connector-curvature="0"
           id="path6100"
           d="m 372.37742,196.91497 a 10.485437,10.485437 0 0 1 -2.40771,-0.52917 c -0.38894,-0.14023 -0.75671,-0.3175 -1.13506,-0.47625 l -1.14036,-0.48948 v 0.0212 a 4.9503541,4.9503541 0 0 0 1.03981,0.70908 6.3499999,6.3499999 0 0 0 1.18269,0.43656 9.2604166,9.2604166 0 0 0 2.47386,0.36777 z" />
        <path
           style="stroke-width:0.26458332"
           id="path6102"
           d="m 355.33825,183.35507 a 19.420416,19.420416 0 0 0 2.21985,0.6059 c 0.37307,0.0794 0.74613,0.14816 1.12448,0.20108 0.37836,0.0529 0.75142,0.10583 1.12713,0.13758 0.75671,0.0661 1.51077,0 2.26219,0.0688 0.75141,0.0688 1.50812,0.0794 2.29922,0.18786 v 0.0794 a 6.8288957,6.8288957 0 0 1 -2.30716,0.52917 9.3609582,9.3609582 0 0 1 -2.3495,-0.23283 14.851062,14.851062 0 0 1 -2.27277,-0.58738 15.671271,15.671271 0 0 1 -2.14313,-0.91546 z"
           class="cls-22"
           inkscape:connector-curvature="0" />
      </g>
    </g>
  </g>
</svg>
