<?xml version="1.0" encoding="UTF-8" standalone="no"?>
<svg
   xmlns:dc="http://purl.org/dc/elements/1.1/"
   xmlns:cc="http://creativecommons.org/ns#"
   xmlns:rdf="http://www.w3.org/1999/02/22-rdf-syntax-ns#"
   xmlns:svg="http://www.w3.org/2000/svg"
   xmlns="http://www.w3.org/2000/svg"
   xmlns:sodipodi="http://sodipodi.sourceforge.net/DTD/sodipodi-0.dtd"
   xmlns:inkscape="http://www.inkscape.org/namespaces/inkscape"
   sodipodi:docname="ASME_UTD_LOGO_FORDARKBG.svg"
   inkscape:version="1.0 (4035a4fb49, 2020-05-01)"
   version="1.1"
   id="svg8762"
   viewBox="0 0 800.00001 450.00001"
   height="450"
   width="800">
  <defs
     id="defs8764">
    <clipPath
       id="clipPath8651"
       clipPathUnits="userSpaceOnUse">
      <ellipse
         transform="matrix(0.97988879,-0.19954438,0.52283505,0.85243387,0,0)"
         style="display:inline;opacity:1;fill:none;fill-opacity:1;stroke:#800000;stroke-width:1.17542601;stroke-linecap:round;stroke-linejoin:round;stroke-miterlimit:4;stroke-dasharray:none;stroke-opacity:1"
         id="ellipse8653"
         cx="-312.49905"
         cy="219.79373"
         rx="26.701563"
         ry="35.792202" />
    </clipPath>
    <clipPath
       id="clipPath8647"
       clipPathUnits="userSpaceOnUse">
      <ellipse
         transform="matrix(0.97929018,-0.2024617,0.32743131,0.94487499,0,0)"
         style="display:inline;opacity:1;fill:none;fill-opacity:1;stroke:#800000;stroke-width:1.14420331;stroke-linecap:round;stroke-linejoin:round;stroke-miterlimit:4;stroke-dasharray:none;stroke-opacity:1"
         id="ellipse8649"
         cx="-330.18982"
         cy="176.18472"
         rx="28.213154"
         ry="28.690718" />
    </clipPath>
    <clipPath
       id="clipPath8643"
       clipPathUnits="userSpaceOnUse">
      <ellipse
         transform="matrix(0.4688368,-0.88328481,0.86199886,0.50691022,0,0)"
         style="display:inline;opacity:1;fill:none;fill-opacity:1;stroke:#800000;stroke-width:1.13992941;stroke-linecap:round;stroke-linejoin:round;stroke-miterlimit:4;stroke-dasharray:none;stroke-opacity:1"
         id="ellipse8645"
         cx="-328.75751"
         cy="174.23535"
         rx="28.090771"
         ry="28.373272" />
    </clipPath>
    <clipPath
       id="clipPath8639"
       clipPathUnits="userSpaceOnUse">
      <ellipse
         transform="matrix(0.49841646,-0.86693773,0.87882795,0.47713879,0,0)"
         style="display:inline;opacity:1;fill:none;fill-opacity:1;stroke:#800000;stroke-width:1.13955629;stroke-linecap:round;stroke-linejoin:round;stroke-miterlimit:4;stroke-dasharray:none;stroke-opacity:1"
         id="ellipse8641"
         cx="-346.94818"
         cy="164.59717"
         rx="29.645077"
         ry="26.803747" />
    </clipPath>
    <clipPath
       id="clipPath8635"
       clipPathUnits="userSpaceOnUse">
      <ellipse
         transform="matrix(0.88743221,-0.46093825,0.50057576,0.86569273,0,0)"
         style="display:inline;opacity:1;fill:none;fill-opacity:1;stroke:#800000;stroke-width:1.13996959;stroke-linecap:round;stroke-linejoin:round;stroke-miterlimit:4;stroke-dasharray:none;stroke-opacity:1"
         id="ellipse8637"
         cx="-328.7843"
         cy="174.24545"
         rx="28.09306"
         ry="28.374918" />
    </clipPath>
    <clipPath
       id="clipPath8631"
       clipPathUnits="userSpaceOnUse">
      <ellipse
         transform="matrix(0.97840832,-0.20668132,0.34931536,0.93700522,0,0)"
         style="display:inline;opacity:1;fill:none;fill-opacity:1;stroke:#800000;stroke-width:1.14572287;stroke-linecap:round;stroke-linejoin:round;stroke-miterlimit:4;stroke-dasharray:none;stroke-opacity:1"
         id="ellipse8633"
         cx="-328.4563"
         cy="178.32397"
         rx="28.065035"
         ry="29.039082" />
    </clipPath>
  </defs>
  <sodipodi:namedview
     inkscape:document-rotation="0"
     inkscape:window-maximized="1"
     inkscape:window-y="-8"
     inkscape:window-x="-8"
     inkscape:window-height="1017"
     inkscape:window-width="2560"
     units="px"
     showgrid="false"
     inkscape:current-layer="g9366"
     inkscape:document-units="px"
     inkscape:cy="353.26912"
     inkscape:cx="140.01013"
     inkscape:zoom="0.49497475"
     inkscape:pageshadow="2"
     inkscape:pageopacity="0.0"
     borderopacity="1.0"
     bordercolor="#666666"
     pagecolor="#ffffff"
     id="base" />
  <metadata
     id="metadata8767">
    <rdf:RDF>
      <cc:Work
         rdf:about="">
        <dc:format>image/svg+xml</dc:format>
        <dc:type
           rdf:resource="http://purl.org/dc/dcmitype/StillImage" />
        <dc:title></dc:title>
      </cc:Work>
    </rdf:RDF>
  </metadata>
  <g
     transform="translate(0,-602.36216)"
     id="layer1"
     inkscape:groupmode="layer"
     inkscape:label="Layer 1">
    <g
       transform="translate(-2.4999997e-7,290.45178)"
       id="g9366">
      <g
         inkscape:export-ydpi="95.900002"
         inkscape:export-xdpi="95.900002"
         id="g8655"
         transform="matrix(3.9459569,0,0,3.9131404,1741.2494,-235.70313)"
         style="display:inline;stroke:#c5ccdb;stroke-width:0.90171629;stroke-opacity:1">
        <ellipse
           style="display:inline;opacity:1;fill:none;fill-opacity:1;stroke:#c5ccdb;stroke-width:1.02740383;stroke-linecap:round;stroke-linejoin:round;stroke-miterlimit:4;stroke-dasharray:none;stroke-opacity:1"
           id="path7653"
           cx="-339.90472"
           cy="167.77629"
           rx="29.043247"
           ry="27.321449" />
        <ellipse
           style="display:inline;opacity:1;fill:none;fill-opacity:1;stroke:#c5ccdb;stroke-width:1.12773108;stroke-linecap:round;stroke-linejoin:round;stroke-miterlimit:4;stroke-dasharray:none;stroke-opacity:1"
           id="path7655"
           cx="-209.54012"
           cy="232.39713"
           transform="matrix(0.98718155,0.15960132,-0.6113602,0.79135246,0,0)"
           rx="7.4252586"
           ry="6.9992476" />
        <ellipse
           clip-path="url(#clipPath8651)"
           style="display:inline;opacity:1;fill:none;fill-opacity:1;stroke:#c5ccdb;stroke-width:1.12463152;stroke-linecap:round;stroke-linejoin:round;stroke-miterlimit:4;stroke-dasharray:none;stroke-opacity:1"
           id="path7655-8"
           cx="-207.58948"
           cy="236.38078"
           transform="matrix(0.98677312,0.16210743,-0.6052312,0.79604974,0,0)"
           rx="19.911243"
           ry="18.951092" />
        <ellipse
           clip-path="url(#clipPath8647)"
           style="display:inline;opacity:1;fill:none;fill-opacity:1;stroke:#c5ccdb;stroke-width:1.06325245;stroke-linecap:round;stroke-linejoin:round;stroke-miterlimit:4;stroke-dasharray:none;stroke-opacity:1"
           id="path7655-8-4"
           cx="-271.19846"
           cy="226.69911"
           transform="matrix(0.98091588,0.1944326,-0.3399207,0.9404541,0,0)"
           rx="29.249699"
           ry="28.263498" />
        <ellipse
           clip-path="url(#clipPath8643)"
           style="display:inline;opacity:1;fill:none;fill-opacity:1;stroke:#c5ccdb;stroke-width:1.05901384;stroke-linecap:round;stroke-linejoin:round;stroke-miterlimit:4;stroke-dasharray:none;stroke-opacity:1"
           id="path7655-3-1"
           cx="-0.80159938"
           cy="385.77197"
           transform="matrix(0.52459716,0.85135059,-0.89207543,0.45188651,0,0)"
           rx="27.942196"
           ry="26.031561" />
        <ellipse
           clip-path="url(#clipPath8639)"
           style="display:inline;opacity:1;fill:none;fill-opacity:1;stroke:#c5ccdb;stroke-width:1.0577457;stroke-linecap:round;stroke-linejoin:round;stroke-miterlimit:4;stroke-dasharray:none;stroke-opacity:1"
           id="path7655-3-1-0"
           cx="-22.596409"
           cy="365.32535"
           transform="matrix(0.46759122,0.88394482,-0.86124256,0.50819411,0,0)"
           rx="31.084846"
           ry="29.327785" />
        <ellipse
           clip-path="url(#clipPath8635)"
           style="display:inline;opacity:1;fill:none;fill-opacity:1;stroke:#c5ccdb;stroke-width:1.05905032;stroke-linecap:round;stroke-linejoin:round;stroke-miterlimit:4;stroke-dasharray:none;stroke-opacity:1"
           id="path7655-3-1-0-1"
           cx="-225.0365"
           cy="364.99399"
           transform="matrix(0.89588842,0.44427911,-0.51803603,0.8553588,0,0)"
           rx="66.796326"
           ry="75.129013" />
        <ellipse
           clip-path="url(#clipPath8631)"
           style="display:inline;opacity:1;fill:none;fill-opacity:1;stroke:#c5ccdb;stroke-width:1.06546128;stroke-linecap:round;stroke-linejoin:round;stroke-miterlimit:4;stroke-dasharray:none;stroke-opacity:1"
           id="path7655-3"
           cx="-257.87451"
           cy="237.17279"
           transform="matrix(0.98047877,0.19662497,-0.36552229,0.93080259,0,0)"
           rx="28.143309"
           ry="26.331186" />
      </g>
      <path
         inkscape:export-ydpi="95.900002"
         inkscape:export-xdpi="95.900002"
         style="display:inline;fill:#246fa6;fill-opacity:1;stroke-width:0.26458332"
         d="m 317.85615,627.67369 c 26.68374,-16.88148 36.27081,-32.66732 30.17376,-49.68301 -9.15922,-25.56124 -47.81666,-44.39254 -117.32007,-57.15048 -16.01343,-2.93937 -29.75893,-4.72664 -30.54583,-3.9717 -0.78723,0.75494 7.03351,22.05048 17.37886,47.3234 10.34535,25.27291 18.21876,46.51758 17.49657,47.21047 -0.72253,0.69289 -3.12609,-0.18409 -5.34234,-1.94867 -2.21625,-1.76468 -7.74879,-3.93831 -12.29466,-4.83032 -7.97954,-1.56578 -8.87078,-3.14735 -25.79829,-45.78099 l -17.53298,-44.15919 -30.36676,-0.70815 -30.36676,-0.70817 -19.694538,44.91676 c -19.299889,44.01708 -19.862387,44.9326 -28.075681,45.70832 -4.609788,0.43545 -8.381341,0.36323 -8.381341,-0.16025 0,-0.52358 8.879359,-20.68573 19.732083,-44.80481 10.852499,-24.11907 19.088289,-44.4704 18.301619,-45.22518 -1.26954,-1.21794 -60.525155,5.27463 -77.529163,8.49478 -3.620432,0.68564 -0.859838,-0.532 6.135137,-2.70576 6.994752,-2.17377 27.56674,-6.98671 45.715455,-10.69541 l 32.997719,-6.74311 14.10321,-31.57758 c 7.75692,-17.36767 14.14062,-33.52696 14.18606,-35.90956 0.10691,-5.61734 -6.02967,-8.6245 -22.29801,-10.92597 -27.33878,-3.86763 -22.89704,-5.89718 13.16519,-6.01555 l 36.86237,-0.12095 16.96203,42.57038 16.96202,42.57038 31.30065,4.24946 c 109.47951,14.86328 169.04004,52.44077 144.21128,90.9847 -7.66282,11.89577 -36.06568,30.07402 -55.40354,35.45916 -4.29462,1.19604 -2.46425,-0.77228 5.26595,-5.66289 z M 166.62829,496.36822 c -11.41544,-29.53641 -20.78893,-51.1447 -22.16594,-51.09823 -1.64506,0.0554 -24.0835,50.12025 -24.0835,53.7351 0,0.9812 10.79058,1.78397 23.97904,1.78397 21.73274,0 23.81891,-0.41409 22.2704,-4.42084 z m 261.26196,27.22363 c -0.88868,-94.07702 1.13669,-87.83131 -31.06958,-95.80168 l -19.72117,-4.88054 42.59616,-0.21644 42.59616,-0.21643 29.34444,40.41929 c 16.1396,22.23063 29.85092,40.41932 30.46966,40.41932 0.61907,0 13.56699,-18.18869 28.7737,-40.41932 l 27.64859,-40.41929 17.11381,0 17.11382,0 0,90.94342 0,90.94346 -11.81368,0 -11.81357,0 -0.69358,-85.25398 -0.69368,-85.25395 -30.11485,47.28125 c -16.56301,26.0047 -32.55884,50.16643 -35.54584,53.69277 l -5.43121,6.4115 -36.86237,-53.47128 -36.8626,-53.47125 -0.69358,85.03245 -0.69357,85.03249 -6.44261,0 -6.44272,0 z m 245.42526,1.33705 c 0,-92.58865 1.2926,-88.25892 -28.96324,-97.02243 l -17.1147,-4.95721 75.69968,-0.23631 75.69956,-0.23631 0,15.15724 c 0,11.41217 -0.92454,15.15723 -3.74026,15.15723 -2.05722,0 -4.54519,-3.5158 -5.52898,-7.81289 -2.64856,-11.56934 -14.82228,-15.61003 -43.76069,-14.52494 -14.28751,0.53573 -24.37272,2.113 -26.49063,4.14301 -2.47194,2.36931 -3.41987,12.87323 -3.41987,37.8931 l 0,34.61516 25.672,0.72306 c 23.33459,0.65719 25.67211,1.1664 25.67211,5.59247 0,4.42609 -2.33752,4.93531 -25.67211,5.59249 l -25.672,0.72307 0,34.83167 c 0,28.21462 0.75026,35.28594 3.94951,37.22287 2.17226,1.31515 15.56085,2.40859 29.75237,2.42986 28.65465,0.0429 36.39008,-2.43028 47.60841,-15.22165 l 6.8962,-7.86317 -0.0312,7.14091 c -0.02,3.92748 -0.76329,11.40384 -1.66099,16.61415 l -1.63204,9.47324 -53.63263,0 -53.63274,0 z m -400.22077,-26.3974 -17.1147,-4.29518 -0.83801,-16.30173 c -2.05221,-39.93497 19.11802,-60.88488 62.02444,-61.37874 9.79243,-0.11277 23.43248,0.67466 30.31119,1.74963 l 12.50692,1.95457 0,11.4834 c 0,9.98353 -0.60214,11.23276 -4.60778,9.56434 -16.18248,-6.73972 -32.36953,-11.09824 -41.47028,-11.1661 -36.75702,-0.27412 -51.01258,39.40508 -24.24688,67.48962 6.26733,6.57604 6.0897,6.58571 -16.56512,0.90017 z"
         id="path5148-8"
         inkscape:connector-curvature="0"
         sodipodi:nodetypes="ccssssccscccsssscccscscsscccsssccccssccscccssscccccccccsscccccccccscccsscsssccsccscsccccccccccccccscsscc" />
      <path
         inkscape:export-ydpi="95.900002"
         inkscape:export-xdpi="95.900002"
         style="display:inline;fill:#000000;fill-rule:evenodd;stroke:#ffffff;stroke-width:4;stroke-linecap:butt;stroke-linejoin:miter;stroke-opacity:1;stroke-miterlimit:4;stroke-dasharray:none;paint-order:stroke fill markers"
         d="m 1.1226105,737.19214 797.7547795,0 L 400,761.91457 Z"
         id="path6509"
         inkscape:connector-curvature="0"
         sodipodi:nodetypes="cccc" />
      <path
         inkscape:export-ydpi="95.900002"
         inkscape:export-xdpi="95.900002"
         style="display:inline;fill:#000000;stroke:#ffffff;stroke-opacity:1;stroke-width:4;stroke-miterlimit:4;stroke-dasharray:none;paint-order:markers stroke fill"
         d="m 12.292523,700.33991 c -1.060405,-0.47554 -2.095308,-0.97649 -2.2996604,-1.11332 -0.204798,-0.13661 0.3188344,-1.09454 1.1624144,-2.12835 1.454966,-1.78279 1.722239,-1.82774 5.183867,-0.87235 2.90882,0.80289 4.238502,0.81536 6.549743,0.0607 4.220684,-1.37693 4.118563,-3.53753 -0.42062,-8.90413 -6.252402,-7.39202 -6.485152,-8.35394 -2.766942,-11.43393 4.327815,-3.58491 15.976678,-6.29051 17.661276,-4.10209 1.332689,1.73121 -0.585105,3.86311 -3.475326,3.86311 -3.272978,0 -8.983485,1.74115 -9.987317,3.04509 -0.373291,0.4846 1.303957,3.21936 3.726563,6.07737 5.660058,6.67684 6.458647,9.59934 3.35238,12.26906 -1.263866,1.08626 -3.469312,2.46441 -4.901115,3.06243 -3.094462,1.29268 -11.067878,1.39439 -13.785263,0.17571 z m 39.026285,-0.44286 c -0.01225,-0.74489 2.051319,-7.36154 4.579163,-14.70342 l 4.595978,-13.34891 8.502283,0 c 8.266414,0 8.493707,0.0464 8.19425,1.73916 -0.275514,1.55872 -0.925655,1.76535 -6.193379,1.96899 l -5.885236,0.22761 -1.103948,2.95829 c -1.694844,4.54174 -1.558312,4.71347 3.746496,4.71347 3.440358,0 5.013036,0.34049 5.410048,1.17086 1.04782,2.19253 -1.543612,3.47305 -7.028273,3.47305 -5.648477,0 -5.968202,0.25477 -7.524064,5.99841 l -0.681546,2.51544 5.860848,0 c 5.001008,0 5.860736,0.20474 5.860736,1.39328 0,2.60191 -2.058558,3.25072 -10.31506,3.25072 -6.971255,0 -8.003596,-0.17416 -8.018296,-1.35452 z m 42.957758,0.63458 c -0.34256,-0.44473 1.13513,-5.84578 3.28311,-12.00234 2.14798,-6.15668 3.905524,-11.55961 3.905524,-12.00655 0,-0.44695 -1.765444,-0.81272 -3.923234,-0.81272 -3.51708,0 -3.89127,-0.18001 -3.61508,-1.74137 0.29789,-1.68505 0.69491,-1.74856 12.232294,-1.9596 10.64236,-0.19449 11.86001,-0.0839 11.32736,1.03081 -0.32841,0.68681 -0.59691,1.54956 -0.59691,1.9171 0,0.36753 -2.06067,0.77449 -4.57916,0.90414 l -4.57917,0.2359 -3.7074,11.22277 c -2.03918,6.17247 -4.035604,11.74525 -4.436624,12.38369 -0.87977,1.4009 -4.4423,1.95629 -5.31071,0.82806 z m 36.622724,-0.0155 c -0.34801,-0.45202 0.96586,-5.43518 2.9194,-11.07357 5.2606,-15.18339 5.25503,-13.73467 0.0534,-13.73467 -4.79799,0 -4.96002,-0.11165 -3.4526,-2.37286 0.90204,-1.35319 2.11646,-1.4971 12.63554,-1.4971 10.21584,0 11.56601,0.14943 11.0524,1.22432 -0.32162,0.67333 -0.58522,1.52503 -0.58522,1.89257 0,0.36753 -2.05633,0.77438 -4.56969,0.90414 l -4.5697,0.2358 -3.23222,9.28779 c -5.60649,16.11085 -5.29445,15.46047 -7.54099,15.71747 -1.14293,0.13075 -2.36269,-0.1322 -2.7107,-0.584 z m 32.26362,-0.5767 c 0,-0.77694 1.94608,-6.80815 4.32447,-13.40259 2.37839,-6.59444 4.33049,-12.59948 4.33806,-13.34439 0.0122,-1.02994 0.82231,-1.35452 3.38791,-1.35452 1.85565,0 3.36529,0.0873 3.3546,0.1936 -0.0122,0.10602 -2.29498,6.63685 -5.07618,14.51216 -4.89599,13.86366 -5.14054,14.3265 -7.69277,14.56372 -2.02059,0.18775 -2.63609,-0.0851 -2.63609,-1.16787 z m 30.27321,0.23202 c -0.31215,-0.65246 0.0746,-2.8537 0.86006,-4.89161 0.78489,-2.0379 2.37795,-6.49163 3.54025,-9.89708 4.71235,-13.80811 4.54152,-13.54472 8.78526,-13.54472 l 3.77868,0 0.0111,3.28939 c 0.0156,6.8596 2.94145,17.60816 4.79377,17.60816 0.5635,0 4.19863,-9.57008 7.42327,-19.54314 0.29167,-0.90205 1.38214,-1.35441 3.26508,-1.35441 1.55486,0 2.8214,0.2613 2.81449,0.58047 -0.0312,1.54369 -9.7059,27.65532 -10.47175,28.27023 -3.11172,2.49788 -8.60529,-3.49435 -11.54897,-12.59705 -1.79796,-5.55965 -1.92202,-5.71282 -2.93655,-3.626 -0.58265,1.19836 -1.0761,2.59153 -1.09682,3.0959 -0.0234,0.50436 -1.05405,3.70341 -2.29676,7.10897 -1.82547,5.00304 -2.65213,6.2395 -4.30499,6.43961 -1.17277,0.14214 -2.28763,-0.25819 -2.6127,-0.93872 z m 55.82226,-1.38555 c -3.1517,-3.82941 -4.15531,-6.48632 -4.13181,-10.93806 0.0401,-7.74995 5.32953,-13.37917 14.65991,-15.60371 8.56777,-2.04288 14.06891,-1.31002 12.8732,1.71476 -0.50003,1.26473 -1.71255,1.61128 -6.7796,1.93785 -4.11032,0.26515 -7.12371,0.94258 -9.02491,2.0294 -3.15783,1.80532 -5.96564,6.60902 -5.96564,10.20608 0,2.62598 2.15299,7.24128 3.74705,8.03223 2.27883,1.13077 10.7133,-3.53245 10.7133,-5.92298 0,-0.33099 -1.22912,-0.60178 -2.73142,-0.60178 -3.34492,0 -3.94818,-0.43038 -3.31741,-2.36679 0.42585,-1.30746 1.36732,-1.50316 7.22984,-1.50316 l 6.74028,0 -0.65715,2.12846 c -2.03885,6.60273 -9.65044,12.28176 -17.53031,13.07945 -3.36241,0.34037 -3.91121,0.13418 -5.82533,-2.19175 z m 61.40081,0.94259 c 0,-0.83646 0.6096,-3.0134 1.35452,-4.83739 2.09152,-5.12132 6.35775,-17.44227 6.35775,-18.36133 0,-0.45202 -1.73527,-0.82177 -3.85608,-0.82177 -3.47054,0 -3.85619,-0.19327 -3.85619,-1.93497 l 0,-1.93499 12.15356,0 c 10.68635,0 12.08285,0.14788 11.56835,1.22432 -0.32162,0.67334 -0.58522,1.52492 -0.58522,1.89246 0,0.36764 -2.04296,0.77449 -4.53996,0.90426 l -4.53985,0.23578 -3.6299,10.06185 c -1.99642,5.53402 -3.64081,10.77573 -3.65429,11.6484 -0.0312,2.09422 -1.8179,3.44421 -4.55533,3.44421 -1.56143,0 -2.21736,-0.4498 -2.21736,-1.52083 z m 33.21098,0.53871 c -0.28687,-0.6 1.29505,-6.28411 3.51509,-12.63151 2.22003,-6.3474 4.24106,-12.49854 4.49118,-13.66918 0.37329,-1.74612 0.95484,-2.12847 3.23757,-2.12847 3.26674,0 3.44849,0.89157 1.32612,6.50842 -0.78957,2.08959 -1.43559,4.09226 -1.43559,4.45041 0,0.35793 2.74868,0.65092 6.10818,0.65092 l 6.10808,0 1.60408,-4.63219 c 0.88233,-2.5478 1.60419,-5.15997 1.60419,-5.80493 0,-1.12535 4.76069,-1.7363 5.96921,-0.76599 0.27818,0.22353 -0.33777,2.74868 -1.36944,5.61132 -1.03179,2.86266 -2.98098,8.68769 -4.3316,12.94461 -3.00025,9.45676 -3.31129,9.9988 -5.91419,10.30956 -3.09658,0.36986 -3.39092,-1.44673 -1.16966,-7.22051 1.09749,-2.85282 1.99553,-5.34043 1.99553,-5.52784 0,-0.18753 -2.90281,-0.23767 -6.45074,-0.11187 l -6.45063,0.22882 -2.0688,6.1919 c -1.71189,5.12375 -2.42918,6.23464 -4.15799,6.43961 -1.14905,0.13618 -2.32371,-0.24296 -2.61059,-0.84308 z m 48.11746,-0.17603 c -0.30469,-0.637 0.99604,-5.60018 2.89,-11.02929 1.89396,-5.42911 3.98181,-11.52558 4.63986,-13.54759 l 1.19627,-3.67647 8.31563,0 c 4.5736,0 8.58959,0.22011 8.92446,0.48881 0.33465,0.26891 0.1744,1.13949 -0.35513,1.93497 -0.77476,1.16213 -2.08451,1.44618 -6.66902,1.44618 l -5.70494,0 -1.00394,2.90241 c -1.61366,4.6651 -1.4769,4.83749 3.8357,4.83749 3.44025,0 5.01315,0.34037 5.41005,1.17075 1.0026,2.09787 -1.52736,3.39032 -7.10512,3.62986 l -5.36082,0.23015 -1.29271,3.48286 c -0.71095,1.91566 -1.29928,3.74418 -1.3073,4.06345 -0.0111,0.31927 2.5882,0.58046 5.76953,0.58046 4.92729,0 5.78423,0.20663 5.78423,1.39317 0,2.56833 -2.07047,3.25083 -9.86348,3.25083 -5.81318,0 -7.67697,-0.26648 -8.10316,-1.15826 z m 61.82978,0.24605 c -1.0604,-0.47554 -2.09519,-0.97649 -2.29955,-1.11321 -0.20479,-0.13705 0.31884,-1.09454 1.16242,-2.12835 1.45485,-1.78279 1.72224,-1.82785 5.18375,-0.87235 2.90882,0.80289 4.2385,0.81536 6.54975,0.0607 4.23995,-1.38334 4.11967,-3.53631 -0.50225,-9.00076 -2.20467,-2.60644 -4.36602,-5.74022 -4.80312,-6.96397 -0.70259,-1.96645 -0.36739,-2.53509 2.88421,-4.8936 2.5029,-1.81537 5.37909,-2.97397 8.99651,-3.62389 6.33704,-1.13861 8.62991,-0.64507 8.20171,1.76511 -0.26081,1.46805 -1.12933,1.8314 -5.61083,2.34691 -3.0909,0.35561 -6.06743,1.22442 -7.13708,2.08318 -1.80386,1.44829 -1.75698,1.56491 2.7763,6.89164 6.30909,7.41323 6.4454,10.21448 0.67074,13.78216 -3.51163,2.16943 -4.96147,2.57385 -9.15832,2.55398 -2.74244,-0.0121 -5.85383,-0.41248 -6.91424,-0.88814 z m 43.24619,-0.25313 c -0.58265,-1.21911 0.0156,-3.22035 5.05368,-16.94774 1.2348,-3.36359 2.01758,-6.41111 1.73939,-6.77235 -0.27774,-0.36135 -2.26168,-0.65688 -4.40799,-0.65688 -3.16229,0 -3.79138,-0.23237 -3.31719,-1.22432 0.32162,-0.67333 0.58521,-1.54402 0.58521,-1.93497 0,-0.39228 5.21205,-0.71067 11.63539,-0.71067 11.51489,0 11.63216,0.0187 11.32725,1.7415 -0.25648,1.45136 -0.99816,1.78135 -4.45199,1.98135 -4.88174,0.2825 -4.69108,0.0155 -8.93281,12.53079 -1.65921,4.89548 -3.33401,9.77163 -3.72178,10.8358 -0.83634,2.29556 -4.58852,3.08375 -5.50916,1.15749 z m 26.45177,0.19725 c -1.34227,-0.85071 -0.17083,-2.62599 9.6971,-14.70056 l 11.22368,-13.73302 3.72745,-0.011 c 3.40005,-0.011 3.67534,0.14787 3.134,1.7363 -1.19527,3.50651 -1.71756,17.3462 -0.82042,21.73686 0.88534,4.33247 0.83022,4.54959 -1.35819,5.35015 -2.88031,1.05357 -3.4643,0.56036 -4.13839,-3.49491 l -0.54445,-3.27502 -5.52286,-0.2317 -5.52286,-0.23159 -2.99513,3.90806 c -3.11183,4.06045 -4.30687,4.57122 -6.87993,2.94051 z m 19.90503,-11.60986 c 1.06308,-2.78059 1.39316,-8.35978 0.46739,-7.90036 -1.6013,0.79449 -6.59484,7.58087 -6.07511,8.25608 0.75794,0.98455 5.20314,0.70261 5.60772,-0.35561 z m 26.58496,11.27425 c 0.0122,-0.77318 2.10744,-7.32688 4.65578,-14.56363 l 4.6334,-13.15775 3.87456,-0.23235 3.87457,-0.23236 0.5831,6.81112 c 0.6233,7.28038 2.47316,13.48486 4.15453,13.93478 1.07789,0.28847 7.17093,-15.86302 7.13997,-18.92688 -0.0145,-1.47689 0.4949,-1.7415 3.3565,-1.7415 1.85576,0 3.3741,0.18819 3.3741,0.41823 0,0.22983 -2.18908,6.57567 -4.8647,14.10165 -4.61725,12.98746 -5.65984,14.85197 -8.32076,14.8797 -2.86817,0.0276 -7.98945,-8.28415 -9.45444,-15.34851 -0.38354,-1.85004 -1.05629,-3.06905 -1.49484,-2.70903 -0.43844,0.36014 -2.06201,4.48598 -3.60785,9.16853 -2.62807,7.96111 -2.97664,8.52975 -5.36851,8.7588 -1.94708,0.18631 -2.55256,-0.0905 -2.53541,-1.16103 z m 50.10051,0.33572 c -0.0111,-0.98256 3.54593,-11.64564 6.86034,-20.59218 1.00227,-2.70527 1.82235,-5.57875 1.82235,-6.38527 0,-1.34977 0.83779,-1.4665 10.52955,-1.4665 l 10.52954,0 1.01052,2.51543 c 4.57047,11.37662 -1.27356,22.1679 -13.87113,25.61411 -5.65527,1.54711 -16.87159,1.75595 -16.88117,0.31463 z m 15.12708,-4.49966 c 8.05783,-2.44432 13.11096,-10.41029 10.86041,-17.1207 l -1.01575,-3.02852 -5.43911,0.23082 -5.439,0.23081 -3.17921,8.90083 c -1.74863,4.89546 -3.183,9.51032 -3.18745,10.25522 -0.0111,1.57859 3.19046,1.8083 7.40011,0.53132 z m 30.42968,4.95455 c -0.66283,-0.21479 -1.20506,-0.72226 -1.20506,-1.1279 0,-0.40563 4.03548,-5.68819 8.96778,-11.73884 4.93218,-6.05065 9.79766,-12.13311 10.81219,-13.51667 1.58114,-2.1564 2.38218,-2.51543 5.61317,-2.51543 3.73814,0 3.76365,0.0221 3.14034,2.51543 -1.3289,5.31944 -1.68415,15.88721 -0.69446,20.65877 0.56885,2.74206 0.90962,5.08554 0.75738,5.20768 -0.15223,0.12215 -1.3299,0.31663 -2.61726,0.43236 -2.04364,0.18356 -2.47417,-0.23158 -3.39214,-3.2727 l -1.05139,-3.48298 -5.29478,-0.22816 -5.29479,-0.22805 -3.02319,3.90451 c -2.88031,3.71998 -3.98426,4.27747 -6.71779,3.39176 z m 20.00359,-14.12982 c 0,-1.66793 0.26338,-3.58359 0.5851,-4.25692 0.32196,-0.67333 0.16983,-1.22431 -0.33787,-1.22431 -1.19193,0 -7.00066,7.47762 -6.26655,8.06702 0.30603,0.24562 1.78561,0.44683 3.2879,0.44683 2.53453,0 2.73142,-0.21845 2.73142,-3.03262 z m 26.58351,13.96295 c -0.32507,-0.42231 1.21843,-5.92784 3.43,-12.23448 2.21168,-6.30666 4.21946,-12.5985 4.46179,-13.98206 l 0.44066,-2.51543 9.01411,0 9.01411,0 1.12745,3.02123 c 1.62268,4.34837 0.45548,8.04648 -3.39659,10.76192 -1.78795,1.26031 -3.79517,2.43725 -4.46056,2.61527 -3.24369,0.86815 2.49298,8.14665 6.8071,8.63655 1.32545,0.15074 2.36659,0.67455 2.31358,1.16412 -0.0534,0.48979 -0.16148,1.41283 -0.24099,2.05137 -0.21126,1.69599 -5.57108,1.47092 -8.78971,-0.36896 -1.47212,-0.84155 -3.82523,-3.47802 -5.22919,-5.85872 -3.44972,-5.84955 -5.20503,-5.49394 -7.84713,1.58998 -1.58649,4.2536 -2.45023,5.46278 -4.03605,5.64954 -1.10951,0.13075 -2.28351,-0.10713 -2.60858,-0.53011 z m 17.28609,-16.01554 c 3.53068,-1.34502 5.81508,-4.7656 4.83642,-7.2415 -0.50125,-1.26771 -1.43604,-1.60499 -4.44954,-1.60499 -4.20932,0 -5.09912,0.99064 -6.29828,7.01125 -0.70315,3.5308 0.48922,3.90109 5.9114,1.83524 z m 28.44407,15.34055 c 0.0111,-0.74502 1.73482,-6.1982 3.84082,-12.1182 2.10611,-5.92 4.1013,-11.92814 4.43383,-13.35123 l 0.60459,-2.58755 10.06416,0 10.06427,0 1.54495,2.90252 c 0.87153,1.63723 1.53359,4.97134 1.51878,7.64867 -0.0624,11.20467 -10.75049,18.8602 -26.3325,18.8602 -4.83842,0 -5.74859,-0.21481 -5.7389,-1.35441 z m 19.04029,-6.14983 c 4.85902,-3.15751 6.97972,-6.76186 6.96212,-11.83326 -0.02,-5.83221 -0.59101,-6.34011 -6.80621,-6.05508 l -5.19256,0.238 -3.11885,8.51385 c -1.71544,4.68255 -3.13355,9.34334 -3.15159,10.35716 -0.0301,1.71554 0.24289,1.81371 3.93737,1.41592 2.31069,-0.24926 5.3909,-1.35087 7.36972,-2.63681 z"
         id="path8680"
         inkscape:connector-curvature="0" />
      <text
         inkscape:export-ydpi="95.900002"
         inkscape:export-xdpi="95.900002"
         y="451.7124"
         x="2.6910324"
         id="text5286-0"
         style="font-variant:normal;font-weight:normal;font-stretch:normal;line-height:0%;font-family:'Lucida Sans Unicode';-inkscape-font-specification:LucidaSansUnicode;writing-mode:lr-tb;display:inline;fill:#838383;fill-opacity:1;fill-rule:nonzero;stroke:none"
         transform="scale(1.1388254,0.87809773)"><tspan
           style="font-size:37.7307px;line-height:1.25"
           id="tspan5288-6"
           sodipodi:role="line"
           y="451.7124"
           x="2.6910324 26.536959 54.269043 74.719063 86.641998 112.78935 140.67227 151.53886 176.21471 196.66479 220.51065 240.84731 251.71393 275.5596 299.06595 310.98886 340.30566 360.52942 372.45221 396.29807 416.74814 440.36752 466.40173 486.73853 498.66144 524.69568 548.54138 560.46442 588.72473 614.75879 634.86945 654.97986 681.01392">THE UNIVERSITY OF TEXAS AT DALLAS</tspan></text>
    </g>
  </g>
</svg>
