<svg id="Capa_1" enable-background="new 0 0 497 497" height="512" viewBox="0 0 497 497" width="512" xmlns="http://www.w3.org/2000/svg"><g><g fill="#423e4f"><path d="m393.288 464.06-10.328-70.38-71.875 44.922 29.669 45.376c5.313 8.125 14.366 13.022 24.075 13.022 17.548 0 31.007-15.578 28.459-32.94z"/><path d="m103.712 464.06 10.328-70.38 71.875 44.922-29.669 45.376c-5.313 8.125-14.366 13.022-24.075 13.022-17.548 0-31.007-15.578-28.459-32.94z"/></g><path d="m423.928 29.989-6.769-3.678c-11.19-6.08-25.18-2.392-31.918 8.415l-109.532 175.689 70.718 38.425 87.806-187.493c5.402-11.534.885-25.278-10.305-31.358z" fill="#edb798"/><path d="m415.421 101.517c-1.888-.157-3.791-.257-5.719-.257h-65.941l-68.052 109.155 50.621 27.506h25.211z" fill="#e8a882"/><g><path d="m69.458 203.514c-8.658 21.896-13.417 45.759-13.417 70.734 0 106.292 86.167 192.459 192.459 192.459s192.459-86.167 192.459-192.459c0-24.975-4.759-48.838-13.417-70.734l-179.042-33.924z" fill="#5c586f"/></g><path d="m131.653 314.036c0-47.905 14.301-92.463 38.846-129.667l-101.041 19.145c-8.658 21.896-13.417 45.759-13.417 70.734 0 80.993 50.035 150.292 120.876 178.696-28.456-38.96-45.264-86.968-45.264-138.908z" fill="#4f4c5f"/><path d="m409.702 131.26h-322.404c-21.169 0-38.33 17.161-38.33 38.33 0 21.169 17.161 38.33 38.33 38.33h322.404c21.169 0 38.33-17.161 38.33-38.33 0-21.169-17.161-38.33-38.33-38.33z" fill="#423e4f"/><path d="m305.503 121.162h-160.956c-16.121 0-29.189 13.068-29.189 29.189v155.799c0 13.771 11.164 24.935 24.935 24.935 13.771 0 24.935-11.164 24.935-24.935v-53.723c0-9.627 7.804-17.43 17.43-17.43 9.627 0 17.43 7.804 17.43 17.43v25.451c0 13.771 11.164 24.935 24.935 24.935 13.771 0 24.935-11.164 24.935-24.935v-34.538c0-9.627 7.804-17.43 17.43-17.43 9.627 0 17.431 7.804 17.431 17.43v9.295c0 13.771 11.164 24.935 24.935 24.935 13.771 0 24.935-11.164 24.935-24.935v-102.284c.003-16.12-13.065-29.189-29.186-29.189z" fill="#8bdf9e"/><circle cx="260.799" cy="70.112" fill="#8bdf9e" r="22.396"/><circle cx="165.248" cy="29.085" fill="#b9ebc2" r="29.085"/><g><g><path d="m162.307 382.451c-4.143 0-7.5-3.358-7.5-7.5v-16.563c0-4.142 3.357-7.5 7.5-7.5s7.5 3.358 7.5 7.5v16.563c0 4.142-3.357 7.5-7.5 7.5z" fill="#423e4f"/></g><g><path d="m334.693 382.451c-4.143 0-7.5-3.358-7.5-7.5v-16.563c0-4.142 3.357-7.5 7.5-7.5s7.5 3.358 7.5 7.5v16.563c0 4.142-3.358 7.5-7.5 7.5z" fill="#423e4f"/></g><g><path d="m248.5 392.311c-10.877 0-21.221-4.711-28.379-12.925-2.722-3.123-2.396-7.86.727-10.582 3.121-2.721 7.859-2.396 10.582.727 4.309 4.944 10.53 7.78 17.07 7.78 6.539 0 12.761-2.836 17.069-7.78 2.722-3.123 7.458-3.448 10.582-.727 3.122 2.721 3.448 7.459.727 10.582-7.158 8.214-17.502 12.925-28.378 12.925z" fill="#423e4f"/></g></g><path d="m149.807 160.192c0-13.431 1.563-26.496 4.506-39.029h-9.766c-16.121 0-29.189 13.068-29.189 29.189v155.798c0 13.771 11.164 24.935 24.935 24.935 13.771 0 24.935-11.164 24.935-24.935v-53.723c0-4.606 1.8-8.783 4.718-11.899-12.845-23.927-20.139-51.279-20.139-80.336z" fill="#55d47b"/></g></svg>