<svg height="512" viewBox="0 0 128 128" width="512" xmlns="http://www.w3.org/2000/svg"><g><path d="m98.605 109.964-2.248-.659a4.043 4.043 0 0 0 -4.807 2.185l-2.606 5.646a4.043 4.043 0 0 1 -5.54 1.889l-4.453-2.325a4.042 4.042 0 0 0 -5.656 2.167 4.053 4.053 0 0 1 -4.937 2.465c-11.2-3.308-20.044-7.871-26.778-13.34-12.08-9.792-17.389-22.487-17.389-36.092v-29.374a36.027 36.027 0 0 1 36.027-36.026 36.026 36.026 0 0 1 36.026 36.026v29.374c0 11.794 2.324 23.083 7.113 32.379a4.036 4.036 0 0 1 -4.752 5.685z" fill="#eaeaf0"/><g fill="#575f64"><ellipse cx="45.778" cy="45.964" rx="6" ry="8.333"/><ellipse cx="74.581" cy="45.964" rx="6" ry="8.333"/></g><path d="m32.585 87.725a1.752 1.752 0 0 1 -1.643-1.148 42.522 42.522 0 0 1 -2.5-14.674 1.75 1.75 0 0 1 3.5 0 38.99 38.99 0 0 0 2.288 13.469 1.753 1.753 0 0 1 -1.644 2.353z" fill="#bcbcc1"/></g></svg>