<?xml version="1.0" encoding="iso-8859-1"?>
<!-- Generator: Adobe Illustrator 19.0.0, SVG Export Plug-In . SVG Version: 6.00 Build 0)  -->
<svg version="1.1" id="Capa_1" xmlns="http://www.w3.org/2000/svg" xmlns:xlink="http://www.w3.org/1999/xlink" x="0px" y="0px"
	 viewBox="0 0 512 512" style="enable-background:new 0 0 512 512;" xml:space="preserve">
<path style="fill:#F9D366;" d="M159.109,178.463l7.659-1.553c10.107-2.049,10.107-16.495,0-18.544l-7.659-1.553
	c-19.294-3.912-34.373-18.991-38.284-38.284l-1.553-7.659c-2.049-10.107-16.495-10.107-18.544,0l-1.553,7.659
	c-3.912,19.294-18.991,34.373-38.284,38.284l-7.659,1.553c-10.107,2.049-10.107,16.495,0,18.544l7.659,1.553
	c19.294,3.912,34.373,18.991,38.284,38.284l1.553,7.659c2.049,10.107,16.495,10.107,18.544,0l1.553-7.659
	C124.736,197.454,139.815,182.375,159.109,178.463z"/>
<path style="fill:#9966CC;" d="M512,378.254c0,55.975-114.615,101.355-256,101.355c-30.051,0-58.89-2.048-85.682-5.82
	C71.074,459.839,0,422.327,0,378.254c0-39.737,57.752-74.125,141.834-90.749l82.171-0.606l137.488-1.024
	C450.246,301.788,512,337.168,512,378.254z"/>
<path style="fill:#8959C1;" d="M170.318,473.788C71.074,459.839,0,422.327,0,378.254c0-39.737,57.752-74.125,141.834-90.749
	l82.171-0.606l-66.121,90.614C157.884,377.512,104.009,407.468,170.318,473.788z"/>
<path style="fill:#CFB1FC;" d="M390.314,378.252c0,29.372-60.134,53.175-134.311,53.175c-34.523,0-65.996-5.151-89.788-13.625
	c-27.335-9.738-44.523-23.845-44.523-39.549l27.732-61.649l-12.539-48.065l68.963-68.963v-64.784l133.747-102.4l-23.28,69.841
	l-12.246,36.739l8.944,19.665l11.954,26.311l-7.356,34.304v0.01l-5.183,24.2l11.264,9.738l50.385,43.551L390.314,378.252z"/>
<path style="fill:#CF8BFC;" d="M339.592,32.393l-87.677,114.73v42.308l-59.559,92.473l17.241,42.318l-43.384,93.581
	c-27.335-9.738-44.523-23.845-44.523-39.549l27.732-61.649l-12.539-48.065l68.963-68.963v-64.784L339.592,32.393z"/>
<path style="fill:#F9D366;" d="M468.765,265.49l7.504-1.521c9.904-2.008,9.904-16.161,0-18.169l-7.504-1.521
	c-18.903-3.833-33.677-18.607-37.51-37.51l-1.521-7.504c-2.008-9.904-16.161-9.904-18.169,0l-1.521,7.504
	c-3.833,18.903-18.606,33.677-37.51,37.51l-7.504,1.521c-9.904,2.008-9.904,16.161,0,18.169l7.504,1.521
	c18.903,3.833,33.677,18.607,37.51,37.51l1.521,7.504c2.008,9.904,16.161,9.904,18.169,0l1.521-7.504
	C435.088,284.096,449.862,269.321,468.765,265.49z"/>
<g>
	<polygon style="fill:#CF8BFC;" points="323.692,253.2 306.691,270.2 312.428,243.46 	"/>
	<polygon style="fill:#CF8BFC;" points="313.013,158.636 292.909,172.45 304.068,138.97 	"/>
	<polygon style="fill:#CF8BFC;" points="236.692,366.502 287.892,313.5 350.376,316.553 296.685,333.869 	"/>
</g>
<g>
</g>
<g>
</g>
<g>
</g>
<g>
</g>
<g>
</g>
<g>
</g>
<g>
</g>
<g>
</g>
<g>
</g>
<g>
</g>
<g>
</g>
<g>
</g>
<g>
</g>
<g>
</g>
<g>
</g>
</svg>
