<?xml version="1.0" encoding="UTF-8" standalone="no"?>
<svg
   xmlns:dc="http://purl.org/dc/elements/1.1/"
   xmlns:cc="http://creativecommons.org/ns#"
   xmlns:rdf="http://www.w3.org/1999/02/22-rdf-syntax-ns#"
   xmlns:svg="http://www.w3.org/2000/svg"
   xmlns="http://www.w3.org/2000/svg"
   viewBox="0 0 435.61334 256.18668"
   height="256.18668"
   width="435.61334"
   xml:space="preserve"
   id="svg2"
   version="1.1"><metadata
     id="metadata8"><rdf:RDF><cc:Work
         rdf:about=""><dc:format>image/svg+xml</dc:format><dc:type
           rdf:resource="http://purl.org/dc/dcmitype/StillImage" /></cc:Work></rdf:RDF></metadata><defs
     id="defs6" /><g
     transform="matrix(1.3333333,0,0,-1.3333333,0,256.18667)"
     id="g10"><g
       transform="scale(0.1)"
       id="g12"><path
         id="path14"
         style="fill:#534a77;fill-opacity:1;fill-rule:nonzero;stroke:none"
         d="m 1396.95,1155.31 c -3.77,-6.56 -7.98,-11.28 -12.7,-14.1 -4.67,-2.82 -10.55,-4.22 -17.62,-4.22 -7.97,0 -16.68,2.48 -26.1,7.41 -9.39,4.95 -20.44,10.43 -33.12,16.57 -12.69,6.1 -27.61,11.65 -44.78,16.57 -17.15,4.91 -37.25,7.42 -60.29,7.42 -18.79,0 -35.84,-2.25 -51.1,-6.73 -15.31,-4.47 -28.2,-10.81 -38.82,-19.03 -10.59,-8.22 -18.69,-17.87 -24.32,-28.9 -5.63,-11.06 -8.44,-22.89 -8.44,-35.62 0,-16.93 5.15,-31.03 15.49,-42.3 10.34,-11.28 23.94,-21.08 40.9,-29.27 16.93,-8.2 36.2,-15.65 57.82,-22.19 21.64,-6.623 43.72,-13.666 66.26,-21.19 22.6,-7.507 44.67,-16.226 66.32,-26.074 21.62,-9.883 40.9,-21.972 57.8,-36.324 16.92,-14.352 30.57,-31.723 40.91,-52.203 10.33,-20.41 15.5,-45.188 15.5,-74.348 0,-33.851 -6.08,-65.14 -18.33,-93.769 -12.23,-28.731 -30.09,-53.641 -53.57,-74.77 -23.52,-21.191 -52.76,-37.601 -87.81,-49.363 -35,-11.758 -75.09,-17.649 -120.21,-17.649 -24.94,0 -49.02,2.239 -72.29,6.739 -23.25,4.422 -45.36,10.531 -66.29,18.32 -20.91,7.742 -40.414,17.043 -58.508,27.883 -18.097,10.75 -34.187,22.508 -48.304,35.199 l 35.257,57.859 c 4.243,7.04 9.5,12.559 15.852,16.54 6.336,4.019 14.227,6.011 23.602,6.011 9.906,0 19.681,-3.191 29.301,-9.531 9.61,-6.34 20.91,-13.27 33.86,-20.809 12.92,-7.543 28.52,-14.453 46.85,-20.793 18.38,-6.347 41.16,-9.539 68.43,-9.539 22.56,0 42.09,2.731 58.51,8.11 16.45,5.402 30.09,12.84 40.93,22.222 10.79,9.43 18.78,20.11 23.97,32.098 5.16,11.981 7.74,24.832 7.74,38.43 0,18.32 -5.19,33.371 -15.54,45.113 -10.32,11.727 -24.06,21.859 -41.23,30.328 -17.15,8.488 -36.66,15.988 -58.5,22.59 -21.86,6.559 -44.09,13.602 -66.66,21.141 -22.57,7.5 -44.78,16.168 -66.64,26.058 -21.88,9.91 -41.34,22.485 -58.514,37.766 -17.171,15.277 -30.918,33.844 -41.261,55.685 -10.348,21.87 -15.524,48.53 -15.524,80.07 0,28.66 5.758,55.95 17.282,81.78 11.511,25.84 28.433,48.64 50.777,68.39 22.33,19.74 49.83,35.37 82.48,46.9 32.68,11.48 70.43,17.25 113.2,17.25 48.42,0 92.39,-7.74 131.85,-23.25 39.5,-15.51 72.66,-36.68 99.43,-63.47 l -33.85,-55.01" /><path
         id="path16"
         style="fill:#534a77;fill-opacity:1;fill-rule:nonzero;stroke:none"
         d="m 1466.05,1285.79 h 119.87 c 11.77,0 21.52,-2.98 29.28,-8.83 7.74,-5.87 12.78,-12.82 15.15,-20.81 l 119.87,-418.869 c 4.73,-19.25 8.82,-37.929 12.34,-56.051 3.52,-18.101 6.71,-36.07 9.53,-53.941 4.7,17.871 9.58,35.84 14.48,53.941 4.97,18.122 10.53,36.801 16.64,56.051 l 135.04,420.999 c 2.4,8.45 7.2,15.36 14.5,20.81 7.28,5.4 16.08,8.09 26.44,8.09 h 66.27 c 10.79,0 20,-2.69 27.5,-8.09 7.51,-5.45 12.46,-12.36 14.78,-20.81 l 131.21,-420.999 c 5.15,-19.25 10.29,-38.062 15.51,-56.351 5.15,-18.348 9.86,-36.469 14.08,-54.34 5.65,35.742 13.64,72.629 23.98,110.691 l 121.97,418.869 c 2.86,8.46 8.01,15.53 15.53,21.15 7.54,5.66 16.73,8.49 27.52,8.49 h 114.23 L 2321.19,566.488 h -120.58 c -14.12,0 -24.01,9.184 -29.63,27.532 l -143.12,447.77 c -3.81,12.67 -7.18,25.26 -10.27,37.74 -3.04,12.4 -5.74,25.01 -8.1,37.72 -5.17,-25.38 -11.53,-50.79 -19.04,-76.15 L 1844.97,594.02 c -5.22,-18.348 -16.26,-27.532 -33.27,-27.532 h -115.04 l -230.61,719.302" /><path
         id="path18"
         style="fill:#534a77;fill-opacity:1;fill-rule:nonzero;stroke:none"
         d="m 2912.12,1187.03 c -55.04,0 -98.29,-15.74 -129.76,-47.21 -31.51,-31.51 -51.52,-75.72 -59.97,-132.55 h 357.57 c 0,25.34 -3.7,49.02 -10.96,70.83 -7.31,21.87 -17.95,40.92 -32.09,57.11 -14.08,16.26 -31.62,28.94 -52.53,38.1 -20.91,9.14 -45.04,13.72 -72.26,13.72 z m -2.86,110.01 c 44.21,0 85.08,-7.19 122.7,-21.52 37.6,-14.3 70.05,-35.34 97.31,-63.08 27.27,-27.75 48.56,-61.68 63.82,-101.9 15.27,-40.2 22.89,-85.92 22.89,-137.138 0,-23.55 -2.56,-39.261 -7.74,-47.25 -5.13,-7.972 -14.57,-11.992 -28.15,-11.992 h -461.92 c 1.86,-40.89 8.22,-76.25 19.03,-106.109 10.78,-29.879 25.31,-54.653 43.38,-74.403 18.09,-19.75 39.73,-34.449 64.86,-44.109 25.17,-9.598 53.26,-14.398 84.3,-14.398 29.61,0 55.2,3.398 76.88,10.211 21.55,6.796 40.39,14.32 56.38,22.558 15.98,8.219 29.58,15.719 40.89,22.57 11.29,6.79 21.63,10.231 31.02,10.231 12.2,0 21.63,-4.723 28.21,-14.121 l 43.03,-55.692 c -17.87,-21.136 -38.09,-39.039 -60.64,-53.589 -22.55,-14.598 -46.58,-26.457 -71.96,-35.629 -25.4,-9.18 -51.47,-15.739 -78.27,-19.711 -26.79,-4 -52.89,-6.008 -78.28,-6.008 -49.81,0 -95.99,8.348 -138.53,25.031 -42.56,16.637 -79.43,41.25 -110.72,73.649 -31.28,32.461 -55.69,72.648 -73.34,120.609 -17.61,47.949 -26.41,103.172 -26.41,165.719 0,49.824 7.84,96.361 23.58,139.601 15.76,43.29 38.35,80.89 67.73,112.82 29.36,31.99 65.09,57.25 107.16,75.82 42.06,18.55 89.64,27.83 142.79,27.83" /><path
         id="path20"
         style="fill:#d5c53b;fill-opacity:1;fill-rule:nonzero;stroke:none"
         d="m 236.078,1769.03 c 7.863,-14.02 16.582,-27.67 23.574,-42.07 15.356,-31.31 17.688,-63.92 6.602,-97.09 -2.481,-7.39 -5.414,-14.48 -8.637,-21.42 l 110.336,-58.56 c 39.438,55.83 104.192,92.6 177.758,92.88 70.449,0.22 133.195,-32.95 173.348,-84.61 l 110.972,61.58 c -1.808,4.33 -3.73,8.6 -5.238,13.17 -8.59,25.39 -9.07,51.07 -1.164,76.86 5.57,18.42 14.965,35.09 24.762,51.53 7.714,12.94 15.304,25.9 22.347,39.17 4.965,9.33 7.672,19.58 7.25,30.37 -0.675,14.14 -7.168,25.66 -16.793,35.33 -22.511,22.88 -49.957,38.08 -79.668,49.34 -7.281,2.78 -15.144,3.95 -22.754,5.88 -4.339,0 -8.757,-0.03 -13.101,-0.08 -3.34,-0.85 -6.719,-1.58 -10.047,-2.71 -11.137,-3.79 -19.707,-11.16 -26.059,-20.66 -7.086,-10.53 -13.488,-21.54 -19.632,-32.62 -8.829,-15.87 -17.204,-32.02 -28.2,-46.6 -22.015,-29.17 -51.351,-45.7 -87.351,-50.87 -25.36,-3.57 -50.488,-3.04 -75.426,3.17 -31.902,7.94 -56.855,26.11 -74.918,53.25 -10.246,15.36 -18.684,31.93 -28.266,47.79 -5.804,9.64 -11.636,19.3 -18.46,28.24 -8.165,10.73 -19.192,17.6 -32.977,19.18 -0.34,0.05 -0.672,0.33 -0.969,0.53 -3.613,0 -7.258,0 -10.945,-0.05 -3.289,-0.63 -6.57,-1.16 -9.949,-1.86 -18.528,-4.05 -35.301,-12.49 -51.535,-21.99 -15.653,-9.13 -30.575,-19.18 -42.915,-32.63 -16.109,-17.51 -20.859,-37.37 -10.921,-59.34 5.449,-12.08 12.449,-23.49 18.976,-35.11" /><path
         id="path22"
         style="fill:#534a77;fill-opacity:1;fill-rule:nonzero;stroke:none"
         d="m 1086.21,1479.63 c -6.63,21.54 -20.12,35.91 -42.97,39.21 -10.99,1.65 -22.22,1.77 -33.34,1.77 -22.002,-0.02 -44.087,-1.95 -66.103,1.16 -26.797,3.82 -50.496,14.26 -70.176,32.98 -4.32,4.12 -8.332,8.44 -12.125,12.89 l -112.34,-62.3 c 10.067,-24.86 15.68,-52.03 15.746,-80.48 0.25,-106.51 -75.359,-195.11 -175.894,-214.96 v -131.55 c 31.504,-6.97 57.539,-23.58 77.515,-50.9 11.836,-16.22 20.606,-34.169 30.661,-51.489 5.847,-9.949 12.14,-19.832 19.25,-28.965 8.394,-10.848 19.836,-17.254 33.789,-18.535 9.058,-0.813 17.933,0.449 26.547,3.156 28.48,8.887 53.753,23.766 76.753,42.485 5.614,4.566 10.645,9.945 15.231,15.578 14.23,17.53 15.387,36.9 5.969,56.9 -5.364,11.36 -12.09,22.07 -18.25,33.05 -7.707,13.68 -16.227,26.98 -23.153,41.05 -15.207,30.89 -17.871,63.13 -7.316,96.06 8.098,25.23 20.941,47.9 38.117,68.06 17.895,20.98 40.074,35.28 67.004,41.72 20.711,4.99 41.809,4.89 62.93,4.49 14.365,-0.25 28.865,-0.32 43.245,0.68 14.61,0.96 27.85,6.11 37.65,17.97 6.03,7.25 9.8,15.78 12.26,24.83 5.69,20.87 6.15,42.21 5.34,63.61 -0.55,14.06 -2.2,28.03 -6.34,41.53" /><path
         id="path24"
         style="fill:#a6a5a6;fill-opacity:1;fill-rule:nonzero;stroke:none"
         d="m 528.223,1206.73 c -111.774,9.22 -200.121,102.49 -200.469,216.75 -0.082,25.41 4.351,49.73 12.281,72.41 l -116.59,61.88 c -0.172,-0.21 -0.363,-0.51 -0.547,-0.69 -15.203,-15.93 -33.293,-27.28 -54.492,-33.57 -16.539,-4.87 -33.504,-6.54 -50.636,-6.49 -17.8012,-0.05 -35.6567,0.63 -53.4302,0.3 -7.3281,-0.15 -14.7695,-1.4 -21.871,-3.27 -19.4649,-5.07 -30.2774,-18.92 -36.04692,-37.49 -5.746099,-18.6 -6.570318,-37.8 -6.4023487,-57.17 0.1757817,-17.51 1.5273487,-34.89 6.8749987,-51.71 6.71877,-21.23 20.41017,-35.08 42.86717,-38.42 10.4297,-1.47 21.0078,-1.72 31.5469,-1.67 22.7694,0.1 45.5394,2.07 68.2734,-1.21 24.547,-3.61 46.66,-12.74 65.43,-29.19 24.586,-21.67 41.172,-48.71 52.09,-79.35 9.816,-27.5 10.199,-55.24 0.914,-83.04 -5.473,-16.28 -13.743,-31.21 -22.453,-45.89 -7.875,-13.32 -15.762,-26.65 -23.153,-40.31 -4.609,-8.43 -7.344,-17.72 -7.64,-27.4 -0.532,-15.46 6.293,-27.884 16.39,-38.813 12.426,-13.434 27.496,-23.317 43.164,-32.301 17.324,-9.934 35.071,-18.77 55.008,-22.238 19.539,-3.356 36.395,1.593 49.352,17.023 5.66,6.692 10.629,14.149 15.093,21.656 10.176,17.258 19.168,35.123 29.731,52.103 18.183,29.19 43.519,49.47 77.301,58.22 9.121,2.33 18.277,3.81 27.414,4.65 v 125.23" /><path
         id="path26"
         style="fill:#231f20;fill-opacity:1;fill-rule:nonzero;stroke:none"
         d="m 994.684,421.988 c -0.692,-1.269 -1.485,-2.179 -2.282,-2.746 -0.836,-0.562 -1.832,-0.883 -3.043,-0.883 -1.281,0 -2.625,0.45 -4.129,1.43 -1.476,0.922 -3.218,1.953 -5.277,3.102 -2.058,1.14 -4.465,2.168 -7.215,3.109 -2.73,0.941 -5.965,1.43 -9.703,1.43 -3.387,0 -6.359,-0.41 -8.887,-1.219 -2.539,-0.82 -4.668,-1.941 -6.394,-3.402 -1.691,-1.477 -2.992,-3.188 -3.84,-5.219 -0.824,-2.02 -1.262,-4.25 -1.262,-6.66 0,-3.051 0.883,-5.641 2.575,-7.668 1.734,-2.063 4.011,-3.813 6.847,-5.262 2.821,-1.418 6.059,-2.762 9.688,-3.879 3.629,-1.141 7.336,-2.359 11.101,-3.672 3.821,-1.32 7.535,-2.82 11.153,-4.508 3.636,-1.75 6.847,-3.929 9.699,-6.55 2.844,-2.61 5.101,-5.84 6.835,-9.602 1.71,-3.828 2.57,-8.449 2.57,-13.879 0,-5.922 -1.01,-11.449 -3.04,-16.609 -2.021,-5.18 -4.978,-9.66 -8.857,-13.469 -3.907,-3.844 -8.664,-6.883 -14.285,-9.07 -5.602,-2.203 -12.036,-3.313 -19.262,-3.313 -4.145,0 -8.262,0.403 -12.313,1.242 -4.043,0.809 -7.918,1.989 -11.636,3.481 -3.715,1.469 -7.192,3.328 -10.461,5.437 -3.254,2.102 -6.137,4.473 -8.684,7.039 l 7.164,11.684 c 0.602,0.828 1.383,1.547 2.352,2.129 0.968,0.57 2.004,0.848 3.082,0.848 1.496,0 3.14,-0.618 4.871,-1.84 1.765,-1.258 3.836,-2.61 6.262,-4.09 2.406,-1.559 5.222,-2.91 8.453,-4.129 3.238,-1.281 7.113,-1.879 11.64,-1.879 6.93,0 12.309,1.649 16.114,4.949 3.804,3.27 5.691,7.981 5.691,14.168 0,3.422 -0.867,6.203 -2.574,8.403 -1.715,2.168 -3.977,4 -6.836,5.5 -2.832,1.461 -6.067,2.679 -9.684,3.718 -3.609,1.02 -7.316,2.153 -11.047,3.36 -3.738,1.211 -7.418,2.672 -11.031,4.32 -3.633,1.68 -6.848,3.93 -9.687,6.609 -2.848,2.743 -5.122,6.133 -6.825,10.231 -1.734,4.07 -2.617,9.09 -2.617,15.043 0,4.777 0.969,9.43 2.871,13.949 1.899,4.508 4.668,8.52 8.285,12.027 3.629,3.512 8.075,6.313 13.395,8.422 5.312,2.129 11.422,3.16 18.301,3.16 7.707,0 14.832,-1.179 21.355,-3.601 6.524,-2.399 12.051,-5.797 16.653,-10.137 l -6.086,-11.504" /><path
         id="path28"
         style="fill:#231f20;fill-opacity:1;fill-rule:nonzero;stroke:none"
         d="m 1061.88,330.738 c 7.71,0 13.44,2.582 17.16,7.793 3.69,5.199 5.55,12.801 5.55,22.809 0,9.992 -1.86,17.648 -5.55,22.89 -3.72,5.27 -9.45,7.872 -17.16,7.872 -7.85,0 -13.68,-2.633 -17.43,-7.911 -3.77,-5.281 -5.65,-12.902 -5.65,-22.851 0,-9.93 1.88,-17.539 5.65,-22.758 3.75,-5.262 9.58,-7.844 17.43,-7.844 z m 0,78.481 c 6.86,0 13.13,-1.137 18.76,-3.328 5.65,-2.262 10.47,-5.411 14.48,-9.512 4.03,-4.09 7.13,-9.117 9.28,-15.02 2.2,-5.937 3.27,-12.527 3.27,-19.828 0,-7.371 -1.07,-14 -3.27,-19.941 -2.15,-5.918 -5.25,-10.942 -9.28,-15.11 -4.01,-4.171 -8.83,-7.359 -14.48,-9.589 -5.63,-2.2 -11.9,-3.332 -18.76,-3.332 -6.95,0 -13.24,1.132 -18.95,3.332 -5.66,2.23 -10.52,5.418 -14.51,9.589 -4.02,4.168 -7.12,9.192 -9.31,15.11 -2.23,5.941 -3.32,12.57 -3.32,19.941 0,7.301 1.09,13.891 3.32,19.828 2.19,5.903 5.29,10.93 9.31,15.02 3.99,4.101 8.85,7.25 14.51,9.512 5.71,2.191 12,3.328 18.95,3.328" /><path
         id="path30"
         style="fill:#231f20;fill-opacity:1;fill-rule:nonzero;stroke:none"
         d="m 1191.31,388.121 c -0.67,-0.82 -1.33,-1.492 -1.95,-1.98 -0.66,-0.52 -1.56,-0.719 -2.76,-0.719 -1.15,0 -2.25,0.328 -3.36,1.058 -1.06,0.7 -2.38,1.469 -3.87,2.329 -1.52,0.863 -3.32,1.691 -5.4,2.382 -2.07,0.688 -4.66,1.028 -7.75,1.028 -3.91,0 -7.35,-0.699 -10.3,-2.149 -2.97,-1.39 -5.44,-3.441 -7.39,-6.109 -1.95,-2.672 -3.42,-5.871 -4.38,-9.652 -0.97,-3.75 -1.46,-8.02 -1.46,-12.778 0,-4.949 0.53,-9.351 1.58,-13.242 1.06,-3.828 2.59,-7.109 4.6,-9.707 1.96,-2.633 4.38,-4.652 7.22,-5.992 2.83,-1.34 6.04,-2.008 9.58,-2.008 3.56,0 6.45,0.43 8.66,1.309 2.2,0.847 4.05,1.839 5.55,2.898 1.53,1.043 2.82,2 3.96,2.871 1.09,0.91 2.35,1.309 3.76,1.309 1.8,0 3.16,-0.699 4.06,-2.078 l 6.43,-8.141 c -2.47,-2.891 -5.17,-5.309 -8.05,-7.289 -2.91,-1.949 -5.9,-3.52 -9,-4.699 -3.12,-1.18 -6.33,-1.981 -9.61,-2.512 -3.28,-0.469 -6.55,-0.691 -9.82,-0.691 -5.73,0 -11.14,1.062 -16.2,3.203 -5.06,2.148 -9.5,5.269 -13.32,9.359 -3.79,4.09 -6.8,9.141 -8.99,15.059 -2.22,5.968 -3.3,12.73 -3.3,20.351 0,6.801 0.98,13.117 2.94,18.969 1.96,5.809 4.83,10.852 8.64,15.109 3.78,4.25 8.51,7.571 14.13,10.012 5.6,2.379 12.07,3.598 19.37,3.598 6.93,0 13.01,-1.137 18.22,-3.328 5.24,-2.262 9.93,-5.461 14.1,-9.629 l -5.89,-8.141" /><path
         id="path32"
         style="fill:#231f20;fill-opacity:1;fill-rule:nonzero;stroke:none"
         d="m 1235.19,407.762 v -92.871 h -22.41 v 92.871 z m 3.11,27.078 c 0,-1.91 -0.42,-3.731 -1.18,-5.399 -0.8,-1.73 -1.83,-3.222 -3.15,-4.461 -1.27,-1.281 -2.79,-2.289 -4.55,-3.031 -1.76,-0.777 -3.62,-1.148 -5.61,-1.148 -1.94,0 -3.77,0.371 -5.5,1.148 -1.7,0.742 -3.18,1.75 -4.46,3.031 -1.26,1.239 -2.28,2.731 -3.05,4.461 -0.75,1.668 -1.13,3.489 -1.13,5.399 0,2.012 0.38,3.879 1.13,5.621 0.77,1.738 1.79,3.25 3.05,4.488 1.28,1.301 2.76,2.281 4.46,3.082 1.73,0.731 3.56,1.098 5.5,1.098 1.99,0 3.85,-0.367 5.61,-1.098 1.76,-0.801 3.28,-1.781 4.55,-3.082 1.32,-1.238 2.35,-2.75 3.15,-4.488 0.76,-1.742 1.18,-3.609 1.18,-5.621" /><path
         id="path34"
         style="fill:#231f20;fill-opacity:1;fill-rule:nonzero;stroke:none"
         d="m 1298.03,393.219 c -6.52,0 -11.62,-1.867 -15.28,-5.547 -3.72,-3.641 -6.05,-8.891 -7.06,-15.66 h 42.16 c 0,2.929 -0.41,5.636 -1.21,8.207 -0.84,2.57 -2.05,4.82 -3.67,6.73 -1.62,1.91 -3.7,3.442 -6.21,4.582 -2.51,1.129 -5.41,1.688 -8.73,1.688 z m -0.47,16 c 5.86,0 11.27,-0.91 16.22,-2.797 4.94,-1.863 9.2,-4.613 12.77,-8.211 3.58,-3.563 6.33,-8.012 8.38,-13.211 2,-5.199 3.01,-11.16 3.01,-17.879 0,-3.371 -0.34,-5.66 -1.07,-6.812 -0.73,-1.168 -2.12,-1.778 -4.17,-1.778 h -57.5 c 0.39,-4.761 1.21,-8.902 2.55,-12.351 1.32,-3.481 3.09,-6.34 5.25,-8.598 2.16,-2.25 4.76,-3.934 7.73,-5.07 3.01,-1.121 6.31,-1.692 9.93,-1.692 3.61,0 6.74,0.45 9.37,1.282 2.63,0.859 4.91,1.789 6.86,2.796 1.99,1.012 3.69,1.973 5.17,2.84 1.49,0.832 2.91,1.231 4.29,1.231 1.87,0 3.29,-0.699 4.17,-2.078 l 6.45,-8.141 c -2.49,-2.891 -5.26,-5.309 -8.33,-7.289 -3.08,-1.949 -6.3,-3.52 -9.65,-4.699 -3.36,-1.18 -6.78,-1.981 -10.24,-2.512 -3.46,-0.469 -6.81,-0.691 -10.09,-0.691 -6.46,0 -12.46,1.062 -18.01,3.203 -5.55,2.148 -10.38,5.289 -14.49,9.476 -4.1,4.211 -7.32,9.41 -9.67,15.582 -2.37,6.192 -3.52,13.352 -3.52,21.489 0,6.363 1,12.32 3.07,17.902 2.04,5.59 4.98,10.437 8.82,14.57 3.82,4.129 8.51,7.399 14.03,9.84 5.51,2.379 11.74,3.598 18.67,3.598" /><path
         id="path36"
         style="fill:#231f20;fill-opacity:1;fill-rule:nonzero;stroke:none"
         d="m 1384.56,313.449 c -8.08,0 -14.27,2.289 -18.6,6.832 -4.31,4.539 -6.48,10.848 -6.48,18.867 v 51.883 h -9.51 c -1.18,0 -2.21,0.41 -3.07,1.188 -0.84,0.761 -1.25,1.961 -1.25,3.511 v 8.872 l 14.92,2.437 4.7,25.359 c 0.32,1.223 0.87,2.153 1.74,2.801 0.84,0.653 1.92,1 3.25,1 h 11.58 v -29.238 h 24.82 v -15.93 h -24.82 v -50.34 c 0,-2.882 0.71,-5.16 2.13,-6.8 1.42,-1.621 3.35,-2.43 5.85,-2.43 1.38,0 2.54,0.18 3.46,0.508 0.97,0.32 1.78,0.691 2.47,1.031 0.69,0.371 1.31,0.73 1.84,1.059 0.56,0.32 1.09,0.48 1.65,0.48 0.66,0 1.19,-0.16 1.63,-0.48 0.41,-0.329 0.85,-0.86 1.34,-1.508 l 6.71,-10.852 c -3.27,-2.711 -7.02,-4.777 -11.21,-6.187 -4.26,-1.352 -8.62,-2.063 -13.15,-2.063" /><path
         id="path38"
         style="fill:#231f20;fill-opacity:1;fill-rule:nonzero;stroke:none"
         d="m 1454.72,289.371 c -0.66,-1.59 -1.53,-2.762 -2.59,-3.562 -1.05,-0.829 -2.68,-1.219 -4.83,-1.219 h -16.66 l 17.36,37.191 -37.55,85.981 h 19.65 c 1.74,0 3.12,-0.41 4.13,-1.25 0.97,-0.871 1.72,-1.832 2.2,-2.883 l 19.72,-48.168 c 1.23,-3.313 2.21,-6.602 3.01,-9.852 0.48,1.68 1.01,3.332 1.57,5.032 0.57,1.621 1.2,3.269 1.87,4.898 l 18.64,48.09 c 0.48,1.223 1.27,2.191 2.41,2.961 1.1,0.801 2.36,1.172 3.73,1.172 h 17.93 l -50.59,-118.391" /><path
         id="path40"
         style="fill:#231f20;fill-opacity:1;fill-rule:nonzero;stroke:none"
         d="m 1596.99,330.738 c 7.74,0 13.46,2.582 17.17,7.793 3.73,5.199 5.57,12.801 5.57,22.809 0,9.992 -1.84,17.648 -5.57,22.89 -3.71,5.27 -9.43,7.872 -17.17,7.872 -7.83,0 -13.64,-2.633 -17.43,-7.911 -3.76,-5.281 -5.64,-12.902 -5.64,-22.851 0,-9.93 1.88,-17.539 5.64,-22.758 3.79,-5.262 9.6,-7.844 17.43,-7.844 z m 0,78.481 c 6.9,0 13.16,-1.137 18.78,-3.328 5.68,-2.262 10.51,-5.411 14.52,-9.512 4.01,-4.09 7.08,-9.117 9.26,-15.02 2.17,-5.937 3.27,-12.527 3.27,-19.828 0,-7.371 -1.1,-14 -3.27,-19.941 -2.18,-5.918 -5.25,-10.942 -9.26,-15.11 -4.01,-4.171 -8.84,-7.359 -14.52,-9.589 -5.62,-2.2 -11.88,-3.332 -18.78,-3.332 -6.93,0 -13.22,1.132 -18.89,3.332 -5.69,2.23 -10.52,5.418 -14.53,9.589 -4.01,4.168 -7.12,9.192 -9.34,15.11 -2.19,5.941 -3.28,12.57 -3.28,19.941 0,7.301 1.09,13.891 3.28,19.828 2.22,5.903 5.33,10.93 9.34,15.02 4.01,4.101 8.84,7.25 14.53,9.512 5.67,2.191 11.96,3.328 18.89,3.328" /><path
         id="path42"
         style="fill:#231f20;fill-opacity:1;fill-rule:nonzero;stroke:none"
         d="m 1664.17,314.891 v 76.058 l -8.05,1.27 c -1.77,0.351 -3.14,0.961 -4.22,1.832 -1.04,0.91 -1.57,2.168 -1.57,3.781 v 9.129 h 13.84 v 6.879 c 0,5.32 0.81,10.082 2.42,14.289 1.58,4.23 3.89,7.84 6.88,10.801 2.99,2.949 6.61,5.211 10.91,6.8 4.26,1.54 9.11,2.352 14.45,2.352 4.29,0 8.29,-0.613 11.97,-1.742 l -0.47,-11.219 c -0.06,-0.851 -0.29,-1.539 -0.71,-2.031 -0.44,-0.531 -0.96,-0.899 -1.68,-1.211 -0.69,-0.27 -1.5,-0.43 -2.4,-0.547 -0.89,-0.062 -1.85,-0.121 -2.89,-0.121 -2.64,0 -5.01,-0.289 -7.11,-0.832 -2.07,-0.609 -3.83,-1.59 -5.3,-2.988 -1.44,-1.43 -2.54,-3.309 -3.29,-5.649 -0.76,-2.293 -1.13,-5.16 -1.13,-8.613 v -6.168 h 24.15 v -15.93 h -23.44 v -76.14 h -22.36" /><path
         id="path44"
         style="fill:#231f20;fill-opacity:1;fill-rule:nonzero;stroke:none"
         d="m 1753.6,445.809 h 20.38 c 2.11,0 3.87,-0.52 5.28,-1.508 1.44,-0.969 2.39,-2.34 2.87,-4.031 l 22.27,-78.301 c 0.46,-1.91 0.95,-4.008 1.41,-6.278 0.43,-2.25 0.92,-4.691 1.38,-7.191 0.49,2.5 1.02,4.941 1.59,7.191 0.57,2.27 1.19,4.368 1.85,6.278 l 25.71,78.301 c 0.48,1.41 1.44,2.671 2.87,3.8 1.39,1.168 3.16,1.739 5.17,1.739 h 7.16 c 2.11,0 3.82,-0.52 5.15,-1.528 1.33,-1.062 2.33,-2.402 2.98,-4.011 l 25.63,-78.301 c 1.3,-3.75 2.44,-8.059 3.46,-12.918 0.78,4.738 1.63,9.078 2.58,12.918 l 22.32,78.301 c 0.35,1.531 1.25,2.812 2.72,3.89 1.48,1.078 3.27,1.649 5.33,1.649 h 19.1 l -40.67,-130.918 h -22 l -28.59,89.429 c -0.42,1.18 -0.8,2.391 -1.21,3.719 -0.32,1.301 -0.69,2.723 -1.05,4.172 -0.3,-1.449 -0.65,-2.871 -1.03,-4.172 -0.41,-1.328 -0.79,-2.539 -1.14,-3.719 l -28.88,-89.429 h -22.05 l -40.59,130.918" /><path
         id="path46"
         style="fill:#231f20;fill-opacity:1;fill-rule:nonzero;stroke:none"
         d="m 1983.42,330.738 c 7.72,0 13.44,2.582 17.15,7.793 3.71,5.199 5.57,12.801 5.57,22.809 0,9.992 -1.86,17.648 -5.57,22.89 -3.71,5.27 -9.43,7.872 -17.15,7.872 -7.85,0 -13.65,-2.633 -17.45,-7.911 -3.73,-5.281 -5.64,-12.902 -5.64,-22.851 0,-9.93 1.91,-17.539 5.64,-22.758 3.8,-5.262 9.6,-7.844 17.45,-7.844 z m 0,78.481 c 6.9,0 13.17,-1.137 18.78,-3.328 5.65,-2.262 10.47,-5.411 14.5,-9.512 4.01,-4.09 7.09,-9.117 9.28,-15.02 2.14,-5.937 3.24,-12.527 3.24,-19.828 0,-7.371 -1.1,-14 -3.24,-19.941 -2.19,-5.918 -5.27,-10.942 -9.28,-15.11 -4.03,-4.171 -8.85,-7.359 -14.5,-9.589 -5.61,-2.2 -11.88,-3.332 -18.78,-3.332 -6.96,0 -13.25,1.132 -18.91,3.332 -5.69,2.23 -10.51,5.418 -14.52,9.589 -4.03,4.168 -7.15,9.192 -9.34,15.11 -2.21,5.941 -3.31,12.57 -3.31,19.941 0,7.301 1.1,13.891 3.31,19.828 2.19,5.903 5.31,10.93 9.34,15.02 4.01,4.101 8.83,7.25 14.52,9.512 5.66,2.191 11.95,3.328 18.91,3.328" /><path
         id="path48"
         style="fill:#231f20;fill-opacity:1;fill-rule:nonzero;stroke:none"
         d="m 2046.33,314.891 v 92.871 h 13.68 c 2.88,0 4.79,-1.34 5.69,-4.043 l 1.46,-6.887 c 1.63,1.809 3.32,3.477 5.09,4.977 1.79,1.492 3.69,2.793 5.72,3.89 2.03,1.082 4.2,1.942 6.53,2.59 2.3,0.609 4.88,0.93 7.63,0.93 5.89,0 10.68,-1.578 14.46,-4.739 3.75,-3.171 6.57,-7.371 8.44,-12.64 1.44,3.082 3.25,5.719 5.45,7.941 2.16,2.18 4.53,3.969 7.13,5.391 2.59,1.367 5.37,2.418 8.28,3.078 2.95,0.648 5.88,0.969 8.86,0.969 5.12,0 9.65,-0.809 13.64,-2.36 3.98,-1.57 7.34,-3.839 10.05,-6.879 2.74,-2.992 4.8,-6.679 6.22,-11.011 1.39,-4.379 2.11,-9.367 2.11,-14.969 V 314.891 H 2154.4 V 374 c 0,5.949 -1.28,10.391 -3.85,13.391 -2.63,2.929 -6.42,4.449 -11.44,4.449 -2.27,0 -4.41,-0.399 -6.37,-1.141 -1.97,-0.82 -3.7,-1.929 -5.18,-3.437 -1.46,-1.473 -2.63,-3.321 -3.47,-5.543 -0.85,-2.25 -1.26,-4.809 -1.26,-7.719 v -59.109 h -22.45 V 374 c 0,6.219 -1.25,10.73 -3.78,13.59 -2.48,2.84 -6.14,4.25 -10.96,4.25 -3.27,0 -6.29,-0.77 -9.13,-2.41 -2.79,-1.598 -5.39,-3.809 -7.83,-6.559 v -67.98 h -22.35" /><path
         id="path50"
         style="fill:#231f20;fill-opacity:1;fill-rule:nonzero;stroke:none"
         d="m 2237.94,393.219 c -6.47,0 -11.6,-1.867 -15.29,-5.547 -3.68,-3.641 -6.03,-8.891 -7.06,-15.66 h 42.21 c 0,2.929 -0.43,5.636 -1.24,8.207 -0.8,2.57 -2.04,4.82 -3.66,6.73 -1.64,1.91 -3.7,3.442 -6.2,4.582 -2.5,1.129 -5.41,1.688 -8.76,1.688 z m -0.43,16 c 5.85,0 11.24,-0.91 16.2,-2.797 4.95,-1.863 9.2,-4.613 12.76,-8.211 3.58,-3.563 6.34,-8.012 8.4,-13.211 2.01,-5.199 3.01,-11.16 3.01,-17.879 0,-3.371 -0.35,-5.66 -1.1,-6.812 -0.72,-1.168 -2.1,-1.778 -4.15,-1.778 h -57.47 c 0.34,-4.761 1.21,-8.902 2.52,-12.351 1.33,-3.481 3.06,-6.34 5.26,-8.598 2.16,-2.25 4.74,-3.934 7.74,-5.07 2.97,-1.121 6.28,-1.692 9.92,-1.692 3.6,0 6.73,0.45 9.35,1.282 2.65,0.859 4.93,1.789 6.9,2.796 1.96,1.012 3.66,1.973 5.15,2.84 1.49,0.832 2.93,1.231 4.31,1.231 1.84,0 3.25,-0.699 4.16,-2.078 l 6.41,-8.141 c -2.48,-2.891 -5.23,-5.309 -8.32,-7.289 -3.06,-1.949 -6.29,-3.52 -9.65,-4.699 -3.36,-1.18 -6.76,-1.981 -10.24,-2.512 -3.45,-0.469 -6.81,-0.691 -10.08,-0.691 -6.44,0 -12.46,1.062 -18.04,3.203 -5.52,2.148 -10.35,5.289 -14.44,9.476 -4.12,4.211 -7.35,9.41 -9.71,15.582 -2.34,6.192 -3.54,13.352 -3.54,21.489 0,6.363 1.06,12.32 3.07,17.902 2.08,5.59 5.02,10.437 8.85,14.57 3.84,4.129 8.51,7.399 14.04,9.84 5.51,2.379 11.76,3.598 18.69,3.598" /><path
         id="path52"
         style="fill:#231f20;fill-opacity:1;fill-rule:nonzero;stroke:none"
         d="m 2294.62,314.891 v 92.871 h 13.68 c 2.9,0 4.81,-1.34 5.72,-4.043 l 1.53,-7.34 c 1.85,1.941 3.82,3.66 5.92,5.25 2.08,1.551 4.28,2.93 6.62,4.07 2.32,1.141 4.82,2.02 7.45,2.61 2.67,0.632 5.54,0.91 8.68,0.91 5.1,0 9.58,-0.848 13.5,-2.59 3.92,-1.699 7.17,-4.129 9.83,-7.219 2.6,-3.109 4.62,-6.84 5.96,-11.129 1.35,-4.32 2.04,-9.051 2.04,-14.281 v -59.109 h -22.36 V 374 c 0,5.68 -1.3,10.082 -3.87,13.18 -2.63,3.09 -6.56,4.66 -11.87,4.66 -3.87,0 -7.5,-0.879 -10.89,-2.61 -3.35,-1.761 -6.55,-4.128 -9.56,-7.171 v -67.168 h -22.38" /><path
         id="path54"
         style="fill:#231f20;fill-opacity:1;fill-rule:nonzero;stroke:none"
         d="m 2526.8,445.809 v -19.387 h -58.09 v -36.301 h 45.8 v -18.75 h -45.8 V 334.34 h 58.09 v -19.449 h -82.55 v 130.918 h 82.55" /><path
         id="path56"
         style="fill:#231f20;fill-opacity:1;fill-rule:nonzero;stroke:none"
         d="m 2542.91,314.891 v 92.871 h 13.66 c 2.91,0 4.8,-1.34 5.73,-4.043 l 1.51,-7.34 c 1.87,1.941 3.86,3.66 5.94,5.25 2.08,1.551 4.29,2.93 6.62,4.07 2.3,1.141 4.81,2.02 7.45,2.61 2.67,0.632 5.57,0.91 8.7,0.91 5.08,0 9.59,-0.848 13.49,-2.59 3.94,-1.699 7.19,-4.129 9.82,-7.219 2.61,-3.109 4.63,-6.84 5.97,-11.129 1.36,-4.32 2.03,-9.051 2.03,-14.281 V 314.891 H 2601.5 V 374 c 0,5.68 -1.32,10.082 -3.9,13.18 -2.6,3.09 -6.55,4.66 -11.86,4.66 -3.86,0 -7.5,-0.879 -10.87,-2.61 -3.38,-1.761 -6.57,-4.128 -9.58,-7.171 v -67.168 h -22.38" /><path
         id="path58"
         style="fill:#231f20;fill-opacity:1;fill-rule:nonzero;stroke:none"
         d="m 2678.98,363.629 c 2.75,0 5.17,0.359 7.2,1.113 2.09,0.77 3.78,1.77 5.12,3.11 1.36,1.339 2.41,2.91 3.09,4.808 0.71,1.871 1.06,3.93 1.06,6.149 0,4.582 -1.37,8.203 -4.15,10.89 -2.69,2.711 -6.84,4.051 -12.32,4.051 -5.51,0 -9.62,-1.34 -12.37,-4.051 -2.75,-2.687 -4.13,-6.308 -4.13,-10.89 0,-2.149 0.35,-4.2 1.06,-6.047 0.71,-1.891 1.73,-3.5 3.07,-4.871 1.36,-1.34 3.09,-2.379 5.16,-3.149 2.09,-0.754 4.49,-1.113 7.21,-1.113 z m 25.22,-52.899 c 0,1.821 -0.5,3.29 -1.61,4.399 -1.08,1.101 -2.56,1.992 -4.44,2.68 -1.85,0.652 -4.05,1.132 -6.56,1.453 -2.51,0.297 -5.16,0.508 -7.95,0.648 -2.81,0.172 -5.72,0.328 -8.71,0.41 -2.97,0.141 -5.9,0.379 -8.74,0.731 -2.45,-1.41 -4.46,-3.012 -6.01,-4.86 -1.53,-1.902 -2.29,-4.05 -2.29,-6.543 0,-1.597 0.4,-3.128 1.2,-4.546 0.8,-1.43 2.12,-2.672 3.9,-3.692 1.78,-1.012 4.09,-1.84 6.91,-2.379 2.86,-0.57 6.31,-0.883 10.43,-0.883 4.15,0 7.75,0.321 10.76,0.961 3.05,0.661 5.5,1.493 7.48,2.633 1.96,1.11 3.38,2.418 4.27,3.996 0.94,1.512 1.36,3.203 1.36,4.992 z m -25.22,98.692 c 3.94,0 7.71,-0.422 11.16,-1.231 3.47,-0.8 6.69,-2 9.63,-3.589 h 26.73 v -8.34 c 0,-2.633 -1.6,-4.262 -4.8,-4.821 l -8.34,-1.582 c 0.61,-1.578 1.08,-3.23 1.41,-4.98 0.33,-1.758 0.5,-3.598 0.5,-5.527 0,-4.582 -0.92,-8.711 -2.78,-12.43 -1.83,-3.731 -4.36,-6.863 -7.64,-9.473 -3.27,-2.597 -7.11,-4.617 -11.54,-6.027 -4.46,-1.434 -9.23,-2.113 -14.33,-2.113 -3.51,0 -6.92,0.32 -10.24,1 -2.91,-1.758 -4.35,-3.719 -4.35,-5.93 0,-1.84 0.88,-3.238 2.61,-4.09 1.71,-0.867 3.96,-1.48 6.82,-1.859 2.83,-0.371 6.05,-0.61 9.67,-0.692 3.62,-0.078 7.35,-0.277 11.16,-0.566 3.78,-0.301 7.49,-0.832 11.11,-1.582 3.63,-0.758 6.84,-1.942 9.67,-3.57 2.84,-1.649 5.16,-3.86 6.84,-6.629 1.72,-2.832 2.59,-6.45 2.59,-10.832 0,-4.137 -1.02,-8.11 -3.02,-11.957 -2.05,-3.891 -4.95,-7.332 -8.81,-10.321 -3.83,-3.031 -8.53,-5.441 -14.1,-7.301 -5.57,-1.832 -11.96,-2.75 -19.06,-2.75 -7,0 -13.1,0.661 -18.28,2.032 -5.19,1.34 -9.51,3.16 -12.96,5.429 -3.43,2.27 -5.98,4.848 -7.68,7.829 -1.69,2.96 -2.51,6.07 -2.51,9.21 0,4.309 1.27,7.961 3.92,10.879 2.63,2.973 6.19,5.313 10.72,7.09 -2.43,1.262 -4.36,2.949 -5.8,5.063 -1.45,2.09 -2.15,4.867 -2.15,8.297 0,1.402 0.23,2.839 0.7,4.332 0.49,1.461 1.23,2.918 2.24,4.359 0.97,1.43 2.24,2.832 3.79,4.141 1.56,1.289 3.35,2.461 5.38,3.468 -4.72,2.551 -8.4,5.95 -11.07,10.161 -2.69,4.23 -4.04,9.16 -4.04,14.832 0,4.589 0.9,8.738 2.75,12.449 1.86,3.73 4.41,6.898 7.73,9.508 3.27,2.613 7.15,4.632 11.64,6 4.51,1.382 9.41,2.113 14.73,2.113" /><path
         id="path60"
         style="fill:#231f20;fill-opacity:1;fill-rule:nonzero;stroke:none"
         d="m 2764.04,407.762 v -92.871 h -22.67 v 92.871 z m 3.05,27.078 c 0,-1.91 -0.36,-3.731 -1.16,-5.399 -0.77,-1.73 -1.83,-3.222 -3.1,-4.461 -1.32,-1.281 -2.9,-2.289 -4.69,-3.031 -1.83,-0.777 -3.74,-1.148 -5.74,-1.148 -1.96,0 -3.76,0.371 -5.49,1.148 -1.73,0.742 -3.24,1.75 -4.5,3.031 -1.26,1.239 -2.29,2.731 -3.02,4.461 -0.74,1.668 -1.11,3.489 -1.11,5.399 0,2.012 0.37,3.879 1.11,5.621 0.73,1.738 1.76,3.25 3.02,4.488 1.26,1.301 2.77,2.281 4.5,3.082 1.73,0.731 3.53,1.098 5.49,1.098 2,0 3.91,-0.367 5.74,-1.098 1.79,-0.801 3.37,-1.781 4.69,-3.082 1.27,-1.238 2.33,-2.75 3.1,-4.488 0.8,-1.742 1.16,-3.609 1.16,-5.621" /><path
         id="path62"
         style="fill:#231f20;fill-opacity:1;fill-rule:nonzero;stroke:none"
         d="m 2786.86,314.891 v 92.871 h 13.65 c 2.87,0 4.79,-1.34 5.72,-4.043 l 1.51,-7.34 c 1.87,1.941 3.85,3.66 5.95,5.25 2.09,1.551 4.29,2.93 6.62,4.07 2.31,1.141 4.8,2.02 7.44,2.61 2.67,0.632 5.57,0.91 8.7,0.91 5.06,0 9.59,-0.848 13.49,-2.59 3.93,-1.699 7.19,-4.129 9.86,-7.219 2.59,-3.109 4.59,-6.84 5.95,-11.129 1.35,-4.32 2.04,-9.051 2.04,-14.281 V 314.891 H 2845.4 V 374 c 0,5.68 -1.29,10.082 -3.89,13.18 -2.6,3.09 -6.51,4.66 -11.85,4.66 -3.89,0 -7.49,-0.879 -10.85,-2.61 -3.37,-1.761 -6.6,-4.128 -9.62,-7.171 v -67.168 h -22.33" /><path
         id="path64"
         style="fill:#231f20;fill-opacity:1;fill-rule:nonzero;stroke:none"
         d="m 2928.94,393.219 c -6.52,0 -11.6,-1.867 -15.3,-5.547 -3.66,-3.641 -6,-8.891 -7.03,-15.66 h 42.17 c 0,2.929 -0.42,5.636 -1.21,8.207 -0.83,2.57 -2.04,4.82 -3.71,6.73 -1.61,1.91 -3.65,3.442 -6.16,4.582 -2.51,1.129 -5.43,1.688 -8.76,1.688 z m -0.42,16 c 5.83,0 11.2,-0.91 16.18,-2.797 4.96,-1.863 9.23,-4.613 12.78,-8.211 3.55,-3.563 6.35,-8.012 8.37,-13.211 2,-5.199 3.01,-11.16 3.01,-17.879 0,-3.371 -0.36,-5.66 -1.08,-6.812 -0.71,-1.168 -2.12,-1.778 -4.15,-1.778 h -57.51 c 0.37,-4.761 1.24,-8.902 2.55,-12.351 1.31,-3.481 3.09,-6.34 5.27,-8.598 2.16,-2.25 4.73,-3.934 7.72,-5.07 3,-1.121 6.3,-1.692 9.92,-1.692 3.63,0 6.72,0.45 9.36,1.282 2.61,0.859 4.94,1.789 6.91,2.796 1.92,1.012 3.65,1.973 5.13,2.84 1.48,0.832 2.93,1.231 4.29,1.231 1.89,0 3.27,-0.699 4.2,-2.078 l 6.4,-8.141 c -2.47,-2.891 -5.26,-5.309 -8.33,-7.289 -3.07,-1.949 -6.28,-3.52 -9.64,-4.699 -3.37,-1.18 -6.75,-1.981 -10.2,-2.512 -3.48,-0.469 -6.86,-0.691 -10.13,-0.691 -6.42,0 -12.46,1.062 -17.99,3.203 -5.55,2.148 -10.41,5.289 -14.5,9.476 -4.08,4.211 -7.32,9.41 -9.65,15.582 -2.36,6.192 -3.56,13.352 -3.56,21.489 0,6.363 1.02,12.32 3.09,17.902 2.06,5.59 5,10.437 8.84,14.57 3.81,4.129 8.48,7.399 14.02,9.84 5.52,2.379 11.72,3.598 18.7,3.598" /><path
         id="path66"
         style="fill:#231f20;fill-opacity:1;fill-rule:nonzero;stroke:none"
         d="m 3025.63,393.219 c -6.51,0 -11.63,-1.867 -15.28,-5.547 -3.72,-3.641 -6.05,-8.891 -7.1,-15.66 h 42.19 c 0,2.929 -0.38,5.636 -1.22,8.207 -0.81,2.57 -2.03,4.82 -3.65,6.73 -1.63,1.91 -3.7,3.442 -6.21,4.582 -2.49,1.129 -5.4,1.688 -8.73,1.688 z m -0.45,16 c 5.86,0 11.25,-0.91 16.2,-2.797 4.93,-1.863 9.18,-4.613 12.79,-8.211 3.49,-3.563 6.34,-8.012 8.37,-13.211 2,-5.199 2.99,-11.16 2.99,-17.879 0,-3.371 -0.34,-5.66 -1.07,-6.812 -0.73,-1.168 -2.13,-1.778 -4.14,-1.778 h -57.49 c 0.35,-4.761 1.2,-8.902 2.52,-12.351 1.32,-3.481 3.09,-6.34 5.27,-8.598 2.18,-2.25 4.74,-3.934 7.73,-5.07 2.95,-1.121 6.3,-1.692 9.9,-1.692 3.62,0 6.75,0.45 9.36,1.282 2.66,0.859 4.91,1.789 6.91,2.796 1.95,1.012 3.67,1.973 5.15,2.84 1.46,0.832 2.9,1.231 4.28,1.231 1.87,0 3.26,-0.699 4.18,-2.078 l 6.41,-8.141 c -2.45,-2.891 -5.27,-5.309 -8.32,-7.289 -3.06,-1.949 -6.29,-3.52 -9.64,-4.699 -3.35,-1.18 -6.73,-1.981 -10.2,-2.512 -3.51,-0.469 -6.85,-0.691 -10.09,-0.691 -6.5,0 -12.49,1.062 -18.04,3.203 -5.54,2.148 -10.38,5.289 -14.46,9.476 -4.13,4.211 -7.37,9.41 -9.72,15.582 -2.35,6.192 -3.52,13.352 -3.52,21.489 0,6.363 1.04,12.32 3.07,17.902 2.04,5.59 5,10.437 8.82,14.57 3.86,4.129 8.51,7.399 14.05,9.84 5.54,2.379 11.75,3.598 18.69,3.598" /><path
         id="path68"
         style="fill:#231f20;fill-opacity:1;fill-rule:nonzero;stroke:none"
         d="m 3082.3,314.891 v 92.871 h 13.1 c 2.31,0 3.91,-0.371 4.82,-1.18 0.91,-0.844 1.52,-2.301 1.83,-4.422 l 1.23,-10.512 c 2.96,5.582 6.44,9.922 10.46,13.102 3.96,3.172 8.68,4.711 14.09,4.711 4.31,0 7.7,-0.891 10.33,-2.762 l -1.45,-16.75 c -0.32,-1.09 -0.76,-1.859 -1.33,-2.32 -0.56,-0.449 -1.35,-0.68 -2.3,-0.68 -0.89,0 -2.25,0.141 -4.05,0.449 -1.79,0.352 -3.49,0.473 -5.17,0.473 -2.51,0 -4.68,-0.359 -6.61,-1.109 -1.97,-0.703 -3.66,-1.762 -5.23,-3.102 -1.52,-1.39 -2.89,-2.988 -4.02,-4.961 -1.22,-1.91 -2.33,-4.129 -3.35,-6.59 v -57.218 h -22.35" /><path
         id="path70"
         style="fill:#231f20;fill-opacity:1;fill-rule:nonzero;stroke:none"
         d="m 3206.47,389.672 c -0.61,-0.992 -1.23,-1.633 -1.87,-2.043 -0.65,-0.41 -1.51,-0.57 -2.53,-0.57 -1.1,0 -2.25,0.293 -3.51,0.89 -1.23,0.59 -2.65,1.281 -4.28,2.051 -1.64,0.75 -3.51,1.441 -5.57,2 -2.07,0.609 -4.53,0.91 -7.38,0.91 -4.4,0 -7.87,-0.91 -10.36,-2.789 -2.51,-1.883 -3.77,-4.312 -3.77,-7.332 0,-2 0.69,-3.648 1.94,-5 1.32,-1.391 3.02,-2.57 5.18,-3.578 2.14,-1.051 4.59,-1.949 7.28,-2.77 2.71,-0.8 5.49,-1.722 8.31,-2.691 2.79,-0.941 5.54,-2.039 8.26,-3.301 2.69,-1.238 5.16,-2.789 7.3,-4.687 2.13,-1.903 3.86,-4.18 5.13,-6.852 1.32,-2.66 1.94,-5.82 1.94,-9.609 0,-4.43 -0.8,-8.563 -2.4,-12.332 -1.61,-3.789 -3.96,-7.028 -7.05,-9.778 -3.15,-2.75 -7.05,-4.902 -11.67,-6.429 -4.61,-1.52 -9.94,-2.313 -15.97,-2.313 -3.22,0 -6.34,0.313 -9.38,0.883 -3.04,0.559 -5.98,1.367 -8.78,2.348 -2.81,1.05 -5.38,2.261 -7.8,3.64 -2.37,1.41 -4.46,2.891 -6.29,4.539 l 5.19,8.512 c 0.65,1.008 1.46,1.801 2.37,2.367 0.85,0.543 2.01,0.813 3.4,0.813 1.42,0 2.68,-0.442 3.97,-1.211 1.22,-0.77 2.65,-1.61 4.31,-2.5 1.58,-0.899 3.5,-1.781 5.73,-2.551 2.2,-0.769 4.98,-1.18 8.37,-1.18 2.67,0 4.9,0.332 6.81,0.942 1.9,0.648 3.5,1.488 4.7,2.5 1.25,1.019 2.17,2.238 2.72,3.558 0.61,1.352 0.86,2.782 0.86,4.243 0,2.16 -0.61,3.949 -1.93,5.339 -1.26,1.379 -3.02,2.598 -5.16,3.618 -2.12,1 -4.58,1.941 -7.33,2.75 -2.75,0.812 -5.55,1.711 -8.42,2.671 -2.87,0.969 -5.66,2.102 -8.41,3.399 -2.75,1.301 -5.22,2.91 -7.34,4.93 -2.13,1.961 -3.84,4.429 -5.15,7.339 -1.32,2.903 -1.97,6.391 -1.97,10.473 0,3.848 0.75,7.449 2.29,10.891 1.49,3.437 3.7,6.449 6.6,8.988 2.95,2.59 6.64,4.621 10.99,6.172 4.37,1.527 9.42,2.297 15.18,2.297 6.39,0 12.23,-1.028 17.49,-3.149 5.24,-2.148 9.62,-4.91 13.11,-8.32 l -5.11,-8.078" /><path
         id="path72"
         style="fill:#534a77;fill-opacity:1;fill-rule:nonzero;stroke:none"
         d="m 3140.67,1296.52 v 7.42 h 52.98 v -7.42 h -22.09 v -58.81 h -8.8 v 58.81 h -22.09" /><path
         id="path74"
         style="fill:#534a77;fill-opacity:1;fill-rule:nonzero;stroke:none"
         d="m 3213.21,1303.94 20.88,-55.65 20.96,55.65 h 12.06 v -66.23 h -8.35 v 55.1 h -0.18 l -20.68,-55.1 h -7.52 l -20.69,55.1 h -0.19 v -55.1 h -8.34 v 66.23 h 12.05" /><path
         id="path76"
         style="fill:#534a77;fill-opacity:1;fill-rule:nonzero;stroke:none"
         d="m 1110.13,31.6914 h -15.84 l 24.3,114.5076 h -32.23 l 3.06,14.051 h 80.49 l -3.06,-14.051 h -32.41 L 1110.13,31.6914" /><path
         id="path78"
         style="fill:#534a77;fill-opacity:1;fill-rule:nonzero;stroke:none"
         d="m 1181.23,160.25 h 15.12 l -9.18,-43.031 h 0.36 c 5.58,7.922 17.47,13.5 26.11,13.5 24.84,0 20.7,-19.258 18.36,-30.61 l -14.58,-68.4176 h -15.13 l 14.23,66.6172 c 1.44,7.3824 3.6,19.4414 -10.08,19.4414 -8.11,0 -20.35,-5.398 -23.23,-19.4414 l -14.23,-66.6172 h -15.12 l 27.37,128.5586" /><path
         id="path80"
         style="fill:#534a77;fill-opacity:1;fill-rule:nonzero;stroke:none"
         d="m 1297.16,90.0313 1.08,5.2187 c 2.34,10.809 1.62,23.59 -11.71,23.59 -15.84,0 -21.78,-19.4494 -23.04,-25.2111 l -0.73,-3.5976 z m -37.45,-11.8907 c -3.25,-14.7617 -7.93,-37.082 10.62,-37.082 14.4,0 19.62,15.1211 21.07,22.3203 h 15.12 c -2.16,-10.2578 -13.33,-34.207 -39.62,-34.207 -23.58,0 -30.06,16.3867 -23.04,49.5078 5.22,24.1293 15.85,52.0393 45.55,52.0393 29.53,0 26.83,-25.75 22.33,-46.4495 l -1.26,-6.1289 h -50.77" /><path
         id="path82"
         style="fill:#534a77;fill-opacity:1;fill-rule:nonzero;stroke:none"
         d="m 1386.78,160.25 h 15.85 l -19.27,-90.3906 c -3.96,-18.8985 0.18,-27.7188 15.84,-27.7188 16.93,0 24.13,9.7188 27.91,27.7188 l 19.27,90.3906 h 15.84 l -19.26,-90.3906 c -5.23,-24.6602 -21.25,-40.6875 -46.46,-40.6875 -25.74,0 -34.57,14.2265 -28.99,40.6875 l 19.27,90.3906" /><path
         id="path84"
         style="fill:#534a77;fill-opacity:1;fill-rule:nonzero;stroke:none"
         d="m 1474.26,128.199 h 14.4 l -2.34,-11.34 h 0.36 c 5.76,8.821 16.92,13.86 26.29,13.86 25.38,0 21.24,-19.258 18.91,-30.61 l -14.59,-68.4176 h -15.12 l 14.22,66.6172 c 1.44,7.3824 3.6,19.4414 -10.08,19.4414 -8.11,0 -20.35,-5.398 -23.23,-19.4414 l -14.22,-66.6172 h -15.13 l 20.53,96.5076" /><path
         id="path86"
         style="fill:#534a77;fill-opacity:1;fill-rule:nonzero;stroke:none"
         d="m 1565.34,160.25 h 15.12 l -3.78,-17.281 h -15.12 z m -6.84,-32.051 h 15.12 L 1553.1,31.6914 h -15.13 l 20.53,96.5076" /><path
         id="path88"
         style="fill:#534a77;fill-opacity:1;fill-rule:nonzero;stroke:none"
         d="m 1586.21,128.199 h 16.57 l 1.62,-77.4177 h 0.36 l 34.39,77.4177 h 16.56 l -46.63,-96.5076 h -17.28 l -5.59,96.5076" /><path
         id="path90"
         style="fill:#534a77;fill-opacity:1;fill-rule:nonzero;stroke:none"
         d="m 1706.83,90.0313 1.08,5.2187 c 2.34,10.809 1.62,23.59 -11.7,23.59 -15.85,0 -21.79,-19.4494 -23.05,-25.2111 l -0.72,-3.5976 z m -37.45,-11.8907 c -3.24,-14.7617 -7.92,-37.082 10.62,-37.082 14.4,0 19.63,15.1211 21.06,22.3203 h 15.13 c -2.16,-10.2578 -13.32,-34.207 -39.61,-34.207 -23.58,0 -30.07,16.3867 -23.04,49.5078 5.22,24.1293 15.84,52.0393 45.55,52.0393 29.52,0 26.83,-25.75 22.33,-46.4495 l -1.26,-6.1289 h -50.78" /><path
         id="path92"
         style="fill:#534a77;fill-opacity:1;fill-rule:nonzero;stroke:none"
         d="m 1747.31,128.199 h 15.13 l -3.06,-14.398 h 0.36 c 6.3,9.179 13.69,16.918 24.49,16.918 3.06,0 5.04,-0.36 6.48,-1.078 l -3.24,-14.77 c -1.44,0.188 -3.07,0.731 -7.93,0.731 -7.56,0 -21.24,-6.852 -24.66,-22.8715 l -12.97,-61.0391 h -15.12 l 20.52,96.5076" /><path
         id="path94"
         style="fill:#534a77;fill-opacity:1;fill-rule:nonzero;stroke:none"
         d="m 1836.06,99.9297 c 2.52,12.2503 0.73,18.9103 -10.26,18.9103 -4.86,0 -16.02,-1.258 -18.91,-14.77 -2.34,-11.3395 9.18,-13.4997 20.17,-17.4606 10.8,-3.961 21.79,-8.0977 17.82,-27.1875 -4.31,-20.3516 -19.62,-30.25 -37.62,-30.25 -32.78,0 -27.91,24.3086 -25.93,34.207 h 15.13 c -2.35,-11.6992 -1.45,-22.3203 13.32,-22.3203 4.86,0 16.56,2.3398 19.44,16.0234 2.7,12.9571 -8.64,15.6563 -19.44,19.6289 -10.81,3.9493 -22.15,7.3789 -18.01,27.3591 3.96,18.012 19.8,26.649 36.55,26.649 28.09,0 25.03,-19.438 22.87,-30.7893 h -15.13" /><path
         id="path96"
         style="fill:#534a77;fill-opacity:1;fill-rule:nonzero;stroke:none"
         d="m 1881.59,160.25 h 15.13 l -3.78,-17.281 h -15.13 z m -6.83,-32.051 h 15.12 l -20.52,-96.5076 h -15.13 l 20.53,96.5076" /><path
         id="path98"
         style="fill:#534a77;fill-opacity:1;fill-rule:nonzero;stroke:none"
         d="m 1921.02,156.289 h 15.12 l -5.94,-28.09 h 16.74 l -2.52,-11.879 h -16.74 l -13.15,-61.9411 c -1.62,-7.7383 -0.36,-10.8086 7.57,-10.8086 3.24,0 5.04,0.3711 6.84,0.5391 l -2.7,-12.418 c -1.98,-0.3594 -6.12,-1.0703 -12.42,-1.0703 -15.68,0 -18.19,6.4687 -15.49,19.0781 l 14.22,66.6208 h -14.04 l 2.52,11.879 h 14.05 l 5.94,28.09" /><path
         id="path100"
         style="fill:#534a77;fill-opacity:1;fill-rule:nonzero;stroke:none"
         d="m 1949.08,128.199 h 16.57 l 2.7,-77.4177 h 0.36 l 33.31,77.4177 h 16.56 L 1968.71,25.2109 C 1962.41,11.8906 1955.93,0 1937.74,0 c -5.94,0 -8.46,0.359375 -10.98,0.550781 l 2.52,11.871119 c 2.17,-0.3516 5.05,-0.5313 8.83,-0.5313 7.02,0 10.97,4.1407 13.85,9.3594 l 4.69,8.4609 -7.57,98.4881" /><path
         id="path102"
         style="fill:#534a77;fill-opacity:1;fill-rule:nonzero;stroke:none"
         d="m 2112.18,79.9414 c 4.5,20.8906 5.22,38.8986 -10.98,38.8986 -15.31,0 -22.33,-18.008 -26.83,-38.8986 -4.51,-20.8828 -5.22,-38.8828 10.26,-38.8828 16.02,0 23.05,18 27.55,38.8828 z m -8.1,50.7776 c 27.9,0 29.71,-23.578 23.95,-50.7776 -5.76,-27.1914 -17.83,-50.7695 -45.56,-50.7695 -27.91,0 -29.71,23.5781 -23.94,50.7695 5.76,27.1996 17.82,50.7776 45.55,50.7776" /><path
         id="path104"
         style="fill:#534a77;fill-opacity:1;fill-rule:nonzero;stroke:none"
         d="m 2155.36,116.32 h -14.04 l 2.52,11.879 h 14.05 l 2.33,11.34 c 3.25,14.59 10.99,22.152 25.57,22.152 h 10.99 l -2.7,-12.961 h -7.03 c -6.47,0 -10.25,-2.531 -11.7,-9.191 l -2.34,-11.34 h 16.57 l -2.53,-11.879 h -16.56 l -18.01,-84.6286 h -15.12 l 18,84.6286" /><path
         id="path106"
         style="fill:#534a77;fill-opacity:1;fill-rule:nonzero;stroke:none"
         d="m 2255.63,31.6914 h -15.84 l 24.3,114.5076 h -32.23 l 3.06,14.051 h 80.48 l -3.06,-14.051 h -32.41 l -24.3,-114.5076" /><path
         id="path108"
         style="fill:#534a77;fill-opacity:1;fill-rule:nonzero;stroke:none"
         d="m 2346,90.0313 1.08,5.2187 c 2.33,10.809 1.62,23.59 -11.71,23.59 -15.84,0 -21.79,-19.4494 -23.05,-25.2111 l -0.72,-3.5976 z m -37.46,-11.8907 c -3.24,-14.7617 -7.91,-37.082 10.63,-37.082 14.4,0 19.62,15.1211 21.06,22.3203 h 15.13 c -2.17,-10.2578 -13.33,-34.207 -39.62,-34.207 -23.58,0 -30.07,16.3867 -23.04,49.5078 5.22,24.1293 15.84,52.0393 45.55,52.0393 29.53,0 26.83,-25.75 22.33,-46.4495 l -1.26,-6.1289 h -50.78" /><path
         id="path110"
         style="fill:#534a77;fill-opacity:1;fill-rule:nonzero;stroke:none"
         d="m 2379.46,128.199 h 16.57 l 10.07,-34.3904 25.03,34.3904 h 16.57 l -35.11,-46.2771 15.49,-50.2305 h -16.58 l -11.16,38.168 -26.64,-38.168 h -16.57 l 37.09,50.2305 -14.76,46.2771" /><path
         id="path112"
         style="fill:#534a77;fill-opacity:1;fill-rule:nonzero;stroke:none"
         d="m 2494.49,84.2695 c -6.84,-5.9375 -20.35,-7.2109 -28.09,-11.3476 -5.58,-3.0625 -8.82,-6.8399 -10.63,-15.3008 -2.16,-9.7227 -0.17,-16.5625 10.09,-16.5625 9.9,0 21.25,8.4609 23.41,18.3633 z m -43.57,14.7618 c 4.68,21.9687 16.2,31.6877 39.25,31.6877 29.34,0 25.56,-17.637 23.4,-27.727 l -11.34,-53.8318 c -0.9,-3.961 -1.8,-7.7383 2.88,-7.7383 1.98,0 3.06,0.3594 3.96,0.8867 l -2.34,-10.7969 c -1.08,-0.1797 -5.22,-0.8906 -9.01,-0.8906 -5.76,0 -12.95,0 -11.16,12.418 h -0.36 c -6.66,-8.6485 -17.1,-13.8672 -26.1,-13.8672 -18.01,0 -23.95,10.7969 -20.34,28.0898 2.88,13.5 10.61,22.8672 23.94,26.6485 l 21.6,6.1211 c 11.71,3.4179 12.42,6.4804 14.05,14.5777 1.98,9 -2.34,14.231 -12.43,14.231 -16.56,0 -19.8,-15.488 -20.52,-18.9103 l -0.36,-0.8984 h -15.12" /><path
         id="path114"
         style="fill:#534a77;fill-opacity:1;fill-rule:nonzero;stroke:none"
         d="m 2574.94,99.9297 c 2.52,12.2503 0.72,18.9103 -10.26,18.9103 -4.86,0 -16.03,-1.258 -18.91,-14.77 -2.33,-11.3395 9.19,-13.4997 20.17,-17.4606 10.81,-3.961 21.78,-8.0977 17.83,-27.1875 -4.33,-20.3516 -19.63,-30.25 -37.64,-30.25 -32.76,0 -27.9,24.3086 -25.92,34.207 h 15.12 c -2.34,-11.6992 -1.43,-22.3203 13.32,-22.3203 4.87,0 16.57,2.3398 19.46,16.0234 2.69,12.9571 -8.65,15.6563 -19.46,19.6289 -10.8,3.9493 -22.14,7.3789 -18,27.3591 3.96,18.012 19.81,26.649 36.56,26.649 28.08,0 25.02,-19.438 22.86,-30.7893 h -15.13" /><path
         id="path116"
         style="fill:#534a77;fill-opacity:1;fill-rule:nonzero;stroke:none"
         d="m 2690.87,84.2695 c -6.85,-5.9375 -20.35,-7.2109 -28.1,-11.3476 -5.57,-3.0625 -8.81,-6.8399 -10.62,-15.3008 -2.16,-9.7227 -0.18,-16.5625 10.09,-16.5625 9.9,0 21.25,8.4609 23.4,18.3633 z m -43.58,14.7618 c 4.68,21.9687 16.21,31.6877 39.25,31.6877 29.35,0 25.57,-17.637 23.41,-27.727 L 2698.6,49.1602 c -0.89,-3.961 -1.79,-7.7383 2.88,-7.7383 1.99,0 3.07,0.3594 3.97,0.8867 l -2.34,-10.7969 c -1.08,-0.1797 -5.22,-0.8906 -9.01,-0.8906 -5.76,0 -12.96,0 -11.16,12.418 h -0.36 c -6.66,-8.6485 -17.1,-13.8672 -26.11,-13.8672 -18,0 -23.94,10.7969 -20.34,28.0898 2.88,13.5 10.62,22.8672 23.95,26.6485 l 21.6,6.1211 c 11.71,3.4179 12.42,6.4804 14.04,14.5777 1.99,9 -2.33,14.231 -12.42,14.231 -16.56,0 -19.8,-15.488 -20.53,-18.9103 l -0.36,-0.8984 h -15.12" /><path
         id="path118"
         style="fill:#534a77;fill-opacity:1;fill-rule:nonzero;stroke:none"
         d="m 2748.1,156.289 h 15.11 l -5.93,-28.09 h 16.74 l -2.53,-11.879 h -16.73 l -13.15,-61.9411 c -1.62,-7.7383 -0.36,-10.8086 7.56,-10.8086 3.24,0 5.04,0.3711 6.85,0.5391 l -2.71,-12.418 c -1.98,-0.3594 -6.12,-1.0703 -12.42,-1.0703 -15.67,0 -18.18,6.4687 -15.49,19.0781 l 14.23,66.6208 h -14.04 l 2.52,11.879 h 14.04 l 5.95,28.09" /><path
         id="path120"
         style="fill:#534a77;fill-opacity:1;fill-rule:nonzero;stroke:none"
         d="m 2827.65,44.6602 h 16.56 c 27.37,0 36.38,28.0781 41.42,51.1289 5.22,24.8519 9.17,51.4999 -19.63,51.4999 h -16.57 z m 8.82,115.5898 h 34.39 c 39.97,0 38.9,-28.801 31.33,-64.2812 -6.84,-32.4102 -21.79,-64.2774 -57.07,-64.2774 h -36.02 l 27.37,128.5586" /><path
         id="path122"
         style="fill:#534a77;fill-opacity:1;fill-rule:nonzero;stroke:none"
         d="m 2962.48,84.2695 c -6.85,-5.9375 -20.35,-7.2109 -28.1,-11.3476 -5.57,-3.0625 -8.81,-6.8399 -10.62,-15.3008 -2.16,-9.7227 -0.18,-16.5625 10.09,-16.5625 9.9,0 21.25,8.4609 23.41,18.3633 z m -43.57,14.7618 c 4.67,21.9687 16.2,31.6877 39.24,31.6877 29.35,0 25.57,-17.637 23.41,-27.727 l -11.35,-53.8318 c -0.89,-3.961 -1.79,-7.7383 2.89,-7.7383 1.98,0 3.06,0.3594 3.96,0.8867 l -2.34,-10.7969 c -1.08,-0.1797 -5.22,-0.8906 -9.01,-0.8906 -5.76,0 -12.96,0 -11.16,12.418 h -0.36 c -6.66,-8.6485 -17.1,-13.8672 -26.1,-13.8672 -18.01,0 -23.95,10.7969 -20.35,28.0898 2.89,13.5 10.62,22.8672 23.95,26.6485 l 21.6,6.1211 c 11.71,3.4179 12.42,6.4804 14.04,14.5777 1.99,9 -2.33,14.231 -12.42,14.231 -16.56,0 -19.8,-15.488 -20.53,-18.9103 l -0.36,-0.8984 h -15.11" /><path
         id="path124"
         style="fill:#534a77;fill-opacity:1;fill-rule:nonzero;stroke:none"
         d="m 3015.21,160.25 h 15.12 L 3002.96,31.6914 h -15.13 l 27.38,128.5586" /><path
         id="path126"
         style="fill:#534a77;fill-opacity:1;fill-rule:nonzero;stroke:none"
         d="m 3051.92,160.25 h 15.13 L 3039.68,31.6914 h -15.13 l 27.37,128.5586" /><path
         id="path128"
         style="fill:#534a77;fill-opacity:1;fill-rule:nonzero;stroke:none"
         d="m 3115.83,84.2695 c -6.85,-5.9375 -20.34,-7.2109 -28.09,-11.3476 -5.58,-3.0625 -8.82,-6.8399 -10.62,-15.3008 -2.16,-9.7227 -0.18,-16.5625 10.08,-16.5625 9.91,0 21.25,8.4609 23.41,18.3633 z m -43.57,14.7618 c 4.68,21.9687 16.21,31.6877 39.25,31.6877 29.35,0 25.57,-17.637 23.4,-27.727 l -11.34,-53.8318 c -0.89,-3.961 -1.8,-7.7383 2.89,-7.7383 1.98,0 3.05,0.3594 3.95,0.8867 l -2.33,-10.7969 c -1.09,-0.1797 -5.23,-0.8906 -9.01,-0.8906 -5.76,0 -12.97,0 -11.16,12.418 h -0.36 c -6.66,-8.6485 -17.11,-13.8672 -26.11,-13.8672 -18,0 -23.95,10.7969 -20.35,28.0898 2.88,13.5 10.63,22.8672 23.95,26.6485 l 21.61,6.1211 c 11.7,3.4179 12.42,6.4804 14.04,14.5777 1.99,9 -2.34,14.231 -12.42,14.231 -16.57,0 -19.8,-15.488 -20.53,-18.9103 l -0.36,-0.8984 h -15.12" /><path
         id="path130"
         style="fill:#534a77;fill-opacity:1;fill-rule:nonzero;stroke:none"
         d="m 3196.29,99.9297 c 2.52,12.2503 0.72,18.9103 -10.26,18.9103 -4.87,0 -16.03,-1.258 -18.91,-14.77 -2.34,-11.3395 9.18,-13.4997 20.17,-17.4606 10.8,-3.961 21.78,-8.0977 17.82,-27.1875 -4.32,-20.3516 -19.62,-30.25 -37.63,-30.25 -32.77,0 -27.91,24.3086 -25.93,34.207 h 15.13 c -2.34,-11.6992 -1.45,-22.3203 13.32,-22.3203 4.86,0 16.56,2.3398 19.44,16.0234 2.71,12.9571 -8.64,15.6563 -19.44,19.6289 -10.8,3.9493 -22.15,7.3789 -18.01,27.3591 3.97,18.012 19.81,26.649 36.55,26.649 28.09,0 25.03,-19.438 22.88,-30.7893 h -15.13" /></g></g></svg>