<svg xmlns="http://www.w3.org/2000/svg" viewBox="0 0 356.25 256.89"><defs><style>.cls-1{fill:#574a5c;stroke:#070608;stroke-miterlimit:10;stroke-width:4px;}</style></defs><g id="Layer_2" data-name="Layer 2"><g id="VladTheBat"><g id="_2DColor" data-name="2DColor"><path class="cls-1" d="M345,63.88C328.1,44.62,301.37,53.69,258.6,46.83c-25.2-4-61.32-14.48-103-44.22A752.11,752.11,0,0,0,1.82,224.17c2-2.74,27.66-37.18,70.61-35.47,33.48,1.34,63.52,24.1,75.25,57.37.28-9.75,2.48-27.83,15.53-40.83,21.46-21.38,64.92-21.68,102.1,5.67,1.3-37.92,28.39-60.39,46.24-57.52,15.19,2.45,30.15,24.31,29.95,52.54a145.89,145.89,0,0,0,7.61-21.08c4.91-17.73,5.52-33.06,5-50.74C352.85,93.21,352.51,72.52,345,63.88Z"/><path class="cls-1" d="M147.68,246.07A432.79,432.79,0,0,1,155.57,2.61"/><path class="cls-1" d="M266.62,210.61A378.88,378.88,0,0,1,207,137.22,381.93,381.93,0,0,1,155.57,2.61"/></g></g></g></svg>