<svg xmlns="http://www.w3.org/2000/svg" xmlns:xlink="http://www.w3.org/1999/xlink" viewBox="0 0 113.49 184.15"><defs><style>.cls-1{fill:#968cb7;stroke-width:4px;}.cls-1,.cls-2,.cls-4,.cls-5,.cls-6,.cls-8{stroke:#2d273f;}.cls-1,.cls-2,.cls-4,.cls-5,.cls-6,.cls-7,.cls-8{stroke-miterlimit:10;}.cls-2{fill:#b075bd;}.cls-2,.cls-4,.cls-5{stroke-width:3px;}.cls-3{opacity:0.46;}.cls-4{fill:url(#linear-gradient);}.cls-5,.cls-6,.cls-7,.cls-8{fill:#ceaad6;}.cls-6{stroke-width:2px;}.cls-7{stroke:#ceaad6;}</style><linearGradient id="linear-gradient" x1="98.71" y1="91.67" x2="34.84" y2="91.67" gradientUnits="userSpaceOnUse"><stop offset="0" stop-color="#b075bd"/><stop offset="1" stop-color="#2d273f"/></linearGradient></defs><g id="Layer_2" data-name="Layer 2"><g id="VladTheBat"><g id="_2DColor" data-name="2DColor"><path class="cls-1" d="M2,106.53A180.38,180.38,0,0,1,35.84,21.42,182.19,182.19,0,0,1,52,2.5a117.17,117.17,0,0,1,25,18.92c55.84,55.73,28.08,147.85,23.55,162.12"/><path class="cls-2" d="M39.52,123.42C29,110.14,39.33,73.71,41,68A228.77,228.77,0,0,1,58.65,24.79a102.39,102.39,0,0,1,28,31.08c15.89,27.7,12.24,53.78,10.3,66.2-2.91,18.7-10.65,36.84-16.19,36.48-2.94-.19-3.24-5.49-11.84-13.78a46.86,46.86,0,0,0-10.24-7.84,55.69,55.69,0,0,0-6.09-2.61A38.64,38.64,0,0,1,39.52,123.42Z"/><g class="cls-3"><path class="cls-4" d="M39.52,123.42C29,110.14,39.33,73.71,41,68A228.77,228.77,0,0,1,58.65,24.79a102.39,102.39,0,0,1,28,31.08c15.89,27.7,12.24,53.78,10.3,66.2-2.91,18.7-10.65,36.84-16.19,36.48-2.94-.19-3.24-5.49-11.84-13.78a46.86,46.86,0,0,0-10.24-7.84,55.69,55.69,0,0,0-6.09-2.61A38.64,38.64,0,0,1,39.52,123.42Z"/></g><path class="cls-5" d="M76.59,41.5c-6.94-7.21-13.06-13.27-18.18-17.07A205.3,205.3,0,0,0,41.69,65.54"/><path class="cls-6" d="M42.21,65A32.52,32.52,0,0,0,64.29,58.2,32.27,32.27,0,0,0,75.54,40.52"/><path class="cls-7" d="M91.26,126.62a2.45,2.45,0,0,1,1.2.09"/><path class="cls-7" d="M62,132.69l-2.11.62"/><path class="cls-7" d="M61.45,132.61a33.14,33.14,0,0,0,4.21-.63c.85-.21,1.68-.48,2.53-.66,1.1-.24,2.22-.33,3.34-.47s2.33-.37,3.49-.59l15.49-2.9"/><path class="cls-8" d="M94.94,125.64c-3.28,16.54-9.72,31.17-14.48,30.85-2.81-.2-3.09-5.5-11.3-13.78a45.26,45.26,0,0,0-9.77-7.84A23.72,23.72,0,0,0,57,133.68"/><path class="cls-6" d="M56.58,133.52a31.08,31.08,0,0,1,18.26-10.81,31.91,31.91,0,0,1,19.67,2.7"/></g></g></g></svg>