<svg xmlns="http://www.w3.org/2000/svg" xmlns:xlink="http://www.w3.org/1999/xlink" viewBox="0 0 239.63 250.59"><defs><style>.cls-1,.cls-13{fill:#968cb7;}.cls-1,.cls-11,.cls-12,.cls-16,.cls-5,.cls-7,.cls-8,.cls-9{stroke:#2d273f;}.cls-1,.cls-10,.cls-11,.cls-12,.cls-13,.cls-14,.cls-15,.cls-16,.cls-17,.cls-18,.cls-2,.cls-3,.cls-4,.cls-5,.cls-7,.cls-8,.cls-9{stroke-miterlimit:10;}.cls-1{stroke-width:4px;}.cls-14,.cls-15,.cls-17,.cls-18,.cls-2,.cls-3,.cls-4{stroke:#000;}.cls-18,.cls-2,.cls-4,.cls-9{stroke-width:2px;}.cls-3{fill:#474748;}.cls-4{fill:#f6f6f6;}.cls-15,.cls-5{fill:#b075bd;}.cls-15,.cls-16,.cls-17,.cls-5,.cls-7,.cls-8{stroke-width:3px;}.cls-6{opacity:0.46;}.cls-7{fill:url(#linear-gradient);}.cls-10,.cls-11,.cls-17,.cls-18,.cls-8,.cls-9{fill:#ceaad6;}.cls-10{stroke:#ceaad6;}.cls-12{fill:#838386;}.cls-13{stroke:#1c1c1c;stroke-width:0.25px;}.cls-14{fill:#fffae3;}.cls-16{opacity:0.35;fill:url(#linear-gradient-2);}</style><linearGradient id="linear-gradient" x1="219.61" y1="77.77" x2="176.22" y2="77.77" gradientTransform="translate(33.8 -24.1) rotate(13.29)" gradientUnits="userSpaceOnUse"><stop offset="0" stop-color="#b075bd"/><stop offset="1" stop-color="#2d273f"/></linearGradient><linearGradient id="linear-gradient-2" x1="21.4" y1="85.37" x2="78.59" y2="85.37" xlink:href="#linear-gradient"/></defs><g id="Layer_2" data-name="Layer 2"><g id="VladTheBat"><g id="_2DColor" data-name="2DColor"><path class="cls-1" d="M107.53,63.79c-51.84,1.49-93.76,42.49-103,83.85-1.6,7.12-6.57,29.25,4.59,51,9.65,18.83,26.14,27.19,41.71,34.82,16,7.85,61.2,22.78,114.09,10.31,12.81-3,45.26-15.42,52.45-45.87,11.18-47.3-23.46-94.26-26.81-97.89C185.59,94.69,154.83,62.43,107.53,63.79Z"/><path class="cls-2" d="M76.85,184.75c-1.37,3.52-5,6.78-8.21,5.92-2.63-.7-3.82-3.89-4.11-4.67a8.29,8.29,0,0,1-.58-4.3c.53-3.52,3.74-6.9,7.28-7.06a6.14,6.14,0,0,1,5.65,3.18C78.39,180.78,77.11,184.08,76.85,184.75Z"/><path class="cls-2" d="M145.51,193.16c-.36,3.76,1.45,8.31,4.69,9,2.67.55,5.16-1.77,5.76-2.34a8.33,8.33,0,0,0,2.45-3.58c1.1-3.39-.26-7.85-3.35-9.58a6.17,6.17,0,0,0-6.48.32C145.9,188.92,145.57,192.44,145.51,193.16Z"/><path class="cls-3" d="M106.65,199.11a7.58,7.58,0,0,0-5.2,2.59c-.56.63-2.13,2.33-1.58,3.45.47,1,2.33,1.12,3.62.86,2.39-.48,3.2-2.43,4.3-2,.85.29.53,1.5,1.66,2.68s3.57,1.81,4.35,1c1-1-.62-3.88-1.15-4.86a6.71,6.71,0,0,0-2.38-2.86A6.22,6.22,0,0,0,106.65,199.11Z"/><path d="M60.69,212a123.14,123.14,0,0,0,22.37,9.16,121.21,121.21,0,0,0,23.6,4.7,154.82,154.82,0,0,0,24,.06c4-.22,8-.63,12-1.14s8-1.17,12-1.89l.09.29a91,91,0,0,1-36.06,6.15c-4.09-.2-8.17-.55-12.23-1.09a119.27,119.27,0,0,1-45.84-16Z"/><path class="cls-4" d="M125.27,228.2a27.68,27.68,0,0,1,2.65,8.9c.1.87.15,1.71.17,2.51a28.45,28.45,0,0,0,4.67-5.38,28.78,28.78,0,0,0,3.52-7.32Z"/><path class="cls-1" d="M163.37,96.8a121.28,121.28,0,0,1,49.34-61A79.66,79.66,0,0,1,226.3,52.24c28.22,45.58-4.53,102.15-9.75,110.88"/><path class="cls-5" d="M185.55,113.83c-4.9-10.43,7.64-32.9,9.63-36.4A155.47,155.47,0,0,1,213.61,51.6a69.58,69.58,0,0,1,13.64,24.92c6.17,20.8-.31,37.47-3.53,45.38-4.85,11.91-12.8,22.7-16.41,21.59-1.91-.59-1.28-4.14-5.67-11a32,32,0,0,0-5.55-6.78,37.57,37.57,0,0,0-3.62-2.68A26.46,26.46,0,0,1,185.55,113.83Z"/><g class="cls-6"><path class="cls-7" d="M185.55,113.83c-4.9-10.43,7.64-32.9,9.63-36.4A155.47,155.47,0,0,1,213.61,51.6a69.58,69.58,0,0,1,13.64,24.92c6.17,20.8-.31,37.47-3.53,45.38-4.85,11.91-12.8,22.7-16.41,21.59-1.91-.59-1.28-4.14-5.67-11a32,32,0,0,0-5.55-6.78,37.57,37.57,0,0,0-3.62-2.68A26.46,26.46,0,0,1,185.55,113.83Z"/></g><path class="cls-8" d="M222.86,65.45a111.87,111.87,0,0,0-9.36-14.13A140.5,140.5,0,0,0,196,75.89"/><path class="cls-9" d="M196.47,75.59a21.58,21.58,0,0,0,25.85-11"/><path class="cls-10" d="M219.26,124a1.79,1.79,0,0,1,.78.25"/><path class="cls-10" d="M199,123.47l-1.49.08"/><path class="cls-10" d="M198.62,123.33a23,23,0,0,0,2.88.24c.59,0,1.18-.06,1.78,0,.76,0,1.52.13,2.27.21s1.6.12,2.41.15l10.69.51"/><path class="cls-11" d="M221.85,124c-4.75,10.43-11.3,19.09-14.39,18.13-1.83-.56-1.19-4.11-5.32-10.87a30.55,30.55,0,0,0-5.24-6.71,17.15,17.15,0,0,0-1.36-1.15"/><path class="cls-9" d="M195.25,123.17a21.18,21.18,0,0,1,13.77-4.3,21.73,21.73,0,0,1,12.58,4.86"/><path class="cls-12" d="M147.48,114.2c-2.55.42-5.7,2.11-6.34,4.62-1,4.16,6.09,6.75,14.07,18.19a75.16,75.16,0,0,1,7,11.26c2.75,5.67,3.3,9,6.32,10.24,2.6,1.1,6.52.5,8.24-1.56C183.46,148.92,161.89,111.81,147.48,114.2Z"/><circle class="cls-13" cx="144.77" cy="120.11" r="0.43"/><circle class="cls-13" cx="159.68" cy="123.64" r="0.43"/><circle class="cls-13" cx="148.33" cy="123.58" r="0.43"/><circle class="cls-13" cx="151.88" cy="127.04" r="0.43"/><circle class="cls-13" cx="149.94" cy="120.46" r="0.43"/><circle class="cls-13" cx="154.32" cy="124.12" r="0.43"/><circle class="cls-13" cx="150.72" cy="117.15" r="0.43"/><circle class="cls-13" cx="155.3" cy="119.98" r="0.43"/><circle class="cls-13" cx="163.93" cy="144.33" r="0.43"/><circle class="cls-13" cx="175.34" cy="153.57" r="0.43"/><circle class="cls-13" cx="166.27" cy="148.71" r="0.43"/><circle class="cls-13" cx="168.61" cy="153.08" r="0.43"/><circle class="cls-13" cx="168.75" cy="146.22" r="0.43"/><circle class="cls-13" cx="171.82" cy="151.03" r="0.43"/><circle class="cls-13" cx="170.5" cy="143.3" r="0.43"/><circle class="cls-13" cx="174.01" cy="147.38" r="0.43"/><path class="cls-14" d="M159.24,143.36c.08,0,5.37-2.51,8.08-3.93,2.05-1.08,4-2.18,5.87-3.27L165.48,125l-7,3.6-7,3.6Z"/><path class="cls-1" d="M107.54,72.15c.3-7.34-3.16-26.18-10.63-42A84,84,0,0,0,75.72,2.44,111.75,111.75,0,0,0,34.06,43.93c-17.71,31.3-14,61.65-12.3,71.63"/><path class="cls-15" d="M84.57,88.94c6.68-2.54,11.37-28.41,0-52.32a73.19,73.19,0,0,0-13-18.87A82.53,82.53,0,0,0,51.16,34.64l0,0-.9,1.05C38.07,50.26,33.12,71.85,33.12,71.85c-4.43,19.29-5,45.07,1.3,46.7a2,2,0,0,0,.78.08c1.92-.18,3.63-3.28,14.21-11.34C56.94,101.54,63.23,96.64,72.32,93c.7-.28,4.86-1.6,6.29-2.06Z"/><path class="cls-16" d="M84.57,88.94c6.68-2.54,11.37-28.41,0-52.32a73.19,73.19,0,0,0-13-18.87A82.53,82.53,0,0,0,51.16,34.64l0,0-.9,1.05C38.07,50.26,33.12,71.85,33.12,71.85c-4.43,19.29-5,45.07,1.3,46.7a2,2,0,0,0,.78.08c1.92-.18,3.63-3.28,14.21-11.34C56.94,101.54,63.23,96.64,72.32,93c.7-.28,4.86-1.6,6.29-2.06Z"/><path class="cls-17" d="M56.56,29l-.49.46"/><path class="cls-17" d="M82.57,32.71a73.63,73.63,0,0,0-11-15A83.09,83.09,0,0,0,56.56,29"/><path class="cls-18" d="M56.58,29a16.85,16.85,0,0,0,25.76,3.37"/><path class="cls-17" d="M30.59,87.46c-1.59,15.13-.66,29.39,3.94,30.6a1.87,1.87,0,0,0,.79.07c1.92-.18,3.63-3.27,14.2-11.34,3.26-2.48,6.29-4.81,9.41-7"/><path class="cls-18" d="M30.9,89.07a26.07,26.07,0,0,1,16.76,3,24.73,24.73,0,0,1,9.16,9.08"/></g></g></g></svg>