<svg xmlns="http://www.w3.org/2000/svg" xmlns:xlink="http://www.w3.org/1999/xlink" viewBox="0 0 569.63 350.19"><defs><style>.cls-1{fill:#574a5c;}.cls-1,.cls-3,.cls-4{stroke:#070608;}.cls-1,.cls-10,.cls-12,.cls-13,.cls-14,.cls-15,.cls-16,.cls-17,.cls-18,.cls-19,.cls-22,.cls-24,.cls-25,.cls-26,.cls-27,.cls-28,.cls-29,.cls-3,.cls-30,.cls-4,.cls-5,.cls-6,.cls-7,.cls-8,.cls-9{stroke-miterlimit:10;}.cls-1,.cls-24,.cls-25,.cls-26,.cls-3,.cls-4,.cls-5{stroke-width:4px;}.cls-2,.cls-4{opacity:0.44;}.cls-3,.cls-4{fill:#070608;}.cls-18,.cls-5,.cls-6{fill:#968cb7;}.cls-10,.cls-12,.cls-13,.cls-14,.cls-16,.cls-17,.cls-22,.cls-24,.cls-25,.cls-26,.cls-28,.cls-5,.cls-6{stroke:#2d273f;}.cls-14,.cls-22,.cls-30,.cls-6,.cls-7,.cls-9{stroke-width:2px;}.cls-19,.cls-27,.cls-29,.cls-30,.cls-7,.cls-8,.cls-9{stroke:#000;}.cls-8{fill:#474748;}.cls-9{fill:#f6f6f6;}.cls-10,.cls-27{fill:#b075bd;}.cls-10,.cls-12,.cls-13,.cls-27,.cls-28,.cls-29{stroke-width:3px;}.cls-11{opacity:0.46;}.cls-12{fill:url(#linear-gradient);}.cls-13,.cls-14,.cls-15,.cls-16,.cls-29,.cls-30{fill:#ceaad6;}.cls-15{stroke:#ceaad6;}.cls-17{fill:#838386;}.cls-18{stroke:#1c1c1c;stroke-width:0.25px;}.cls-19{fill:#fffae3;}.cls-20,.cls-22,.cls-24,.cls-25,.cls-26{fill:#2d273f;}.cls-20{opacity:0.47;}.cls-21{opacity:0.51;}.cls-23,.cls-25{opacity:0.45;}.cls-26{opacity:0.33;}.cls-28{opacity:0.35;fill:url(#linear-gradient-2);}</style><linearGradient id="linear-gradient" x1="381.62" y1="64.01" x2="338.23" y2="64.01" gradientUnits="userSpaceOnUse"><stop offset="0" stop-color="#b075bd"/><stop offset="1" stop-color="#2d273f"/></linearGradient><linearGradient id="linear-gradient-2" x1="183.41" y1="71.6" x2="240.61" y2="71.6" xlink:href="#linear-gradient"/></defs><g id="Layer_2" data-name="Layer 2"><g id="VladTheBat"><g id="_2DColor" data-name="2DColor"><path class="cls-1" d="M490.84,195.59a559.31,559.31,0,0,0-57.45-50.67c-27.87,25.92-53.47,37.07-71.65,42.47-30.84,9.17-51.4,5.06-62,20.86-4.74,7.09-3,22.37,0,52.61,1.3,13.08,3.22,24.31,8.54,36.9a109,109,0,0,0,5.88,11.85h.23a11.76,11.76,0,0,1,1.21.07c-1.7-19.5,6.88-35.59,17.33-38.7,12.87-3.83,35,10.12,39.58,37.92,24.76-23.72,56.8-27.67,74.67-14,10.86,8.32,14.21,21.42,15.36,28.58C468,297.85,488,278.2,512.51,274c31.47-5.39,53.7,17.51,55.42,19.33A560.63,560.63,0,0,0,490.84,195.59Z"/><path class="cls-1" d="M462.6,323.49a321.64,321.64,0,0,0-29.21-178.57"/><path class="cls-1" d="M371.58,308.8A281.25,281.25,0,0,0,408.41,249a284,284,0,0,0,25-104.1"/><g class="cls-2"><path class="cls-3" d="M356.93,218l-4.29.27a84.59,84.59,0,0,1,1.93,9.81c.41,2.86.73,5.79,1,8.73a9,9,0,0,1,1.46,5.35c0,.38,0,.76,0,1.15a11.09,11.09,0,0,1,2.08,8.79c-.17,1-.41,2.12-.67,3.2a27.21,27.21,0,0,1,.31,5.18,35.25,35.25,0,0,1-.75,5.59c.2,3.44.16,7,.14,10.56,0,.23,0,.45,0,.67a9.44,9.44,0,0,1,.68,3,55,55,0,0,1,3.5,4.41c.1.1.19.22.29.32.19-1.9.31-3.31.37-4.05A184.56,184.56,0,0,0,356.93,218Z"/><path class="cls-3" d="M389.91,176.9a5.74,5.74,0,0,1-1.65.37c-4.1,11.12-12,20.76-20.85,28.48-4.61,4-9.73,8-15.3,10.7.43,1.41.81,2.84,1.13,4.28l1.69-.82c10.21-5.11,33.09-20.5,39-44.9A30.93,30.93,0,0,1,389.91,176.9Z"/></g><path class="cls-1" d="M256.7,204c-12.51-14.31-32.37-7.57-64.14-12.67-18.72-3-45.55-10.75-76.53-32.84A558.57,558.57,0,0,0,1.82,323.1c1.47-2,20.55-27.62,52.45-26.34,24.87,1,47.19,17.9,55.9,42.62.2-7.25,1.84-20.68,11.53-30.34,15.94-15.88,48.23-16.1,75.84,4.21,1-28.16,21.09-44.85,34.35-42.72,11.29,1.82,22.4,18.05,22.25,39a107.53,107.53,0,0,0,5.66-15.65c3.64-13.17,4.09-24.56,3.69-37.69C262.57,225.83,262.32,210.46,256.7,204Z"/><path class="cls-1" d="M110.17,339.38A321.36,321.36,0,0,1,116,158.53"/><path class="cls-1" d="M198.52,313A281.1,281.1,0,0,1,116,158.53"/><path class="cls-4" d="M221.06,273.55a40.24,40.24,0,0,1,5.48-3.07,257.32,257.32,0,0,1,3.39-36.5c-.17-1.34-.33-2.67-.48-4-7.27-1.14-13.09-4.33-19.3-9.26A25.33,25.33,0,0,1,198.83,214a24.64,24.64,0,0,1-5.57-9.37,28.5,28.5,0,0,1-5.91-11.3,71.71,71.71,0,0,1-9.54-3.93,65,65,0,0,0,12.72,23.73c10,11.7,22.16,17.19,34.56,20.79A194.22,194.22,0,0,0,221.06,273.55Z"/><path class="cls-5" d="M353.18,214.94a184.78,184.78,0,0,1,6,63c-.47,5.77-4.6,53.26-19,55-3.52.42-6.74-1.88-9-4a34.54,34.54,0,0,0-14-14c-6.49-3.35-13.08-3.28-26-3-13.72.28-20.58.43-26,3-11.76,5.55-17.34,17.1-19.75,23.6a10.61,10.61,0,0,1-5.68.62c-15.68-2.93-18.88-47.61-19.57-57.22a193,193,0,0,1,5-59Z"/><path class="cls-6" d="M247.69,267.94c-1.06,9.37-.34,12.5.9,13,2.35.93,5.93-7.84,9.94-7,3.71.76,4.25,9,6.33,9,1.45,0,3.28-4,5.42-18"/><path class="cls-6" d="M336.67,264.94c1.05,9.37.34,12.5-.91,13-2.35.93-5.93-7.84-9.94-7-3.71.76-4.24,9-6.33,9-1.45,0-3.28-4-5.42-18"/><path class="cls-5" d="M254,54.82c-50.1,13.36-81.47,62.91-81,105.3.08,7.3.34,30,16.2,48.6,13.73,16.11,31.69,20.46,48.6,24.3,17.41,4,64.8,8.1,113.41-16.2,11.77-5.88,40.5-25.41,40.5-56.7,0-48.6-44.51-86.34-48.6-89.1C337,67,299.7,42.62,254,54.82Z"/><path class="cls-7" d="M251.93,179.59c-.52,3.74-3.32,7.75-6.63,7.65-2.73-.08-4.61-2.91-5.07-3.6a8.35,8.35,0,0,1-1.56-4c-.29-3.55,2.06-7.57,5.46-8.55a6.21,6.21,0,0,1,6.24,1.8C252.52,175.37,252,178.88,251.93,179.59Z"/><path class="cls-7" d="M320.68,172c.52,3.74,3.32,7.75,6.63,7.65,2.72-.08,4.61-2.91,5.07-3.6a8.35,8.35,0,0,0,1.56-4c.29-3.55-2.06-7.57-5.46-8.55a6.2,6.2,0,0,0-6.24,1.8C320.09,167.77,320.58,171.28,320.68,172Z"/><path class="cls-8" d="M284.23,186.72a7.54,7.54,0,0,0-4.46,3.72c-.4.74-1.54,2.75-.75,3.71s2.52.56,3.72,0c2.21-1,2.56-3.1,3.72-3,.9.1.85,1.35,2.23,2.23s3.89,1,4.46,0c.72-1.18-1.49-3.63-2.23-4.46a6.69,6.69,0,0,0-3-2.23A6.17,6.17,0,0,0,284.23,186.72Z"/><path d="M242.45,209.78a123.34,123.34,0,0,0,23.88,3.78,122.34,122.34,0,0,0,24.05-.86,156.41,156.41,0,0,0,23.35-5.45c3.84-1.14,7.63-2.45,11.39-3.87s7.49-3,11.22-4.58l.14.26a90,90,0,0,1-21.81,11,92,92,0,0,1-11.86,3.23c-4,.75-8.09,1.34-12.15,1.75a119.37,119.37,0,0,1-48.29-5Z"/><path class="cls-9" d="M309,210.75a27.44,27.44,0,0,1,4.62,8.05q.45,1.24.75,2.4a28.62,28.62,0,0,0,5-14.24Z"/><path class="cls-5" d="M315.91,74.11a121.22,121.22,0,0,1,34-70.68,79.79,79.79,0,0,1,17,12.85c37.94,37.86,19.08,100.45,16,110.15"/><path class="cls-10" d="M341.41,85.58c-7.17-9-.13-33.78,1-37.64a155.9,155.9,0,0,1,12-29.37,69.68,69.68,0,0,1,19,21.11c10.79,18.83,8.31,36.54,7,45-2,12.71-7.23,25-11,24.78-2-.13-2.2-3.73-8-9.35a31.88,31.88,0,0,0-7-5.33A36.22,36.22,0,0,0,350.27,93,26.36,26.36,0,0,1,341.41,85.58Z"/><g class="cls-11"><path class="cls-12" d="M341.41,85.58c-7.17-9-.13-33.78,1-37.64a155.9,155.9,0,0,1,12-29.37,69.68,69.68,0,0,1,19,21.11c10.79,18.83,8.31,36.54,7,45-2,12.71-7.23,25-11,24.78-2-.13-2.2-3.73-8-9.35a31.88,31.88,0,0,0-7-5.33A36.22,36.22,0,0,0,350.27,93,26.36,26.36,0,0,1,341.41,85.58Z"/></g><path class="cls-13" d="M366.6,29.92c-4.72-4.9-8.87-9-12.36-11.6a139.83,139.83,0,0,0-11.36,27.93"/><path class="cls-14" d="M343.24,45.86a22.08,22.08,0,0,0,15-4.59,21.86,21.86,0,0,0,7.64-12"/><path class="cls-15" d="M376.56,87.75a1.91,1.91,0,0,1,.82.06"/><path class="cls-15" d="M356.67,91.88l-1.42.42"/><path class="cls-15" d="M356.31,91.82a21.22,21.22,0,0,0,2.86-.43c.58-.14,1.14-.32,1.72-.45.75-.16,1.51-.22,2.27-.32s1.58-.25,2.37-.4l10.52-2"/><path class="cls-16" d="M379.06,87.08c-2.22,11.25-6.6,21.19-9.83,21-1.91-.13-2.11-3.73-7.68-9.36a30.63,30.63,0,0,0-6.64-5.32,16.1,16.1,0,0,0-1.59-.81"/><path class="cls-14" d="M353,92.44a21.15,21.15,0,0,1,12.41-7.34,21.63,21.63,0,0,1,13.36,1.83"/><path class="cls-17" d="M304.45,94.69c-2.39,1-5.07,3.37-5.11,6-.07,4.29,7.47,5.16,17.87,14.46a75.84,75.84,0,0,1,9.36,9.36c4,4.89,5.28,8,8.51,8.51,2.78.48,6.46-1,7.66-3.4C347.44,120.21,317.92,89.06,304.45,94.69Z"/><circle class="cls-18" cx="303.17" cy="101.07" r="0.43"/><circle class="cls-18" cx="318.49" cy="101.07" r="0.43"/><circle class="cls-18" cx="307.43" cy="103.63" r="0.43"/><circle class="cls-18" cx="311.68" cy="106.18" r="0.43"/><circle class="cls-18" cx="308.28" cy="100.22" r="0.43"/><circle class="cls-18" cx="313.38" cy="102.77" r="0.43"/><circle class="cls-18" cx="308.28" cy="96.82" r="0.43"/><circle class="cls-18" cx="313.38" cy="98.52" r="0.43"/><circle class="cls-18" cx="327.38" cy="120.24" r="0.43"/><circle class="cls-18" cx="340.61" cy="126.6" r="0.43"/><circle class="cls-18" cx="330.67" cy="123.96" r="0.43"/><circle class="cls-18" cx="333.95" cy="127.68" r="0.43"/><circle class="cls-18" cx="332.51" cy="120.97" r="0.43"/><circle class="cls-18" cx="336.6" cy="124.95" r="0.43"/><circle class="cls-18" cx="333.54" cy="117.72" r="0.43"/><circle class="cls-18" cx="337.89" cy="120.89" r="0.43"/><path class="cls-19" d="M322.6,120.37c.06-.05,4.65-3.67,6.95-5.68,1.75-1.53,3.41-3,5-4.54l-10.07-9.08-5.95,5.11-6,5.1Z"/><path class="cls-20" d="M356.55,227.43c1.15,2.78-.17-.32-.46-1-.57-1.31-1.15-2.62-1.64-4a18.51,18.51,0,0,1-1.14-5.67l-1.51.79c-48.6,24.3-96,20.15-113.4,16.2-4.88-1.11-9.84-2.26-14.77-3.72a52.39,52.39,0,0,1-3.58,10.52,164.23,164.23,0,0,0,22.07,6.18c17.41,4,64.81,8.1,113.41-16.21.62-.31,1.3-.66,2-1.05A22.65,22.65,0,0,1,356.55,227.43Z"/><g class="cls-21"><path class="cls-22" d="M265.22,284.12c-2.08,0-2.62-8.24-6.32-9-4-.84-7.6,7.93-9.95,7-.71-.29-1.24-1.44-1.38-4.12-.19,4.88.45,6.74,1.38,7.12,2.35.93,5.93-7.84,9.95-7,3.7.76,4.24,9,6.32,9,1.46,0,3.28-4,5.43-18l-.49.06C268.22,280.72,266.57,284.12,265.22,284.12Z"/><path class="cls-22" d="M336.13,279.12c-2.35.93-5.93-7.84-9.95-7-3.7.76-4.24,9-6.32,9-1.35,0-3-3.4-4.94-14.94l-.49-.06c2.15,14,4,18,5.43,18,2.08,0,2.62-8.24,6.32-9,4-.84,7.6,7.93,9.95,7,.93-.38,1.57-2.24,1.38-7.12C337.37,277.68,336.84,278.83,336.13,279.12Z"/></g><g class="cls-23"><path class="cls-24" d="M274.29,311.24c-13.71.29-20.57.43-26,3-8.43,4-13.68,11.05-16.87,17.13,2.34,3.82,5.17,6.45,8.59,7.09a10.67,10.67,0,0,0,5.67-.61c3.48-8.32,9.28-18.63,20-23.12,11.24-4.74,23-2.86,23-3.14S283.74,311,274.29,311.24Z"/><path class="cls-24" d="M354,216.63c-1.36.75-2.76,1.41-4.18,2a40.87,40.87,0,0,1-11.14,5.9,182.34,182.34,0,0,1,3.57,52.69c-.38,4.65-3.14,36.44-11.75,49.48.33.53.63,1,.9,1.52,2.26,2.12,5.48,4.42,9,4,14.4-1.74,18.52-49.23,19-55A184.26,184.26,0,0,0,354,216.63Z"/></g><path class="cls-25" d="M317.94,58.52a109.24,109.24,0,0,0-47-6.72,63.79,63.79,0,0,1,26.33,5.48,60.13,60.13,0,0,1,19,14Z"/><path class="cls-25" d="M267.93,236c-2.78,0-5.45-.08-8-.2A71,71,0,0,0,267.93,236Z"/><path class="cls-25" d="M259.92,235.83s24.8,4.34,49.15-4.26A187.32,187.32,0,0,1,259.92,235.83Z"/><path class="cls-26" d="M182.4,124.78c1.28.56-3.48,10.92-6.25,26.51-1.68,9.47-1.78,16.14-2.36,16.12s-.87-6.52-.75-11.66a81.43,81.43,0,0,1,2-16.05c1-5.07,2.1-8.18,4.15-11.3C179.87,127.28,181.71,124.48,182.4,124.78Z"/><path class="cls-5" d="M255.91,63c-1.4-7.22-9.1-24.76-20-38.44a84.1,84.1,0,0,0-27-22.09,111.65,111.65,0,0,0-31,50c-10,34.53.57,63.21,4.5,72.54"/><path class="cls-27" d="M237.41,84.57c5.92-4,4.54-30.26-12-50.92a73.13,73.13,0,0,0-17-15.37,82.49,82.49,0,0,0-16,21.14h0s-.34.64-.64,1.24c-8.49,17-8.35,39.1-8.35,39.1.13,19.79,5.53,45,12,45.16a2,2,0,0,0,.78-.11c1.83-.62,2.78-4,11.22-14.31,6-7.31,11-13.53,19-19.21.62-.44,4.37-2.68,5.64-3.46C237.06,84.78,237.22,84.7,237.41,84.57Z"/><path class="cls-28" d="M237.41,84.57c5.92-4,4.54-30.26-12-50.92a73.13,73.13,0,0,0-17-15.37,82.49,82.49,0,0,0-16,21.14h0s-.34.64-.64,1.24c-8.49,17-8.35,39.1-8.35,39.1.13,19.79,5.53,45,12,45.16a2,2,0,0,0,.78-.11c1.83-.62,2.78-4,11.22-14.31,6-7.31,11-13.53,19-19.21.62-.44,4.37-2.68,5.64-3.46C237.06,84.78,237.22,84.7,237.41,84.57Z"/><path class="cls-29" d="M196.37,32.68l-.37.56"/><path class="cls-29" d="M222.54,30.31a73.71,73.71,0,0,0-14.15-12,83.78,83.78,0,0,0-12,14.4"/><path class="cls-30" d="M196.39,32.69A16.87,16.87,0,0,0,222.24,30"/><path class="cls-29" d="M184.54,95.54c1.93,15.1,6.11,28.77,10.87,28.88a2,2,0,0,0,.78-.11c1.83-.62,2.78-4,11.22-14.3,2.6-3.17,5-6.13,7.55-8.93"/><path class="cls-30" d="M185.21,97a26.14,26.14,0,0,1,17-1,24.79,24.79,0,0,1,11,6.73"/></g></g></g></svg>