<svg xmlns="http://www.w3.org/2000/svg" viewBox="0 0 368.63 253.96"><defs><style>.cls-1{fill:#574a5c;stroke:#070608;stroke-miterlimit:10;stroke-width:4px;}</style></defs><g id="Layer_2" data-name="Layer 2"><g id="VladTheBat"><g id="_2DColor" data-name="2DColor"><path class="cls-1" d="M263.16,70.83A751.56,751.56,0,0,0,185.81,2.62c-37.51,34.89-72,49.9-96.44,57.18C47.84,72.13,20.16,66.6,6,87.87c-6.38,9.55-4,30.11,0,70.83,1.76,17.6,4.35,32.72,11.5,49.67a148.22,148.22,0,0,0,7.92,16l.31,0a14.09,14.09,0,0,1,1.62.1c-2.28-26.25,9.27-47.91,23.34-52.1C68,167.15,97.75,185.93,104,223.36c33.32-31.93,76.46-37.25,100.51-18.83,14.62,11.2,19.14,28.85,20.68,38.48,7.32-34.51,34.16-61,67.19-66.63,42.36-7.25,72.29,23.58,74.6,26A754,754,0,0,0,263.16,70.83Z"/><path class="cls-1" d="M225.14,243a434.38,434.38,0,0,0-4.67-135.67A433.16,433.16,0,0,0,185.81,2.62"/><path class="cls-1" d="M102.61,223.24a378.84,378.84,0,0,0,49.58-80.48A382.18,382.18,0,0,0,185.81,2.62"/></g></g></g></svg>