<svg xmlns="http://www.w3.org/2000/svg" xmlns:xlink="http://www.w3.org/1999/xlink" viewBox="0 0 91.31 120.14"><defs><style>.cls-1{fill:#968cb7;stroke-width:4px;}.cls-1,.cls-3{stroke:#2d273f;}.cls-1,.cls-2,.cls-3,.cls-4,.cls-5{stroke-miterlimit:10;}.cls-2{fill:#b075bd;}.cls-2,.cls-4,.cls-5{stroke:#000;}.cls-2,.cls-3,.cls-4{stroke-width:3px;}.cls-3{opacity:0.35;fill:url(#linear-gradient);}.cls-4,.cls-5{fill:#ceaad6;}.cls-5{stroke-width:2px;}</style><linearGradient id="linear-gradient" x1="3.15" y1="85.37" x2="60.35" y2="85.37" gradientTransform="translate(33.31 -19.9) rotate(13.29)" gradientUnits="userSpaceOnUse"><stop offset="0" stop-color="#b075bd"/><stop offset="1" stop-color="#2d273f"/></linearGradient></defs><g id="Layer_2" data-name="Layer 2"><g id="VladTheBat"><g id="_2DColor" data-name="2DColor"><path class="cls-1" d="M89.3,72.15c.29-7.34-3.16-26.18-10.63-42A84.17,84.17,0,0,0,57.47,2.44,111.67,111.67,0,0,0,15.82,43.93c-17.72,31.3-14,61.65-12.3,71.63"/><path class="cls-2" d="M66.32,88.94c6.68-2.54,11.38-28.41,0-52.32a73.19,73.19,0,0,0-13-18.87A82.89,82.89,0,0,0,32.91,34.64v0s-.48.54-.91,1.05C19.83,50.26,14.87,71.85,14.87,71.85c-4.42,19.29-5,45.07,1.3,46.7a2,2,0,0,0,.79.08c1.92-.18,3.62-3.28,14.2-11.34C38.69,101.54,45,96.64,54.07,93c.7-.28,4.87-1.6,6.29-2.06C65.93,89.06,66.11,89,66.32,88.94Z"/><path class="cls-3" d="M66.32,88.94c6.68-2.54,11.38-28.41,0-52.32a73.19,73.19,0,0,0-13-18.87A82.89,82.89,0,0,0,32.91,34.64v0s-.48.54-.91,1.05C19.83,50.26,14.87,71.85,14.87,71.85c-4.42,19.29-5,45.07,1.3,46.7a2,2,0,0,0,.79.08c1.92-.18,3.62-3.28,14.2-11.34C38.69,101.54,45,96.64,54.07,93c.7-.28,4.87-1.6,6.29-2.06C65.93,89.06,66.11,89,66.32,88.94Z"/><path class="cls-4" d="M38.31,29l-.48.46"/><path class="cls-4" d="M64.33,32.71a73.24,73.24,0,0,0-11-15A83.09,83.09,0,0,0,38.31,29"/><path class="cls-5" d="M38.33,29a17.45,17.45,0,0,0,11.55,7.67,17.4,17.4,0,0,0,14.21-4.3"/><path class="cls-4" d="M12.35,87.46c-1.59,15.13-.66,29.39,3.94,30.6a1.87,1.87,0,0,0,.79.07c1.92-.18,3.62-3.27,14.2-11.34,3.26-2.48,6.28-4.81,9.4-7"/><path class="cls-5" d="M12.65,89.07a26.1,26.1,0,0,1,16.77,3,24.9,24.9,0,0,1,9.16,9.08"/></g></g></g></svg>