<?xml version="1.0" encoding="UTF-8" standalone="no"?>
<!DOCTYPE svg PUBLIC "-//W3C//DTD SVG 1.1//EN" "http://www.w3.org/Graphics/SVG/1.1/DTD/svg11.dtd">
<svg width="100%" height="100%" viewBox="0 0 716 271" version="1.1" xmlns="http://www.w3.org/2000/svg" xmlns:xlink="http://www.w3.org/1999/xlink" xml:space="preserve" xmlns:serif="http://www.serif.com/" style="fill-rule:evenodd;clip-rule:evenodd;">
    <g transform="matrix(1,0,0,1,-592.22,-755.538)">
        <g transform="matrix(1.38756,0,0,1.38756,32.3569,631.305)">
            <g id="g163" transform="matrix(0.0261994,0,0,-0.0261994,403.259,284.46)">
                <path id="path72" d="M5478,7424C5448,7408 5420,7363 5420,7330C5420,7276 5477,7220 5532,7220C5570,7220 5617,7255 5630,7294C5661,7389 5565,7472 5478,7424Z" style="fill:rgb(255,195,134);fill-rule:nonzero;stroke:rgb(255,143,31);stroke-width:1px;"/>
                <path id="path74" d="M5018,6964C4988,6948 4960,6903 4960,6870C4960,6809 5030,6752 5090,6765C5123,6772 5166,6816 5175,6851C5184,6889 5157,6946 5121,6964C5084,6984 5053,6984 5018,6964Z" style="fill:rgb(255,195,134);fill-rule:nonzero;stroke:rgb(255,143,31);stroke-width:1px;"/>
                <path id="path76" d="M4595,6506C4567,6493 4314,6243 4242,6157C4198,6104 4198,6060 4244,6014C4272,5986 4285,5980 4321,5980C4363,5980 4367,5983 4543,6158C4642,6255 4729,6350 4737,6369C4755,6411 4747,6450 4712,6483C4678,6515 4634,6523 4595,6506Z" style="fill:rgb(255,195,134);fill-rule:nonzero;stroke:rgb(255,143,31);stroke-width:1px;"/>
                <path id="path78" d="M3818,5702C3737,5638 3040,4935 3024,4902C3000,4851 3020,4793 3070,4766C3144,4727 3137,4721 3583,5168L3990,5576L3990,5618C3990,5672 3978,5696 3940,5715C3896,5738 3857,5734 3818,5702Z" style="fill:rgb(255,195,134);fill-rule:nonzero;stroke:rgb(255,143,31);stroke-width:1px;"/>
                <path id="path80" d="M4874,5504C4836,5485 4816,5450 4817,5404C4818,5356 4843,5323 4889,5309C4956,5289 5016,5325 5026,5391C5034,5438 5017,5476 4978,5500C4939,5524 4916,5525 4874,5504Z" style="fill:rgb(255,195,134);fill-rule:nonzero;stroke:rgb(255,143,31);stroke-width:1px;"/>
                <path id="path82" d="M1878,5141C1846,5130 1799,5108 1773,5091C1746,5075 1355,4690 903,4238C115,3449 79,3412 49,3345C21,3286 16,3260 12,3179C8,3084 9,3079 94,2759C491,1275 605,859 627,816C664,744 757,655 832,620C867,604 996,564 1120,531C1244,498 1734,367 2210,239C2996,27 3082,6 3155,6C3254,6 3327,27 3405,79C3444,104 3776,430 4333,987C5160,1815 5202,1858 5207,1898C5214,1947 5195,1982 5149,2006C5075,2044 5123,2086 4160,1126C3210,178 3256,220 3155,220C3135,220 2798,306 2406,411C2015,516 1526,647 1320,702C1114,757 933,808 919,816C887,832 822,903 810,936C802,955 556,1868 264,2963C218,3133 217,3143 228,3197C234,3228 251,3270 265,3289C278,3309 644,3679 1077,4111C1613,4646 1879,4905 1907,4919C1980,4955 2023,4956 2154,4921C2285,4886 2314,4887 2354,4927C2375,4947 2380,4963 2380,5000C2380,5072 2355,5091 2212,5129C2072,5166 1968,5169 1878,5141Z" style="fill:rgb(255,195,134);fill-rule:nonzero;stroke:rgb(255,143,31);stroke-width:1px;"/>
                <path id="path84" d="M4450,5072C4434,5070 4355,4999 4233,4876L4040,4685L4040,4639C4040,4556 4111,4503 4182,4533C4224,4552 4565,4895 4580,4934C4608,5011 4536,5087 4450,5072Z" style="fill:rgb(255,195,134);fill-rule:nonzero;stroke:rgb(255,143,31);stroke-width:1px;"/>
                <path id="path86" d="M5328,4751C5300,4726 5295,4715 5295,4675C5295,4635 5300,4624 5328,4599C5417,4520 5546,4615 5495,4723C5465,4787 5383,4800 5328,4751Z" style="fill:rgb(255,195,134);fill-rule:nonzero;stroke:rgb(255,143,31);stroke-width:1px;"/>
                <path id="path88" d="M2445,4331C2429,4321 2241,4137 2028,3923L1640,3534L1640,3488C1640,3403 1718,3347 1786,3383C1830,3407 2597,4181 2610,4214C2645,4308 2533,4387 2445,4331Z" style="fill:rgb(255,195,134);fill-rule:nonzero;stroke:rgb(255,143,31);stroke-width:1px;"/>
                <path id="path90" d="M3685,4316C3646,4298 2854,3502 2845,3472C2818,3380 2914,3300 2998,3344C3041,3367 3818,4151 3830,4184C3861,4268 3767,4353 3685,4316Z" style="fill:rgb(255,195,134);fill-rule:nonzero;stroke:rgb(255,143,31);stroke-width:1px;"/>
                <path id="path92" d="M4763,4158C4719,4147 4690,4106 4690,4058C4690,4003 4741,3950 4795,3950C4849,3950 4900,4003 4900,4058C4900,4130 4835,4177 4763,4158Z" style="fill:rgb(255,195,134);fill-rule:nonzero;stroke:rgb(255,143,31);stroke-width:1px;"/>
                <path id="path94" d="M4310,3712C4283,3707 3967,3402 3944,3358C3896,3267 3981,3164 4072,3203C4117,3223 4436,3547 4445,3582C4454,3618 4434,3675 4407,3693C4379,3710 4342,3718 4310,3712Z" style="fill:rgb(255,195,134);fill-rule:nonzero;stroke:rgb(255,143,31);stroke-width:1px;"/>
                <path id="path110" d="M1235,3119C1204,3102 900,2798 884,2768C860,2722 866,2682 904,2644C932,2616 945,2610 981,2610C1024,2610 1027,2612 1207,2793C1388,2973 1390,2976 1390,3019C1390,3099 1303,3155 1235,3119Z" style="fill:rgb(255,195,134);fill-rule:nonzero;stroke:rgb(255,143,31);stroke-width:1px;"/>
                <path id="path112" d="M2483,3117C2460,3105 1234,1886 1199,1841C1138,1764 1228,1643 1321,1678C1352,1690 2605,2932 2626,2971C2675,3067 2576,3168 2483,3117Z" style="fill:rgb(255,195,134);fill-rule:nonzero;stroke:rgb(255,143,31);stroke-width:1px;"/>
                <path id="path114" d="M3505,2927C3494,2920 3336,2764 3153,2580C2871,2295 2821,2240 2815,2209C2799,2124 2881,2057 2961,2090C3001,2107 3638,2755 3657,2798C3694,2887 3588,2977 3505,2927Z" style="fill:rgb(255,195,134);fill-rule:nonzero;stroke:rgb(255,143,31);stroke-width:1px;"/>
                <path id="path116" d="M4672,2805C4600,2774 4594,2661 4663,2620C4681,2609 4705,2600 4718,2600C4773,2600 4830,2656 4830,2710C4830,2747 4800,2791 4765,2806C4723,2823 4714,2823 4672,2805Z" style="fill:rgb(255,195,134);fill-rule:nonzero;stroke:rgb(255,143,31);stroke-width:1px;"/>
                <path id="path118" d="M4275,2381C4259,2371 4168,2284 4074,2189C3888,2000 3876,1982 3904,1916C3923,1871 3973,1845 4022,1854C4049,1859 4094,1898 4248,2053L4440,2246L4440,2294C4440,2333 4435,2347 4411,2371C4376,2406 4321,2410 4275,2381Z" style="fill:rgb(255,195,134);fill-rule:nonzero;stroke:rgb(255,143,31);stroke-width:1px;"/>
                <path id="path120" d="M2310,1722C1841,1238 1841,1238 1874,1168C1893,1128 1925,1110 1977,1110C2011,1110 2027,1123 2203,1298C2307,1401 2432,1529 2481,1582C2566,1675 2570,1682 2570,1726C2570,1765 2565,1777 2539,1801C2514,1824 2499,1830 2462,1830C2416,1830 2414,1829 2310,1722Z" style="fill:rgb(255,195,134);fill-rule:nonzero;stroke:rgb(255,143,31);stroke-width:1px;"/>
                <path id="path122" d="M3257,1358C3088,1186 2942,1032 2934,1016C2888,932 2979,832 3068,869C3098,882 3687,1487 3708,1527C3742,1590 3685,1670 3607,1670C3565,1671 3564,1670 3257,1358Z" style="fill:rgb(255,195,134);fill-rule:nonzero;stroke:rgb(255,143,31);stroke-width:1px;"/>
            </g>
            <g transform="matrix(0.0324525,0,0,0.0324525,571.286,231.457)">
                <g id="text870">
                    <text x="0px" y="0px" style="font-family:'Montserrat-Regular', 'Montserrat';font-size:1600px;fill:rgb(255,195,134);">H A C K U T D</text>
                </g>
            </g>
        </g>
    </g>
</svg>
