<svg xmlns="http://www.w3.org/2000/svg" viewBox="0 0 1923.18 1299.33" width="100%" preserveAspectRatio="none">
  <defs>
    <style>
      .cls-1 {
        fill:#05668d;
        opacity:0.3;
      }
      .cls-2 {
        opacity:0.5;
      }
      .cls-3 {
        fill:#fffcf9;
      }
    </style>
  </defs>
  <title>
    HackUTD Focus Background
  </title>
  <g id="swirls">
    <path class="cls-1" d="M51.14,1.52l-.29,0C64.34,68.42,88.77,137.45,142.13,180c106.12,84.5,273.17,28.37,389.1,98.81,46.31,28.14,78.62,72.94,118.43,108.72,40.57,36.48,88.79,58.91,142.74,67.31,52.28,8.13,105.79,3.8,157.93-5.16,28.3-4.86,57.33-11.08,85.41-5.09,45.45,9.71,75.91,47.62,106.16,79.75,34.09,36.19,72.85,71.7,114.48,98.94a660.51,660.51,0,0,0,203.87,88.93,661.66,661.66,0,0,0,241.81,13.06c61.35-8,217.84-19.53,217.87-104q.12-310.44.25-620.86C1755.39,74,1567.77,95.55,1390.59,61.13c-150.84-29.31-298.54-98.2-451.18-80.48C839.32-7.73,745.73,40.8,645.19,47.54c-60.38,4.05-120.6-7.18-180.25-17.35C328.25,6.87,189.22-11.18,51.14,1.52Z" transform="translate(3 22.23)"/>
    <path class="cls-1" d="M133,0s28,72,238,67S735-5,850,20s156,185,504,162S1920,40,1920,40V575c0,14.89-153.41,46.93-170.67,50.37-63,12.54-128.48,18.74-192.38,9.77-61.65-8.66-113.65-32.62-160.57-73-54.64-47.07-114.7-88-178-122.55C1124.44,388.24,1006,335.44,896,350c-136,18-189-13-346-127S342,141,216,121,106,0,106,0Z" transform="translate(3 22.23)"/>
    <path class="cls-1" d="M1920,1080s-148-160-361-133-230-127-486-152S801,1041,627,947,572,825,515,493,236,331,105,302,0,174,0,174v906c.68,16.16,44.94,53.7,56.1,65.68,18.87,20.26,39.43,38.39,59.62,56.85,42.33,38.72,89.47,62,146.94,69.3,186.83,23.87,381.7-39.12,563.91-73.18,189.69-35.45,384.66-60.24,577.26-34.49a605.94,605.94,0,0,1,61.05,11.71c79.91,19.1,158.27,22.92,241.2,10.67C1785.27,1174.84,1870.33,1146.81,1920,1080Z" transform="translate(3 22.23)"/>
    <path class="cls-1" d="M.53,381.59c42.15-3.8,99.82,21,143.7,26.73a1029.78,1029.78,0,0,0,158.25,8.43c29.54-.71,60-2.56,87.76,7.47,52.86,19.08,82.83,77.6,86.6,133.68s-13.19,111.16-27.52,165.51S423.15,835.22,437,889.68c14.75,57.91,57.23,105.33,105.8,140.15,73.63,52.79,166.45,81.57,256.15,68.87,149.11-21.11,276.64-150.77,426.3-133.92,46.66,5.26,90.31,24.74,134.89,39.46a684,684,0,0,0,309.4,27.57c35.2-5,70.64-12.79,106-8.72,17.17,2,95.58,25,68.63,54.52-6.72,7.37-17.32,9.59-27.24,10.58-31.87,3.19-63.08,5.53-95.27,7a1008,1008,0,0,1-238.58-17.35c-83-16.15-165-42.87-249.55-43-121.84-.14-235.88,54.55-350.89,94.77-123,43-252.75,70.36-383,66.95-96.47-2.53-203.22-29-254.76-110.57C205.21,1023.3,208.13,943,221.06,869.9s34.55-146.17,27.71-220c-2-21.88-6.82-44.18-19.32-62.24-25.94-37.49-76.93-47-122.5-48-23.26-.5-47.3.54-68.36,10.41S0,580.58.32,603.84C-.58,531.11-6.81,453.84.53,381.59Z" transform="translate(3 22.23)"/>
    <path class="cls-1" d="M1920,1080" transform="translate(3 22.23)"/>
    </g>
    <g id="stars" class="cls-2">
      <circle class="cls-3" cx="262.5" cy="135.73" r="14.5"/>
      <circle class="cls-3" cx="168.5" cy="203.73" r="7.5"/>
      <circle class="cls-3" cx="450.5" cy="87.73" r="2.5"/>
      <circle class="cls-3" cx="305.5" cy="294.73" r="2.5"/>
      <circle class="cls-3" cx="65.5" cy="66.73" r="3.5"/>
      <circle class="cls-3" cx="92.5" cy="470.73" r="9.5"/>
      <path class="cls-3" d="M557,128h0Z" transform="translate(3 22.23)"/>
      <circle class="cls-3" cx="379" cy="549.23" r="13"/>
      <circle class="cls-3" cx="181" cy="686.23" r="5"/>
      <circle class="cls-3" cx="67" cy="683.23" r="2"/>
      <circle class="cls-3" cx="237" cy="508.23" r="3"/>
      <circle class="cls-3" cx="316" cy="890.23" r="13"/>
      <circle class="cls-3" cx="381.5" cy="688.73" r="2.5"/>
      <circle class="cls-3" cx="58" cy="881.23" r="4"/>
      <circle class="cls-3" cx="158" cy="1032.23" r="11"/>
      <path class="cls-3" d="M236,789h0Z" transform="translate(3 22.23)"/>   
      <circle class="cls-3" cx="440.5" cy="1001.73" r="12.5"/>
      <circle class="cls-3" cx="467" cy="737.23" r="5"/>
      <circle class="cls-3" cx="457" cy="831.23" r="4"/>
      <circle class="cls-3" cx="546.5" cy="464.73" r="3.5"/>
      <circle class="cls-3" cx="690.5" cy="951.73" r="8.5"/>
      <circle class="cls-3" cx="591.5" cy="1047.73" r="4.5"/>
      <circle class="cls-3" cx="872" cy="1045.23" r="2"/>
      <circle class="cls-3" cx="861.5" cy="896.73" r="6.5"/>
      <circle class="cls-3" cx="621.5" cy="844.73" r="2.5"/>
      <circle class="cls-3" cx="981" cy="799.23" r="8"/>
      <circle class="cls-3" cx="1105" cy="984.23" r="24"/>
      <circle class="cls-3" cx="1226" cy="843.23" r="1"/>
      <circle class="cls-3" cx="1133" cy="873.23" r="4"/>
      <circle class="cls-3" cx="1352.5" cy="1001.73" r="12.5"/>
      <circle class="cls-3" cx="1438" cy="809.23" r="2"/>
      <circle class="cls-3" cx="1549.5" cy="992.73" r="3.5"/>
      <circle class="cls-3" cx="1265.5" cy="1059.73" r="4.5"/>
      <circle class="cls-3" cx="1678" cy="1024.23" r="3"/>
      <circle class="cls-3" cx="1761.5" cy="893.73" r="3.5"/>
      <circle class="cls-3" cx="1855.5" cy="1047.73" r="4.5"/>
      <circle class="cls-3" cx="784.5" cy="60.73" r="2.5"/>
      <circle class="cls-3" cx="694.5" cy="267.73" r="4.5"/>
      <circle class="cls-3" cx="512" cy="259.23" r="4"/>
      <circle class="cls-3" cx="947.5" cy="62.73" r="4.5"/>
      <circle class="cls-3" cx="914.5" cy="304.73" r="12.5"/>
      <circle class="cls-3" cx="1139.5" cy="114.73" r="6.5"/> 
      <circle class="cls-3" cx="957" cy="182.23" r="5"/>
      <circle class="cls-3" cx="769.5" cy="170.73" r="6.5"/>
      <circle class="cls-3" cx="871" cy="447.23" r="3"/>
      <circle class="cls-3" cx="1464.5" cy="60.73" r="2.5"/>
      <circle class="cls-3" cx="1211.5" cy="199.73" r="3.5"/>
      <circle class="cls-3" cx="1181" cy="463.23" r="2"/>
      <circle class="cls-3" cx="1352.5" cy="624.73" r="12.5"/>
      <circle class="cls-3" cx="1676.5" cy="68.73" r="1.5"/>
      <circle class="cls-3" cx="1500.5" cy="191.73" r="4.5"/>
      <circle class="cls-3" cx="1296" cy="320.23" r="3"/>
      <circle class="cls-3" cx="1579" cy="519.23" r="11"/>
      <circle class="cls-3" cx="1560.5" cy="279.73" r="7.5"/>
      <circle class="cls-3" cx="1761" cy="131.23" r="10"/>
      <circle class="cls-3" cx="1858" cy="257.23" r="2"/>
      <circle class="cls-3" cx="1907" cy="47.23" r="5"/>
      <circle class="cls-3" cx="1881.5" cy="524.73" r="5.5"/> 
      <circle class="cls-3" cx="1797" cy="722.23" r="5"/>
      <circle class="cls-3" cx="1740.5" cy="396.73" r="4.5"/>
      <circle class="cls-3" cx="1378.5" cy="416.73" r="4.5"/>
      <circle class="cls-3" cx="1584" cy="676.23" r="5"/>
      <circle class="cls-3" cx="1754.5" cy="615.73" r="3.5"/>
    </g>
</svg>